<svg viewBox="0 0 14 14" width="14" height="14" aria-hidden="true"><path d="M7 1.3 C3.9 1.3 1.4 3.8 1.4 6.9 C1.4 9.4 3 11.5 5.3 12.2 C5.6 12.3 5.7 12.1 5.7 11.9 V11 C4.1 11.3 3.8 10.4 3.8 10.4 C3.6 9.8 3.2 9.7 3.2 9.7 C2.7 9.4 3.3 9.4 3.3 9.4 C3.8 9.5 4.1 10 4.1 10 C4.6 10.8 5.4 10.6 5.7 10.4 C5.8 10.1 5.9 9.8 6.1 9.7 C4.9 9.6 3.6 9.1 3.6 6.8 C3.6 6.1 3.8 5.6 4.1 5.2 C4.1 5 3.9 4.4 4.2 3.6 C4.2 3.6 4.7 3.5 5.7 4.2 C6.1 4.1 6.6 4 7 4 C7.4 4 7.9 4.1 8.3 4.2 C9.3 3.5 9.8 3.6 9.8 3.6 C10.1 4.4 9.9 5 9.9 5.2 C10.2 5.6 10.4 6.1 10.4 6.8 C10.4 9.1 9.1 9.6 7.9 9.7 C8.1 9.9 8.3 10.2 8.3 10.7 V11.9 C8.3 12.1 8.4 12.3 8.7 12.2 C11 11.5 12.6 9.4 12.6 6.9 C12.6 3.8 10.1 1.3 7 1.3 Z" fill="currentColor"/></svg>
