<svg viewBox="0 0 48 48" width="100%" height="100%">
  <defs>
  <linearGradient id="f-address-book-cover" x1="0" y1="0" x2="0" y2="1">
  <stop offset="0%" stop-color="#5E2750"/>
  <stop offset="100%" stop-color="#1F0518"/>
  </linearGradient>
  <linearGradient id="f-address-book-page" x1="0" y1="0" x2="0" y2="1">
  <stop offset="0%" stop-color="#FCFBF4"/>
  <stop offset="100%" stop-color="#E6DCC4"/>
  </linearGradient>
  </defs>
  <ellipse cx="24" cy="44" rx="13" ry=".8" fill="rgba(0,0,0,.35)"/>
  <path d="M5 8 H43 V42 H5 Z" fill="url(#f-address-book-cover)" stroke="#1A0512" stroke-width=".9" stroke-linejoin="round"/>
  <path d="M6 9 H42" stroke="rgba(255,247,228,.25)" stroke-width=".5"/>
  <path d="M8 11 H40 V40 H8 Z" fill="url(#f-address-book-page)" stroke="#5A3F08" stroke-width=".5"/>
  <path d="M24 11 V40" stroke="#C9B98E" stroke-width=".5"/>
  <g fill="#DD6E1C" stroke="#7A1F08" stroke-width=".3">
  <rect x="40" y="14" width="3.5" height="4" rx=".4"/>
  <rect x="40" y="21" width="3.5" height="4" rx=".4"/>
  <rect x="40" y="28" width="3.5" height="4" rx=".4"/>
  </g>
  <circle cx="15" cy="19" r="3.4" fill="#D89460" stroke="#5A2F0D" stroke-width=".4"/>
  <circle cx="15" cy="18" r="1.3" fill="#FBEED4"/>
  <path d="M11.5 24 C 11.5 21.5 13 20.8 15 20.8 C 17 20.8 18.5 21.5 18.5 24" fill="#FBEED4" stroke="#5A2F0D" stroke-width=".4"/>
  <line x1="27" y1="16" x2="38" y2="16" stroke="#3F2A0A" stroke-width="1"/>
  <line x1="27" y1="20" x2="36" y2="20" stroke="#9A8870" stroke-width=".6"/>
  <line x1="27" y1="23.5" x2="37" y2="23.5" stroke="#9A8870" stroke-width=".6"/>
  <line x1="11" y1="29" x2="38" y2="29" stroke="#9A8870" stroke-width=".5"/>
  <line x1="11" y1="32.5" x2="38" y2="32.5" stroke="#9A8870" stroke-width=".5"/>
  <line x1="11" y1="36" x2="33" y2="36" stroke="#9A8870" stroke-width=".5"/>
  </svg>
