<svg viewBox="0 0 48 48" width="100%" height="100%">
<defs>
<radialGradient id="f-arcade-joystick-base" cx="0.38" cy="0.3" r="0.85">
<stop offset="0" stop-color="#FBF1D8"/>
<stop offset="0.5" stop-color="#D4B575"/>
<stop offset="1" stop-color="#5A3F08"/>
</radialGradient>
<linearGradient id="f-arcade-joystick-side" x1="0" y1="0" x2="0" y2="1">
<stop offset="0" stop-color="#C9892D"/>
<stop offset="0.5" stop-color="#8A5A14"/>
<stop offset="1" stop-color="#3F2A0A"/>
</linearGradient>
<linearGradient id="f-arcade-joystick-shaft" x1="0" y1="0" x2="1" y2="0">
<stop offset="0" stop-color="#5A3F08"/>
<stop offset="0.3" stop-color="#F8E0A0"/>
<stop offset="0.55" stop-color="#D4B575"/>
<stop offset="1" stop-color="#5A3F08"/>
</linearGradient>
<radialGradient id="f-arcade-joystick-ball" cx="0.35" cy="0.32" r="0.75">
<stop offset="0" stop-color="#F89A6E"/>
<stop offset="0.4" stop-color="#E95420"/>
<stop offset="1" stop-color="#5A1A04"/>
</radialGradient>
<radialGradient id="f-arcade-joystick-btn" cx="0.35" cy="0.32" r="0.8">
<stop offset="0" stop-color="#FBE57E"/>
<stop offset="0.55" stop-color="#F8D670"/>
<stop offset="1" stop-color="#8A5A14"/>
</radialGradient>
</defs>
<ellipse cx="24" cy="44.5" rx="15" ry="1.6" fill="rgba(0,0,0,.4)"/>
<path d="M7 35 L41 35 L37 43 C 37 44.5 11 44.5 11 43 Z" fill="url(#f-arcade-joystick-side)" stroke="#3F2A0A" stroke-width="0.9" stroke-linejoin="round"/>
<ellipse cx="24" cy="35" rx="17" ry="6.5" fill="url(#f-arcade-joystick-base)" stroke="#3F2A0A" stroke-width="0.9"/>
<ellipse cx="24" cy="34.3" rx="14.5" ry="5" fill="none" stroke="rgba(255,255,255,.55)" stroke-width="0.7"/>
<ellipse cx="14" cy="36" rx="4.3" ry="2.6" fill="#3F2A0A"/>
<ellipse cx="14" cy="35" rx="4.3" ry="2.6" fill="url(#f-arcade-joystick-btn)" stroke="#5A3F08" stroke-width="0.7"/>
<ellipse cx="14" cy="34.4" rx="2.8" ry="1.4" fill="rgba(255,255,255,.45)"/>
<ellipse cx="34" cy="36" rx="4.3" ry="2.6" fill="#3F2A0A"/>
<ellipse cx="34" cy="35" rx="4.3" ry="2.6" fill="url(#f-arcade-joystick-btn)" stroke="#5A3F08" stroke-width="0.7"/>
<ellipse cx="34" cy="34.4" rx="2.8" ry="1.4" fill="rgba(255,255,255,.45)"/>
<ellipse cx="24" cy="32" rx="6" ry="2.6" fill="url(#f-arcade-joystick-side)" stroke="#3F2A0A" stroke-width="0.8"/>
<rect x="21.2" y="13" width="5.6" height="20" rx="2.8" fill="url(#f-arcade-joystick-shaft)" stroke="#3F2A0A" stroke-width="0.9"/>
<circle cx="24" cy="12" r="9" fill="url(#f-arcade-joystick-ball)" stroke="#5A1A04" stroke-width="1"/>
<ellipse cx="21" cy="8.5" rx="3.4" ry="2.4" fill="rgba(255,255,255,.5)"/>
<path d="M16 13 C 18 18 30 18 32 13" fill="none" stroke="rgba(122,31,8,.5)" stroke-width="0.7"/>
</svg>
