<svg viewBox="0 0 48 48" width="100%" height="100%">
  <defs>
  <linearGradient id="ai-aw-ribbon-l" x1="0" y1="0" x2="0" y2="1">
  <stop offset="0%" stop-color="#F8DA78"/>
  <stop offset="45%" stop-color="#E95420"/>
  <stop offset="100%" stop-color="#5A1A04"/>
  </linearGradient>
  <linearGradient id="ai-aw-ribbon-r" x1="0" y1="0" x2="0" y2="1">
  <stop offset="0%" stop-color="#F8DA78"/>
  <stop offset="45%" stop-color="#E95420"/>
  <stop offset="100%" stop-color="#5A1A04"/>
  </linearGradient>
  <linearGradient id="ai-aw-knot" x1="0" y1="0" x2="0" y2="1">
  <stop offset="0%" stop-color="#77216F"/>
  <stop offset="100%" stop-color="#1F0518"/>
  </linearGradient>
  <radialGradient id="ai-aw-disc" cx=".4" cy=".35" r=".8">
  <stop offset="0%" stop-color="#F8E0A0"/>
  <stop offset="55%" stop-color="#C9892D"/>
  <stop offset="100%" stop-color="#3F2A0A"/>
  </radialGradient>
  <linearGradient id="ai-aw-star" x1="0" y1="0" x2="0" y2="1">
  <stop offset="0%" stop-color="#FBF1D8"/>
  <stop offset="100%" stop-color="#A87815"/>
  </linearGradient>
  </defs>
  <ellipse cx="24" cy="44.5" rx="15" ry=".8" fill="rgba(0,0,0,.35)"/>
  <path d="M22 21 L26 21 L18 44 L15 41.5 L11 44 L17 21 Z" fill="url(#ai-aw-ribbon-l)" stroke="#5A1A04" stroke-width=".7" stroke-linejoin="round"/>
  <path d="M18 22 L13.5 40" stroke="rgba(255,247,228,.45)" stroke-width=".5" fill="none"/>
  <path d="M22 21 L26 21 L31 21 L37 44 L33 41.5 L30 44 Z" fill="url(#ai-aw-ribbon-r)" stroke="#5A1A04" stroke-width=".7" stroke-linejoin="round"/>
  <path d="M30 22 L34.5 40" stroke="rgba(255,247,228,.45)" stroke-width=".5" fill="none"/>
  <rect x="19" y="19" width="10" height="5" rx="1" fill="url(#ai-aw-knot)" stroke="#0A0008" stroke-width=".7"/>
  <rect x="19.5" y="19.3" width="9" height="1" fill="rgba(255,247,228,.35)"/>
  <line x1="19" y1="21.5" x2="29" y2="21.5" stroke="rgba(0,0,0,.4)" stroke-width=".5"/>
  <circle cx="24" cy="14" r="10" fill="url(#ai-aw-disc)" stroke="#3F2A0A" stroke-width=".9"/>
  <circle cx="24" cy="14" r="8.7" fill="none" stroke="rgba(255,247,228,.4)" stroke-width=".6"/>
  <circle cx="24" cy="14" r="7.6" fill="none" stroke="rgba(31,15,4,.4)" stroke-width=".4"/>
  <g fill="#3F2A0A">
  <rect x="23.7" y="3.6" width=".6" height="1.1" transform="rotate(0 24 14)"/>
  <rect x="23.7" y="3.6" width=".6" height="1.1" transform="rotate(45 24 14)"/>
  <rect x="23.7" y="3.6" width=".6" height="1.1" transform="rotate(90 24 14)"/>
  <rect x="23.7" y="3.6" width=".6" height="1.1" transform="rotate(135 24 14)"/>
  <rect x="23.7" y="3.6" width=".6" height="1.1" transform="rotate(180 24 14)"/>
  <rect x="23.7" y="3.6" width=".6" height="1.1" transform="rotate(225 24 14)"/>
  <rect x="23.7" y="3.6" width=".6" height="1.1" transform="rotate(270 24 14)"/>
  <rect x="23.7" y="3.6" width=".6" height="1.1" transform="rotate(315 24 14)"/>
  </g>
  <path d="M24 8.5 L25.55 12 L29.5 12.3 L26.45 14.85 L27.45 18.5 L24 16.5 L20.55 18.5 L21.55 14.85 L18.5 12.3 L22.45 12 Z" fill="url(#ai-aw-star)" stroke="#3F2A0A" stroke-width=".5" stroke-linejoin="round"/>
  <path d="M24 9 L25.3 12.1 L28.6 12.4" fill="none" stroke="rgba(255,255,255,.55)" stroke-width=".4"/>
  <path d="M15.5 9 A10 10 0 0 1 32.5 8.4" fill="none" stroke="rgba(255,255,255,.45)" stroke-width="1.2"/>
  </svg>
