<svg viewBox="0 0 48 48" width="100%" height="100%">
  <defs>
    <linearGradient id="f-barcode-frame" x1="0" y1="0" x2="0" y2="1">
      <stop offset="0%" stop-color="#FBF1D8"/>
      <stop offset="50%" stop-color="#D4B575"/>
      <stop offset="100%" stop-color="#5A3F08"/>
    </linearGradient>
    <linearGradient id="f-barcode-paper" x1="0" y1="0" x2="0" y2="1">
      <stop offset="0%" stop-color="#FCFBF4"/>
      <stop offset="100%" stop-color="#FBEED4"/>
    </linearGradient>
    <linearGradient id="f-barcode-laser" x1="0" y1="0" x2="0" y2="1">
      <stop offset="0%" stop-color="#7A1F08"/>
      <stop offset="35%" stop-color="#E95420"/>
      <stop offset="65%" stop-color="#DD4814"/>
      <stop offset="100%" stop-color="#5A1A04"/>
    </linearGradient>
    <linearGradient id="f-barcode-glow" x1="0" y1="0" x2="0" y2="1">
      <stop offset="0%" stop-color="rgba(233,84,32,0)"/>
      <stop offset="50%" stop-color="rgba(233,84,32,.45)"/>
      <stop offset="100%" stop-color="rgba(233,84,32,0)"/>
    </linearGradient>
    <clipPath id="f-barcode-clip">
      <rect x="6" y="7" width="36" height="34" rx="2.4"/>
    </clipPath>
  </defs>
  <ellipse cx="24" cy="44" rx="13" ry=".8" fill="rgba(0,0,0,.4)"/>
  <rect x="4.5" y="5.5" width="39" height="37" rx="3.6" fill="url(#f-barcode-frame)" stroke="#3F2A0A" stroke-width="1" stroke-linejoin="round"/>
  <rect x="6.2" y="6.6" width="35.6" height="1.8" rx=".9" fill="rgba(255,255,255,.65)"/>
  <rect x="6" y="7" width="36" height="34" rx="2.4" fill="url(#f-barcode-paper)" stroke="#5A3F08" stroke-width=".9" stroke-linejoin="round"/>
  <g clip-path="url(#f-barcode-clip)" fill="#1A0F04">
    <rect x="8.5" y="9.5" width="2.6" height="22"/>
    <rect x="12.3" y="9.5" width="1.3" height="22"/>
    <rect x="15" y="9.5" width="3.4" height="22"/>
    <rect x="19.6" y="9.5" width="1.3" height="22"/>
    <rect x="22" y="9.5" width="2.2" height="22"/>
    <rect x="25.5" y="9.5" width="1.3" height="22"/>
    <rect x="28" y="9.5" width="3.4" height="22"/>
    <rect x="32.6" y="9.5" width="1.3" height="22"/>
    <rect x="35" y="9.5" width="2.6" height="22"/>
    <rect x="38.8" y="9.5" width="1.3" height="22"/>
  </g>
  <g clip-path="url(#f-barcode-clip)" fill="#1A0F04">
    <rect x="9.2" y="34" width="1.1" height="3.2"/>
    <rect x="11.4" y="34" width="1.6" height="3.2"/>
    <rect x="14.1" y="34" width="1.1" height="3.2"/>
    <rect x="16.5" y="34" width="1.9" height="3.2"/>
    <rect x="19.6" y="34" width="1.1" height="3.2"/>
    <rect x="22" y="34" width="1.6" height="3.2"/>
    <rect x="25.2" y="34" width="1.1" height="3.2"/>
    <rect x="27.6" y="34" width="1.9" height="3.2"/>
    <rect x="30.8" y="34" width="1.1" height="3.2"/>
    <rect x="33.2" y="34" width="1.6" height="3.2"/>
    <rect x="36.4" y="34" width="1.1" height="3.2"/>
    <rect x="38.8" y="34" width="1.4" height="3.2"/>
  </g>
  <g clip-path="url(#f-barcode-clip)">
    <rect x="6" y="20.5" width="36" height="7" fill="url(#f-barcode-glow)"/>
    <rect x="5" y="22.8" width="38" height="2.4" rx="1.2" fill="url(#f-barcode-laser)" stroke="#5A1A04" stroke-width=".5"/>
    <rect x="5" y="23.1" width="38" height=".7" rx=".35" fill="rgba(255,247,228,.55)"/>
  </g>
  <circle cx="40.4" cy="24" r="1.5" fill="#F8D670" stroke="#5A3F08" stroke-width=".4"/>
  <circle cx="39.9" cy="23.5" r=".5" fill="rgba(255,255,255,.7)"/>
</svg>
