<svg viewBox="0 0 48 48" width="100%" height="100%">
<defs>
<radialGradient id="f-beach-parasol-canopy" cx=".4" cy=".18" r=".95">
<stop offset="0%" stop-color="#FFF8D0"/>
<stop offset="40%" stop-color="#F8D670"/>
<stop offset="78%" stop-color="#E6B23A"/>
<stop offset="100%" stop-color="#B07E18"/>
</radialGradient>
<linearGradient id="f-beach-parasol-gore" x1="0" y1="0" x2="0" y2="1">
<stop offset="0%" stop-color="#F8A060"/>
<stop offset="55%" stop-color="#E95420"/>
<stop offset="100%" stop-color="#5A1A04"/>
</linearGradient>
<linearGradient id="f-beach-parasol-pole" x1="0" y1="0" x2="1" y2="0">
<stop offset="0%" stop-color="#5A3F08"/>
<stop offset="24%" stop-color="#C9892D"/>
<stop offset="48%" stop-color="#FBF1D8"/>
<stop offset="72%" stop-color="#D4B575"/>
<stop offset="100%" stop-color="#5A3F08"/>
</linearGradient>
<radialGradient id="f-beach-parasol-finial" cx=".4" cy=".34" r=".8">
<stop offset="0%" stop-color="#FBF1D8"/>
<stop offset="55%" stop-color="#C9892D"/>
<stop offset="100%" stop-color="#5A3F08"/>
</radialGradient>
<radialGradient id="f-beach-parasol-hub" cx=".4" cy=".34" r=".85">
<stop offset="0%" stop-color="#F8A060"/>
<stop offset="55%" stop-color="#E95420"/>
<stop offset="100%" stop-color="#5A1A04"/>
</radialGradient>
</defs>
<ellipse cx="29" cy="45" rx="10" ry=".8" fill="rgba(0,0,0,.4)"/>
<path d="M19.5 12.5 L30.5 44.4" fill="none" stroke="#1F0F04" stroke-width="3.6" stroke-linecap="round"/>
<path d="M19.5 12.5 L30.5 44.4" fill="none" stroke="url(#f-beach-parasol-pole)" stroke-width="2.3" stroke-linecap="round"/>
<path d="M20.2 14 L29 39" fill="none" stroke="rgba(255,255,255,.55)" stroke-width=".6" stroke-linecap="round"/>
<path d="M29.4 41 L32.6 44.8 L30.2 45 Z" fill="url(#f-beach-parasol-finial)" stroke="#1F0F04" stroke-width=".8" stroke-linejoin="round"/>
<g transform="translate(19.5 12.5) rotate(-17)">
<path d="M-20.5 4
         C-17 -2 -9 -8.5 0 -8.5
         C9 -8.5 17 -2 20.5 4
         C13.5 2 7 1.1 0 1.1
         C-7 1.1 -13.5 2 -20.5 4 Z"
      fill="url(#f-beach-parasol-canopy)" stroke="#7A5A14" stroke-width="1.1" stroke-linejoin="round"/>
<path d="M-20.5 4 C-18 -0.8 -13.6 -5 -8.4 -7.2 C-11 -3.6 -13.4 -0.4 -14.6 2.6 C-16.6 2.9 -18.6 3.4 -20.5 4 Z"
      fill="url(#f-beach-parasol-gore)" stroke="#7A5A14" stroke-width=".6" stroke-linejoin="round"/>
<path d="M-8 -7.4 C-5.4 -8.1 -2.7 -8.5 0 -8.5 L0 1.1 C-2.9 1.1 -5.7 1.2 -8.4 1.4 C-8.6 -1.6 -8.5 -4.5 -8 -7.4 Z"
      fill="none" stroke="#7A5A14" stroke-width=".55"/>
<path d="M0 -8.5 C2.7 -8.5 5.4 -8.1 8 -7.4 C8.5 -4.5 8.6 -1.6 8.4 1.4 C5.7 1.2 2.9 1.1 0 1.1 Z"
      fill="url(#f-beach-parasol-gore)" stroke="#7A5A14" stroke-width=".6" stroke-linejoin="round"/>
<path d="M8.4 -7.2 C13.6 -5 18 -0.8 20.5 4 C18.6 3.4 16.6 2.9 14.6 2.6 C13.4 -0.4 11 -3.6 8.4 -7.2 Z"
      fill="none" stroke="#7A5A14" stroke-width=".55"/>
<path d="M-20.5 4
         C-18.8 7.2 -17.6 7.6 -15.6 4.4
         C-13.6 7.8 -12.5 7.8 -10.5 4.6
         C-8.5 8 -7.4 8 -5.4 4.8
         C-3.4 8.2 -2.3 8.2 -0.3 4.9
         L0 4.9 L0.3 4.9
         C2.3 8.2 3.4 8.2 5.4 4.8
         C7.4 8 8.5 8 10.5 4.6
         C12.5 7.8 13.6 7.8 15.6 4.4
         C17.6 7.6 18.8 7.2 20.5 4
         C13.5 2 7 1.1 0 1.1
         C-7 1.1 -13.5 2 -20.5 4 Z"
      fill="url(#f-beach-parasol-canopy)" stroke="#7A5A14" stroke-width="1" stroke-linejoin="round"/>
<path d="M-16 0 C-10.2 -4.6 -4.8 -6.4 0 -6.4 C4.8 -6.4 10.2 -4.6 16 0"
      fill="none" stroke="rgba(255,255,255,.65)" stroke-width="1" stroke-linecap="round"/>
<path d="M0 -7.2 L0 4.8" fill="none" stroke="rgba(122,90,20,.5)" stroke-width=".55"/>
<path d="M-10.4 -6 C-11.1 -2.4 -11.3 .7 -11.1 4.2" fill="none" stroke="rgba(122,90,20,.45)" stroke-width=".5"/>
<path d="M10.4 -6 C11.1 -2.4 11.3 .7 11.1 4.2" fill="none" stroke="rgba(122,90,20,.45)" stroke-width=".5"/>
<circle cx="0" cy="-8.7" r="2.1" fill="url(#f-beach-parasol-finial)" stroke="#1F0F04" stroke-width=".8"/>
<circle cx="-0.6" cy="-9.3" r=".7" fill="rgba(255,247,228,.9)"/>
</g>
<circle cx="19.5" cy="12.5" r="2" fill="url(#f-beach-parasol-hub)" stroke="#5A1A04" stroke-width=".7"/>
<circle cx="18.9" cy="11.9" r=".6" fill="rgba(255,247,228,.85)"/>
</svg>
