<svg viewBox="0 0 48 48" width="100%" height="100%">
  <defs>
    <linearGradient id="ic-page" x1="0" y1="0" x2="0" y2="1">
      <stop offset="0%"  stop-color="#FFFFFF"/>
      <stop offset="100%" stop-color="#D9D4CC"/>
    </linearGradient>
    <linearGradient id="ic-pencil" x1="0" y1="0" x2="0" y2="1">
      <stop offset="0%"  stop-color="#F8D55F"/>
      <stop offset="50%" stop-color="#E7A91A"/>
      <stop offset="100%" stop-color="#A3700F"/>
    </linearGradient>
  </defs>
  <path d="M8 4 H30 L40 14 V44 H8 Z" fill="url(#ic-page)" stroke="#6A6560" stroke-width=".7" stroke-linejoin="round"/>
  <path d="M30 4 V14 H40 L30 4 Z" fill="#E0DCD4" stroke="#6A6560" stroke-width=".7" stroke-linejoin="round"/>
  <path d="M30 4 V12 H38" fill="none" stroke="#fff" stroke-width=".5" opacity=".7"/>
  <line x1="12" y1="20" x2="35" y2="20" stroke="#7A7570" stroke-width=".9"/>
  <line x1="12" y1="24" x2="36" y2="24" stroke="#9A938D" stroke-width=".7"/>
  <line x1="12" y1="28" x2="36" y2="28" stroke="#9A938D" stroke-width=".7"/>
  <line x1="12" y1="32" x2="30" y2="32" stroke="#9A938D" stroke-width=".7"/>
  <g transform="rotate(-32 24 30)">
    <rect x="10" y="29" width="22" height="4" fill="url(#ic-pencil)" stroke="#5A3F08" stroke-width=".5"/>
    <rect x="32" y="29" width="3" height="4" fill="#B8B5B0" stroke="#3A3733" stroke-width=".4"/>
    <rect x="35" y="29" width="3" height="4" fill="#D85060" stroke="#7A2030" stroke-width=".4"/>
    <path d="M10 29 L4 31 L10 33 Z" fill="#F4DDB0" stroke="#5A3F08" stroke-width=".5"/>
    <path d="M4 31 L7 31 L4 32 Z" fill="#2A2A28"/>
    <line x1="11" y1="30.2" x2="34" y2="30.2" stroke="rgba(255,255,255,.6)" stroke-width=".4"/>
  </g>
</svg>
