<svg viewBox="0 0 48 48" width="100%" height="100%">
<defs>
<linearGradient id="f-bookcase-frame" x1="0" y1="0" x2="0" y2="1">
<stop offset="0" stop-color="#FBF1D8"/>
<stop offset="0.45" stop-color="#D4B575"/>
<stop offset="1" stop-color="#5A3F08"/>
</linearGradient>
<linearGradient id="f-bookcase-side" x1="0" y1="0" x2="1" y2="0">
<stop offset="0" stop-color="#FBF1D8"/>
<stop offset="0.5" stop-color="#C9892D"/>
<stop offset="1" stop-color="#5A3F08"/>
</linearGradient>
<radialGradient id="f-bookcase-back" cx="0.38" cy="0.35" r="0.8">
<stop offset="0" stop-color="#5E2750"/>
<stop offset="0.55" stop-color="#2C001E"/>
<stop offset="1" stop-color="#0A0008"/>
</radialGradient>
<linearGradient id="f-bookcase-b1" x1="0" y1="0" x2="0" y2="1">
<stop offset="0" stop-color="#F8763E"/>
<stop offset="0.5" stop-color="#E95420"/>
<stop offset="1" stop-color="#7A1F08"/>
</linearGradient>
<linearGradient id="f-bookcase-b2" x1="0" y1="0" x2="0" y2="1">
<stop offset="0" stop-color="#F8E0A0"/>
<stop offset="0.5" stop-color="#F8D670"/>
<stop offset="1" stop-color="#9A7012"/>
</linearGradient>
<linearGradient id="f-bookcase-b3" x1="0" y1="0" x2="0" y2="1">
<stop offset="0" stop-color="#9A4F86"/>
<stop offset="0.5" stop-color="#77216F"/>
<stop offset="1" stop-color="#2C001E"/>
</linearGradient>
<linearGradient id="f-bookcase-b4" x1="0" y1="0" x2="0" y2="1">
<stop offset="0" stop-color="#FCFBF4"/>
<stop offset="0.5" stop-color="#FBEED4"/>
<stop offset="1" stop-color="#B8A878"/>
</linearGradient>
</defs>
<ellipse cx="24" cy="45.4" rx="15" ry="1" fill="rgba(0,0,0,.4)"/>
<rect x="6" y="4" width="36" height="41" rx="3.5" fill="url(#f-bookcase-frame)" stroke="#3F2A0A" stroke-width="1" stroke-linejoin="round"/>
<rect x="7.2" y="5.2" width="33.6" height="2" rx="1" fill="rgba(255,255,255,.6)"/>
<rect x="9.5" y="8" width="29" height="32" rx="1.5" fill="url(#f-bookcase-back)" stroke="#1F0F04" stroke-width="0.8"/>
<rect x="8.5" y="39.4" width="31" height="3.6" rx="1" fill="url(#f-bookcase-side)" stroke="#3F2A0A" stroke-width="0.8" stroke-linejoin="round"/>
<rect x="9" y="39.8" width="30" height="0.9" rx="0.4" fill="rgba(255,255,255,.6)"/>
<rect x="8.5" y="22.6" width="31" height="3.6" rx="1" fill="url(#f-bookcase-side)" stroke="#3F2A0A" stroke-width="0.8" stroke-linejoin="round"/>
<rect x="9" y="23" width="30" height="0.9" rx="0.4" fill="rgba(255,255,255,.6)"/>
<rect x="11.5" y="9.5" width="5.2" height="12.6" rx="1" fill="url(#f-bookcase-b1)" stroke="#5A1A04" stroke-width="0.8" stroke-linejoin="round"/>
<rect x="17" y="11" width="5.2" height="11.1" rx="1" fill="url(#f-bookcase-b2)" stroke="#9A7012" stroke-width="0.8" stroke-linejoin="round"/>
<rect x="22.5" y="9.5" width="5.2" height="12.6" rx="1" fill="url(#f-bookcase-b3)" stroke="#1A0512" stroke-width="0.8" stroke-linejoin="round"/>
<rect x="28" y="12" width="5.2" height="10.1" rx="1" fill="url(#f-bookcase-b4)" stroke="#5A3F08" stroke-width="0.8" stroke-linejoin="round"/>
<rect x="11.5" y="26.5" width="5.2" height="12.6" rx="1" fill="url(#f-bookcase-b3)" stroke="#1A0512" stroke-width="0.8" stroke-linejoin="round"/>
<rect x="17" y="28" width="5.2" height="11.1" rx="1" fill="url(#f-bookcase-b4)" stroke="#5A3F08" stroke-width="0.8" stroke-linejoin="round"/>
<rect x="22.5" y="26.5" width="5.2" height="12.6" rx="1" fill="url(#f-bookcase-b1)" stroke="#5A1A04" stroke-width="0.8" stroke-linejoin="round"/>
<rect x="28" y="29" width="5.2" height="10.1" rx="1" fill="url(#f-bookcase-b2)" stroke="#9A7012" stroke-width="0.8" stroke-linejoin="round"/>
<rect x="33.6" y="10.5" width="2.4" height="11.6" rx="0.8" fill="url(#f-bookcase-b3)" stroke="#1A0512" stroke-width="0.7" stroke-linejoin="round"/>
<rect x="33.6" y="27.5" width="2.4" height="11.6" rx="0.8" fill="url(#f-bookcase-b1)" stroke="#5A1A04" stroke-width="0.7" stroke-linejoin="round"/>
<circle cx="14.1" cy="12.6" r="0.9" fill="#FBE57E"/>
<circle cx="25.1" cy="29.6" r="0.9" fill="#FBE57E"/>
<rect x="7.2" y="5.6" width="1.4" height="38" rx="0.7" fill="rgba(255,255,255,.4)"/>
</svg>
