<svg viewBox="0 0 48 48" width="100%" height="100%">
  <defs>
  <linearGradient id="ai-bk-1" x1="0" y1="0" x2="0" y2="1">
  <stop offset="0%" stop-color="#E95420"/>
  <stop offset="100%" stop-color="#7A1F08"/>
  </linearGradient>
  <linearGradient id="ai-bk-2" x1="0" y1="0" x2="0" y2="1">
  <stop offset="0%" stop-color="#5E2750"/>
  <stop offset="100%" stop-color="#1F0518"/>
  </linearGradient>
  <linearGradient id="ai-bk-3" x1="0" y1="0" x2="0" y2="1">
  <stop offset="0%" stop-color="#F8D670"/>
  <stop offset="100%" stop-color="#8A6018"/>
  </linearGradient>
  </defs>
  <ellipse cx="24" cy="44" rx="18" ry=".7" fill="rgba(0,0,0,.35)"/>
  <rect x="6" y="6" width="8" height="36" rx=".6" fill="url(#ai-bk-1)" stroke="#3F1A04" stroke-width=".8"/>
  <rect x="6" y="6" width="8" height="1.2" fill="rgba(255,255,255,.5)"/>
  <rect x="6" y="13" width="8" height="3" fill="#F8D670" stroke="#5A3F08" stroke-width=".3"/>
  <line x1="7" y1="14.5" x2="13" y2="14.5" stroke="#3F2A0A" stroke-width=".4"/>
  <g stroke="#3F1A04" stroke-width=".4">
  <line x1="6" y1="20" x2="14" y2="20"/>
  <line x1="6" y1="22" x2="14" y2="22"/>
  </g>
  <g transform="rotate(-4 18 42)">
  <rect x="15" y="9" width="8" height="33" rx=".6" fill="url(#ai-bk-2)" stroke="#0A0008" stroke-width=".8"/>
  <rect x="15" y="9" width="8" height="1.2" fill="rgba(255,247,228,.35)"/>
  <rect x="15" y="15" width="8" height="2.5" fill="#C9892D" stroke="#5A3F08" stroke-width=".3"/>
  <g stroke="#0A0008" stroke-width=".4">
  <line x1="15" y1="22" x2="23" y2="22"/>
  <line x1="15" y1="24" x2="23" y2="24"/>
  </g>
  </g>
  <rect x="24" y="11" width="8" height="31" rx=".6" fill="url(#ai-bk-3)" stroke="#5A3F08" stroke-width=".8"/>
  <rect x="24" y="11" width="8" height="1.2" fill="rgba(255,255,255,.6)"/>
  <rect x="24" y="17" width="8" height="3" fill="#DD4814" stroke="#5A1A04" stroke-width=".3"/>
  <g stroke="#7A5818" stroke-width=".4">
  <line x1="24" y1="24" x2="32" y2="24"/>
  <line x1="24" y1="26" x2="32" y2="26"/>
  </g>
  <rect x="33" y="35" width="10" height="7" rx=".4" fill="#3D0B2C" stroke="#0A0008" stroke-width=".7"/>
  <rect x="33" y="35" width="10" height="1" fill="rgba(255,247,228,.3)"/>
  <line x1="33" y1="37.5" x2="43" y2="37.5" stroke="#F8D670" stroke-width=".5"/>
  <line x1="33" y1="40" x2="43" y2="40" stroke="rgba(255,247,228,.25)" stroke-width=".3"/>
  <rect x="3" y="42" width="42" height="2" fill="#3F2A0A" stroke="#1A0F04" stroke-width=".4"/>
  <rect x="3" y="42" width="42" height=".5" fill="rgba(255,247,228,.4)"/>
  </svg>
