<svg viewBox="0 0 48 48" width="100%" height="100%">
  <defs>
  <linearGradient id="ai-bc-body" x1="0" y1="0" x2="0" y2="1">
  <stop offset="0%" stop-color="#C9892D"/>
  <stop offset="100%" stop-color="#4A2F08"/>
  </linearGradient>
  <linearGradient id="ai-bc-clasp" x1="0" y1="0" x2="0" y2="1">
  <stop offset="0%" stop-color="#F8D670"/>
  <stop offset="100%" stop-color="#7A4810"/>
  </linearGradient>
  </defs>
  <ellipse cx="24" cy="43.5" rx="18" ry=".8" fill="rgba(0,0,0,.35)"/>
  <path d="M18 9 C 18 4 30 4 30 9" fill="none" stroke="#3F2A0A" stroke-width="2.6" stroke-linecap="round"/>
  <path d="M19 8 C 19 5 29 5 29 8" fill="none" stroke="rgba(255,247,228,.45)" stroke-width=".5"/>
  <rect x="16" y="8" width="4" height="3" rx=".4" fill="url(#ai-bc-clasp)" stroke="#3F2A0A" stroke-width=".4"/>
  <rect x="28" y="8" width="4" height="3" rx=".4" fill="url(#ai-bc-clasp)" stroke="#3F2A0A" stroke-width=".4"/>
  <rect x="4" y="11" width="40" height="30" rx="2.5" fill="url(#ai-bc-body)" stroke="#1F0F04" stroke-width=".9"/>
  <path d="M5 12 H43" stroke="rgba(255,247,228,.55)" stroke-width=".5"/>
  <path d="M5 13 V40" stroke="rgba(255,247,228,.35)" stroke-width=".4"/>
  <rect x="6" y="13" width="36" height="26" rx="1.5" fill="none" stroke="#F8D670" stroke-width=".4" stroke-dasharray="1.2 .8"/>
  <line x1="4" y1="20" x2="44" y2="20" stroke="#1F0F04" stroke-width=".8"/>
  <line x1="4" y1="20.6" x2="44" y2="20.6" stroke="rgba(255,247,228,.35)" stroke-width=".3"/>
  <g>
  <rect x="13" y="17" width="6" height="5" rx=".5" fill="url(#ai-bc-clasp)" stroke="#3F2A0A" stroke-width=".5"/>
  <rect x="13" y="17" width="6" height="1" fill="rgba(255,255,255,.55)"/>
  <rect x="15" y="19" width="2" height="2" fill="#3F2A0A"/>
  <rect x="29" y="17" width="6" height="5" rx=".5" fill="url(#ai-bc-clasp)" stroke="#3F2A0A" stroke-width=".5"/>
  <rect x="29" y="17" width="6" height="1" fill="rgba(255,255,255,.55)"/>
  <rect x="31" y="19" width="2" height="2" fill="#3F2A0A"/>
  </g>
  <path d="M4 38 Q 4 41 7 41 L 7 38 Z" fill="#3F2A0A"/>
  <path d="M44 38 Q 44 41 41 41 L 41 38 Z" fill="#3F2A0A"/>
  <line x1="33" y1="25" x2="33" y2="28" stroke="#3F2A0A" stroke-width=".4"/>
  <rect x="31" y="28" width="8" height="5" rx=".3" fill="#FCFBF4" stroke="#3F2A0A" stroke-width=".4"/>
  <line x1="32.5" y1="30" x2="37.5" y2="30" stroke="#3F2A0A" stroke-width=".4"/>
  <line x1="32.5" y1="31.6" x2="36" y2="31.6" stroke="#9A8870" stroke-width=".4"/>
  </svg>
