<svg viewBox="0 0 48 48" width="100%" height="100%">
  <defs>
  <linearGradient id="f-browser-window-bezel" x1="0" y1="0" x2="0" y2="1">
  <stop offset="0%" stop-color="#FBF1D8"/>
  <stop offset="55%" stop-color="#C9892D"/>
  <stop offset="100%" stop-color="#5A3F08"/>
  </linearGradient>
  <linearGradient id="f-browser-window-bar" x1="0" y1="0" x2="0" y2="1">
  <stop offset="0%" stop-color="#E95420"/>
  <stop offset="100%" stop-color="#7A1F08"/>
  </linearGradient>
  <linearGradient id="f-browser-window-page" x1="0" y1="0" x2="0" y2="1">
  <stop offset="0%" stop-color="#3D0B2C"/>
  <stop offset="100%" stop-color="#1A0512"/>
  </linearGradient>
  </defs>
  <rect x="4" y="6" width="40" height="36" rx="3.5" fill="url(#f-browser-window-bezel)" stroke="#3F2A0A" stroke-width=".9"/>
  <path d="M6 7.5 H42" stroke="rgba(255,255,255,.65)" stroke-width=".7"/>
  <rect x="7" y="9.5" width="34" height="29.5" rx="1.5" fill="url(#f-browser-window-page)" stroke="#0A0306" stroke-width=".6"/>
  <rect x="7" y="9.5" width="34" height="7" rx="1.5" fill="url(#f-browser-window-bar)" stroke="#5A1A04" stroke-width=".4"/>
  <rect x="7.5" y="10.2" width="33" height=".9" fill="rgba(255,255,255,.4)"/>
  <circle cx="10.5" cy="13" r="1.1" fill="#FBF1D8" stroke="#5A1A04" stroke-width=".3"/>
  <circle cx="14" cy="13" r="1.1" fill="#F8D670" stroke="#5A1A04" stroke-width=".3"/>
  <rect x="17" y="11.4" width="21" height="3.2" rx="1.6" fill="#FCFBF4" stroke="#5A1A04" stroke-width=".3"/>
  <path d="M19 13 H30" stroke="#5A3F08" stroke-width=".7" stroke-linecap="round"/>
  <path d="M12 22 H36" stroke="rgba(255,247,228,.5)" stroke-width="1"/>
  <path d="M12 26.5 H32" stroke="rgba(255,247,228,.3)" stroke-width=".8"/>
  <path d="M12 30 H34" stroke="rgba(255,247,228,.3)" stroke-width=".8"/>
  <path d="M12 33.5 H28" stroke="rgba(255,247,228,.3)" stroke-width=".8"/>
  <rect x="12" y="20" width="9" height="1.4" rx=".7" fill="#E95420"/>
  </svg>
