<svg viewBox="0 0 48 48" width="100%" height="100%">
  <defs>
  <linearGradient id="f-bulletin-board-board" x1="0" y1="0" x2="0" y2="1">
  <stop offset="0%" stop-color="#FBF1D8"/>
  <stop offset="55%" stop-color="#C9892D"/>
  <stop offset="100%" stop-color="#5A3F08"/>
  </linearGradient>
  <linearGradient id="f-bulletin-board-cork" x1="0" y1="0" x2="0" y2="1">
  <stop offset="0%" stop-color="#5E2750"/>
  <stop offset="100%" stop-color="#1F0518"/>
  </linearGradient>
  <linearGradient id="f-bulletin-board-note" x1="0" y1="0" x2="0" y2="1">
  <stop offset="0%" stop-color="#FCFBF4"/>
  <stop offset="100%" stop-color="#D9D0B8"/>
  </linearGradient>
  </defs>
  <rect x="5" y="5" width="38" height="38" rx="3" fill="url(#f-bulletin-board-board)" stroke="#3F2A0A" stroke-width=".9"/>
  <path d="M7 7 H41" stroke="rgba(255,255,255,.65)" stroke-width=".6"/>
  <rect x="8" y="8" width="32" height="32" rx="1.2" fill="url(#f-bulletin-board-cork)" stroke="#0A0008" stroke-width=".6"/>
  <g stroke="#3F2A0A" stroke-width=".5">
  <rect x="11" y="12" width="12" height="11" rx=".6" fill="url(#f-bulletin-board-note)" transform="rotate(-4 17 17)"/>
  <rect x="26" y="13" width="11" height="10" rx=".6" fill="url(#f-bulletin-board-note)" transform="rotate(3 31 18)"/>
  <rect x="12" y="26" width="11" height="11" rx=".6" fill="url(#f-bulletin-board-note)" transform="rotate(2 17 31)"/>
  <rect x="26" y="26" width="11" height="11" rx=".6" fill="url(#f-bulletin-board-note)" transform="rotate(-3 31 31)"/>
  </g>
  <g transform="rotate(-4 17 17)" stroke="#9A8870" stroke-width=".4">
  <line x1="13" y1="17" x2="21" y2="17"/>
  <line x1="13" y1="19.5" x2="19" y2="19.5"/>
  </g>
  <path d="M13.5 31 L16 33.8 L21 28" transform="rotate(2 17 31)" fill="none" stroke="#DD4814" stroke-width="1.6" stroke-linecap="round" stroke-linejoin="round"/>
  <circle cx="17" cy="13" r="1.3" fill="#DD4814" stroke="#5A1A04" stroke-width=".4"/>
  <circle cx="31" cy="14" r="1.3" fill="#F8D670" stroke="#5A1A04" stroke-width=".4"/>
  <circle cx="31" cy="27" r="1.3" fill="#F8D670" stroke="#5A1A04" stroke-width=".4"/>
  </svg>
