<svg viewBox="0 0 48 48" width="100%" height="100%">
  <defs>
  <linearGradient id="ai-calc-body" x1="0" y1="0" x2="0" y2="1">
  <stop offset="0%" stop-color="#FBF1D8"/>
  <stop offset="55%" stop-color="#D4B575"/>
  <stop offset="100%" stop-color="#6A4A12"/>
  </linearGradient>
  <linearGradient id="ai-calc-lcd" x1="0" y1="0" x2="0" y2="1">
  <stop offset="0%" stop-color="#3D2A0A"/>
  <stop offset="100%" stop-color="#1F1505"/>
  </linearGradient>
  </defs>
  <rect x="8" y="3" width="32" height="42" rx="3.5" fill="url(#ai-calc-body)" stroke="#3F2A0A" stroke-width=".8"/>
  <path d="M10 4.5 H38" stroke="rgba(255,255,255,.7)" stroke-width=".7"/>
  <rect x="11" y="8" width="26" height="10" rx="1" fill="url(#ai-calc-lcd)" stroke="#1A0F04" stroke-width=".6"/>
  <path d="M11.5 8.5 H36.5" stroke="rgba(0,0,0,.5)" stroke-width=".5"/>
  <text x="34" y="16" text-anchor="end" font-family="Ubuntu Mono, monospace" font-weight="700" font-size="7.5" fill="#F8D55F">3.14</text>
  <g>
  <g>
  <rect x="10.5" y="20.5" width="5.5" height="5" rx="1" fill="#3A2410" stroke="#1A0F04" stroke-width=".5"/>
  <rect x="11" y="20.8" width="4.5" height="1.6" fill="rgba(255,200,120,.18)"/>
  </g>
  <g>
  <rect x="17" y="20.5" width="5.5" height="5" rx="1" fill="#3A2410" stroke="#1A0F04" stroke-width=".5"/>
  <rect x="17.5" y="20.8" width="4.5" height="1.6" fill="rgba(255,200,120,.18)"/>
  </g>
  <g>
  <rect x="23.5" y="20.5" width="5.5" height="5" rx="1" fill="#3A2410" stroke="#1A0F04" stroke-width=".5"/>
  <rect x="24" y="20.8" width="4.5" height="1.6" fill="rgba(255,200,120,.18)"/>
  </g>
  <g>
  <rect x="10.5" y="26.5" width="5.5" height="5" rx="1" fill="#3A2410" stroke="#1A0F04" stroke-width=".5"/>
  <rect x="11" y="26.8" width="4.5" height="1.6" fill="rgba(255,200,120,.18)"/>
  </g>
  <g>
  <rect x="17" y="26.5" width="5.5" height="5" rx="1" fill="#3A2410" stroke="#1A0F04" stroke-width=".5"/>
  <rect x="17.5" y="26.8" width="4.5" height="1.6" fill="rgba(255,200,120,.18)"/>
  </g>
  <g>
  <rect x="23.5" y="26.5" width="5.5" height="5" rx="1" fill="#3A2410" stroke="#1A0F04" stroke-width=".5"/>
  <rect x="24" y="26.8" width="4.5" height="1.6" fill="rgba(255,200,120,.18)"/>
  </g>
  <g>
  <rect x="10.5" y="32.5" width="5.5" height="5" rx="1" fill="#3A2410" stroke="#1A0F04" stroke-width=".5"/>
  <rect x="11" y="32.8" width="4.5" height="1.6" fill="rgba(255,200,120,.18)"/>
  </g>
  <g>
  <rect x="17" y="32.5" width="5.5" height="5" rx="1" fill="#3A2410" stroke="#1A0F04" stroke-width=".5"/>
  <rect x="17.5" y="32.8" width="4.5" height="1.6" fill="rgba(255,200,120,.18)"/>
  </g>
  <g>
  <rect x="23.5" y="32.5" width="5.5" height="5" rx="1" fill="#3A2410" stroke="#1A0F04" stroke-width=".5"/>
  <rect x="24" y="32.8" width="4.5" height="1.6" fill="rgba(255,200,120,.18)"/>
  </g>
  <g>
  <rect x="10.5" y="38.5" width="5.5" height="5" rx="1" fill="#3A2410" stroke="#1A0F04" stroke-width=".5"/>
  <rect x="11" y="38.8" width="4.5" height="1.6" fill="rgba(255,200,120,.18)"/>
  </g>
  <g>
  <rect x="17" y="38.5" width="5.5" height="5" rx="1" fill="#3A2410" stroke="#1A0F04" stroke-width=".5"/>
  <rect x="17.5" y="38.8" width="4.5" height="1.6" fill="rgba(255,200,120,.18)"/>
  </g>
  <g>
  <rect x="23.5" y="38.5" width="5.5" height="5" rx="1" fill="#3A2410" stroke="#1A0F04" stroke-width=".5"/>
  <rect x="24" y="38.8" width="4.5" height="1.6" fill="rgba(255,200,120,.18)"/>
  </g>
  </g>
  <g>
  <g>
  <rect x="31" y="20.5" width="5.5" height="5" rx="1" fill="#DD4814" stroke="#5A1A04" stroke-width=".5"/>
  <rect x="31.5" y="20.8" width="4.5" height="1.6" fill="rgba(255,255,255,.32)"/>
  </g>
  <g>
  <rect x="31" y="26.5" width="5.5" height="5" rx="1" fill="#DD4814" stroke="#5A1A04" stroke-width=".5"/>
  <rect x="31.5" y="26.8" width="4.5" height="1.6" fill="rgba(255,255,255,.32)"/>
  </g>
  <g>
  <rect x="31" y="32.5" width="5.5" height="5" rx="1" fill="#DD4814" stroke="#5A1A04" stroke-width=".5"/>
  <rect x="31.5" y="32.8" width="4.5" height="1.6" fill="rgba(255,255,255,.32)"/>
  </g>
  <g>
  <rect x="31" y="38.5" width="5.5" height="5" rx="1" fill="#DD4814" stroke="#5A1A04" stroke-width=".5"/>
  <rect x="31.5" y="38.8" width="4.5" height="1.6" fill="rgba(255,255,255,.32)"/>
  </g>
  </g>
  </svg>
