<svg viewBox="0 0 48 48" width="100%" height="100%">
  <defs>
  <linearGradient id="ai-cam-body" x1="0" y1="0" x2="0" y2="1">
  <stop offset="0%" stop-color="#FBF1D8"/>
  <stop offset="55%" stop-color="#D4B575"/>
  <stop offset="100%" stop-color="#6A4A12"/>
  </linearGradient>
  <radialGradient id="ai-cam-glass" cx=".38" cy=".35" r=".7">
  <stop offset="0%" stop-color="#77216F"/>
  <stop offset="55%" stop-color="#2C001E"/>
  <stop offset="100%" stop-color="#0A0008"/>
  </radialGradient>
  </defs>
  <path d="M17 9 H31 Q32 9 32 10 V13.5 H16 V10 Q16 9 17 9 Z" fill="url(#ai-cam-body)" stroke="#3F2A0A" stroke-width=".7" stroke-linejoin="round"/>
  <rect x="4" y="12.5" width="40" height="28.5" rx="3" fill="url(#ai-cam-body)" stroke="#3F2A0A" stroke-width=".9"/>
  <path d="M5 13.5 H43" stroke="rgba(255,255,255,.7)" stroke-width=".7"/>
  <circle cx="24" cy="27" r="9" fill="#C9892D" stroke="#3F2A0A" stroke-width=".9"/>
  <circle cx="24" cy="27" r="8" fill="none" stroke="rgba(255,247,228,.45)" stroke-width=".5"/>
  <circle cx="24" cy="27" r="7" fill="#1A0F04" stroke="#0A0604" stroke-width=".5"/>
  <circle cx="24" cy="27" r="5.5" fill="url(#ai-cam-glass)" stroke="#0A0008" stroke-width=".5"/>
  <ellipse cx="21.5" cy="25" rx="2.2" ry="1.4" fill="rgba(255,247,228,.4)" transform="rotate(-30 21.5 25)"/>
  <circle cx="21" cy="24.5" r=".7" fill="rgba(255,247,228,.75)"/>
  <rect x="21.5" y="10.6" width="5" height="1.4" rx=".3" fill="#2A1F12"/>
  <circle cx="38" cy="16.5" r="1.8" fill="#DD4814" stroke="#5A1A04" stroke-width=".5"/>
  <circle cx="37.6" cy="16.1" r=".6" fill="rgba(255,247,228,.55)"/>
  <rect x="8" y="15.5" width="5" height="2.5" rx=".4" fill="#F8D670" stroke="#5A3F08" stroke-width=".4"/>
  <rect x="4" y="36" width="40" height="2.4" fill="#DD4814"/>
  <rect x="4" y="36" width="40" height=".6" fill="rgba(255,247,228,.45)"/>
  </svg>
