<svg viewBox="0 0 48 48" width="100%" height="100%">
<defs>
<linearGradient id="f-candle-body" x1="0" y1="0" x2="1" y2="0">
<stop offset="0%" stop-color="#5E2750"/>
<stop offset="32%" stop-color="#77216F"/>
<stop offset="52%" stop-color="#3D0B2C"/>
<stop offset="78%" stop-color="#2C001E"/>
<stop offset="100%" stop-color="#1A0512"/>
</linearGradient>
<linearGradient id="f-candle-cap" x1="0" y1="0" x2="1" y2="0">
<stop offset="0%" stop-color="#F8E0A0"/>
<stop offset="40%" stop-color="#D4B575"/>
<stop offset="60%" stop-color="#C9892D"/>
<stop offset="100%" stop-color="#5A3F08"/>
</linearGradient>
<linearGradient id="f-candle-grip" x1="0" y1="0" x2="1" y2="0">
<stop offset="0%" stop-color="#F8763E"/>
<stop offset="45%" stop-color="#E95420"/>
<stop offset="100%" stop-color="#5A1A04"/>
</linearGradient>
<radialGradient id="f-candle-flame" cx=".5" cy=".72" r=".6">
<stop offset="0%" stop-color="#FFFFFF"/>
<stop offset="24%" stop-color="#FCFBF4"/>
<stop offset="48%" stop-color="#F8D670"/>
<stop offset="80%" stop-color="#E95420"/>
<stop offset="100%" stop-color="#DD4814" stop-opacity="0"/>
</radialGradient>
<radialGradient id="f-candle-glow" cx=".5" cy=".5" r=".5">
<stop offset="0%" stop-color="#F8D670" stop-opacity=".66"/>
<stop offset="58%" stop-color="#E95420" stop-opacity=".24"/>
<stop offset="100%" stop-color="#E95420" stop-opacity="0"/>
</radialGradient>
</defs>
<ellipse cx="24" cy="44" rx="10.5" ry=".8" fill="rgba(0,0,0,.4)"/>
<ellipse cx="24" cy="13" rx="17" ry="15" fill="url(#f-candle-glow)"/>
<path d="M24 3 C29 7 30.4 11.6 26.4 16 C31.4 14.6 33.6 10.4 31 6 C35.6 9 36 14.6 31.6 19 C28 22.6 20 22.6 16.4 19 C12 14.6 16 7.5 24 3 Z" fill="url(#f-candle-flame)" stroke="#DD4814" stroke-width=".4" stroke-linejoin="round" opacity=".97"/>
<path d="M24 6 C27.4 9 28 12.4 25 15.8 C28 14.6 29.2 11.6 27.4 8.8 C30.8 11 30.4 15 27 17.8 C24.2 20 19.8 20 17.2 17.2 C14.4 14.2 16.6 9.2 24 6 Z" fill="url(#f-candle-flame)"/>
<circle cx="22.6" cy="9.2" r="1.8" fill="#FFFFFF"/>
<rect x="20.9" y="16.6" width="6.2" height="9.4" rx="1.4" fill="url(#f-candle-cap)" stroke="#3F2A0A" stroke-width=".9" stroke-linejoin="round"/>
<path d="M22.7 17.3 V25.3" stroke="rgba(255,255,255,.62)" stroke-width=".7" stroke-linecap="round"/>
<rect x="19.9" y="24" width="8.2" height="20.4" rx="2.6" fill="url(#f-candle-body)" stroke="#0A0306" stroke-width="1" stroke-linejoin="round"/>
<path d="M22 24.8 V43.6" stroke="rgba(255,255,255,.34)" stroke-width="1" stroke-linecap="round"/>
<rect x="20.2" y="31.6" width="7.6" height="7" rx="1.2" fill="url(#f-candle-grip)" stroke="#5A1A04" stroke-width=".8" stroke-linejoin="round"/>
<path d="M21.8 32.4 V37.6" stroke="rgba(255,247,228,.55)" stroke-width=".6" stroke-linecap="round"/>
<path d="M20.8 33.5 H27.2" stroke="rgba(0,0,0,.42)" stroke-width=".7"/>
<path d="M20.8 35.2 H27.2" stroke="rgba(0,0,0,.42)" stroke-width=".7"/>
<path d="M20.8 36.9 H27.2" stroke="rgba(0,0,0,.42)" stroke-width=".7"/>
<circle cx="34" cy="9" r="1" fill="#F8D670"/>
<circle cx="31" cy="5" r=".7" fill="#FCFBF4"/>
<circle cx="14" cy="9.5" r=".8" fill="#F8D670"/>
<circle cx="16" cy="5.5" r=".55" fill="#FCFBF4"/>
<circle cx="35" cy="15" r=".6" fill="#E95420"/>
</svg>
