<svg viewBox="0 0 48 48" width="100%" height="100%">
<defs>
<linearGradient id="f-car-stereo-face" x1="0" y1="0" x2="0" y2="1">
<stop offset="0" stop-color="#FBF1D8"/>
<stop offset="0.16" stop-color="#F8E0A0"/>
<stop offset="0.5" stop-color="#D4B575"/>
<stop offset="0.82" stop-color="#C9892D"/>
<stop offset="1" stop-color="#5A3F08"/>
</linearGradient>
<linearGradient id="f-car-stereo-side" x1="0" y1="0" x2="1" y2="0">
<stop offset="0" stop-color="#6A4A12"/>
<stop offset="0.5" stop-color="#C9892D"/>
<stop offset="1" stop-color="#3F2A0A"/>
</linearGradient>
<linearGradient id="f-car-stereo-display" x1="0" y1="0" x2="0" y2="1">
<stop offset="0" stop-color="#3D0B2C"/>
<stop offset="0.55" stop-color="#2C001E"/>
<stop offset="1" stop-color="#0A0008"/>
</linearGradient>
<radialGradient id="f-car-stereo-knob" cx="0.38" cy="0.34" r="0.78">
<stop offset="0" stop-color="#FBF1D8"/>
<stop offset="0.5" stop-color="#C9892D"/>
<stop offset="1" stop-color="#3F2A0A"/>
</radialGradient>
<radialGradient id="f-car-stereo-power" cx="0.38" cy="0.32" r="0.75">
<stop offset="0" stop-color="#F09A5A"/>
<stop offset="0.55" stop-color="#E95420"/>
<stop offset="1" stop-color="#5A1A04"/>
</radialGradient>
</defs>
<ellipse cx="24" cy="44.6" rx="18" ry="0.9" fill="rgba(0,0,0,.4)"/>
<rect x="3.5" y="8" width="41" height="32" rx="3.6" fill="url(#f-car-stereo-side)" stroke="#3F2A0A" stroke-width="1"/>
<rect x="4.8" y="8" width="38.4" height="32" rx="3" fill="url(#f-car-stereo-face)" stroke="#3F2A0A" stroke-width="1"/>
<rect x="6.4" y="9.4" width="35.2" height="2.1" rx="1.05" fill="rgba(255,255,255,.65)"/>
<rect x="9" y="11.4" width="30" height="11.4" rx="1.8" fill="url(#f-car-stereo-display)" stroke="#1A0512" stroke-width="1"/>
<rect x="9.9" y="12.1" width="28.2" height="1.1" rx="0.55" fill="rgba(255,247,228,.28)"/>
<g fill="#F8D670">
<rect x="11.6" y="14.4" width="6.6" height="2.7" rx="0.5"/>
<rect x="19" y="14.4" width="3.4" height="2.7" rx="0.5"/>
</g>
<g fill="#E95420">
<rect x="11.6" y="18.6" width="2" height="2.6" rx="0.4"/>
<rect x="14.2" y="18" width="2" height="3.2" rx="0.4"/>
<rect x="16.8" y="17.2" width="2" height="4" rx="0.4"/>
<rect x="19.4" y="18.6" width="2" height="2.6" rx="0.4"/>
<rect x="22" y="18" width="2" height="3.2" rx="0.4"/>
</g>
<g fill="#5E2750">
<rect x="24.6" y="19" width="2" height="2.2" rx="0.4"/>
<rect x="27.2" y="19" width="2" height="2.2" rx="0.4"/>
<rect x="29.8" y="19" width="2" height="2.2" rx="0.4"/>
</g>
<g fill="#F8D670">
<rect x="27.4" y="14.4" width="2.6" height="2.7" rx="0.45"/>
<rect x="30.8" y="14.4" width="2.6" height="2.7" rx="0.45"/>
<rect x="34.6" y="14.4" width="2.6" height="2.7" rx="0.45"/>
<rect x="33.4" y="16" width="0.9" height="0.9" rx="0.3"/>
</g>
<g fill="url(#f-car-stereo-face)" stroke="#3F2A0A" stroke-width="0.6">
<rect x="9" y="25.6" width="4.6" height="3" rx="1"/>
<rect x="14.6" y="25.6" width="4.6" height="3" rx="1"/>
<rect x="20.2" y="25.6" width="4.6" height="3" rx="1"/>
<rect x="25.8" y="25.6" width="4.6" height="3" rx="1"/>
<rect x="31.4" y="25.6" width="4.6" height="3" rx="1"/>
</g>
<g fill="rgba(255,255,255,.55)">
<rect x="9.5" y="26" width="3.6" height="0.7" rx="0.35"/>
<rect x="15.1" y="26" width="3.6" height="0.7" rx="0.35"/>
<rect x="20.7" y="26" width="3.6" height="0.7" rx="0.35"/>
<rect x="26.3" y="26" width="3.6" height="0.7" rx="0.35"/>
<rect x="31.9" y="26" width="3.6" height="0.7" rx="0.35"/>
</g>
<circle cx="11.4" cy="34.4" r="4.4" fill="url(#f-car-stereo-knob)" stroke="#3F2A0A" stroke-width="1"/>
<circle cx="11.4" cy="34.4" r="2.5" fill="none" stroke="#5A3F08" stroke-width="0.7"/>
<line x1="11.4" y1="34.4" x2="11.4" y2="31" stroke="#3F2A0A" stroke-width="1.1" stroke-linecap="round"/>
<circle cx="9.9" cy="32.9" r="1.1" fill="rgba(255,247,228,.6)"/>
<circle cx="36.6" cy="34.4" r="4.4" fill="url(#f-car-stereo-knob)" stroke="#3F2A0A" stroke-width="1"/>
<circle cx="36.6" cy="34.4" r="2.5" fill="none" stroke="#5A3F08" stroke-width="0.7"/>
<line x1="36.6" y1="34.4" x2="36.6" y2="31" stroke="#3F2A0A" stroke-width="1.1" stroke-linecap="round"/>
<circle cx="35.1" cy="32.9" r="1.1" fill="rgba(255,247,228,.6)"/>
<circle cx="24" cy="34.4" r="3" fill="url(#f-car-stereo-power)" stroke="#5A1A04" stroke-width="1.1"/>
<circle cx="22.9" cy="33.3" r="0.9" fill="rgba(255,247,228,.55)"/>
<circle cx="18.6" cy="33.6" r="0.85" fill="#F8D670" stroke="#5A3F08" stroke-width="0.3"/>
<circle cx="29.4" cy="33.6" r="0.85" fill="#3D0B2C" stroke="#1A0512" stroke-width="0.3"/>
</svg>
