<svg viewBox="0 0 48 48" width="100%" height="100%">
  <defs>
    <linearGradient id="f-card-catalog-cabinet" x1="0" y1="0" x2="0" y2="1"><stop offset="0%" stop-color="#FBF1D8"/><stop offset="55%" stop-color="#D4B575"/><stop offset="100%" stop-color="#6A4A12"/></linearGradient>
    <linearGradient id="f-card-catalog-drawer" x1="0" y1="0" x2="0" y2="1"><stop offset="0%" stop-color="#F8E0A0"/><stop offset="50%" stop-color="#C9892D"/><stop offset="100%" stop-color="#5A3F08"/></linearGradient>
    <linearGradient id="f-card-catalog-well" x1="0" y1="0" x2="0" y2="1"><stop offset="0%" stop-color="#1A0512"/><stop offset="100%" stop-color="#3D0B2C"/></linearGradient>
    <linearGradient id="f-card-catalog-card" x1="0" y1="0" x2="0" y2="1"><stop offset="0%" stop-color="#FFFFFF"/><stop offset="100%" stop-color="#D9D0B8"/></linearGradient>
    <radialGradient id="f-card-catalog-knob" cx=".38" cy=".35" r=".75"><stop offset="0%" stop-color="#FBF1D8"/><stop offset="55%" stop-color="#C9892D"/><stop offset="100%" stop-color="#5A3F08"/></radialGradient>
  </defs>
  <ellipse cx="24" cy="45" rx="17" ry="1" fill="rgba(0,0,0,.4)"/>
  <rect x="5" y="6" width="38" height="37" rx="3" fill="url(#f-card-catalog-cabinet)" stroke="#3F2A0A" stroke-width=".9"/>
  <path d="M7 8 H41" stroke="rgba(255,255,255,.65)" stroke-width=".6"/>
  <rect x="8" y="9" width="32" height="9" rx="2" fill="url(#f-card-catalog-drawer)" stroke="#3F2A0A" stroke-width=".7"/>
  <path d="M9.5 10.5 H38.5" stroke="rgba(255,247,228,.5)" stroke-width=".5"/>
  <rect x="20.5" y="13" width="7" height="2.4" rx="1.2" fill="url(#f-card-catalog-knob)" stroke="#3F2A0A" stroke-width=".5"/>
  <rect x="8" y="20" width="32" height="20" rx="2" fill="url(#f-card-catalog-well)" stroke="#0A0306" stroke-width=".7"/>
  <g stroke="#3F2A0A" stroke-width=".4" stroke-linejoin="round">
    <rect x="11" y="23" width="22" height="13" rx="1" fill="url(#f-card-catalog-card)"/>
    <rect x="13.2" y="23.6" width="22" height="13" rx="1" fill="url(#f-card-catalog-card)"/>
    <rect x="15.4" y="24.2" width="22" height="13" rx="1" fill="#FCFBF4"/>
  </g>
  <rect x="22" y="22.4" width="9" height="2.6" rx=".6" fill="#F8D670" stroke="#5A1A04" stroke-width=".3"/>
  <path d="M17.5 28 H33.5 M17.5 30.4 H31 M17.5 32.8 H33" stroke="#5E2750" stroke-width=".4" stroke-linecap="round"/>
  <path d="M18 26 L19.5 27.4 L22.5 24.4" fill="none" stroke="#E95420" stroke-width="1" stroke-linecap="round" stroke-linejoin="round"/>
  <rect x="6" y="38" width="36" height="6" rx="2" fill="url(#f-card-catalog-drawer)" stroke="#3F2A0A" stroke-width=".9"/>
  <path d="M7.5 39.4 H40.5" stroke="rgba(255,247,228,.55)" stroke-width=".5"/>
  <rect x="16" y="40.2" width="16" height="2.4" rx="1.2" fill="url(#f-card-catalog-knob)" stroke="#3F2A0A" stroke-width=".5"/>
  <rect x="9" y="40" width="4" height="2.6" rx=".6" fill="#FBEED4" stroke="#5A3F08" stroke-width=".35"/>
</svg>
