<svg viewBox="0 0 48 48" width="100%" height="100%">
<defs>
<linearGradient id="f-cd-player-body" x1="0" y1="0" x2="0" y2="1">
<stop offset="0" stop-color="#FBF1D8"/>
<stop offset="0.16" stop-color="#F8E0A0"/>
<stop offset="0.52" stop-color="#D4B575"/>
<stop offset="0.84" stop-color="#C9892D"/>
<stop offset="1" stop-color="#6A4A12"/>
</linearGradient>
<radialGradient id="f-cd-player-lid" cx="0.38" cy="0.34" r="0.74">
<stop offset="0" stop-color="#77216F"/>
<stop offset="0.42" stop-color="#3D0B2C"/>
<stop offset="0.78" stop-color="#2C001E"/>
<stop offset="1" stop-color="#0A0008"/>
</radialGradient>
<radialGradient id="f-cd-player-hub" cx="0.4" cy="0.38" r="0.7">
<stop offset="0" stop-color="#F8E0A0"/>
<stop offset="0.6" stop-color="#C9892D"/>
<stop offset="1" stop-color="#5A3F08"/>
</radialGradient>
<linearGradient id="f-cd-player-jack" x1="0" y1="0" x2="0" y2="1">
<stop offset="0" stop-color="#F8E0A0"/>
<stop offset="0.5" stop-color="#C9892D"/>
<stop offset="1" stop-color="#3F2A0A"/>
</linearGradient>
</defs>
<ellipse cx="24" cy="45" rx="15" ry="1" fill="rgba(0,0,0,.4)"/>
<rect x="3" y="16" width="6.5" height="8" rx="2" fill="url(#f-cd-player-jack)" stroke="#3F2A0A" stroke-width="0.8" stroke-linejoin="round"/>
<rect x="3" y="18.6" width="3.6" height="2.6" rx="1.2" fill="#1A0512"/>
<rect x="3.6" y="19.2" width="1.4" height="1.4" rx="0.7" fill="rgba(255,247,228,.4)"/>
<rect x="4.5" y="13" width="39" height="29" rx="6" fill="url(#f-cd-player-body)" stroke="#3F2A0A" stroke-width="1" stroke-linejoin="round"/>
<rect x="5.7" y="14.2" width="36.6" height="3" rx="2" fill="rgba(255,255,255,.6)"/>
<circle cx="19" cy="25.5" r="12.4" fill="#5A3F08"/>
<circle cx="19" cy="25.5" r="11.8" fill="url(#f-cd-player-lid)" stroke="#1A0512" stroke-width="0.8"/>
<path d="M10.5 20 A11.8 11.8 0 0 1 26 16.4" fill="none" stroke="rgba(255,247,228,.4)" stroke-width="1.1" stroke-linecap="round"/>
<circle cx="19" cy="25.5" r="3.6" fill="url(#f-cd-player-hub)" stroke="#3F2A0A" stroke-width="0.7"/>
<circle cx="19" cy="25.5" r="1.2" fill="#2C001E"/>
<circle cx="37.5" cy="21" r="4.8" fill="#5A1A04"/>
<circle cx="37.5" cy="21" r="4" fill="#E95420" stroke="#7A1F08" stroke-width="0.7"/>
<path d="M35.7 18.5 L40.2 21 L35.7 23.5 Z" fill="#FBE57E" stroke="#5A1A04" stroke-width="0.4" stroke-linejoin="round"/>
<rect x="33" y="29" width="8" height="3.2" rx="1.6" fill="#3D0B2C" stroke="#1A0512" stroke-width="0.6"/>
<rect x="33" y="34.5" width="8" height="3.2" rx="1.6" fill="#3D0B2C" stroke="#1A0512" stroke-width="0.6"/>
<circle cx="36" cy="30.6" r="0.85" fill="#F8D670"/>
<circle cx="36" cy="36.1" r="0.85" fill="#F8D670"/>
</svg>
