<svg viewBox="0 0 48 48" width="100%" height="100%">
  <defs>
  <linearGradient id="ai-cdr-sleeve" x1="0" y1="0" x2="0" y2="1">
  <stop offset="0%" stop-color="#F4E0AC"/>
  <stop offset="100%" stop-color="#8A6018"/>
  </linearGradient>
  <radialGradient id="ai-cdr-disc" cx=".5" cy=".5" r=".5">
  <stop offset="0%" stop-color="#1A0F04"/>
  <stop offset="18%" stop-color="#1A0F04"/>
  <stop offset="22%" stop-color="#FBF1D8"/>
  <stop offset="32%" stop-color="#F8D670"/>
  <stop offset="55%" stop-color="#E95420"/>
  <stop offset="80%" stop-color="#77216F"/>
  <stop offset="100%" stop-color="#3D0B2C"/>
  </radialGradient>
  </defs>
  <g transform="translate(8 24)">
  <circle r="14" fill="url(#ai-cdr-disc)" stroke="#0A0008" stroke-width=".7"/>
  <circle r="3.6" fill="#FCFBF4" stroke="#5A3F08" stroke-width=".4"/>
  <circle r="1.4" fill="#1A0F04"/>
  <path d="M-10 -8 A14 14 0 0 1 8 -11" stroke="rgba(255,255,255,.45)" stroke-width="1" fill="none"/>
  <path d="M-10 8 A14 14 0 0 0 8 11" stroke="rgba(255,255,255,.18)" stroke-width=".6" fill="none"/>
  </g>
  <path d="M14 6 H44 V42 H14 Z" fill="url(#ai-cdr-sleeve)" stroke="#3F2A0A" stroke-width=".9" stroke-linejoin="round"/>
  <path d="M15 7 H43" stroke="rgba(255,255,255,.5)" stroke-width=".5"/>
  <circle cx="29" cy="24" r="11" fill="none" stroke="#3F2A0A" stroke-width=".7"/>
  <circle cx="29" cy="24" r="10.5" fill="none" stroke="rgba(63,42,10,.3)" stroke-dasharray="2 1.5" stroke-width=".4"/>
  <rect x="17" y="9" width="24" height="5" fill="#DD4814" stroke="#5A1A04" stroke-width=".4"/>
  <rect x="17" y="9" width="24" height="1" fill="rgba(255,255,255,.45)"/>
  <line x1="19" y1="12" x2="38" y2="12" stroke="#FBF1D8" stroke-width=".7"/>
  <line x1="19" y1="12.7" x2="33" y2="12.7" stroke="#FBF1D8" stroke-width=".5"/>
  <g stroke="#3F2A0A" stroke-width=".4">
  <line x1="18" y1="38" x2="18" y2="41"/>
  <line x1="19" y1="38" x2="19" y2="41"/>
  <line x1="20.5" y1="38" x2="20.5" y2="41"/>
  <line x1="22" y1="38" x2="22" y2="41"/>
  <line x1="23" y1="38" x2="23" y2="41"/>
  <line x1="24.5" y1="38" x2="24.5" y2="41"/>
  <line x1="26" y1="38" x2="26" y2="41"/>
  <line x1="27" y1="38" x2="27" y2="41"/>
  <line x1="28.5" y1="38" x2="28.5" y2="41"/>
  <line x1="30" y1="38" x2="30" y2="41"/>
  <line x1="31" y1="38" x2="31" y2="41"/>
  <line x1="32.5" y1="38" x2="32.5" y2="41"/>
  <line x1="34" y1="38" x2="34" y2="41"/>
  <line x1="35" y1="38" x2="35" y2="41"/>
  <line x1="36.5" y1="38" x2="36.5" y2="41"/>
  <line x1="38" y1="38" x2="38" y2="41"/>
  <line x1="39" y1="38" x2="39" y2="41"/>
  <line x1="40.5" y1="38" x2="40.5" y2="41"/>
  </g>
  </svg>
