<svg viewBox="0 0 48 48" width="100%" height="100%">
<defs>
<linearGradient id="f-certificate-paper" x1="0" y1="0" x2="0" y2="1">
<stop offset="0" stop-color="#FCFBF4"/>
<stop offset="0.55" stop-color="#FBEED4"/>
<stop offset="1" stop-color="#E9D7A8"/>
</linearGradient>
<linearGradient id="f-certificate-edge" x1="0" y1="0" x2="0" y2="1">
<stop offset="0" stop-color="#F8E0A0"/>
<stop offset="0.5" stop-color="#C9892D"/>
<stop offset="1" stop-color="#5A3F08"/>
</linearGradient>
<linearGradient id="f-certificate-ribbonL" x1="0" y1="0" x2="0" y2="1">
<stop offset="0" stop-color="#E95420"/>
<stop offset="1" stop-color="#7A1F08"/>
</linearGradient>
<linearGradient id="f-certificate-ribbonR" x1="0" y1="0" x2="0" y2="1">
<stop offset="0" stop-color="#DD4814"/>
<stop offset="1" stop-color="#5A1A04"/>
</linearGradient>
<radialGradient id="f-certificate-seal" cx="0.38" cy="0.35" r="0.75">
<stop offset="0" stop-color="#F98060"/>
<stop offset="0.45" stop-color="#E95420"/>
<stop offset="1" stop-color="#5A1A04"/>
</radialGradient>
</defs>
<ellipse cx="24" cy="45" rx="13" ry="1" fill="rgba(0,0,0,.4)"/>
<rect x="9.5" y="4.5" width="29" height="39" rx="2.4" fill="#5A3F08"/>
<rect x="8.5" y="3.5" width="29" height="39" rx="2.4" fill="url(#f-certificate-edge)" stroke="#3F2A0A" stroke-width="0.9" stroke-linejoin="round"/>
<rect x="10.2" y="5.2" width="25.6" height="35.6" rx="1.4" fill="url(#f-certificate-paper)" stroke="#C9892D" stroke-width="0.7" stroke-linejoin="round"/>
<rect x="10.2" y="5.2" width="25.6" height="2" rx="1.2" fill="rgba(255,255,255,.65)"/>
<rect x="13.5" y="9" width="19" height="2.2" rx="1.1" fill="#77216F"/>
<rect x="15" y="13.4" width="16" height="1.5" rx="0.75" fill="#5E2750"/>
<rect x="15" y="16.6" width="16" height="1.5" rx="0.75" fill="#5E2750"/>
<rect x="15" y="19.8" width="11" height="1.5" rx="0.75" fill="#5E2750"/>
<g>
<path d="M20 30 L20 44 L24 40 L28 44 L28 30 Z" fill="url(#f-certificate-ribbonL)" stroke="#5A1A04" stroke-width="0.8" stroke-linejoin="round"/>
<path d="M24 30 L24 40 L28 44 L28 30 Z" fill="url(#f-certificate-ribbonR)" opacity="0.5"/>
</g>
<circle cx="24" cy="29.5" r="6.8" fill="#7A1F08"/>
<circle cx="24" cy="28.8" r="6.6" fill="url(#f-certificate-seal)" stroke="#5A1A04" stroke-width="0.8"/>
<path d="M24 24.2 L25.2 27 L28.2 27.2 L25.9 29.2 L26.7 32.1 L24 30.5 L21.3 32.1 L22.1 29.2 L19.8 27.2 L22.8 27 Z" fill="#F8D670" stroke="#5A1A04" stroke-width="0.6" stroke-linejoin="round"/>
<ellipse cx="21.8" cy="26.2" rx="2.2" ry="1.4" fill="rgba(255,247,228,.4)"/>
</svg>
