<svg viewBox="0 0 48 48" width="100%" height="100%">
<defs>
<linearGradient id="f-chalkboard-frame" x1="0" y1="0" x2="0" y2="1">
<stop offset="0" stop-color="#FBF1D8"/>
<stop offset=".18" stop-color="#F8D670"/>
<stop offset=".55" stop-color="#C9892D"/>
<stop offset="1" stop-color="#5A3F08"/>
</linearGradient>
<linearGradient id="f-chalkboard-frame2" x1="0" y1="0" x2="0" y2="1">
<stop offset="0" stop-color="#F8E0A0"/>
<stop offset=".5" stop-color="#C9892D"/>
<stop offset="1" stop-color="#3F2A0A"/>
</linearGradient>
<radialGradient id="f-chalkboard-board" cx=".38" cy=".32" r=".85">
<stop offset="0" stop-color="#3D0B2C"/>
<stop offset=".5" stop-color="#2C001E"/>
<stop offset="1" stop-color="#0A0008"/>
</radialGradient>
<linearGradient id="f-chalkboard-rail" x1="0" y1="0" x2="0" y2="1">
<stop offset="0" stop-color="#F8E0A0"/>
<stop offset=".4" stop-color="#D4B575"/>
<stop offset="1" stop-color="#6A4A12"/>
</linearGradient>
<linearGradient id="f-chalkboard-chalk" x1="0" y1="0" x2="0" y2="1">
<stop offset="0" stop-color="#FCFBF4"/>
<stop offset="1" stop-color="#D4B575"/>
</linearGradient>
</defs>
<ellipse cx="24" cy="45" rx="13" ry=".9" fill="rgba(0,0,0,.4)"/>
<rect x="4" y="3" width="40" height="34" rx="4" fill="url(#f-chalkboard-frame)" stroke="#3F2A0A" stroke-width="1"/>
<rect x="5" y="4" width="38" height="3" rx="2" fill="rgba(255,255,255,.6)"/>
<rect x="7" y="6.5" width="34" height="28" rx="2" fill="url(#f-chalkboard-frame2)" stroke="#3F2A0A" stroke-width=".8"/>
<rect x="8.5" y="8" width="31" height="25" rx="1.5" fill="url(#f-chalkboard-board)" stroke="#1A0F04" stroke-width="1"/>
<rect x="12.5" y="12.5" width="23" height="2.6" rx="1.3" fill="#E95420"/>
<rect x="12.5" y="18.5" width="19" height="2.1" rx="1" fill="rgba(255,247,228,.55)"/>
<rect x="12.5" y="23.5" width="21" height="2.1" rx="1" fill="rgba(255,247,228,.45)"/>
<rect x="12.5" y="28.5" width="12" height="2.1" rx="1" fill="rgba(255,247,228,.45)"/>
<rect x="3" y="37" width="42" height="7" rx="3" fill="url(#f-chalkboard-rail)" stroke="#3F2A0A" stroke-width="1"/>
<rect x="4" y="37.7" width="40" height="1.6" rx=".8" fill="rgba(255,255,255,.6)"/>
<g transform="rotate(-8 24 40.5)">
<rect x="15" y="38.4" width="18" height="4" rx="2" fill="url(#f-chalkboard-chalk)" stroke="#5A3F08" stroke-width=".9"/>
<rect x="16" y="39" width="15" height="1.1" rx=".5" fill="rgba(255,255,255,.7)"/>
<rect x="31.5" y="38.8" width="1.8" height="3.2" rx=".9" fill="#F8D670"/>
</g>
</svg>
