<svg viewBox="0 0 48 48" width="100%" height="100%">
  <defs>
  <linearGradient id="ai-chat-cream" x1="0" y1="0" x2="0" y2="1">
  <stop offset="0%" stop-color="#FBF1D8"/>
  <stop offset="100%" stop-color="#A87815"/>
  </linearGradient>
  </defs>
  <path d="M4 7 H30 Q33 7 33 10 V21 Q33 24 30 24 H22 L18 28 V24 H7 Q4 24 4 21 Z" fill="url(#ai-chat-cream)" stroke="#5A3F08" stroke-width=".8" stroke-linejoin="round"/>
  <path d="M5 8 H32" stroke="rgba(255,255,255,.5)" stroke-width=".5"/>
  <g stroke="#7A5818" stroke-width=".6">
  <line x1="8" y1="13" x2="28" y2="13"/>
  <line x1="8" y1="17" x2="24" y2="17"/>
  </g>
  <path d="M18 22 H42 Q45 22 45 25 V36 Q45 39 42 39 L28 39 L24 43 V39 H18 Q15 39 15 36 V25 Q15 22 18 22 Z" fill="#DD4814" stroke="#5A1A04" stroke-width=".8" stroke-linejoin="round"/>
  <path d="M16 23 H42" stroke="rgba(255,255,255,.45)" stroke-width=".5"/>
  <g stroke="rgba(255,255,255,.65)" stroke-width=".7">
  <line x1="20" y1="28" x2="40" y2="28"/>
  <line x1="20" y1="32" x2="36" y2="32"/>
  </g>
  </svg>
