<svg viewBox="0 0 48 48" width="100%" height="100%">
  <defs>
  <linearGradient id="f-chat-bubble-bubble" x1="0" y1="0" x2="0" y2="1">
  <stop offset="0%" stop-color="#FBF1D8"/>
  <stop offset="55%" stop-color="#C9892D"/>
  <stop offset="100%" stop-color="#5A3F08"/>
  </linearGradient>
  <linearGradient id="f-chat-bubble-screen" x1="0" y1="0" x2="0" y2="1">
  <stop offset="0%" stop-color="#3D0B2C"/>
  <stop offset="100%" stop-color="#1A0512"/>
  </linearGradient>
  </defs>
  <ellipse cx="24" cy="44" rx="13" ry=".8" fill="rgba(0,0,0,.4)"/>
  <path d="M5 6 H43 Q45 6 45 8 V32 Q45 34 43 34 H22 L13 42 V34 H5 Q3 34 3 32 V8 Q3 6 5 6 Z" fill="url(#f-chat-bubble-bubble)" stroke="#3F2A0A" stroke-width=".9" stroke-linejoin="round"/>
  <path d="M5 7.4 H43" stroke="rgba(255,255,255,.7)" stroke-width=".7"/>
  <rect x="7" y="10" width="34" height="20" rx="2" fill="url(#f-chat-bubble-screen)" stroke="#0A0306" stroke-width=".6"/>
  <path d="M7.6 11 H40.4" stroke="rgba(255,247,228,.22)" stroke-width=".5"/>
  <circle cx="15" cy="20" r="2.1" fill="#DD4814" stroke="#5A1A04" stroke-width=".4"/>
  <circle cx="24" cy="20" r="2.1" fill="#F8D670" stroke="#5A3F08" stroke-width=".4"/>
  <circle cx="33" cy="20" r="2.1" fill="#DD4814" stroke="#5A1A04" stroke-width=".4"/>
  <circle cx="14.4" cy="19.4" r=".55" fill="rgba(255,247,228,.55)"/>
</svg>
