<svg viewBox="0 0 48 48" width="100%" height="100%">
  <defs>
  <linearGradient id="f-checklist-note" x1="0" y1="0" x2="0" y2="1">
  <stop offset="0%" stop-color="#5E2750"/>
  <stop offset="100%" stop-color="#1F0518"/>
  </linearGradient>
  <linearGradient id="f-checklist-flag" x1="0" y1="0" x2="0" y2="1">
  <stop offset="0%" stop-color="#F8D670"/>
  <stop offset="100%" stop-color="#8A6018"/>
  </linearGradient>
  </defs>
  <ellipse cx="24" cy="44" rx="13" ry=".8" fill="rgba(0,0,0,.4)"/>
  <rect x="7" y="6" width="34" height="38" rx="2.5" fill="url(#f-checklist-note)" stroke="#0A0008" stroke-width=".9"/>
  <rect x="8" y="7" width="32" height=".9" fill="rgba(255,247,228,.18)"/>
  <rect x="13" y="9" width="22" height="2.4" rx=".6" fill="#DD4814"/>
  <g>
  <rect x="11" y="16" width="5" height="5" rx=".8" fill="#F8D670" stroke="#3F2A0A" stroke-width=".4"/>
  <path d="M12 18.5 L13.4 20 L15 16.8" stroke="#1A0512" stroke-width="1" fill="none" stroke-linecap="round" stroke-linejoin="round"/>
  <line x1="19" y1="18.5" x2="36" y2="18.5" stroke="rgba(255,247,228,.5)" stroke-width="1"/>
  </g>
  <g>
  <rect x="11" y="24" width="5" height="5" rx=".8" fill="#F8D670" stroke="#3F2A0A" stroke-width=".4"/>
  <path d="M12 26.5 L13.4 28 L15 24.8" stroke="#1A0512" stroke-width="1" fill="none" stroke-linecap="round" stroke-linejoin="round"/>
  <line x1="19" y1="26.5" x2="33" y2="26.5" stroke="rgba(255,247,228,.5)" stroke-width="1"/>
  </g>
  <g>
  <rect x="11" y="32" width="5" height="5" rx=".8" fill="none" stroke="rgba(255,247,228,.45)" stroke-width=".7"/>
  <line x1="19" y1="34.5" x2="35" y2="34.5" stroke="rgba(255,247,228,.3)" stroke-width="1"/>
  </g>
  <g transform="translate(33 31)">
  <line x1="0" y1="-2" x2="0" y2="12" stroke="#3F2A0A" stroke-width="1"/>
  <path d="M0 -1 H8 L6 2 L8 5 H0 Z" fill="url(#f-checklist-flag)" stroke="#3F2A0A" stroke-width=".5" stroke-linejoin="round"/>
  </g>
  </svg>
