<svg viewBox="0 0 48 48" width="100%" height="100%">
  <defs>
    <linearGradient id="f-cheque-check" x1="0" y1="0" x2="0" y2="1">
      <stop offset="0%" stop-color="#FCFBF4"/>
      <stop offset="100%" stop-color="#EFE6CC"/>
    </linearGradient>
    <linearGradient id="f-cheque-band" x1="0" y1="0" x2="0" y2="1">
      <stop offset="0%" stop-color="#E95420"/>
      <stop offset="100%" stop-color="#7A1F08"/>
    </linearGradient>
    <radialGradient id="f-cheque-pen" cx=".35" cy=".3" r=".9">
      <stop offset="0%" stop-color="#77216F"/>
      <stop offset="55%" stop-color="#2C001E"/>
      <stop offset="100%" stop-color="#0A0008"/>
    </radialGradient>
    <linearGradient id="f-cheque-brass" x1="0" y1="0" x2="0" y2="1">
      <stop offset="0%" stop-color="#FBF1D8"/>
      <stop offset="50%" stop-color="#D4B575"/>
      <stop offset="100%" stop-color="#5A3F08"/>
    </linearGradient>
  </defs>
  <ellipse cx="24" cy="44" rx="16" ry=".9" fill="rgba(0,0,0,.4)"/>
  <g transform="rotate(-7 24 24)">
    <rect x="6.5" y="11.5" width="33" height="26" rx="3" fill="#3F2A0A" stroke="#1F0F04" stroke-width=".7"/>
    <rect x="7" y="12" width="32" height="1.1" rx=".55" fill="rgba(255,247,228,.3)"/>
    <rect x="7.6" y="14.2" width="32" height="22" rx="1.6" fill="#D9CCA6" stroke="#3F2A0A" stroke-width=".6"/>
    <rect x="8.4" y="13.1" width="32" height="22" rx="1.6" fill="#E7DCBC" stroke="#3F2A0A" stroke-width=".6"/>
    <rect x="9.2" y="12" width="32" height="22" rx="1.8" fill="url(#f-cheque-check)" stroke="#3F2A0A" stroke-width=".85"/>
    <rect x="9.8" y="12.7" width="30.8" height="1.5" rx=".7" fill="rgba(255,255,255,.7)"/>
    <rect x="9.2" y="15.4" width="32" height="3.2" fill="url(#f-cheque-band)"/>
    <rect x="9.2" y="15.4" width="32" height=".9" fill="rgba(255,247,228,.45)"/>
    <rect x="9.2" y="18" width="32" height=".7" fill="rgba(0,0,0,.4)"/>
    <path d="M12 22.4 H30" stroke="#5E2750" stroke-width="1" stroke-linecap="round" opacity=".8"/>
    <rect x="32.4" y="20.4" width="6.4" height="4.2" rx=".8" fill="#FCFBF4" stroke="#3F2A0A" stroke-width=".7"/>
    <path d="M35.6 21 v3 M36.7 21.6 q-1.6 -.5 -1.6 .8 q0 1.1 1.6 .9 q1.6 -.2 1.6 .9 q0 1.3 -1.6 .8" fill="none" stroke="#2C001E" stroke-width=".7" stroke-linecap="round"/>
    <path d="M12 28.6 H38" stroke="#5E2750" stroke-width=".8" stroke-linecap="round" opacity=".7"/>
    <path d="M14 28 q2.5 -3 4 -.4 q1.3 2.4 3 -.6 q1.6 -2.6 3.4 .2" fill="none" stroke="#1A0512" stroke-width=".9" stroke-linecap="round"/>
    <path d="M12 31.6 H34" stroke="#5E2750" stroke-width="1.1" stroke-linecap="round" opacity=".35"/>
  </g>
  <g transform="rotate(38 26 28)">
    <rect x="9" y="26.2" width="26" height="4.4" rx="2.2" fill="url(#f-cheque-pen)" stroke="#0A0008" stroke-width=".7"/>
    <rect x="10" y="26.8" width="22" height="1.1" rx=".55" fill="rgba(255,255,255,.4)"/>
    <rect x="13.2" y="26.2" width="2.6" height="4.4" fill="url(#f-cheque-brass)"/>
    <rect x="16.2" y="25.4" width="1.7" height="4.4" rx=".8" fill="url(#f-cheque-brass)" stroke="#3F2A0A" stroke-width=".5"/>
    <rect x="33.6" y="26.6" width="2.6" height="3.6" rx="1.1" fill="#5A3F08" stroke="#0A0008" stroke-width=".5"/>
    <path d="M36 26.5 L43 28.4 L36 30.3 Z" fill="url(#f-cheque-brass)" stroke="#3F2A0A" stroke-width=".6" stroke-linejoin="round"/>
    <path d="M40 28.4 H43" stroke="#3F2A0A" stroke-width=".4"/>
  </g>
</svg>
