<svg viewBox="0 0 48 48" width="100%" height="100%">
  <defs>
  <linearGradient id="ai-clk-body" x1="0" y1="0" x2="0" y2="1">
  <stop offset="0%" stop-color="#F8D670"/>
  <stop offset="45%" stop-color="#C9892D"/>
  <stop offset="100%" stop-color="#5A3F08"/>
  </linearGradient>
  <radialGradient id="ai-clk-face" cx=".5" cy=".4" r=".7">
  <stop offset="0%" stop-color="#FFFFFF"/>
  <stop offset="100%" stop-color="#D9D0B8"/>
  </radialGradient>
  </defs>
  <circle cx="24" cy="24" r="20" fill="url(#ai-clk-body)" stroke="#3F2A0A" stroke-width=".9"/>
  <circle cx="24" cy="24" r="18.5" fill="none" stroke="rgba(255,247,228,.35)" stroke-width=".7"/>
  <circle cx="24" cy="24" r="16" fill="url(#ai-clk-face)" stroke="#5A3F08" stroke-width=".5"/>
  <rect x="23.1" y="9.5" width="1.8" height="2.6" fill="#3F2A0A"/>
  <rect x="35.9" y="23.1" width="2.6" height="1.8" fill="#3F2A0A"/>
  <rect x="23.1" y="35.9" width="1.8" height="2.6" fill="#3F2A0A"/>
  <rect x="9.5" y="23.1" width="2.6" height="1.8" fill="#3F2A0A"/>
  <rect x="23.6" y="9.8" width=".8" height="2" fill="#8A6E2A" transform="rotate(30 24 24)"/>
  <rect x="23.6" y="9.8" width=".8" height="2" fill="#8A6E2A" transform="rotate(60 24 24)"/>
  <rect x="23.6" y="9.8" width=".8" height="2" fill="#8A6E2A" transform="rotate(120 24 24)"/>
  <rect x="23.6" y="9.8" width=".8" height="2" fill="#8A6E2A" transform="rotate(150 24 24)"/>
  <rect x="23.6" y="9.8" width=".8" height="2" fill="#8A6E2A" transform="rotate(210 24 24)"/>
  <rect x="23.6" y="9.8" width=".8" height="2" fill="#8A6E2A" transform="rotate(240 24 24)"/>
  <rect x="23.6" y="9.8" width=".8" height="2" fill="#8A6E2A" transform="rotate(300 24 24)"/>
  <rect x="23.6" y="9.8" width=".8" height="2" fill="#8A6E2A" transform="rotate(330 24 24)"/>
  <path d="M24 24 L17.5 19.5" stroke="#3F2A0A" stroke-width="2.4" stroke-linecap="round"/>
  <path d="M24 24 L31 16.5" stroke="#3F2A0A" stroke-width="1.7" stroke-linecap="round"/>
  <path d="M24 24 L24 11.5" stroke="#DD4814" stroke-width=".9" stroke-linecap="round"/>
  <circle cx="24" cy="24" r="1.7" fill="#3F2A0A"/>
  <circle cx="24" cy="24" r=".7" fill="#DD4814"/>
  <path d="M11 14 A18 18 0 0 1 37 13" fill="none" stroke="rgba(255,255,255,.45)" stroke-width="1.4"/>
  </svg>
