<svg viewBox="0 0 48 48" width="100%" height="100%">
  <defs>
  <linearGradient id="ai-dc-leg" x1="0" y1="0" x2="0" y2="1">
  <stop offset="0%" stop-color="#F8D670"/>
  <stop offset="55%" stop-color="#C9892D"/>
  <stop offset="100%" stop-color="#5A3F08"/>
  </linearGradient>
  </defs>
  <rect x="4" y="32" width="40" height="11" rx=".6" fill="#FCFBF4" stroke="#5A3F08" stroke-width=".5"/>
  <path d="M11 42 A14 14 0 0 1 37 42" fill="none" stroke="#9A8870" stroke-width=".7"/>
  <path d="M22 4 L26 4 L27 9 L21 9 Z" fill="url(#ai-dc-leg)" stroke="#3F2A0A" stroke-width=".7" stroke-linejoin="round"/>
  <path d="M22 4 L26 4" stroke="rgba(255,255,255,.6)" stroke-width=".5"/>
  <circle cx="24" cy="3" r="2.2" fill="#3F2A0A" stroke="#1A0F04" stroke-width=".4"/>
  <g stroke="rgba(255,247,228,.35)" stroke-width=".3">
  <line x1="22" y1="3" x2="26" y2="3" transform="rotate(0 24 3)"/>
  <line x1="22" y1="3" x2="26" y2="3" transform="rotate(45 24 3)"/>
  <line x1="22" y1="3" x2="26" y2="3" transform="rotate(90 24 3)"/>
  <line x1="22" y1="3" x2="26" y2="3" transform="rotate(135 24 3)"/>
  </g>
  <circle cx="24" cy="9" r="1.4" fill="#3F2A0A"/>
  <circle cx="24" cy="9" r=".6" fill="#F8D670"/>
  <path d="M24 9 L13 36" stroke="url(#ai-dc-leg)" stroke-width="2.4" stroke-linecap="round"/>
  <path d="M24 9 L13 36" stroke="rgba(255,247,228,.45)" stroke-width=".5" stroke-linecap="round"/>
  <path d="M12 33 L13 38 L14 33 Z" fill="#1A0F04" stroke="#0A0604" stroke-width=".3" stroke-linejoin="round"/>
  <path d="M24 9 L33 30" stroke="url(#ai-dc-leg)" stroke-width="2.4" stroke-linecap="round"/>
  <path d="M24 9 L33 30" stroke="rgba(255,247,228,.45)" stroke-width=".5" stroke-linecap="round"/>
  <rect x="32" y="28" width="4" height="3" rx=".3" fill="#3F2A0A" stroke="#1A0F04" stroke-width=".3" transform="rotate(15 34 30)"/>
  <g transform="rotate(20 35 34)">
  <rect x="34" y="30" width="2.4" height="7" fill="#DD4814" stroke="#5A1A04" stroke-width=".4"/>
  <path d="M34 37 L35.2 39 L36.4 37 Z" fill="#FCFBF4" stroke="#5A3F08" stroke-width=".3" stroke-linejoin="round"/>
  <path d="M34.9 38.4 L35.2 39 L35.5 38.4 Z" fill="#1A0F04"/>
  </g>
  </svg>
