<svg viewBox="0 0 48 48" width="100%" height="100%">
  <defs>
  <linearGradient id="f-navigation-compass-case" x1="0" y1="0" x2="0" y2="1">
  <stop offset="0%" stop-color="#F8E0A0"/>
  <stop offset="50%" stop-color="#C9892D"/>
  <stop offset="100%" stop-color="#3F2A0A"/>
  </linearGradient>
  <radialGradient id="f-navigation-compass-dial" cx=".4" cy=".35" r=".75">
  <stop offset="0%" stop-color="#5E2750"/>
  <stop offset="65%" stop-color="#2C001E"/>
  <stop offset="100%" stop-color="#0A0008"/>
  </radialGradient>
  </defs>
  <ellipse cx="24" cy="44" rx="13" ry=".8" fill="rgba(0,0,0,.4)"/>
  <path d="M22 4 L26 4 L25 7.5 L23 7.5 Z" fill="url(#f-navigation-compass-case)" stroke="#3F2A0A" stroke-width=".6" stroke-linejoin="round"/>
  <circle cx="24" cy="3.5" r="1.8" fill="url(#f-navigation-compass-case)" stroke="#3F2A0A" stroke-width=".5"/>
  <circle cx="24" cy="25" r="20" fill="url(#f-navigation-compass-case)" stroke="#3F2A0A" stroke-width=".9"/>
  <circle cx="24" cy="25" r="18.3" fill="none" stroke="rgba(255,247,228,.4)" stroke-width=".7"/>
  <circle cx="24" cy="25" r="16" fill="url(#f-navigation-compass-dial)" stroke="#0A0008" stroke-width=".6"/>
  <g stroke="rgba(255,247,228,.5)" stroke-width=".4">
  <line x1="24" y1="10" x2="24" y2="13" transform="rotate(0 24 25)"/>
  <line x1="24" y1="10" x2="24" y2="13" transform="rotate(45 24 25)"/>
  <line x1="24" y1="10" x2="24" y2="13" transform="rotate(90 24 25)"/>
  <line x1="24" y1="10" x2="24" y2="13" transform="rotate(135 24 25)"/>
  <line x1="24" y1="10" x2="24" y2="13" transform="rotate(180 24 25)"/>
  <line x1="24" y1="10" x2="24" y2="13" transform="rotate(225 24 25)"/>
  <line x1="24" y1="10" x2="24" y2="13" transform="rotate(270 24 25)"/>
  <line x1="24" y1="10" x2="24" y2="13" transform="rotate(315 24 25)"/>
  </g>
  <path d="M24 12 L26.4 25 L24 25 Z" fill="#E95420" stroke="#7A1F08" stroke-width=".3" stroke-linejoin="round"/>
  <path d="M24 12 L21.6 25 L24 25 Z" fill="#DD4814" stroke="#7A1F08" stroke-width=".3" stroke-linejoin="round"/>
  <path d="M24 38 L26.4 25 L24 25 Z" fill="#FBF1D8" stroke="#5A3F08" stroke-width=".3" stroke-linejoin="round"/>
  <path d="M24 38 L21.6 25 L24 25 Z" fill="#D9D0B8" stroke="#5A3F08" stroke-width=".3" stroke-linejoin="round"/>
  <circle cx="24" cy="25" r="1.6" fill="#F8D670" stroke="#3F2A0A" stroke-width=".4"/>
  <path d="M14 14 A16 16 0 0 1 34 13" fill="none" stroke="rgba(255,255,255,.4)" stroke-width="1.2"/>
  <circle cx="24" cy="10" r=".8" fill="#FBF1D8"/>
  </svg>
