<svg viewBox="0 0 48 48" width="100%" height="100%">
  <defs>
  <linearGradient id="f-compact-disc-case" x1="0" y1="0" x2="0" y2="1">
  <stop offset="0%" stop-color="#FBF1D8"/>
  <stop offset="55%" stop-color="#C9892D"/>
  <stop offset="100%" stop-color="#5A3F08"/>
  </linearGradient>
  <linearGradient id="f-compact-disc-tray" x1="0" y1="0" x2="0" y2="1">
  <stop offset="0%" stop-color="#5E2750"/>
  <stop offset="100%" stop-color="#1F0518"/>
  </linearGradient>
  <radialGradient id="f-compact-disc-disc" cx=".5" cy=".5" r=".5">
  <stop offset="0%" stop-color="#1A0F04"/>
  <stop offset="18%" stop-color="#1A0F04"/>
  <stop offset="22%" stop-color="#FBF1D8"/>
  <stop offset="32%" stop-color="#F8D670"/>
  <stop offset="55%" stop-color="#E95420"/>
  <stop offset="80%" stop-color="#77216F"/>
  <stop offset="100%" stop-color="#3D0B2C"/>
  </radialGradient>
  </defs>
  <rect x="8" y="5" width="32" height="38" rx="3" fill="url(#f-compact-disc-case)" stroke="#3F2A0A" stroke-width=".9" stroke-linejoin="round"/>
  <path d="M9 6.2 H39" stroke="rgba(255,255,255,.7)" stroke-width=".7"/>
  <rect x="11" y="8" width="26" height="32" rx="2" fill="url(#f-compact-disc-tray)" stroke="#0A0008" stroke-width=".6"/>
  <path d="M11.6 9 H36.4" stroke="rgba(255,247,228,.25)" stroke-width=".5"/>
  <g transform="translate(24 24)">
  <circle r="12" fill="url(#f-compact-disc-disc)" stroke="#0A0008" stroke-width=".7"/>
  <circle r="3.1" fill="#FCFBF4" stroke="#5A3F08" stroke-width=".4"/>
  <circle r="1.2" fill="#1A0F04"/>
  <path d="M-8.5 -6.8 A12 12 0 0 1 7 -9.4" stroke="rgba(255,255,255,.5)" stroke-width="1" fill="none"/>
  <path d="M-8.5 6.8 A12 12 0 0 0 7 9.4" stroke="rgba(255,255,255,.2)" stroke-width=".6" fill="none"/>
  </g>
  <rect x="12" y="9.5" width="8" height="3" rx=".5" fill="#DD4814" stroke="#5A1A04" stroke-width=".4"/>
  <rect x="28" y="40.5" width="8" height="1.6" rx=".5" fill="#F8D670" stroke="#5A3F08" stroke-width=".3"/>
</svg>
