<svg viewBox="0 0 48 48" width="100%" height="100%">
  <defs>
  <linearGradient id="f-contact-card-card" x1="0" y1="0" x2="0" y2="1">
  <stop offset="0%" stop-color="#FFFFFF"/>
  <stop offset="100%" stop-color="#D9D0B8"/>
  </linearGradient>
  <linearGradient id="f-contact-card-band" x1="0" y1="0" x2="0" y2="1">
  <stop offset="0%" stop-color="#F8E0A0"/>
  <stop offset="55%" stop-color="#C9892D"/>
  <stop offset="100%" stop-color="#3F2A0A"/>
  </linearGradient>
  <radialGradient id="f-contact-card-photo" cx=".4" cy=".35" r=".8">
  <stop offset="0%" stop-color="#5E2750"/>
  <stop offset="100%" stop-color="#1A0512"/>
  </radialGradient>
  </defs>
  <ellipse cx="24" cy="44" rx="13" ry=".8" fill="rgba(0,0,0,.35)"/>
  <rect x="4" y="11" width="40" height="26" rx="2" fill="url(#f-contact-card-card)" stroke="#3F2A0A" stroke-width=".9"/>
  <path d="M5 13 H43" stroke="rgba(255,255,255,.65)" stroke-width=".6"/>
  <rect x="4" y="11" width="40" height="4.5" rx="2" fill="url(#f-contact-card-band)" stroke="#3F2A0A" stroke-width=".6"/>
  <rect x="4" y="13" width="40" height="2.5" fill="url(#f-contact-card-band)"/>
  <rect x="8" y="19" width="13" height="14" rx="1" fill="url(#f-contact-card-photo)" stroke="#1A0512" stroke-width=".5"/>
  <circle cx="14.5" cy="24" r="2.4" fill="#D89460" stroke="#5A2F0D" stroke-width=".3"/>
  <path d="M10.5 32 C 10.5 28.8 12.5 28 14.5 28 C 16.5 28 18.5 28.8 18.5 32 Z" fill="#D89460" stroke="#5A2F0D" stroke-width=".3"/>
  <line x1="26" y1="20" x2="40" y2="20" stroke="#3F2A0A" stroke-width="1.2"/>
  <line x1="26" y1="24.5" x2="38" y2="24.5" stroke="#9A8870" stroke-width=".7"/>
  <line x1="26" y1="28" x2="40" y2="28" stroke="#9A8870" stroke-width=".7"/>
  <circle cx="27" cy="32" r="1.1" fill="#DD4814" stroke="#5A1A04" stroke-width=".3"/>
  <line x1="29.5" y1="32" x2="38" y2="32" stroke="#9A8870" stroke-width=".7"/>
  </svg>
