<svg viewBox="0 0 48 48" width="100%" height="100%">
  <defs>
  <linearGradient id="ai-rl-brass" x1="0" y1="0" x2="0" y2="1">
  <stop offset="0%" stop-color="#F8D670"/>
  <stop offset="100%" stop-color="#7A4810"/>
  </linearGradient>
  </defs>
  <rect x="9" y="14" width="30" height="14" rx=".6" fill="#FBF1D8" stroke="#5A3F08" stroke-width=".6"/>
  <rect x="7" y="8" width="34" height="20" rx=".6" fill="#FFFFFF" stroke="#5A3F08" stroke-width=".7"/>
  <circle cx="16" cy="8" r="1.1" fill="#3F2A0A"/>
  <circle cx="32" cy="8" r="1.1" fill="#3F2A0A"/>
  <circle cx="14" cy="18" r="3" fill="#D89460" stroke="#5A2F0D" stroke-width=".4"/>
  <circle cx="14" cy="17" r="1.2" fill="#FBEED4"/>
  <path d="M11.5 22 C 11.5 20.5 12.5 20 14 20 C 15.5 20 16.5 20.5 16.5 22" fill="#FBEED4" stroke="#5A2F0D" stroke-width=".4"/>
  <line x1="20" y1="15" x2="36" y2="15" stroke="#3F2A0A" stroke-width="1"/>
  <line x1="20" y1="19" x2="33" y2="19" stroke="#9A8870" stroke-width=".6"/>
  <line x1="20" y1="22" x2="30" y2="22" stroke="#9A8870" stroke-width=".6"/>
  <path d="M4 30 H44 V42 H4 Z" fill="url(#ai-rl-brass)" stroke="#3F2A0A" stroke-width=".8"/>
  <path d="M5 31 H43" stroke="rgba(255,255,255,.55)" stroke-width=".5"/>
  <rect x="6" y="28" width="36" height="2" rx=".5" fill="#5A3F08"/>
  <rect x="10" y="26" width="2" height="4" fill="#3F2A0A"/>
  <rect x="36" y="26" width="2" height="4" fill="#3F2A0A"/>
  </svg>
