<svg viewBox="0 0 48 48" width="100%" height="100%">
  <defs>
    <linearGradient id="f-crossed-tools-wrench" x1="0" y1="0" x2="0" y2="1"><stop offset="0%" stop-color="#FBF1D8"/><stop offset="50%" stop-color="#D4B575"/><stop offset="100%" stop-color="#6A4A12"/></linearGradient>
    <linearGradient id="f-crossed-tools-shaft" x1="0" y1="0" x2="0" y2="1"><stop offset="0%" stop-color="#F8E0A0"/><stop offset="55%" stop-color="#C9892D"/><stop offset="100%" stop-color="#3F2A0A"/></linearGradient>
    <linearGradient id="f-crossed-tools-grip" x1="0" y1="0" x2="0" y2="1"><stop offset="0%" stop-color="#E95420"/><stop offset="100%" stop-color="#7A1F08"/></linearGradient>
    <radialGradient id="f-crossed-tools-pivot" cx=".38" cy=".35" r=".75"><stop offset="0%" stop-color="#77216F"/><stop offset="55%" stop-color="#3D0B2C"/><stop offset="100%" stop-color="#0A0008"/></radialGradient>
  </defs>
  <ellipse cx="24" cy="45" rx="14" ry=".9" fill="rgba(0,0,0,.4)"/>
  <g transform="rotate(-45 24 24)">
    <path d="M2.5 22.4 L6 23 L6 25 L2.5 25.6 Z" fill="url(#f-crossed-tools-shaft)" stroke="#1F0F04" stroke-width=".6" stroke-linejoin="round"/>
    <rect x="5.5" y="22.4" width="14" height="3.2" rx="1" fill="url(#f-crossed-tools-shaft)" stroke="#3F2A0A" stroke-width=".7"/>
    <path d="M6.5 23.1 H18.5" stroke="rgba(255,255,255,.6)" stroke-width=".5"/>
    <rect x="19.5" y="21.6" width="4" height="4.8" rx="1.2" fill="url(#f-crossed-tools-shaft)" stroke="#3F2A0A" stroke-width=".7"/>
    <path d="M23.5 20.4 L41 20.4 a3.6 3.6 0 0 1 0 7.2 L23.5 27.6 Z" fill="url(#f-crossed-tools-grip)" stroke="#5A1A04" stroke-width=".9" stroke-linejoin="round"/>
    <path d="M25.5 21.3 H40" stroke="rgba(255,247,228,.35)" stroke-width=".7"/>
    <path d="M28 20.7 V27.3 M32 20.7 V27.3 M36 20.7 V27.3" stroke="#5A1A04" stroke-width=".5"/>
  </g>
  <g transform="rotate(45 24 24)">
    <circle cx="9.5" cy="24" r="6.8" fill="url(#f-crossed-tools-wrench)" stroke="#3F2A0A" stroke-width=".9"/>
    <circle cx="9.5" cy="24" r="3.1" fill="url(#f-crossed-tools-pivot)" stroke="#1A0F04" stroke-width=".7"/>
    <circle cx="8.1" cy="22.6" r=".85" fill="rgba(255,247,228,.6)"/>
    <path d="M5.5 20.5 a6.8 6.8 0 0 1 2.4 -2" stroke="rgba(255,255,255,.55)" stroke-width=".6" fill="none"/>
    <rect x="15" y="21.1" width="14" height="5.8" rx="2" fill="url(#f-crossed-tools-wrench)" stroke="#3F2A0A" stroke-width=".9" stroke-linejoin="round"/>
    <path d="M16 22.1 H28" stroke="rgba(255,255,255,.5)" stroke-width=".5"/>
    <path d="M44 19.5
             L36.5 19.5
             a2.5 2.5 0 0 0 -2.4 1.6
             L25.8 21.1
             L25.8 26.9
             L32.1 26.9
             a2.5 2.5 0 0 0 2.4 1.6
             L44 28.5
             L44 25.6
             L37.4 25.6
             a1.6 1.6 0 0 1 0 -3.2
             L44 22.4
             Z" fill="url(#f-crossed-tools-wrench)" stroke="#3F2A0A" stroke-width=".9" stroke-linejoin="round"/>
    <path d="M43.4 20.2 L37.4 20.2" stroke="rgba(255,255,255,.6)" stroke-width=".6"/>
  </g>
  <circle cx="24" cy="24" r="2.7" fill="url(#f-crossed-tools-pivot)" stroke="#1A0F04" stroke-width=".7"/>
  <circle cx="22.9" cy="22.9" r=".75" fill="#F8D670"/>
</svg>
