<svg viewBox="0 0 48 48" width="100%" height="100%">
<defs>
<linearGradient id="f-dictaphone-body" x1="0" y1="0" x2="0" y2="1">
<stop offset="0" stop-color="#FBF1D8"/>
<stop offset="0.16" stop-color="#F8E0A0"/>
<stop offset="0.5" stop-color="#D4B575"/>
<stop offset="0.82" stop-color="#C9892D"/>
<stop offset="1" stop-color="#5A3F08"/>
</linearGradient>
<linearGradient id="f-dictaphone-side" x1="0" y1="0" x2="1" y2="0">
<stop offset="0" stop-color="#6A4A12"/>
<stop offset="0.5" stop-color="#C9892D"/>
<stop offset="1" stop-color="#3F2A0A"/>
</linearGradient>
<radialGradient id="f-dictaphone-grille" cx="0.4" cy="0.36" r="0.72">
<stop offset="0" stop-color="#6A4A12"/>
<stop offset="0.45" stop-color="#3F2A0A"/>
<stop offset="1" stop-color="#1A0F04"/>
</radialGradient>
<radialGradient id="f-dictaphone-window" cx="0.38" cy="0.35" r="0.72">
<stop offset="0" stop-color="#77216F"/>
<stop offset="0.55" stop-color="#2C001E"/>
<stop offset="1" stop-color="#0A0008"/>
</radialGradient>
<radialGradient id="f-dictaphone-rec" cx="0.38" cy="0.32" r="0.72">
<stop offset="0" stop-color="#E95420"/>
<stop offset="0.6" stop-color="#DD4814"/>
<stop offset="1" stop-color="#7A1F08"/>
</radialGradient>
<clipPath id="f-dictaphone-grilleclip">
<circle cx="24" cy="14.5" r="7"/>
</clipPath>
</defs>
<ellipse cx="24" cy="44.5" rx="9" ry="0.8" fill="rgba(0,0,0,.4)"/>
<rect x="13" y="4" width="22" height="40" rx="5" fill="url(#f-dictaphone-side)" stroke="#3F2A0A" stroke-width="1"/>
<rect x="14.4" y="4" width="19.2" height="40" rx="4.2" fill="url(#f-dictaphone-body)" stroke="#3F2A0A" stroke-width="1"/>
<rect x="15.6" y="5.1" width="16.8" height="2.2" rx="1.1" fill="rgba(255,255,255,.65)"/>
<circle cx="24" cy="14.5" r="8" fill="url(#f-dictaphone-grille)" stroke="#1F0F04" stroke-width="1.2"/>
<g clip-path="url(#f-dictaphone-grilleclip)" fill="#1A0F04">
<circle cx="20" cy="11" r="1"/>
<circle cx="24" cy="11" r="1"/>
<circle cx="28" cy="11" r="1"/>
<circle cx="20" cy="14.5" r="1"/>
<circle cx="24" cy="14.5" r="1"/>
<circle cx="28" cy="14.5" r="1"/>
<circle cx="20" cy="18" r="1"/>
<circle cx="24" cy="18" r="1"/>
<circle cx="28" cy="18" r="1"/>
</g>
<circle cx="21" cy="11.4" r="1.6" fill="rgba(255,247,228,.28)"/>
<rect x="17.5" y="25" width="13" height="8" rx="1.6" fill="url(#f-dictaphone-window)" stroke="#1A0512" stroke-width="1"/>
<rect x="18.3" y="25.6" width="11.4" height="1" rx="0.5" fill="rgba(255,247,228,.3)"/>
<circle cx="21.5" cy="29" r="1.5" fill="none" stroke="#5E2750" stroke-width="1"/>
<circle cx="26.5" cy="29" r="1.5" fill="none" stroke="#5E2750" stroke-width="1"/>
<line x1="23" y1="29" x2="25" y2="29" stroke="#5E2750" stroke-width="0.9"/>
<circle cx="24" cy="38.5" r="3.6" fill="url(#f-dictaphone-rec)" stroke="#5A1A04" stroke-width="1.4"/>
<circle cx="22.6" cy="37.1" r="1.1" fill="rgba(255,247,228,.5)"/>
<rect x="16" y="36.4" width="3.2" height="4.2" rx="1" fill="#3D0B2C" stroke="#1A0512" stroke-width="0.8"/>
<rect x="29" y="36.4" width="3.2" height="4.2" rx="1" fill="#3D0B2C" stroke="#1A0512" stroke-width="0.8"/>
</svg>
