<svg viewBox="0 0 48 48" width="100%" height="100%">
  <defs>
    <linearGradient id="f-diploma-paper" x1="0" y1="0" x2="0" y2="1"><stop offset="0%" stop-color="#FFFFFF"/><stop offset="55%" stop-color="#FBF1D8"/><stop offset="100%" stop-color="#D9D0B8"/></linearGradient>
    <linearGradient id="f-diploma-cap" x1="0" y1="0" x2="0" y2="1"><stop offset="0%" stop-color="#FBF1D8"/><stop offset="55%" stop-color="#D4B575"/><stop offset="100%" stop-color="#6A4A12"/></linearGradient>
    <linearGradient id="f-diploma-ribbon" x1="0" y1="0" x2="1" y2="0"><stop offset="0%" stop-color="#DD6E1C"/><stop offset="45%" stop-color="#E95420"/><stop offset="100%" stop-color="#DD4814"/></linearGradient>
    <radialGradient id="f-diploma-seal" cx=".38" cy=".35" r=".75"><stop offset="0%" stop-color="#FBE57E"/><stop offset="55%" stop-color="#F8D670"/><stop offset="100%" stop-color="#C9892D"/></radialGradient>
  </defs>
  <ellipse cx="24" cy="44" rx="14" ry=".9" fill="rgba(0,0,0,.4)"/>
  <path d="M7 11.5 C7 9.3 8.4 8 11 8 H37 C39.6 8 41 9.3 41 11.5 V36.5 C41 38.7 39.6 40 37 40 H11 C8.4 40 7 38.7 7 36.5 Z" fill="url(#f-diploma-cap)" stroke="#3F2A0A" stroke-width=".5" opacity=".85"/>
  <rect x="9.5" y="7" width="29" height="34" rx="3" fill="url(#f-diploma-paper)" stroke="#3F2A0A" stroke-width=".8"/>
  <path d="M11 9 H37" stroke="rgba(255,255,255,.7)" stroke-width=".6"/>
  <path d="M9.5 10 C9.5 7.3 12 6 16 6 H32 C36 6 38.5 7.3 38.5 10 C38.5 12 36.5 13 34 13.2 C36 12.4 35.6 9 32 9 H16 C12.4 9 12 12.4 14 13.2 C11.5 13 9.5 12 9.5 10 Z" fill="url(#f-diploma-cap)" stroke="#3F2A0A" stroke-width=".7" stroke-linejoin="round"/>
  <path d="M12 8.3 C13.2 7.4 15 7.2 17 7.2 H31 C33 7.2 34.8 7.4 36 8.3" fill="none" stroke="rgba(255,247,228,.5)" stroke-width=".5"/>
  <path d="M9.5 38 C9.5 40.7 12 42 16 42 H32 C36 42 38.5 40.7 38.5 38 C38.5 36 36.5 35 34 34.8 C36 35.6 35.6 39 32 39 H16 C12.4 39 12 35.6 14 34.8 C11.5 35 9.5 36 9.5 38 Z" fill="url(#f-diploma-cap)" stroke="#3F2A0A" stroke-width=".7" stroke-linejoin="round"/>
  <path d="M16 16 H32" stroke="#5A3F08" stroke-width="1" stroke-linecap="round"/>
  <path d="M18 20 H30" stroke="#77216F" stroke-width=".7" stroke-linecap="round" opacity=".7"/>
  <path d="M14 26 H34" stroke="#3D0B2C" stroke-width=".5" stroke-linecap="round" opacity=".5"/>
  <path d="M14 29 H34" stroke="#3D0B2C" stroke-width=".5" stroke-linecap="round" opacity=".5"/>
  <path d="M14 32 H28" stroke="#3D0B2C" stroke-width=".5" stroke-linecap="round" opacity=".5"/>
  <rect x="8" y="22" width="32" height="6" rx="1.2" fill="url(#f-diploma-ribbon)" stroke="#5A1A04" stroke-width=".8"/>
  <path d="M9 23 H39" stroke="rgba(255,247,228,.4)" stroke-width=".5"/>
  <path d="M21 28 L18 38 L22 36 L23.5 28 Z" fill="url(#f-diploma-ribbon)" stroke="#5A1A04" stroke-width=".7" stroke-linejoin="round"/>
  <path d="M27 28 L30 38 L26 36 L24.5 28 Z" fill="#DD4814" stroke="#5A1A04" stroke-width=".7" stroke-linejoin="round"/>
  <circle cx="24" cy="25" r="5.2" fill="url(#f-diploma-seal)" stroke="#5A1A04" stroke-width=".8"/>
  <path d="M24 21.2 L25 23.7 L27.7 23.9 L25.6 25.6 L26.3 28.3 L24 26.7 L21.7 28.3 L22.4 25.6 L20.3 23.9 L23 23.7 Z" fill="#FBF1D8" stroke="#5A3F08" stroke-width=".4" stroke-linejoin="round"/>
  <circle cx="22.2" cy="23.2" r="1" fill="rgba(255,247,228,.65)"/>
</svg>
