<svg viewBox="0 0 48 48" width="100%" height="100%">
  <defs>
    <linearGradient id="f-document-stack-sheet1" x1="0" y1="0" x2="0" y2="1"><stop offset="0%" stop-color="#FCFBF4"/><stop offset="100%" stop-color="#D9D0B8"/></linearGradient>
    <linearGradient id="f-document-stack-sheet2" x1="0" y1="0" x2="0" y2="1"><stop offset="0%" stop-color="#FBF1D8"/><stop offset="100%" stop-color="#D4C49A"/></linearGradient>
    <linearGradient id="f-document-stack-sheet3" x1="0" y1="0" x2="0" y2="1"><stop offset="0%" stop-color="#FBEED4"/><stop offset="100%" stop-color="#CFC399"/></linearGradient>
    <linearGradient id="f-document-stack-fold" x1="0" y1="0" x2="1" y2="1"><stop offset="0%" stop-color="#E9DFC2"/><stop offset="100%" stop-color="#B7A879"/></linearGradient>
    <linearGradient id="f-document-stack-clip" x1="0" y1="0" x2="0" y2="1"><stop offset="0%" stop-color="#F8E0A0"/><stop offset="50%" stop-color="#C9892D"/><stop offset="100%" stop-color="#5A3F08"/></linearGradient>
  </defs>
  <ellipse cx="24" cy="44" rx="14" ry=".8" fill="rgba(0,0,0,.4)"/>
  <path d="M11 13 L33 8 L40 33 L18 38 Z" fill="url(#f-document-stack-sheet3)" stroke="#3F2A0A" stroke-width=".8" stroke-linejoin="round"/>
  <path d="M9 15 L31 12 L36 37 L13 40 Z" fill="url(#f-document-stack-sheet2)" stroke="#3F2A0A" stroke-width=".8" stroke-linejoin="round"/>
  <path d="M10 16 L28 14 L33 16 L36 41 L13 43.5 Z" fill="url(#f-document-stack-sheet1)" stroke="#3F2A0A" stroke-width=".9" stroke-linejoin="round"/>
  <path d="M11 17.5 L27.5 15.7" stroke="rgba(255,255,255,.7)" stroke-width=".6"/>
  <path d="M28 14 L33 16 L30.2 18 Z" fill="url(#f-document-stack-fold)" stroke="#3F2A0A" stroke-width=".7" stroke-linejoin="round"/>
  <path d="M14 22 L31 20.4" stroke="#5A3F08" stroke-width=".6" opacity=".55"/>
  <path d="M14.5 26 L31.8 24.4" stroke="#5A3F08" stroke-width=".6" opacity=".55"/>
  <path d="M15 30 L32.4 28.4" stroke="#5A3F08" stroke-width=".6" opacity=".55"/>
  <path d="M15.5 34 L29 32.7" stroke="#5A3F08" stroke-width=".6" opacity=".55"/>
  <path d="M19 11 C19 8.4 22 7.2 24.3 8 C26.6 8.8 26.4 11.6 24.6 12.4 L20.4 14.2"
        fill="none" stroke="url(#f-document-stack-clip)" stroke-width="2.6" stroke-linecap="round" stroke-linejoin="round"/>
  <path d="M19 11 C19 8.4 22 7.2 24.3 8 C26.6 8.8 26.4 11.6 24.6 12.4 L20.4 14.2"
        fill="none" stroke="#3F2A0A" stroke-width=".4" stroke-linecap="round" stroke-linejoin="round" opacity=".5"/>
  <path d="M19.6 10.6 C19.7 9 21.6 8.2 23.4 8.6" fill="none" stroke="rgba(255,247,228,.6)" stroke-width=".5" stroke-linecap="round"/>
  <circle cx="20.4" cy="14.2" r="1.5" fill="url(#f-document-stack-clip)" stroke="#3F2A0A" stroke-width=".5"/>
  <circle cx="20" cy="13.7" r=".4" fill="rgba(255,247,228,.7)"/>
  <path d="M30 36 L34.6 35.4 L35.4 40.5 L30.8 41.1 Z" fill="#E95420" stroke="#5A1A04" stroke-width=".5" stroke-linejoin="round"/>
  <circle cx="32.7" cy="37.6" r=".55" fill="#F8D670" stroke="#5A1A04" stroke-width=".25"/>
</svg>
