<svg viewBox="0 0 48 48" width="100%" height="100%">
  <defs>
  <linearGradient id="f-dpad-pad" x1="0" y1="0" x2="0" y2="1">
  <stop offset="0%" stop-color="#FBF1D8"/>
  <stop offset="55%" stop-color="#C9892D"/>
  <stop offset="100%" stop-color="#5A3F08"/>
  </linearGradient>
  <linearGradient id="f-dpad-cross" x1="0" y1="0" x2="0" y2="1">
  <stop offset="0%" stop-color="#3D0B2C"/>
  <stop offset="100%" stop-color="#1A0512"/>
  </linearGradient>
  </defs>
  <ellipse cx="24" cy="45" rx="15" ry=".9" fill="rgba(0,0,0,.4)"/>
  <rect x="5" y="5" width="38" height="38" rx="8" fill="url(#f-dpad-pad)" stroke="#3F2A0A" stroke-width="1"/>
  <path d="M7 8 H41" stroke="rgba(255,255,255,.6)" stroke-width=".7"/>
  <path d="M20 9 H28 V20 H39 V28 H28 V39 H20 V28 H9 V20 H20 Z" fill="url(#f-dpad-cross)" stroke="#0A0306" stroke-width=".9" stroke-linejoin="round"/>
  <path d="M20.5 9.5 H27.5" stroke="rgba(255,247,228,.18)" stroke-width=".5"/>
  <path d="M24 11.5 L21.6 15 H26.4 Z" fill="#E95420"/>
  <path d="M24 36.5 L21.6 33 H26.4 Z" fill="#E95420"/>
  <path d="M11.5 24 L15 21.6 V26.4 Z" fill="#E95420"/>
  <path d="M36.5 24 L33 21.6 V26.4 Z" fill="#E95420"/>
  <circle cx="24" cy="24" r="2.4" fill="#F8D670" stroke="#5A3F08" stroke-width=".5"/>
  <circle cx="23.2" cy="23.2" r=".7" fill="rgba(255,255,255,.55)"/>
</svg>
