<svg viewBox="0 0 48 48" width="100%" height="100%">
  <defs>
  <linearGradient id="f-dslr-camera-body" x1="0" y1="0" x2="0" y2="1">
  <stop offset="0%" stop-color="#FBF1D8"/>
  <stop offset="55%" stop-color="#C9892D"/>
  <stop offset="100%" stop-color="#5A3F08"/>
  </linearGradient>
  <radialGradient id="f-dslr-camera-lens" cx=".38" cy=".35" r=".7">
  <stop offset="0%" stop-color="#77216F"/>
  <stop offset="55%" stop-color="#2C001E"/>
  <stop offset="100%" stop-color="#0A0008"/>
  </radialGradient>
  </defs>
  <rect x="6" y="14" width="36" height="26" rx="3" fill="url(#f-dslr-camera-body)" stroke="#3F2A0A" stroke-width=".9"/>
  <path d="M7 15.2 H41" stroke="rgba(255,255,255,.7)" stroke-width=".7"/>
  <path d="M14 14 L18 8 H30 L34 14 Z" fill="url(#f-dslr-camera-body)" stroke="#3F2A0A" stroke-width=".8" stroke-linejoin="round"/>
  <path d="M18.6 9 H29.4" stroke="rgba(255,255,255,.6)" stroke-width=".5"/>
  <rect x="9" y="17" width="6" height="3" rx=".6" fill="#1A0F04" stroke="#0A0604" stroke-width=".4"/>
  <circle cx="24" cy="28" r="10" fill="#C9892D" stroke="#3F2A0A" stroke-width=".9"/>
  <circle cx="24" cy="28" r="9" fill="none" stroke="rgba(255,247,228,.45)" stroke-width=".5"/>
  <circle cx="24" cy="28" r="7.6" fill="#1A0F04" stroke="#0A0604" stroke-width=".5"/>
  <circle cx="24" cy="28" r="6" fill="url(#f-dslr-camera-lens)" stroke="#0A0008" stroke-width=".5"/>
  <ellipse cx="21.4" cy="25.8" rx="2.4" ry="1.5" fill="rgba(255,247,228,.4)" transform="rotate(-30 21.4 25.8)"/>
  <circle cx="20.8" cy="25.3" r=".7" fill="rgba(255,247,228,.75)"/>
  <circle cx="36" cy="20" r="1.8" fill="#DD4814" stroke="#5A1A04" stroke-width=".5"/>
  <circle cx="35.6" cy="19.6" r=".6" fill="rgba(255,247,228,.55)"/>
  <rect x="9" y="36" width="6" height="2.4" rx=".4" fill="#F8D670" stroke="#5A3F08" stroke-width=".4"/>
</svg>
