<svg viewBox="0 0 48 48" width="100%" height="100%">
  <defs>
  <linearGradient id="f-easel-leg" x1="0" y1="0" x2="0" y2="1">
  <stop offset="0%" stop-color="#F8E0A0"/>
  <stop offset="55%" stop-color="#C9892D"/>
  <stop offset="100%" stop-color="#5A3F08"/>
  </linearGradient>
  <linearGradient id="f-easel-canvas" x1="0" y1="0" x2="0" y2="1">
  <stop offset="0%" stop-color="#FCFBF4"/>
  <stop offset="100%" stop-color="#D9D0B8"/>
  </linearGradient>
  </defs>
  <ellipse cx="24" cy="45.5" rx="15" ry=".9" fill="rgba(0,0,0,.4)"/>
  <path d="M11 12 L7 45" stroke="url(#f-easel-leg)" stroke-width="2.6" stroke-linecap="round"/>
  <path d="M37 12 L41 45" stroke="url(#f-easel-leg)" stroke-width="2.6" stroke-linecap="round"/>
  <path d="M24 9 L24 44" stroke="url(#f-easel-leg)" stroke-width="2.4" stroke-linecap="round"/>
  <rect x="9" y="9" width="30" height="24" rx="1.5" fill="url(#f-easel-leg)" stroke="#3F2A0A" stroke-width="1"/>
  <rect x="11" y="11" width="26" height="20" rx="1" fill="url(#f-easel-canvas)" stroke="#6A4A12" stroke-width=".7"/>
  <path d="M12 11 H36" stroke="rgba(255,255,255,.7)" stroke-width=".6"/>
  <path d="M13 27 Q20 17 26 23 Q31 28 35 19" fill="none" stroke="#E95420" stroke-width="3" stroke-linecap="round"/>
  <path d="M14 30 L34 30" stroke="#77216F" stroke-width="1.6" stroke-linecap="round"/>
  <rect x="14" y="33" width="20" height="3.4" rx="1" fill="url(#f-easel-leg)" stroke="#3F2A0A" stroke-width=".6"/>
  <circle cx="29" cy="34.6" r="1.8" fill="#E95420" stroke="#5A1A04" stroke-width=".4"/>
  <circle cx="18" cy="34.6" r="1.4" fill="#F8D670" stroke="#5A3F08" stroke-width=".4"/>
</svg>
