<svg viewBox="0 0 48 48" width="100%" height="100%">
<defs>
<linearGradient id="f-fax-machine-body" x1="0" y1="0" x2="0" y2="1">
<stop offset="0" stop-color="#FBF1D8"/>
<stop offset=".22" stop-color="#F8E0A0"/>
<stop offset=".55" stop-color="#C9892D"/>
<stop offset="1" stop-color="#3F2A0A"/>
</linearGradient>
<linearGradient id="f-fax-machine-paper" x1="0" y1="0" x2="0" y2="1">
<stop offset="0" stop-color="#FCFBF4"/>
<stop offset="1" stop-color="#E9D7A8"/>
</linearGradient>
<linearGradient id="f-fax-machine-btn" x1="0" y1="0" x2="0" y2="1">
<stop offset="0" stop-color="#F2A24A"/>
<stop offset=".4" stop-color="#E95420"/>
<stop offset="1" stop-color="#A82E0C"/>
</linearGradient>
</defs>
<ellipse cx="24" cy="45.6" rx="18" ry="1.5" fill="rgba(0,0,0,.4)"/>
<path d="M13.5 30 L13.5 8 Q13.5 6.4 15.1 6.4 L33 6.4 Q34.5 6.4 34.5 8 L34.5 30 Z" fill="url(#f-fax-machine-paper)" stroke="#3F2A0A" stroke-width="1" stroke-linejoin="round"/>
<rect x="16" y="10.5" width="16" height="2.1" rx="1" fill="#2C001E"/>
<rect x="16" y="14.3" width="16" height="1.7" rx=".85" fill="#3D0B2C"/>
<rect x="16" y="17.5" width="16" height="1.7" rx=".85" fill="#3D0B2C"/>
<rect x="16" y="20.7" width="11" height="1.7" rx=".85" fill="#77216F"/>
<rect x="4" y="26" width="40" height="18" rx="3.6" fill="url(#f-fax-machine-body)" stroke="#1F0F04" stroke-width="1.2" stroke-linejoin="round"/>
<rect x="9" y="24.4" width="30" height="5" rx="2" fill="#1A0512" stroke="#0A0306" stroke-width="1.4" stroke-linejoin="round"/>
<rect x="10.6" y="25.4" width="26.8" height="1.2" rx=".6" fill="rgba(0,0,0,.55)"/>
<rect x="5.4" y="29.6" width="37.2" height="1.7" rx=".85" fill="rgba(255,255,255,.65)"/>
<circle cx="37" cy="37.4" r="3.9" fill="url(#f-fax-machine-btn)" stroke="#5A1A04" stroke-width="1.8"/>
<ellipse cx="35.6" cy="36" rx="1.3" ry="1" fill="rgba(255,255,255,.65)"/>
<rect x="8.5" y="35.6" width="18" height="3.4" rx="1.7" fill="#2C001E"/>
<rect x="10.2" y="36.9" width="9" height="1.1" rx=".55" fill="#77216F"/>
<circle cx="30.4" cy="37.3" r="1.6" fill="#F8D670" stroke="#5A3F08" stroke-width=".7"/>
</svg>
