<svg viewBox="0 0 48 48" width="100%" height="100%">
  <defs>
    <linearGradient id="f-filing-cabinet-body" x1="0" y1="0" x2="0" y2="1">
      <stop offset="0%" stop-color="#FBF1D8"/>
      <stop offset="50%" stop-color="#D4B575"/>
      <stop offset="100%" stop-color="#6A4A12"/>
    </linearGradient>
    <linearGradient id="f-filing-cabinet-drawer" x1="0" y1="0" x2="0" y2="1">
      <stop offset="0%" stop-color="#F8E0A0"/>
      <stop offset="55%" stop-color="#C9892D"/>
      <stop offset="100%" stop-color="#5A3F08"/>
    </linearGradient>
    <linearGradient id="f-filing-cabinet-handle" x1="0" y1="0" x2="0" y2="1">
      <stop offset="0%" stop-color="#3D0B2C"/>
      <stop offset="100%" stop-color="#1A0512"/>
    </linearGradient>
    <linearGradient id="f-filing-cabinet-top" x1="0" y1="0" x2="0" y2="1">
      <stop offset="0%" stop-color="#FBF1D8"/>
      <stop offset="100%" stop-color="#C9892D"/>
    </linearGradient>
  </defs>
  <ellipse cx="24" cy="45" rx="14" ry=".9" fill="rgba(0,0,0,.4)"/>
  <rect x="9" y="6" width="30" height="38" rx="2.4" fill="url(#f-filing-cabinet-body)" stroke="#3F2A0A" stroke-width=".9"/>
  <rect x="8.4" y="4.4" width="31.2" height="4.4" rx="1.4" fill="url(#f-filing-cabinet-top)" stroke="#3F2A0A" stroke-width=".8"/>
  <path d="M10 5.6 H38" stroke="rgba(255,255,255,.65)" stroke-width=".6"/>
  <rect x="11" y="10.5" width="26" height="10" rx="1.6" fill="url(#f-filing-cabinet-drawer)" stroke="#3F2A0A" stroke-width=".8"/>
  <path d="M12.4 11.7 H35.6" stroke="rgba(255,247,228,.5)" stroke-width=".5"/>
  <rect x="19" y="15.6" width="10" height="2.6" rx="1.3" fill="url(#f-filing-cabinet-handle)" stroke="#1A0F04" stroke-width=".6"/>
  <path d="M19.8 16.3 H28.2" stroke="rgba(119,33,111,.55)" stroke-width=".4"/>
  <rect x="11" y="22" width="26" height="10" rx="1.6" fill="url(#f-filing-cabinet-drawer)" stroke="#3F2A0A" stroke-width=".8"/>
  <path d="M12.4 23.2 H35.6" stroke="rgba(255,247,228,.5)" stroke-width=".5"/>
  <rect x="19" y="27.1" width="10" height="2.6" rx="1.3" fill="url(#f-filing-cabinet-handle)" stroke="#1A0F04" stroke-width=".6"/>
  <path d="M19.8 27.8 H28.2" stroke="rgba(119,33,111,.55)" stroke-width=".4"/>
  <rect x="11" y="33.5" width="26" height="10" rx="1.6" fill="url(#f-filing-cabinet-drawer)" stroke="#3F2A0A" stroke-width=".8"/>
  <path d="M12.4 34.7 H35.6" stroke="rgba(255,247,228,.5)" stroke-width=".5"/>
  <rect x="19" y="38.6" width="10" height="2.6" rx="1.3" fill="url(#f-filing-cabinet-handle)" stroke="#1A0F04" stroke-width=".6"/>
  <path d="M19.8 39.3 H28.2" stroke="rgba(119,33,111,.55)" stroke-width=".4"/>
  <circle cx="33.6" cy="16.9" r="1" fill="#F8D670" stroke="#5A1A04" stroke-width=".3"/>
</svg>
