<svg viewBox="0 0 48 48" width="100%" height="100%">
  <defs>
  <linearGradient id="f-flat-screen-tv-bezel" x1="0" y1="0" x2="0" y2="1"><stop offset="0%" stop-color="#FBF1D8"/><stop offset="55%" stop-color="#D4B575"/><stop offset="100%" stop-color="#6A4A12"/></linearGradient>
  <linearGradient id="f-flat-screen-tv-screen" x1="0" y1="0" x2="0" y2="1"><stop offset="0%" stop-color="#3D0B2C"/><stop offset="100%" stop-color="#1A0512"/></linearGradient>
  <linearGradient id="f-flat-screen-tv-stand" x1="0" y1="0" x2="0" y2="1"><stop offset="0%" stop-color="#F8E0A0"/><stop offset="55%" stop-color="#C9892D"/><stop offset="100%" stop-color="#5A3F08"/></linearGradient>
  </defs>
  <ellipse cx="24" cy="44.6" rx="14" ry=".8" fill="rgba(0,0,0,.4)"/>
  <rect x="22.4" y="33" width="3.2" height="5" fill="url(#f-flat-screen-tv-stand)" stroke="#3F2A0A" stroke-width=".6"/>
  <path d="M14 43.4 L34 43.4 L31 38.6 L17 38.6 Z" fill="url(#f-flat-screen-tv-stand)" stroke="#3F2A0A" stroke-width=".8" stroke-linejoin="round"/>
  <path d="M15.4 39.2 H32.6" stroke="rgba(255,255,255,.55)" stroke-width=".5"/>
  <rect x="3" y="6" width="42" height="28" rx="3.5" fill="url(#f-flat-screen-tv-bezel)" stroke="#3F2A0A" stroke-width=".9"/>
  <path d="M5.2 8 H42.8" stroke="rgba(255,255,255,.65)" stroke-width=".6"/>
  <rect x="6.5" y="9.5" width="35" height="21" rx="1.6" fill="url(#f-flat-screen-tv-screen)" stroke="#0A0306" stroke-width=".7"/>
  <path d="M8 11 H40" stroke="rgba(255,247,228,.18)" stroke-width=".5"/>
  <path d="M21 14.6 L21 25.4 L29.5 20 Z" fill="#E95420" stroke="#5A1A04" stroke-width="1" stroke-linejoin="round"/>
  <path d="M21.6 15.6 L21.6 21" stroke="rgba(255,247,228,.45)" stroke-width=".5" stroke-linecap="round"/>
  <circle cx="38.8" cy="32" r=".9" fill="#F8D670" stroke="#5A1A04" stroke-width=".3"/>
  </svg>
