<svg viewBox="0 0 48 48" width="100%" height="100%">
  <defs>
    <linearGradient id="f-flip-calendar-base" x1="0" y1="0" x2="0" y2="1"><stop offset="0%" stop-color="#FBF1D8"/><stop offset="50%" stop-color="#C9892D"/><stop offset="100%" stop-color="#5A3F08"/></linearGradient>
    <linearGradient id="f-flip-calendar-frame" x1="0" y1="0" x2="0" y2="1"><stop offset="0%" stop-color="#F8E0A0"/><stop offset="55%" stop-color="#D4B575"/><stop offset="100%" stop-color="#6A4A12"/></linearGradient>
    <radialGradient id="f-flip-calendar-knob" cx=".38" cy=".35" r=".8"><stop offset="0%" stop-color="#FBF1D8"/><stop offset="55%" stop-color="#C9892D"/><stop offset="100%" stop-color="#5A3F08"/></radialGradient>
    <linearGradient id="f-flip-calendar-drumL" x1="0" y1="0" x2="0" y2="1"><stop offset="0%" stop-color="#2C001E"/><stop offset="14%" stop-color="#5E2750"/><stop offset="50%" stop-color="#FCFBF4"/><stop offset="86%" stop-color="#5E2750"/><stop offset="100%" stop-color="#1A0512"/></linearGradient>
    <linearGradient id="f-flip-calendar-drumR" x1="0" y1="0" x2="0" y2="1"><stop offset="0%" stop-color="#2C001E"/><stop offset="14%" stop-color="#5E2750"/><stop offset="50%" stop-color="#FCFBF4"/><stop offset="86%" stop-color="#5E2750"/><stop offset="100%" stop-color="#1A0512"/></linearGradient>
    <linearGradient id="f-flip-calendar-band" x1="0" y1="0" x2="0" y2="1"><stop offset="0%" stop-color="#3D0B2C"/><stop offset="100%" stop-color="#1A0512"/></linearGradient>
  </defs>
  <ellipse cx="24" cy="44.5" rx="16" ry="1" fill="rgba(0,0,0,.4)"/>
  <path d="M7 38 H41 L43 44 H5 Z" fill="url(#f-flip-calendar-base)" stroke="#3F2A0A" stroke-width=".9" stroke-linejoin="round"/>
  <path d="M8 39 H40" stroke="rgba(255,247,228,.4)" stroke-width=".5"/>
  <rect x="14" y="40.6" width="20" height="1.6" rx=".7" fill="url(#f-flip-calendar-band)" stroke="#1A0F04" stroke-width=".4"/>
  <rect x="8" y="9" width="32" height="30" rx="4" fill="url(#f-flip-calendar-frame)" stroke="#3F2A0A" stroke-width=".9"/>
  <path d="M10.5 11 H37.5" stroke="rgba(255,255,255,.65)" stroke-width=".6"/>
  <rect x="11.5" y="13.5" width="25" height="21" rx="2" fill="#1A0512" stroke="#0A0008" stroke-width=".7"/>
  <rect x="13" y="14.5" width="9.5" height="19" rx="2.4" fill="url(#f-flip-calendar-drumL)" stroke="#0A0306" stroke-width=".6"/>
  <path d="M13 24 H22.5" stroke="rgba(255,247,228,.5)" stroke-width=".4"/>
  <path d="M13 23.2 H22.5" stroke="rgba(0,0,0,.45)" stroke-width=".4"/>
  <path d="M13 18.6 H22.5" stroke="rgba(0,0,0,.3)" stroke-width=".3"/>
  <path d="M13 29.4 H22.5" stroke="rgba(0,0,0,.3)" stroke-width=".3"/>
  <text x="17.75" y="26" font-family="Ubuntu Mono, monospace" font-size="9" font-weight="700" text-anchor="middle" fill="#2C001E">1</text>
  <rect x="25.5" y="14.5" width="9.5" height="19" rx="2.4" fill="url(#f-flip-calendar-drumR)" stroke="#0A0306" stroke-width=".6"/>
  <path d="M25.5 24 H35" stroke="rgba(255,247,228,.5)" stroke-width=".4"/>
  <path d="M25.5 23.2 H35" stroke="rgba(0,0,0,.45)" stroke-width=".4"/>
  <path d="M25.5 18.6 H35" stroke="rgba(0,0,0,.3)" stroke-width=".3"/>
  <path d="M25.5 29.4 H35" stroke="rgba(0,0,0,.3)" stroke-width=".3"/>
  <text x="30.25" y="26" font-family="Ubuntu Mono, monospace" font-size="9" font-weight="700" text-anchor="middle" fill="#2C001E">5</text>
  <path d="M12 23.6 H36" stroke="#E95420" stroke-width="1.2" stroke-linecap="round"/>
  <circle cx="36" cy="23.6" r="1.2" fill="#F8D670" stroke="#5A1A04" stroke-width=".3"/>
  <circle cx="9" cy="23.5" r="3" fill="url(#f-flip-calendar-knob)" stroke="#3F2A0A" stroke-width=".7"/>
  <path d="M9 21 V26" stroke="#5A3F08" stroke-width=".5"/>
  <circle cx="39" cy="23.5" r="3" fill="url(#f-flip-calendar-knob)" stroke="#3F2A0A" stroke-width=".7"/>
  <path d="M39 21 V26" stroke="#5A3F08" stroke-width=".5"/>
</svg>
