<svg viewBox="0 0 48 48" width="100%" height="100%">
  <defs>
  <linearGradient id="f-flip-chart-tripod" x1="0" y1="0" x2="0" y2="1">
  <stop offset="0%" stop-color="#F8E0A0"/>
  <stop offset="50%" stop-color="#C9892D"/>
  <stop offset="100%" stop-color="#3F2A0A"/>
  </linearGradient>
  <linearGradient id="f-flip-chart-screen" x1="0" y1="0" x2="0" y2="1">
  <stop offset="0%" stop-color="#FCFBF4"/>
  <stop offset="100%" stop-color="#D9D0B8"/>
  </linearGradient>
  </defs>
  <ellipse cx="24" cy="45" rx="13" ry=".8" fill="rgba(0,0,0,.35)"/>
  <rect x="6" y="5" width="36" height="3.4" rx="1.4" fill="url(#f-flip-chart-tripod)" stroke="#3F2A0A" stroke-width=".8" stroke-linejoin="round"/>
  <rect x="6" y="5.4" width="36" height=".6" fill="rgba(255,255,255,.55)"/>
  <path d="M9 8 L9 44 M39 8 L39 44 M24 8 L18 45 M24 8 L30 45" stroke="url(#f-flip-chart-tripod)" stroke-width="1.4" stroke-linecap="round" fill="none"/>
  <rect x="9" y="9" width="30" height="22" fill="url(#f-flip-chart-screen)" stroke="#5A3F08" stroke-width=".9"/>
  <path d="M10 10 H38" stroke="rgba(255,255,255,.6)" stroke-width=".5"/>
  <path d="M24 20 L24 12 A8 8 0 0 1 31 16 Z" fill="#E95420" stroke="#5A1A04" stroke-width=".4" stroke-linejoin="round"/>
  <path d="M24 20 L31 16 A8 8 0 0 1 29 27 Z" fill="#F8D670" stroke="#5A1A04" stroke-width=".4" stroke-linejoin="round"/>
  <path d="M24 20 L29 27 A8 8 0 0 1 16 24 Z" fill="#DD4814" stroke="#5A1A04" stroke-width=".4" stroke-linejoin="round"/>
  <path d="M24 20 L16 24 A8 8 0 0 1 24 12 Z" fill="#77216F" stroke="#5A1A04" stroke-width=".4" stroke-linejoin="round"/>
  <circle cx="24" cy="44.5" r="1" fill="#DD4814" stroke="#5A1A04" stroke-width=".3"/>
  </svg>
