<svg viewBox="0 0 48 48" width="100%" height="100%">
<defs>
<linearGradient id="f-fountain-pen-sheet" x1="0" y1="0" x2="0" y2="1">
<stop offset="0%" stop-color="#FCFBF4"/>
<stop offset="100%" stop-color="#E6DBBC"/>
</linearGradient>
<linearGradient id="f-fountain-pen-line" x1="0" y1="0" x2="1" y2="0">
<stop offset="0%" stop-color="#F8763E"/>
<stop offset="55%" stop-color="#E95420"/>
<stop offset="100%" stop-color="#DD4814"/>
</linearGradient>
<linearGradient id="f-fountain-pen-barrel" x1="0" y1="0" x2="1" y2="0">
<stop offset="0%" stop-color="#FBF1D8"/>
<stop offset="40%" stop-color="#D4B575"/>
<stop offset="70%" stop-color="#C9892D"/>
<stop offset="100%" stop-color="#5A3F08"/>
</linearGradient>
<linearGradient id="f-fountain-pen-grip" x1="0" y1="0" x2="1" y2="0">
<stop offset="0%" stop-color="#9A4F86"/>
<stop offset="45%" stop-color="#77216F"/>
<stop offset="100%" stop-color="#2C001E"/>
</linearGradient>
<linearGradient id="f-fountain-pen-tip" x1="0" y1="0" x2="0" y2="1">
<stop offset="0%" stop-color="#6A4A12"/>
<stop offset="100%" stop-color="#1F0F04"/>
</linearGradient>
<radialGradient id="f-fountain-pen-cap" cx=".36" cy=".3" r=".85">
<stop offset="0%" stop-color="#FBF1D8"/>
<stop offset="55%" stop-color="#C9892D"/>
<stop offset="100%" stop-color="#3F2A0A"/>
</radialGradient>
</defs>
<ellipse cx="24" cy="44.4" rx="13" ry=".8" fill="rgba(0,0,0,.4)"/>
<g transform="rotate(-4 22 28)">
<rect x="5" y="13" width="32" height="30" rx="2" fill="url(#f-fountain-pen-sheet)" stroke="#5A3F08" stroke-width=".9" stroke-linejoin="round"/>
<rect x="6" y="14" width="30" height="1.6" rx=".8" fill="rgba(255,255,255,.7)"/>
<line x1="8" y1="38.5" x2="34" y2="38.5" stroke="#C9B888" stroke-width=".5" opacity=".6"/>
<line x1="8" y1="23" x2="34" y2="23" stroke="#C9B888" stroke-width=".5" opacity=".4"/>
<path d="M8 38 C 13 37.5 15 31 19 28.5 S 25 25.5 28 24.6" fill="none" stroke="url(#f-fountain-pen-line)" stroke-width="2.7" stroke-linecap="round" stroke-linejoin="round"/>
<path d="M8 38 C 13 37.5 15 31 19 28.5 S 25 25.5 28 24.6" fill="none" stroke="rgba(255,247,228,.4)" stroke-width=".7" stroke-linecap="round"/>
</g>
<g transform="rotate(36 33 17)">
<rect x="29.4" y="2.4" width="7.2" height="14" rx="1.8" fill="url(#f-fountain-pen-barrel)" stroke="#3F2A0A" stroke-width=".9" stroke-linejoin="round"/>
<rect x="30.3" y="3.3" width="1.5" height="11" rx=".75" fill="rgba(255,255,255,.65)"/>
<rect x="29.4" y="15" width="7.2" height="5" fill="url(#f-fountain-pen-grip)" stroke="#3F2A0A" stroke-width=".9" stroke-linejoin="round"/>
<rect x="30.3" y="15.6" width="1.4" height="3.6" rx=".7" fill="rgba(255,255,255,.3)"/>
<path d="M29.4 4.2 Q33 .4 36.6 4.2 L36.6 5.4 L29.4 5.4 Z" fill="url(#f-fountain-pen-cap)" stroke="#3F2A0A" stroke-width=".9" stroke-linejoin="round"/>
<circle cx="32" cy="3.3" r=".9" fill="rgba(255,255,255,.7)"/>
<rect x="29.4" y="13.1" width="7.2" height="1.9" fill="#F8D670" stroke="#5A3F08" stroke-width=".4"/>
<path d="M31.4 20 L34.6 20 L33.7 24.6 L33 26 L32.3 24.6 Z" fill="url(#f-fountain-pen-tip)" stroke="#1F0F04" stroke-width=".6" stroke-linejoin="round"/>
<rect x="31.9" y="20.6" width=".6" height="3.4" rx=".3" fill="rgba(255,255,255,.35)"/>
</g>
</svg>
