<svg viewBox="0 0 48 48" width="100%" height="100%">
  <defs>
  <linearGradient id="ai-card-face" x1="0" y1="0" x2="0" y2="1">
  <stop offset="0%" stop-color="#FCFBF4"/>
  <stop offset="100%" stop-color="#D4CCB8"/>
  </linearGradient>
  </defs>
  <g transform="rotate(-20 24 39)">
  <rect x="13" y="7" width="22" height="32" rx="2.2" fill="url(#ai-card-face)" stroke="#5A3F08" stroke-width=".9"/>
  <rect x="13" y="7" width="22" height="1.4" rx=".7" fill="rgba(255,255,255,.65)"/>
  <rect x="14.6" y="8.6" width="18.8" height="28.8" rx="1.4" fill="none" stroke="#C9892D" stroke-width=".4" opacity=".75"/>
  <text x="15.6" y="15" font-family="Ubuntu, sans-serif" font-weight="700" font-size="5.4" fill="#3D0B2C">A</text>
  <text x="32.4" y="31" font-family="Ubuntu, sans-serif" font-weight="700" font-size="5.4" fill="#3D0B2C" transform="rotate(180 32.4 31)">A</text>
  <path d="M24 16 C 29.5 22, 29.5 28, 24 26 C 18.5 28, 18.5 22, 24 16 Z" fill="#3D0B2C" stroke="#1F0518" stroke-width=".4" stroke-linejoin="round"/>
  <path d="M22 26 H26 L27 30 H21 Z" fill="#3D0B2C" stroke="#1F0518" stroke-width=".4" stroke-linejoin="round"/>
  </g>
  <g transform="rotate(20 24 39)">
  <rect x="13" y="7" width="22" height="32" rx="2.2" fill="url(#ai-card-face)" stroke="#5A3F08" stroke-width=".9"/>
  <rect x="13" y="7" width="22" height="1.4" rx=".7" fill="rgba(255,255,255,.65)"/>
  <rect x="14.6" y="8.6" width="18.8" height="28.8" rx="1.4" fill="none" stroke="#C9892D" stroke-width=".4" opacity=".75"/>
  <text x="15.6" y="15" font-family="Ubuntu, sans-serif" font-weight="700" font-size="5.4" fill="#DD4814">A</text>
  <text x="32.4" y="31" font-family="Ubuntu, sans-serif" font-weight="700" font-size="5.4" fill="#DD4814" transform="rotate(180 32.4 31)">A</text>
  <path d="M24 29 C 18.5 23, 18.5 18, 24 20.5 C 29.5 18, 29.5 23, 24 29 Z" fill="#DD4814" stroke="#7A1F08" stroke-width=".4" stroke-linejoin="round"/>
  <path d="M21 21.5 C 19 22, 19 24, 21 25.5" stroke="rgba(255,255,255,.4)" stroke-width="1.1" fill="none"/>
  </g>
  </svg>
