<svg viewBox="0 0 48 48" width="100%" height="100%">
  <defs>
    <linearGradient id="f-gantt-chart-card" x1="0" y1="0" x2="0" y2="1">
      <stop offset="0%" stop-color="#FBF1D8"/>
      <stop offset="52%" stop-color="#C9892D"/>
      <stop offset="100%" stop-color="#5A3F08"/>
    </linearGradient>
    <linearGradient id="f-gantt-chart-paper" x1="0" y1="0" x2="0" y2="1">
      <stop offset="0%" stop-color="#FCFBF4"/>
      <stop offset="100%" stop-color="#E3DAC2"/>
    </linearGradient>
    <linearGradient id="f-gantt-chart-bar" x1="0" y1="0" x2="0" y2="1">
      <stop offset="0%" stop-color="#F07A3C"/>
      <stop offset="48%" stop-color="#E95420"/>
      <stop offset="100%" stop-color="#7A1F08"/>
    </linearGradient>
    <linearGradient id="f-gantt-chart-tab" x1="0" y1="0" x2="0" y2="1">
      <stop offset="0%" stop-color="#F8E0A0"/>
      <stop offset="100%" stop-color="#6A4A12"/>
    </linearGradient>
  </defs>
  <ellipse cx="24" cy="44" rx="12" ry=".8" fill="rgba(0,0,0,.4)"/>
  <rect x="7" y="6" width="34" height="36" rx="3" fill="url(#f-gantt-chart-card)" stroke="#3F2A0A" stroke-width=".9"/>
  <path d="M9.4 8 H38.6" stroke="rgba(255,255,255,.65)" stroke-width=".7"/>
  <rect x="7" y="6" width="34" height="36" rx="3" fill="none" stroke="rgba(255,247,228,.2)" stroke-width=".5"/>
  <rect x="17.6" y="3" width="12.8" height="6" rx="1.6" fill="url(#f-gantt-chart-tab)" stroke="#3F2A0A" stroke-width=".75"/>
  <rect x="20.6" y="5" width="6.8" height="2.4" rx="1.2" fill="#3D2607" stroke="#1F0F04" stroke-width=".4"/>
  <path d="M19 4.3 H29" stroke="rgba(255,255,255,.65)" stroke-width=".5" stroke-linecap="round"/>
  <rect x="10.6" y="11" width="26.8" height="28" rx="1.4" fill="url(#f-gantt-chart-paper)" stroke="#3F2A0A" stroke-width=".6"/>
  <path d="M12 12.3 H36" stroke="rgba(255,255,255,.7)" stroke-width=".5" stroke-linecap="round"/>
  <path d="M13.4 14.6 H34.6" stroke="#9A8870" stroke-width=".7" stroke-linecap="round"/>
  <g stroke="#C4B894" stroke-width=".5" stroke-linecap="round">
    <path d="M19.4 15.6 V37"/>
    <path d="M25.4 15.6 V37"/>
    <path d="M31.4 15.6 V37"/>
  </g>
  <g stroke="#3F2A0A" stroke-width=".5" stroke-linejoin="round">
    <rect x="13.4" y="17.4" width="14" height="4" rx="2" fill="url(#f-gantt-chart-bar)"/>
    <rect x="18.6" y="23" width="11.6" height="4" rx="2" fill="url(#f-gantt-chart-bar)"/>
    <rect x="14.6" y="28.6" width="9.4" height="4" rx="2" fill="url(#f-gantt-chart-bar)"/>
    <rect x="22.6" y="34.2" width="10.4" height="4" rx="2" fill="url(#f-gantt-chart-bar)"/>
  </g>
  <g stroke="rgba(255,247,228,.55)" stroke-width=".7" stroke-linecap="round">
    <path d="M14.9 18.6 H25.6"/>
    <path d="M20.1 24.2 H28.8"/>
    <path d="M16.1 29.8 H22.6"/>
    <path d="M24.1 35.4 H31.6"/>
  </g>
  <path d="M32.2 21.3 L35.1 25 L32.2 28.7 L29.3 25 Z" fill="#F8D670" stroke="#5A1A04" stroke-width=".6" stroke-linejoin="round"/>
  <path d="M30.6 23.4 L32.2 22" stroke="rgba(255,255,255,.75)" stroke-width=".6" stroke-linecap="round"/>
</svg>
