<svg viewBox="0 0 48 48" width="100%" height="100%">
  <defs>
    <radialGradient id="f-gauge-case" cx=".38" cy=".35" r=".75">
      <stop offset="0%" stop-color="#FBF1D8"/>
      <stop offset="55%" stop-color="#C9892D"/>
      <stop offset="100%" stop-color="#5A3F08"/>
    </radialGradient>
    <radialGradient id="f-gauge-face" cx=".38" cy=".32" r=".8">
      <stop offset="0%" stop-color="#3D0B2C"/>
      <stop offset="60%" stop-color="#2C001E"/>
      <stop offset="100%" stop-color="#0A0008"/>
    </radialGradient>
    <linearGradient id="f-gauge-hub" x1="0" y1="0" x2="0" y2="1">
      <stop offset="0%" stop-color="#F8E0A0"/>
      <stop offset="100%" stop-color="#6A4A12"/>
    </linearGradient>
  </defs>
  <ellipse cx="24" cy="44" rx="13" ry=".8" fill="rgba(0,0,0,.4)"/>
  <circle cx="24" cy="24" r="20" fill="url(#f-gauge-case)" stroke="#3F2A0A" stroke-width=".9"/>
  <path d="M9 13 A20 20 0 0 1 39 13" fill="none" stroke="rgba(255,255,255,.65)" stroke-width=".7"/>
  <circle cx="24" cy="24" r="16.5" fill="url(#f-gauge-face)" stroke="#0A0306" stroke-width=".8"/>
  <circle cx="24" cy="24" r="16.5" fill="none" stroke="rgba(255,247,228,.18)" stroke-width=".5"/>
  <path d="M9.6 30.5 A15.5 15.5 0 0 1 38.4 30.5" fill="none" stroke="#5E2750" stroke-width="2.6" stroke-linecap="round"/>
  <g stroke="#F8D670" stroke-width="1.2" stroke-linecap="round">
    <path d="M10.5 31.7 L13.1 30.3"/>
    <path d="M10.9 25.2 L13.8 25.2"/>
    <path d="M12.6 19 L15.2 20.4"/>
    <path d="M16.6 14.2 L18.6 16.5"/>
    <path d="M24 12.4 L24 15.4"/>
    <path d="M31.4 14.2 L29.4 16.5"/>
    <path d="M35.4 19 L32.8 20.4"/>
    <path d="M37.1 25.2 L34.2 25.2"/>
    <path d="M37.5 31.7 L34.9 30.3"/>
  </g>
  <path d="M24 24 L33.8 14.8" fill="none" stroke="#E95420" stroke-width="2" stroke-linecap="round"/>
  <path d="M24 24 L20.8 27" fill="none" stroke="#7A1F08" stroke-width="2.2" stroke-linecap="round"/>
  <circle cx="24" cy="24" r="2.6" fill="url(#f-gauge-hub)" stroke="#3F2A0A" stroke-width=".6"/>
  <circle cx="23.3" cy="23.3" r=".7" fill="rgba(255,247,228,.7)"/>
  <rect x="18" y="33.4" width="12" height="5" rx="1.2" fill="#1A0512" stroke="#0A0306" stroke-width=".6"/>
  <path d="M20 36.2 H21.6 M22.6 36.2 H24.2 M25.2 36.2 H26.8 M27.8 36.2 H28.4" stroke="#F8D670" stroke-width="1" stroke-linecap="round"/>
  <circle cx="35" cy="11" r="2.4" fill="rgba(255,247,228,.55)"/>
</svg>
