<svg viewBox="0 0 48 48" width="100%" height="100%">
  <defs>
    <radialGradient id="f-gold-star-star" cx=".38" cy=".32" r=".82">
      <stop offset="0%" stop-color="#F8E0A0"/>
      <stop offset="45%" stop-color="#F8D670"/>
      <stop offset="78%" stop-color="#C9892D"/>
      <stop offset="100%" stop-color="#3F2A0A"/>
    </radialGradient>
    <linearGradient id="f-gold-star-base" x1="0" y1="0" x2="0" y2="1">
      <stop offset="0%" stop-color="#5E2750"/>
      <stop offset="55%" stop-color="#3D0B2C"/>
      <stop offset="100%" stop-color="#1A0512"/>
    </linearGradient>
    <linearGradient id="f-gold-star-collar" x1="0" y1="0" x2="0" y2="1">
      <stop offset="0%" stop-color="#FBF1D8"/>
      <stop offset="55%" stop-color="#C9892D"/>
      <stop offset="100%" stop-color="#5A3F08"/>
    </linearGradient>
  </defs>
  <ellipse cx="24" cy="44" rx="12" ry=".8" fill="rgba(0,0,0,.4)"/>
  <path d="M11.5 43 L36.5 43 L33 36 L15 36 Z" fill="url(#f-gold-star-base)" stroke="#1A0F04" stroke-width=".9" stroke-linejoin="round"/>
  <path d="M16 36.9 L32 36.9" stroke="rgba(255,255,255,.18)" stroke-width=".5"/>
  <rect x="19" y="32.5" width="10" height="4.5" rx="1.2" fill="url(#f-gold-star-collar)" stroke="#3F2A0A" stroke-width=".8" stroke-linejoin="round"/>
  <path d="M20.2 33.4 L27.8 33.4" stroke="rgba(255,255,255,.6)" stroke-width=".5"/>
  <path d="M24 4.5 L29.6 18 L43.5 19.2 L33 28.6 L36.2 42 L24 34.8 L11.8 42 L15 28.6 L4.5 19.2 L18.4 18 Z" fill="url(#f-gold-star-star)" stroke="#3F2A0A" stroke-width="1.1" stroke-linejoin="round"/>
  <path d="M24 9 L27.7 18.6 L37.6 19.5 L30 26.1 L32.3 35.7 L24 30.6 L24 9 Z" fill="rgba(90,63,8,.32)" stroke="none"/>
  <path d="M24 8.5 L20.4 18.4 L9.5 19.6" fill="none" stroke="rgba(255,255,255,.55)" stroke-width=".7" stroke-linejoin="round"/>
  <circle cx="24" cy="22.5" r="3.1" fill="#E95420" stroke="#5A1A04" stroke-width="1.1"/>
  <circle cx="22.9" cy="21.4" r="1" fill="#F8D670"/>
  <circle cx="24" cy="7" r="1.2" fill="#FBE57E" stroke="#5A3F08" stroke-width=".4"/>
</svg>
