<svg viewBox="0 0 48 48" width="100%" height="100%">
  <defs>
    <linearGradient id="f-gps-device-body" x1="0" y1="0" x2="0" y2="1"><stop offset="0%" stop-color="#FBF1D8"/><stop offset="55%" stop-color="#D4B575"/><stop offset="100%" stop-color="#5A3F08"/></linearGradient>
    <linearGradient id="f-gps-device-screen" x1="0" y1="0" x2="0" y2="1"><stop offset="0%" stop-color="#3D0B2C"/><stop offset="100%" stop-color="#1A0512"/></linearGradient>
    <radialGradient id="f-gps-device-lens" cx=".38" cy=".35" r=".7"><stop offset="0%" stop-color="#77216F"/><stop offset="60%" stop-color="#2C001E"/><stop offset="100%" stop-color="#0A0008"/></radialGradient>
    <linearGradient id="f-gps-device-btn" x1="0" y1="0" x2="0" y2="1"><stop offset="0%" stop-color="#F8E0A0"/><stop offset="100%" stop-color="#C9892D"/></linearGradient>
  </defs>
  <ellipse cx="24" cy="44" rx="11" ry=".8" fill="rgba(0,0,0,.4)"/>
  <rect x="33" y="3.5" width="3.4" height="5" rx="1.4" fill="url(#f-gps-device-body)" stroke="#3F2A0A" stroke-width=".8"/>
  <rect x="11" y="6" width="26" height="38" rx="5" fill="url(#f-gps-device-body)" stroke="#3F2A0A" stroke-width=".9"/>
  <path d="M14 8 H34" stroke="rgba(255,255,255,.65)" stroke-width=".6"/>
  <rect x="14.5" y="9.5" width="19" height="20" rx="1.6" fill="url(#f-gps-device-screen)" stroke="#0A0306" stroke-width=".7"/>
  <path d="M17 27 Q19 21 22 21 Q26 21 26.5 16 Q27 12 30.5 12" fill="none" stroke="#E95420" stroke-width="1.6" stroke-linecap="round" stroke-linejoin="round"/>
  <circle cx="17" cy="27" r="1.2" fill="#F8D670" stroke="#5A1A04" stroke-width=".3"/>
  <path d="M30.5 9.5 C28.3 9.5 27 11 27 12.7 C27 14.8 30.5 18 30.5 18 C30.5 18 34 14.8 34 12.7 C34 11 32.7 9.5 30.5 9.5 Z" fill="#DD4814" stroke="#5A1A04" stroke-width=".7" stroke-linejoin="round"/>
  <circle cx="30.5" cy="12.6" r="1.3" fill="#FBF1D8" stroke="#5A1A04" stroke-width=".3"/>
  <circle cx="24" cy="36.5" r="4.4" fill="url(#f-gps-device-lens)" stroke="#1A0F04" stroke-width=".7"/>
  <circle cx="24" cy="36.5" r="2" fill="url(#f-gps-device-btn)" stroke="#3F2A0A" stroke-width=".5"/>
  <circle cx="22.6" cy="35.4" r=".6" fill="rgba(255,247,228,.7)"/>
  <circle cx="15.5" cy="33.5" r="1.5" fill="url(#f-gps-device-btn)" stroke="#3F2A0A" stroke-width=".4"/>
  <circle cx="32.5" cy="33.5" r="1.5" fill="url(#f-gps-device-btn)" stroke="#3F2A0A" stroke-width=".4"/>
  <circle cx="15.5" cy="40" r="1.5" fill="url(#f-gps-device-btn)" stroke="#3F2A0A" stroke-width=".4"/>
  <circle cx="32.5" cy="40" r="1.5" fill="url(#f-gps-device-btn)" stroke="#3F2A0A" stroke-width=".4"/>
</svg>
