<svg viewBox="0 0 48 48" width="100%" height="100%">
  <defs>
  <linearGradient id="ai-gr-board" x1="0" y1="0" x2="0" y2="1">
  <stop offset="0%" stop-color="#D89460"/>
  <stop offset="55%" stop-color="#A8651C"/>
  <stop offset="100%" stop-color="#5A2F0D"/>
  </linearGradient>
  <linearGradient id="ai-gr-cap" x1="0" y1="0" x2="0" y2="1">
  <stop offset="0%" stop-color="#8A5018"/>
  <stop offset="100%" stop-color="#2A1A04"/>
  </linearGradient>
  </defs>
  <ellipse cx="24" cy="44" rx="14" ry=".7" fill="rgba(0,0,0,.35)"/>
  <path d="M10 22 Q 10 36 24 36 Q 38 36 38 22 Z" fill="url(#ai-gr-cap)" stroke="#0A0008" stroke-width=".9" stroke-linejoin="round"/>
  <path d="M11 23 Q 13 32 24 33" fill="none" stroke="rgba(255,247,228,.18)" stroke-width=".5"/>
  <path d="M24 8 L44 18 L24 28 L4 18 Z" fill="url(#ai-gr-board)" stroke="#0A0008" stroke-width=".9" stroke-linejoin="round"/>
  <path d="M24 9 L42 17.5 L24 14 Z" fill="rgba(255,247,228,.16)"/>
  <path d="M24 9 L43 18" stroke="rgba(255,255,255,.4)" stroke-width=".4"/>
  <path d="M24 9 L5 18" stroke="rgba(255,255,255,.28)" stroke-width=".4"/>
  <circle cx="24" cy="18" r="1.4" fill="#F8D670" stroke="#3F2A0A" stroke-width=".5"/>
  <path d="M24 18 Q 30 22 32 28" fill="none" stroke="#DD4814" stroke-width="1.3" stroke-linecap="round"/>
  <rect x="31" y="27" width="2.4" height="2" rx=".3" fill="#F8D670" stroke="#3F2A0A" stroke-width=".4"/>
  <g stroke="#DD4814" stroke-width="1.3" stroke-linecap="round">
  <line x1="32.2" y1="29" x2="30.5" y2="34"/>
  <line x1="32.2" y1="29" x2="32.2" y2="35"/>
  <line x1="32.2" y1="29" x2="33.9" y2="34"/>
  </g>
  </svg>
