<svg viewBox="0 0 48 48" width="100%" height="100%">
<defs>
<linearGradient id="f-hand-truck-rail" x1="0" y1="0" x2="1" y2="0">
<stop offset="0%" stop-color="#FBF1D8"/>
<stop offset="45%" stop-color="#C9892D"/>
<stop offset="100%" stop-color="#5A3F08"/>
</linearGradient>
<linearGradient id="f-hand-truck-plate" x1="0" y1="0" x2="0" y2="1">
<stop offset="0%" stop-color="#F8E0A0"/>
<stop offset="55%" stop-color="#C9892D"/>
<stop offset="100%" stop-color="#3F2A0A"/>
</linearGradient>
<linearGradient id="f-hand-truck-box1" x1="0" y1="0" x2="0" y2="1">
<stop offset="0%" stop-color="#FBF1D8"/>
<stop offset="55%" stop-color="#D4B575"/>
<stop offset="100%" stop-color="#7A4810"/>
</linearGradient>
<linearGradient id="f-hand-truck-box2" x1="0" y1="0" x2="0" y2="1">
<stop offset="0%" stop-color="#F8E0A0"/>
<stop offset="55%" stop-color="#C9892D"/>
<stop offset="100%" stop-color="#6A4A12"/>
</linearGradient>
<radialGradient id="f-hand-truck-wheel" cx=".4" cy=".34" r=".78">
<stop offset="0%" stop-color="#5A3F08"/>
<stop offset="60%" stop-color="#1F0F04"/>
<stop offset="100%" stop-color="#0A0306"/>
</radialGradient>
<radialGradient id="f-hand-truck-hub" cx=".4" cy=".34" r=".72">
<stop offset="0%" stop-color="#FBF1D8"/>
<stop offset="55%" stop-color="#D4B575"/>
<stop offset="100%" stop-color="#7A4810"/>
</radialGradient>
</defs>
<ellipse cx="24" cy="45" rx="16" ry="1.1" fill="rgba(0,0,0,.4)"/>
<g transform="rotate(-9 26 26)">
<rect x="30.6" y="5" width="3.4" height="34.5" rx="1.5" fill="url(#f-hand-truck-rail)" stroke="#3F2A0A" stroke-width=".9" stroke-linejoin="round"/>
<rect x="31.2" y="5.8" width="1" height="32" rx=".5" fill="rgba(255,255,255,.55)"/>
<rect x="29.2" y="4.4" width="6.4" height="3.2" rx="1.5" fill="url(#f-hand-truck-rail)" stroke="#3F2A0A" stroke-width=".9" stroke-linejoin="round"/>
<rect x="29.9" y="5" width="5" height=".9" rx=".45" fill="rgba(255,255,255,.6)"/>
<path d="M31.6 39 L31.6 42 Q31.6 44 29.6 44 L17 44 Q15 44 15 42.4 Q15 41 16.6 41 L31.6 41 Z" fill="url(#f-hand-truck-plate)" stroke="#3F2A0A" stroke-width=".9" stroke-linejoin="round"/>
<path d="M17 42 L30.4 42" stroke="rgba(255,255,255,.4)" stroke-width=".6" stroke-linecap="round"/>
<rect x="17.4" y="24.6" width="15.6" height="15.6" rx="1.2" fill="url(#f-hand-truck-box1)" stroke="#3F2A0A" stroke-width="1" stroke-linejoin="round"/>
<path d="M18.6 25.8 H31.8" stroke="rgba(255,255,255,.65)" stroke-width=".6" stroke-linecap="round"/>
<path d="M17.4 31.2 H33" stroke="#A8741F" stroke-width=".7"/>
<rect x="23.4" y="24.6" width="3.8" height="15.6" fill="#C9892D" stroke="#7A4810" stroke-width=".35"/>
<rect x="23.7" y="24.8" width="3.2" height=".7" fill="#F8E0A0" opacity=".7"/>
<rect x="18.8" y="26.4" width="3.4" height="2.4" fill="#E95420" stroke="#5A1A04" stroke-width=".4"/>
<circle cx="20.5" cy="27.6" r=".6" fill="#F8D670"/>
<rect x="18.8" y="13.4" width="12.8" height="11.2" rx="1.2" fill="url(#f-hand-truck-box2)" stroke="#3F2A0A" stroke-width="1" stroke-linejoin="round"/>
<path d="M19.9 14.5 H30.7" stroke="rgba(255,255,255,.65)" stroke-width=".6" stroke-linecap="round"/>
<rect x="20.4" y="15.8" width="6.6" height="5.4" rx=".5" fill="#FCFBF4" stroke="#3F2A0A" stroke-width=".5"/>
<rect x="24.1" y="16.3" width="2.3" height="1.6" fill="#E95420"/>
<path d="M21.1 18.5 H26.2" stroke="#7A4810" stroke-width=".5"/>
<path d="M21.1 19.7 H24.8" stroke="#7A4810" stroke-width=".5"/>
</g>
<circle cx="17.6" cy="38" r="6" fill="url(#f-hand-truck-wheel)" stroke="#0A0306" stroke-width=".9"/>
<circle cx="17.6" cy="38" r="2.7" fill="url(#f-hand-truck-hub)" stroke="#3F2A0A" stroke-width=".7"/>
<circle cx="16.5" cy="36.9" r=".8" fill="rgba(255,247,228,.7)"/>
<path d="M13.6 35 a6 6 0 0 1 2.2 -2" fill="none" stroke="rgba(255,255,255,.4)" stroke-width=".6" stroke-linecap="round"/>
</svg>
