<svg viewBox="0 0 48 48" width="100%" height="100%">
  <defs>
  <radialGradient id="f-house-key-bow" cx=".38" cy=".32" r=".8">
  <stop offset="0%" stop-color="#FBF1D8"/>
  <stop offset="55%" stop-color="#E7AE1F"/>
  <stop offset="100%" stop-color="#6A4A12"/>
  </radialGradient>
  <linearGradient id="f-house-key-blade" x1="0" y1="0" x2="0" y2="1">
  <stop offset="0%" stop-color="#FBF1D8"/>
  <stop offset="50%" stop-color="#D4B575"/>
  <stop offset="100%" stop-color="#6A4A12"/>
  </linearGradient>
  </defs>
  <ellipse cx="24" cy="45" rx="15" ry=".9" fill="rgba(0,0,0,.4)"/>
  <g transform="rotate(-32 24 24)">
  <rect x="20" y="21.4" width="22" height="5.2" rx="1" fill="url(#f-house-key-blade)" stroke="#3F2A0A" stroke-width=".9"/>
  <path d="M33 26.6 V30 H35 V26.6 M37 26.6 V29 H39 V26.6 M40.5 26.6 V30.5 H42.5 V26.6" fill="url(#f-house-key-blade)" stroke="#3F2A0A" stroke-width=".9" stroke-linejoin="round"/>
  <line x1="21" y1="22.4" x2="41" y2="22.4" stroke="rgba(255,255,255,.6)" stroke-width=".7"/>
  <circle cx="13" cy="24" r="9.5" fill="url(#f-house-key-bow)" stroke="#3F2A0A" stroke-width="1"/>
  <circle cx="13" cy="24" r="4.2" fill="#2C001E" stroke="#1A0512" stroke-width=".8"/>
  <circle cx="13" cy="24" r="4.2" fill="none" stroke="rgba(255,247,228,.3)" stroke-width=".5"/>
  <path d="M7 19.5 A9.5 9.5 0 0 1 17 16" fill="none" stroke="rgba(255,255,255,.55)" stroke-width="1"/>
  <circle cx="10.5" cy="20.5" r="1" fill="#E95420"/>
  </g>
</svg>
