<svg viewBox="0 0 48 48" width="100%" height="100%">
  <defs>
  <radialGradient id="ai-js-ball" cx=".38" cy=".32" r=".75">
  <stop offset="0%" stop-color="#F8A060"/>
  <stop offset="45%" stop-color="#DD4814"/>
  <stop offset="100%" stop-color="#5A1A04"/>
  </radialGradient>
  <linearGradient id="ai-js-base" x1="0" y1="0" x2="0" y2="1">
  <stop offset="0%" stop-color="#FBF1D8"/>
  <stop offset="55%" stop-color="#C9892D"/>
  <stop offset="100%" stop-color="#5A3F08"/>
  </linearGradient>
  </defs>
  <ellipse cx="24" cy="44" rx="16" ry=".9" fill="rgba(0,0,0,.4)"/>
  <rect x="22" y="14" width="4" height="20" fill="#9A8870" stroke="#3F2A0A" stroke-width=".5"/>
  <rect x="22.5" y="14" width="1.3" height="20" fill="rgba(255,255,255,.5)"/>
  <path d="M19 30 H29 L26 36 H22 Z" fill="#3D0B2C" stroke="#0A0008" stroke-width=".5" stroke-linejoin="round"/>
  <circle cx="24" cy="11" r="8" fill="url(#ai-js-ball)" stroke="#3F1A04" stroke-width=".9"/>
  <ellipse cx="21" cy="8" rx="2.6" ry="1.6" fill="rgba(255,247,228,.6)" transform="rotate(-30 21 8)"/>
  <path d="M8 34 H40 L37 41 Q37 42 36 42 H12 Q11 42 11 41 Z" fill="url(#ai-js-base)" stroke="#3F2A0A" stroke-width=".9" stroke-linejoin="round"/>
  <path d="M9 35 H39" stroke="rgba(255,255,255,.55)" stroke-width=".5"/>
  <circle cx="32" cy="38" r="2.4" fill="#DD4814" stroke="#5A1A04" stroke-width=".5"/>
  <circle cx="31.2" cy="37.3" r=".7" fill="rgba(255,247,228,.55)"/>
  <circle cx="15" cy="38" r="2.4" fill="#F8D670" stroke="#5A3F08" stroke-width=".5"/>
  <circle cx="14.2" cy="37.3" r=".7" fill="rgba(255,255,255,.6)"/>
  </svg>
