<svg viewBox="0 0 48 48" width="100%" height="100%">
  <defs>
    <linearGradient id="f-kanban-board-frame" x1="0" y1="0" x2="0" y2="1">
      <stop offset="0%" stop-color="#FBF1D8"/>
      <stop offset="52%" stop-color="#C9892D"/>
      <stop offset="100%" stop-color="#5A3F08"/>
    </linearGradient>
    <radialGradient id="f-kanban-board-board" cx=".38" cy=".32" r=".85">
      <stop offset="0%" stop-color="#3D0B2C"/>
      <stop offset="60%" stop-color="#2C001E"/>
      <stop offset="100%" stop-color="#0A0008"/>
    </radialGradient>
    <linearGradient id="f-kanban-board-orange" x1="0" y1="0" x2="0" y2="1">
      <stop offset="0%" stop-color="#E95420"/>
      <stop offset="100%" stop-color="#7A1F08"/>
    </linearGradient>
    <linearGradient id="f-kanban-board-cream" x1="0" y1="0" x2="0" y2="1">
      <stop offset="0%" stop-color="#FCFBF4"/>
      <stop offset="100%" stop-color="#D9D0B8"/>
    </linearGradient>
    <linearGradient id="f-kanban-board-rail" x1="0" y1="0" x2="0" y2="1">
      <stop offset="0%" stop-color="#F8E0A0"/>
      <stop offset="100%" stop-color="#6A4A12"/>
    </linearGradient>
  </defs>
  <ellipse cx="24" cy="44" rx="12" ry=".8" fill="rgba(0,0,0,.4)"/>
  <rect x="5" y="6" width="38" height="35" rx="3.4" fill="url(#f-kanban-board-frame)" stroke="#3F2A0A" stroke-width=".9"/>
  <path d="M7.4 8 H40.6" stroke="rgba(255,255,255,.65)" stroke-width=".6"/>
  <rect x="7.6" y="8.4" width="32.8" height="30.2" rx="1.6" fill="url(#f-kanban-board-board)" stroke="#0A0008" stroke-width=".7"/>
  <rect x="7.6" y="8.4" width="32.8" height="30.2" rx="1.6" fill="none" stroke="rgba(255,247,228,.18)" stroke-width=".5"/>
  <rect x="10" y="11" width="2" height="3.2" rx=".5" fill="url(#f-kanban-board-rail)" stroke="#3F2A0A" stroke-width=".4"/>
  <path d="M12 12.6 H36" stroke="#5E2750" stroke-width="1" stroke-linecap="round"/>
  <rect x="36" y="11" width="2" height="3.2" rx=".5" fill="url(#f-kanban-board-rail)" stroke="#3F2A0A" stroke-width=".4"/>
  <g stroke="#3F2A0A" stroke-width=".5" stroke-linejoin="round">
    <rect x="9.4" y="16" width="9.2" height="5" rx=".8" fill="url(#f-kanban-board-orange)"/>
    <rect x="9.4" y="22.4" width="9.2" height="5" rx=".8" fill="url(#f-kanban-board-cream)"/>
    <rect x="19.4" y="16" width="9.2" height="5" rx=".8" fill="url(#f-kanban-board-cream)"/>
    <rect x="29.4" y="16" width="9.2" height="5" rx=".8" fill="url(#f-kanban-board-cream)"/>
    <rect x="29.4" y="22.4" width="9.2" height="5" rx=".8" fill="url(#f-kanban-board-orange)"/>
    <rect x="29.4" y="28.8" width="9.2" height="5" rx=".8" fill="url(#f-kanban-board-cream)"/>
  </g>
  <path d="M10.4 16.6 H17.6" stroke="rgba(255,247,228,.5)" stroke-width=".5" stroke-linecap="round"/>
  <path d="M30.4 23 H37.6" stroke="rgba(255,247,228,.5)" stroke-width=".5" stroke-linecap="round"/>
  <g stroke="#9A8870" stroke-width=".5" stroke-linecap="round">
    <path d="M10.6 24.2 H16.4"/>
    <path d="M10.6 25.8 H14.8"/>
    <path d="M20.6 17.8 H26.6"/>
    <path d="M20.6 19.4 H25"/>
    <path d="M30.6 17.8 H36.6"/>
    <path d="M30.6 19.4 H35"/>
    <path d="M30.6 30.6 H36.6"/>
    <path d="M30.6 32.2 H35"/>
  </g>
  <path d="M11 18.8 L12.6 20.4 L15.6 17" fill="none" stroke="#FBE57E" stroke-width="1.2" stroke-linecap="round" stroke-linejoin="round"/>
  <circle cx="27" cy="25" r="1.4" fill="#F8D670" stroke="#5A1A04" stroke-width=".4"/>
  <rect x="9.4" y="35.4" width="13" height="2.4" rx="1.2" fill="#1A0512" stroke="#0A0306" stroke-width=".5"/>
  <path d="M11 36.6 H13 M14 36.6 H16 M17 36.6 H18.4" stroke="#F8D670" stroke-width=".7" stroke-linecap="round"/>
</svg>
