<svg viewBox="0 0 48 48" width="100%" height="100%">
  <defs>
  <linearGradient id="ai-kb-board" x1="0" y1="0" x2="0" y2="1">
  <stop offset="0%" stop-color="#C9892D"/>
  <stop offset="55%" stop-color="#8A5F18"/>
  <stop offset="100%" stop-color="#3F2A0A"/>
  </linearGradient>
  <linearGradient id="ai-kb-key" x1="0" y1="0" x2="0" y2="1">
  <stop offset="0%" stop-color="#F8D670"/>
  <stop offset="55%" stop-color="#C9892D"/>
  <stop offset="100%" stop-color="#5A3F08"/>
  </linearGradient>
  </defs>
  <rect x="3" y="6" width="42" height="14" rx="1" fill="url(#ai-kb-board)" stroke="#1F0F04" stroke-width=".9"/>
  <path d="M4 7 H44" stroke="rgba(255,247,228,.45)" stroke-width=".5"/>
  <g stroke="rgba(63,15,4,.32)" stroke-width=".4">
  <line x1="5" y1="11" x2="43" y2="11"/>
  <line x1="5" y1="15" x2="43" y2="15"/>
  </g>
  <g fill="#3F2A0A">
  <circle cx="6" cy="9" r=".9"/>
  <circle cx="42" cy="9" r=".9"/>
  <circle cx="6" cy="17" r=".9"/>
  <circle cx="42" cy="17" r=".9"/>
  </g>
  <g stroke="#F8D670" stroke-width=".3">
  <line x1="5" y1="9" x2="7" y2="9"/>
  <line x1="41" y1="9" x2="43" y2="9"/>
  <line x1="5" y1="17" x2="7" y2="17"/>
  <line x1="41" y1="17" x2="43" y2="17"/>
  </g>
  <path d="M16 16 V19 C 16 22 12 22 12 19" fill="none" stroke="#F8D670" stroke-width="1.6" stroke-linecap="round"/>
  <path d="M34 16 V19 C 34 22 30 22 30 19" fill="none" stroke="#F8D670" stroke-width="1.6" stroke-linecap="round"/>
  <path d="M16 16 V19 C 16 22 12 22 12 19" fill="none" stroke="#5A3F08" stroke-width=".4"/>
  <path d="M34 16 V19 C 34 22 30 22 30 19" fill="none" stroke="#5A3F08" stroke-width=".4"/>
  <g>
  <circle cx="14" cy="24" r="3" fill="none" stroke="url(#ai-kb-key)" stroke-width="1.8"/>
  <circle cx="14" cy="24" r="1.6" fill="#3F2A0A"/>
  <rect x="13" y="27" width="2" height="12" fill="url(#ai-kb-key)" stroke="#3F2A0A" stroke-width=".4"/>
  <line x1="13.4" y1="27" x2="13.4" y2="39" stroke="rgba(255,247,228,.5)" stroke-width=".3"/>
  <rect x="15" y="33" width="3" height="2" fill="url(#ai-kb-key)" stroke="#3F2A0A" stroke-width=".4"/>
  <rect x="15" y="36" width="4" height="2.5" fill="url(#ai-kb-key)" stroke="#3F2A0A" stroke-width=".4"/>
  </g>
  <path d="M19 25 Q 26 28 30 32" stroke="#5A3F08" stroke-width=".5" fill="none"/>
  <rect x="24" y="31" width="18" height="11" rx=".6" fill="#FCFBF4" stroke="#5A3F08" stroke-width=".6"/>
  <circle cx="26" cy="33.5" r=".7" fill="#3F2A0A"/>
  <text x="33" y="37" text-anchor="middle" font-family="Ubuntu Mono, monospace" font-weight="700" font-size="2.6" fill="#3F2A0A" letter-spacing=".1em">FRONT</text>
  <text x="33" y="40.6" text-anchor="middle" font-family="Ubuntu Mono, monospace" font-weight="400" font-size="2.4" fill="#9A8870" letter-spacing=".1em">door</text>
  </svg>
