<svg viewBox="0 0 48 48" width="100%" height="100%">
  <defs>
    <radialGradient id="f-keypad-body" cx=".36" cy=".3" r=".95">
      <stop offset="0%" stop-color="#FBF1D8"/>
      <stop offset="50%" stop-color="#C9892D"/>
      <stop offset="100%" stop-color="#5A3F08"/>
    </radialGradient>
    <linearGradient id="f-keypad-bezel" x1="0" y1="0" x2="0" y2="1">
      <stop offset="0%" stop-color="#F8E0A0"/>
      <stop offset="50%" stop-color="#D4B575"/>
      <stop offset="100%" stop-color="#6A4A12"/>
    </linearGradient>
    <radialGradient id="f-keypad-well" cx=".4" cy=".34" r=".85">
      <stop offset="0%" stop-color="#5E2750"/>
      <stop offset="58%" stop-color="#2C001E"/>
      <stop offset="100%" stop-color="#0A0008"/>
    </radialGradient>
    <linearGradient id="f-keypad-glyph" x1="0" y1="0" x2="0" y2="1">
      <stop offset="0%" stop-color="#FFF7E4"/>
      <stop offset="55%" stop-color="#F8D670"/>
      <stop offset="100%" stop-color="#C9892D"/>
    </linearGradient>
    <linearGradient id="f-keypad-plus" x1="0" y1="0" x2="0" y2="1">
      <stop offset="0%" stop-color="#F8A968"/>
      <stop offset="52%" stop-color="#E95420"/>
      <stop offset="100%" stop-color="#7A1F08"/>
    </linearGradient>
  </defs>
  <ellipse cx="24" cy="45" rx="15" ry="1" fill="rgba(0,0,0,.4)"/>
  <rect x="4" y="4" width="40" height="40" rx="7" fill="url(#f-keypad-body)" stroke="#3F2A0A" stroke-width="1"/>
  <rect x="5.4" y="5.4" width="37.2" height="37.2" rx="6" fill="none" stroke="rgba(255,255,255,.55)" stroke-width=".9"/>
  <rect x="6.4" y="6.4" width="35.2" height="35.2" rx="5.4" fill="none" stroke="rgba(90,63,8,.5)" stroke-width=".6"/>
  <rect x="8.2" y="8.2" width="31.6" height="31.6" rx="4.6" fill="none" stroke="url(#f-keypad-bezel)" stroke-width="1.6"/>
  <g stroke="#0A0008" stroke-width=".9">
    <rect x="10.4" y="10.4" width="12.4" height="12.4" rx="3.2" fill="url(#f-keypad-well)"/>
    <rect x="25.2" y="10.4" width="12.4" height="12.4" rx="3.2" fill="url(#f-keypad-well)"/>
    <rect x="10.4" y="25.2" width="12.4" height="12.4" rx="3.2" fill="url(#f-keypad-well)"/>
    <rect x="25.2" y="25.2" width="12.4" height="12.4" rx="3.2" fill="url(#f-keypad-well)"/>
  </g>
  <g fill="none" stroke="rgba(255,255,255,.16)" stroke-width=".5">
    <rect x="11.6" y="11.6" width="10" height="10" rx="2.4"/>
    <rect x="26.4" y="11.6" width="10" height="10" rx="2.4"/>
    <rect x="11.6" y="26.4" width="10" height="10" rx="2.4"/>
    <rect x="26.4" y="26.4" width="10" height="10" rx="2.4"/>
  </g>
  <g fill="url(#f-keypad-plus)" stroke="#5A1A04" stroke-width=".4" stroke-linejoin="round">
    <path d="M15.1 13.4 H18.1 V15.6 H20.3 V18.6 H18.1 V20.8 H15.1 V18.6 H12.9 V15.6 H15.1 Z"/>
  </g>
  <g fill="url(#f-keypad-glyph)" stroke="#3F2A0A" stroke-width=".4" stroke-linejoin="round">
    <rect x="27.7" y="15.6" width="7.4" height="3" rx="1.5"/>
  </g>
  <g fill="url(#f-keypad-glyph)" stroke="#3F2A0A" stroke-width=".4" stroke-linejoin="round">
    <path d="M13.9 27.7 L16.6 30.4 L19.3 27.7 L21.3 29.7 L18.6 32.4 L21.3 35.1 L19.3 37.1 L16.6 34.4 L13.9 37.1 L11.9 35.1 L14.6 32.4 L11.9 29.7 Z"/>
  </g>
  <g fill="url(#f-keypad-glyph)" stroke="#3F2A0A" stroke-width=".4" stroke-linejoin="round">
    <rect x="27.7" y="30.4" width="7.4" height="2.6" rx="1.3"/>
    <circle cx="31.4" cy="27.6" r="1.7"/>
    <circle cx="31.4" cy="35.8" r="1.7"/>
  </g>
  <path d="M11 6.5 H37" fill="none" stroke="rgba(255,255,255,.45)" stroke-width=".7" stroke-linecap="round"/>
</svg>
