<svg viewBox="0 0 48 48" width="100%" height="100%">
  <defs>
  <linearGradient id="f-test-tubes-rack" x1="0" y1="0" x2="0" y2="1">
  <stop offset="0%" stop-color="#FBF1D8"/>
  <stop offset="55%" stop-color="#C9892D"/>
  <stop offset="100%" stop-color="#5A3F08"/>
  </linearGradient>
  <linearGradient id="f-test-tubes-glass" x1="0" y1="0" x2="0" y2="1">
  <stop offset="0%" stop-color="#FCFBF4"/>
  <stop offset="100%" stop-color="#D9D0B8"/>
  </linearGradient>
  <linearGradient id="f-test-tubes-liq1" x1="0" y1="0" x2="0" y2="1">
  <stop offset="0%" stop-color="#F8D670"/>
  <stop offset="100%" stop-color="#DD4814"/>
  </linearGradient>
  <linearGradient id="f-test-tubes-liq2" x1="0" y1="0" x2="0" y2="1">
  <stop offset="0%" stop-color="#77216F"/>
  <stop offset="100%" stop-color="#2C001E"/>
  </linearGradient>
  </defs>
  <ellipse cx="24" cy="44" rx="13" ry=".8" fill="rgba(0,0,0,.4)"/>
  <rect x="9" y="38" width="30" height="5" rx="1.4" fill="url(#f-test-tubes-rack)" stroke="#3F2A0A" stroke-width=".9" stroke-linejoin="round"/>
  <rect x="10" y="38.6" width="28" height=".7" fill="rgba(255,255,255,.55)"/>
  <g>
  <rect x="13" y="9" width="6" height="32" rx="3" fill="url(#f-test-tubes-glass)" stroke="#3F2A0A" stroke-width=".8" opacity=".9"/>
  <path d="M13.5 24 H18.5 V38 A2.5 2.5 0 0 1 13.5 38 Z" fill="url(#f-test-tubes-liq1)" stroke="#5A1A04" stroke-width=".5"/>
  <rect x="12.4" y="7.5" width="7.2" height="2.2" rx=".5" fill="url(#f-test-tubes-rack)" stroke="#3F2A0A" stroke-width=".5"/>
  <rect x="14" y="10" width="1" height="13" fill="rgba(255,255,255,.6)"/>
  </g>
  <g>
  <rect x="21" y="6" width="6" height="35" rx="3" fill="url(#f-test-tubes-glass)" stroke="#3F2A0A" stroke-width=".8" opacity=".9"/>
  <path d="M21.5 18 H26.5 V38 A2.5 2.5 0 0 1 21.5 38 Z" fill="url(#f-test-tubes-liq2)" stroke="#1A0512" stroke-width=".5"/>
  <rect x="20.4" y="4.5" width="7.2" height="2.2" rx=".5" fill="url(#f-test-tubes-rack)" stroke="#3F2A0A" stroke-width=".5"/>
  <rect x="22" y="7" width="1" height="11" fill="rgba(255,255,255,.6)"/>
  <circle cx="24" cy="22" r=".7" fill="rgba(255,255,255,.55)"/>
  <circle cx="23" cy="26" r=".5" fill="rgba(255,255,255,.5)"/>
  </g>
  <g>
  <rect x="29" y="11" width="6" height="30" rx="3" fill="url(#f-test-tubes-glass)" stroke="#3F2A0A" stroke-width=".8" opacity=".9"/>
  <path d="M29.5 30 H34.5 V38 A2.5 2.5 0 0 1 29.5 38 Z" fill="url(#f-test-tubes-liq1)" stroke="#5A1A04" stroke-width=".5"/>
  <rect x="28.4" y="9.5" width="7.2" height="2.2" rx=".5" fill="url(#f-test-tubes-rack)" stroke="#3F2A0A" stroke-width=".5"/>
  <rect x="30" y="12" width="1" height="17" fill="rgba(255,255,255,.6)"/>
  </g>
  <circle cx="40" cy="13" r=".9" fill="#F8D670" stroke="#5A3F08" stroke-width=".3"/>
  </svg>
