<svg viewBox="0 0 48 48" width="100%" height="100%">
  <defs>
  <linearGradient id="ai-lab-liq" x1="0" y1="0" x2="0" y2="1">
  <stop offset="0%" stop-color="#F8D670"/>
  <stop offset="100%" stop-color="#DD4814"/>
  </linearGradient>
  </defs>
  <rect x="18" y="4" width="12" height="2.4" rx=".4" fill="#D4B575" stroke="#3F2A0A" stroke-width=".6"/>
  <path d="M20 6.4 H28 V14 H20 Z" fill="#FBF1D8" stroke="#3F2A0A" stroke-width=".8" opacity=".75"/>
  <path d="M20 14 L8 38 Q8 43 13 43 H35 Q40 43 40 38 L28 14 Z" fill="#FBF1D8" stroke="#3F2A0A" stroke-width=".9" opacity=".85" stroke-linejoin="round"/>
  <path d="M14.5 27.5 L9 38 Q9 42 13 42 H35 Q39 42 39 38 L33.5 27.5 Z" fill="url(#ai-lab-liq)" stroke="#5A1A04" stroke-width=".6" stroke-linejoin="round"/>
  <g fill="rgba(255,255,255,.7)">
  <circle cx="17" cy="35" r="1"/>
  <circle cx="24" cy="37" r=".7"/>
  <circle cx="30" cy="33" r=".9"/>
  <circle cx="20" cy="39" r=".6"/>
  <circle cx="33" cy="38" r=".6"/>
  </g>
  <circle cx="24" cy="11" r="1" fill="#F8D670" stroke="#5A3F08" stroke-width=".3"/>
  <circle cx="23" cy="8" r=".7" fill="#F8D670" stroke="#5A3F08" stroke-width=".3"/>
  <path d="M22 7 L11 36" stroke="rgba(255,255,255,.7)" stroke-width=".6" fill="none"/>
  <line x1="12" y1="33" x2="15" y2="33" stroke="#3F2A0A" stroke-width=".5"/>
  <line x1="11" y1="37" x2="14" y2="37" stroke="#3F2A0A" stroke-width=".5"/>
  </svg>
