<svg viewBox="0 0 48 48" width="100%" height="100%">
  <defs>
    <linearGradient id="f-laptop-lid" x1="0" y1="0" x2="0" y2="1"><stop offset="0%" stop-color="#FBF1D8"/><stop offset="55%" stop-color="#D4B575"/><stop offset="100%" stop-color="#6A4A12"/></linearGradient>
    <linearGradient id="f-laptop-base" x1="0" y1="0" x2="0" y2="1"><stop offset="0%" stop-color="#F8E0A0"/><stop offset="50%" stop-color="#C9892D"/><stop offset="100%" stop-color="#3F2A0A"/></linearGradient>
    <linearGradient id="f-laptop-screen" x1="0" y1="0" x2="0" y2="1"><stop offset="0%" stop-color="#3D0B2C"/><stop offset="100%" stop-color="#1A0512"/></linearGradient>
  </defs>
  <ellipse cx="24" cy="44.5" rx="19" ry=".9" fill="rgba(0,0,0,.4)"/>
  <rect x="7" y="5" width="34" height="26" rx="3" fill="url(#f-laptop-lid)" stroke="#3F2A0A" stroke-width=".9"/>
  <path d="M9 7 H39" stroke="rgba(255,255,255,.65)" stroke-width=".6"/>
  <rect x="10" y="8" width="28" height="20" rx="1.6" fill="url(#f-laptop-screen)" stroke="#0A0306" stroke-width=".7"/>
  <path d="M11 9.6 H37" stroke="rgba(255,247,228,.18)" stroke-width=".5"/>
  <path d="M13.5 13.5 L17 16.4 L13.5 19.3" fill="none" stroke="#E95420" stroke-width="1.6" stroke-linecap="round" stroke-linejoin="round"/>
  <path d="M18.5 19.6 H25" stroke="#E95420" stroke-width="1.6" stroke-linecap="round"/>
  <path d="M13.5 23.4 H30" stroke="#77216F" stroke-width="1.2" stroke-linecap="round"/>
  <rect x="32" y="22.4" width="3" height="2.2" rx=".4" fill="#F8D670"/>
  <path d="M4 31 H44 L46 41.5 Q46 43 44.5 43 H3.5 Q2 43 2 41.5 Z" fill="url(#f-laptop-base)" stroke="#3F2A0A" stroke-width=".9" stroke-linejoin="round"/>
  <path d="M5.5 32.2 H42.5" stroke="rgba(255,255,255,.6)" stroke-width=".6"/>
  <rect x="18" y="38.6" width="12" height="3" rx="1" fill="#3D0B2C" stroke="#1A0F04" stroke-width=".4"/>
  <path d="M7 33.6 H41 M6 36 H42" stroke="#5A3F08" stroke-width=".5" stroke-linecap="round"/>
  <path d="M10 33.4 V37.6 M15 33.4 V37.6 M20 33.4 V37.6 M25 33.4 V37.6 M30 33.4 V37.6 M35 33.4 V37.6" stroke="#5A3F08" stroke-width=".4"/>
  <rect x="9" y="30.4" width="30" height="1.6" rx=".8" fill="#3F2A0A"/>
</svg>
