<svg viewBox="0 0 48 48" width="100%" height="100%">
  <defs>
    <linearGradient id="f-laurel-wreath-leaf" x1="0" y1="0" x2="0" y2="1"><stop offset="0%" stop-color="#FBF1D8"/><stop offset="55%" stop-color="#C9892D"/><stop offset="100%" stop-color="#5A3F08"/></linearGradient>
    <linearGradient id="f-laurel-wreath-leafdk" x1="0" y1="0" x2="0" y2="1"><stop offset="0%" stop-color="#D4B575"/><stop offset="60%" stop-color="#9A6A1E"/><stop offset="100%" stop-color="#3F2A0A"/></linearGradient>
    <radialGradient id="f-laurel-wreath-star" cx=".42" cy=".34" r=".75"><stop offset="0%" stop-color="#FBE57E"/><stop offset="55%" stop-color="#F8D55F"/><stop offset="100%" stop-color="#C9892D"/></radialGradient>
    <linearGradient id="f-laurel-wreath-bow" x1="0" y1="0" x2="0" y2="1"><stop offset="0%" stop-color="#5E2750"/><stop offset="100%" stop-color="#1F0518"/></linearGradient>
  </defs>
  <ellipse cx="24" cy="44" rx="11" ry=".8" fill="rgba(0,0,0,.4)"/>
  <path d="M14 41 C7 35 5 26 8 17 C9.5 12 12 8.5 16 6" fill="none" stroke="url(#f-laurel-wreath-leafdk)" stroke-width="1.4" stroke-linecap="round"/>
  <path d="M8.5 17 C5 15 3.5 11 4.5 7.5 C8 8.5 11 11 11 14.5 Z" fill="url(#f-laurel-wreath-leaf)" stroke="#3F2A0A" stroke-width=".5" stroke-linejoin="round"/>
  <path d="M6.5 24 C2.8 23 0.8 19.5 1.2 15.8 C5 16.2 8 18.5 8.4 22 Z" fill="url(#f-laurel-wreath-leaf)" stroke="#3F2A0A" stroke-width=".5" stroke-linejoin="round"/>
  <path d="M7.2 31 C3.6 31 1.2 27.8 1.2 24 C5 23.6 8.4 25.6 9.2 29 Z" fill="url(#f-laurel-wreath-leaf)" stroke="#3F2A0A" stroke-width=".5" stroke-linejoin="round"/>
  <path d="M10 37 C6.6 37.8 3.6 35.4 2.8 31.8 C6.4 30.8 10 31.8 11.6 34.8 Z" fill="url(#f-laurel-wreath-leaf)" stroke="#3F2A0A" stroke-width=".5" stroke-linejoin="round"/>
  <path d="M11 12 C9.5 9 10.2 5.4 13 3.4 C15 6.4 15 10 12.8 12.6 Z" fill="url(#f-laurel-wreath-leaf)" stroke="#3F2A0A" stroke-width=".5" stroke-linejoin="round"/>
  <path d="M11.4 19 C8.8 17 8 13.4 9.8 10.4 C12.8 12 14 15.4 12.8 18.6 Z" fill="url(#f-laurel-wreath-leaf)" stroke="#3F2A0A" stroke-width=".5" stroke-linejoin="round"/>
  <path d="M34 41 C41 35 43 26 40 17 C38.5 12 36 8.5 32 6" fill="none" stroke="url(#f-laurel-wreath-leafdk)" stroke-width="1.4" stroke-linecap="round"/>
  <path d="M39.5 17 C43 15 44.5 11 43.5 7.5 C40 8.5 37 11 37 14.5 Z" fill="url(#f-laurel-wreath-leaf)" stroke="#3F2A0A" stroke-width=".5" stroke-linejoin="round"/>
  <path d="M41.5 24 C45.2 23 47.2 19.5 46.8 15.8 C43 16.2 40 18.5 39.6 22 Z" fill="url(#f-laurel-wreath-leaf)" stroke="#3F2A0A" stroke-width=".5" stroke-linejoin="round"/>
  <path d="M40.8 31 C44.4 31 46.8 27.8 46.8 24 C43 23.6 39.6 25.6 38.8 29 Z" fill="url(#f-laurel-wreath-leaf)" stroke="#3F2A0A" stroke-width=".5" stroke-linejoin="round"/>
  <path d="M38 37 C41.4 37.8 44.4 35.4 45.2 31.8 C41.6 30.8 38 31.8 36.4 34.8 Z" fill="url(#f-laurel-wreath-leaf)" stroke="#3F2A0A" stroke-width=".5" stroke-linejoin="round"/>
  <path d="M37 12 C38.5 9 37.8 5.4 35 3.4 C33 6.4 33 10 35.2 12.6 Z" fill="url(#f-laurel-wreath-leaf)" stroke="#3F2A0A" stroke-width=".5" stroke-linejoin="round"/>
  <path d="M36.6 19 C39.2 17 40 13.4 38.2 10.4 C35.2 12 34 15.4 35.2 18.6 Z" fill="url(#f-laurel-wreath-leaf)" stroke="#3F2A0A" stroke-width=".5" stroke-linejoin="round"/>
  <path d="M24 38 L17 44 L18.5 38.5 L24 37 Z" fill="url(#f-laurel-wreath-bow)" stroke="#1A0F04" stroke-width=".6" stroke-linejoin="round"/>
  <path d="M24 38 L31 44 L29.5 38.5 L24 37 Z" fill="url(#f-laurel-wreath-bow)" stroke="#1A0F04" stroke-width=".6" stroke-linejoin="round"/>
  <circle cx="24" cy="38" r="2.2" fill="url(#f-laurel-wreath-leafdk)" stroke="#3F2A0A" stroke-width=".5"/>
  <path d="M24 12 L26.6 19.4 L34.4 19.7 L28.2 24.6 L30.4 32.2 L24 27.6 L17.6 32.2 L19.8 24.6 L13.6 19.7 L21.4 19.4 Z" fill="url(#f-laurel-wreath-star)" stroke="#5A3F08" stroke-width=".7" stroke-linejoin="round"/>
  <path d="M24 13.6 L25.9 19 L21.8 23.4 Z" fill="rgba(255,247,228,.5)"/>
</svg>
