<svg viewBox="0 0 48 48" width="100%" height="100%">
  <defs>
  <radialGradient id="ai-lb-glass" cx=".5" cy=".5" r=".7">
  <stop offset="0%" stop-color="#FFF7CC"/>
  <stop offset="60%" stop-color="#F8D670"/>
  <stop offset="100%" stop-color="#A8651C"/>
  </radialGradient>
  <linearGradient id="ai-lb-base" x1="0" y1="0" x2="0" y2="1">
  <stop offset="0%" stop-color="#F8D670"/>
  <stop offset="55%" stop-color="#C9892D"/>
  <stop offset="100%" stop-color="#3F2A0A"/>
  </linearGradient>
  </defs>
  <path d="M24 5 C 15 5 10 12 10 19 C 10 24 13 27 16 29 C 17 30 17 31 17 32 L 31 32 C 31 31 31 30 32 29 C 35 27 38 24 38 19 C 38 12 33 5 24 5 Z" fill="url(#ai-lb-glass)" stroke="#3F2A0A" stroke-width=".9" stroke-linejoin="round"/>
  <line x1="20" y1="32" x2="20" y2="24" stroke="#3F2A0A" stroke-width=".5"/>
  <line x1="28" y1="32" x2="28" y2="24" stroke="#3F2A0A" stroke-width=".5"/>
  <path d="M20 24 Q 21 19 22 24 Q 23 29 25 24 Q 27 19 28 24" fill="none" stroke="#DD4814" stroke-width="1.1" stroke-linecap="round"/>
  <path d="M13 13 C 15 9 18 7 22 7" fill="none" stroke="rgba(255,255,255,.6)" stroke-width="1.2" stroke-linecap="round"/>
  <rect x="17" y="32" width="14" height="3" fill="url(#ai-lb-base)" stroke="#3F2A0A" stroke-width=".6"/>
  <rect x="17" y="32" width="14" height=".7" fill="rgba(255,255,255,.55)"/>
  <rect x="17" y="35" width="14" height="1.6" fill="#3F2A0A"/>
  <rect x="18" y="36.6" width="12" height="1.8" fill="url(#ai-lb-base)" stroke="#3F2A0A" stroke-width=".5"/>
  <rect x="18" y="38.4" width="12" height="1.4" fill="#3F2A0A"/>
  <rect x="19" y="39.8" width="10" height="1.6" fill="url(#ai-lb-base)" stroke="#3F2A0A" stroke-width=".5"/>
  <rect x="19" y="41.4" width="10" height="1.2" fill="#3F2A0A"/>
  <path d="M21 42.6 H27 L25 45 H23 Z" fill="#3F2A0A" stroke="#1A0F04" stroke-width=".4" stroke-linejoin="round"/>
  </svg>
