<svg viewBox="0 0 48 48" width="100%" height="100%">
<defs>
<linearGradient id="f-log-cabin-wall" x1="0" y1="0" x2="0" y2="1">
<stop offset="0%" stop-color="#F8E0A0"/>
<stop offset="52%" stop-color="#C9892D"/>
<stop offset="100%" stop-color="#5A3F08"/>
</linearGradient>
<linearGradient id="f-log-cabin-log" x1="0" y1="0" x2="0" y2="1">
<stop offset="0%" stop-color="#FBF1D8"/>
<stop offset="50%" stop-color="#D4B575"/>
<stop offset="100%" stop-color="#6A4A12"/>
</linearGradient>
<radialGradient id="f-log-cabin-end" cx=".38" cy=".35" r=".85">
<stop offset="0%" stop-color="#FBF1D8"/>
<stop offset="55%" stop-color="#C9892D"/>
<stop offset="100%" stop-color="#5A3F08"/>
</radialGradient>
<linearGradient id="f-log-cabin-roof" x1="0" y1="0" x2="0" y2="1">
<stop offset="0%" stop-color="#F8E0A0"/>
<stop offset="55%" stop-color="#C9892D"/>
<stop offset="100%" stop-color="#5A3F08"/>
</linearGradient>
<linearGradient id="f-log-cabin-chimney" x1="0" y1="0" x2="0" y2="1">
<stop offset="0%" stop-color="#D4B575"/>
<stop offset="55%" stop-color="#C9892D"/>
<stop offset="100%" stop-color="#3F2A0A"/>
</linearGradient>
<linearGradient id="f-log-cabin-door" x1="0" y1="0" x2="0" y2="1">
<stop offset="0%" stop-color="#E95420"/>
<stop offset="55%" stop-color="#DD4814"/>
<stop offset="100%" stop-color="#5A1A04"/>
</linearGradient>
<radialGradient id="f-log-cabin-glass" cx=".38" cy=".35" r=".85">
<stop offset="0%" stop-color="#F8D670"/>
<stop offset="55%" stop-color="#FBE57E"/>
<stop offset="100%" stop-color="#C9892D"/>
</radialGradient>
<radialGradient id="f-log-cabin-knob" cx=".38" cy=".35" r=".8">
<stop offset="0%" stop-color="#FBF1D8"/>
<stop offset="55%" stop-color="#C9892D"/>
<stop offset="100%" stop-color="#5A3F08"/>
</radialGradient>
</defs>
<ellipse cx="24" cy="45.4" rx="15" ry=".9" fill="rgba(0,0,0,.4)"/>
<rect x="14.8" y="8.5" width="4.2" height="11" rx="1" fill="url(#f-log-cabin-chimney)" stroke="#3F2A0A" stroke-width=".9" stroke-linejoin="round"/>
<rect x="14" y="7.4" width="5.8" height="2.6" rx=".7" fill="url(#f-log-cabin-log)" stroke="#3F2A0A" stroke-width=".9" stroke-linejoin="round"/>
<path d="M16.9 7.2 q2.7 -1.7 .6 -3.7 q-2.1 -2 .5 -3.9" fill="none" stroke="rgba(255,247,228,.55)" stroke-width="1.6" stroke-linecap="round"/>
<path d="M6.5 18 L24 6 L41.5 18 Z" fill="url(#f-log-cabin-roof)" stroke="#3F2A0A" stroke-width=".9" stroke-linejoin="round"/>
<path d="M9.5 17 L24 7 L38.5 17" fill="none" stroke="rgba(255,255,255,.6)" stroke-width=".7" stroke-linejoin="round"/>
<path d="M6.5 18 H41.5 L40 20.2 H8 Z" fill="url(#f-log-cabin-chimney)" stroke="#3F2A0A" stroke-width=".8" stroke-linejoin="round"/>
<rect x="10.5" y="20" width="27" height="24" rx="1.6" fill="url(#f-log-cabin-wall)" stroke="#3F2A0A" stroke-width=".9" stroke-linejoin="round"/>
<path d="M11.6 24.6 H36.4" stroke="#3F2A0A" stroke-width=".7"/>
<path d="M11.6 24.2 H36.4" stroke="rgba(255,255,255,.45)" stroke-width=".5"/>
<path d="M11.6 29.2 H36.4" stroke="#3F2A0A" stroke-width=".7"/>
<path d="M11.6 28.8 H36.4" stroke="rgba(255,255,255,.4)" stroke-width=".5"/>
<path d="M11.6 33.8 H36.4" stroke="#3F2A0A" stroke-width=".7"/>
<path d="M11.6 33.4 H36.4" stroke="rgba(255,255,255,.35)" stroke-width=".5"/>
<path d="M11.6 38.4 H36.4" stroke="#3F2A0A" stroke-width=".7"/>
<path d="M11.6 38 H36.4" stroke="rgba(255,255,255,.3)" stroke-width=".5"/>
<circle cx="11" cy="22.3" r="1.5" fill="url(#f-log-cabin-end)" stroke="#3F2A0A" stroke-width=".6"/>
<circle cx="11" cy="26.9" r="1.5" fill="url(#f-log-cabin-end)" stroke="#3F2A0A" stroke-width=".6"/>
<circle cx="11" cy="31.5" r="1.5" fill="url(#f-log-cabin-end)" stroke="#3F2A0A" stroke-width=".6"/>
<circle cx="11" cy="36.1" r="1.5" fill="url(#f-log-cabin-end)" stroke="#3F2A0A" stroke-width=".6"/>
<circle cx="11" cy="40.7" r="1.5" fill="url(#f-log-cabin-end)" stroke="#3F2A0A" stroke-width=".6"/>
<circle cx="37" cy="22.3" r="1.5" fill="url(#f-log-cabin-end)" stroke="#3F2A0A" stroke-width=".6"/>
<circle cx="37" cy="26.9" r="1.5" fill="url(#f-log-cabin-end)" stroke="#3F2A0A" stroke-width=".6"/>
<circle cx="37" cy="31.5" r="1.5" fill="url(#f-log-cabin-end)" stroke="#3F2A0A" stroke-width=".6"/>
<circle cx="37" cy="36.1" r="1.5" fill="url(#f-log-cabin-end)" stroke="#3F2A0A" stroke-width=".6"/>
<circle cx="37" cy="40.7" r="1.5" fill="url(#f-log-cabin-end)" stroke="#3F2A0A" stroke-width=".6"/>
<rect x="14.4" y="26.6" width="8" height="8" rx="1" fill="url(#f-log-cabin-glass)" stroke="#3F2A0A" stroke-width=".8" stroke-linejoin="round"/>
<path d="M18.4 26.6 V34.6 M14.4 30.6 H22.4" stroke="#3F2A0A" stroke-width=".7"/>
<path d="M15.4 27.6 H17.4" stroke="rgba(255,255,255,.6)" stroke-width=".6"/>
<rect x="25.5" y="28.5" width="8.5" height="15.5" rx="1.4" fill="url(#f-log-cabin-door)" stroke="#5A1A04" stroke-width="1.2" stroke-linejoin="round"/>
<path d="M27 29.8 V43.4" stroke="rgba(255,255,255,.35)" stroke-width=".5"/>
<circle cx="31.8" cy="36.4" r="1" fill="url(#f-log-cabin-knob)" stroke="#5A1A04" stroke-width=".4"/>
</svg>
