<svg viewBox="0 0 48 48" width="100%" height="100%">
  <defs>
  <linearGradient id="ai-mg-ring" x1="0" y1="0" x2="0" y2="1">
  <stop offset="0%" stop-color="#F8D670"/>
  <stop offset="55%" stop-color="#C9892D"/>
  <stop offset="100%" stop-color="#3F2A0A"/>
  </linearGradient>
  <radialGradient id="ai-mg-glass" cx=".4" cy=".35" r=".85">
  <stop offset="0%" stop-color="rgba(255,255,255,.85)"/>
  <stop offset="55%" stop-color="rgba(255,247,228,.45)"/>
  <stop offset="100%" stop-color="rgba(255,247,228,.15)"/>
  </radialGradient>
  <linearGradient id="ai-mg-handle" x1="0" y1="0" x2="0" y2="1">
  <stop offset="0%" stop-color="#FBF1D8"/>
  <stop offset="55%" stop-color="#C9892D"/>
  <stop offset="100%" stop-color="#5A3F08"/>
  </linearGradient>
  </defs>
  <ellipse cx="24" cy="44" rx="13" ry=".7" fill="rgba(0,0,0,.4)"/>
  <g transform="rotate(-25 24 24)">
  <rect x="22" y="26" width="4" height="20" rx="1.8" fill="url(#ai-mg-handle)" stroke="#3F2A0A" stroke-width=".7"/>
  <rect x="22.5" y="26.5" width="1" height="19" fill="rgba(255,255,255,.55)"/>
  <rect x="21.4" y="32" width="5.2" height="3.6" fill="url(#ai-mg-ring)" stroke="#3F2A0A" stroke-width=".5"/>
  <rect x="21.4" y="32" width="5.2" height=".9" fill="rgba(255,255,255,.6)"/>
  <circle cx="24" cy="17" r="13" fill="url(#ai-mg-ring)" stroke="#3F2A0A" stroke-width=".9"/>
  <circle cx="24" cy="17" r="12" fill="none" stroke="rgba(255,255,255,.55)" stroke-width=".5"/>
  <circle cx="24" cy="17" r="10" fill="url(#ai-mg-glass)" stroke="#5A3F08" stroke-width=".5"/>
  <path d="M15 11 A12 12 0 0 1 33 10" fill="none" stroke="rgba(255,255,255,.7)" stroke-width="1.2"/>
  <ellipse cx="20" cy="13" rx="3" ry="1.4" fill="rgba(255,255,255,.55)" transform="rotate(-30 20 13)"/>
  <circle cx="24" cy="28.6" r="1.2" fill="#3F2A0A"/>
  </g>
  </svg>
