<svg viewBox="0 0 48 48" width="100%" height="100%">
<defs>
<radialGradient id="f-map-pin-body" cx=".38" cy=".32" r=".85">
<stop offset="0" stop-color="#F8E0A0"/>
<stop offset=".45" stop-color="#D4B575"/>
<stop offset=".8" stop-color="#C9892D"/>
<stop offset="1" stop-color="#5A3F08"/>
</radialGradient>
<radialGradient id="f-map-pin-hole" cx=".4" cy=".35" r=".75">
<stop offset="0" stop-color="#77216F"/>
<stop offset=".55" stop-color="#2C001E"/>
<stop offset="1" stop-color="#0A0008"/>
</radialGradient>
<linearGradient id="f-map-pin-sheen" x1="0" y1="0" x2="0" y2="1">
<stop offset="0" stop-color="rgba(255,247,228,.55)"/>
<stop offset="1" stop-color="rgba(255,247,228,0)"/>
</linearGradient>
</defs>
<ellipse cx="24" cy="45" rx="7" ry="1" fill="rgba(0,0,0,.4)"/>
<path d="M24 4 C14.6 4 7.5 11 7.5 20.2 C7.5 31 18.5 39.5 24 45.5 C29.5 39.5 40.5 31 40.5 20.2 C40.5 11 33.4 4 24 4 Z" fill="url(#f-map-pin-body)" stroke="#3F2A0A" stroke-width="1" stroke-linejoin="round"/>
<path d="M24 6.4 C16 6.4 9.8 12.4 9.8 20.2 C9.8 24 11.4 27.6 13.8 31 C11.9 27.9 10.8 24.4 10.8 20.6 C10.8 13.2 16.6 7.6 24 7.6 Z" fill="rgba(255,255,255,.6)"/>
<path d="M24 8.4 C17.5 8.4 12.2 13.4 12.2 19.5 C12.2 25.6 17.5 30.6 24 30.6 C30.5 30.6 35.8 25.6 35.8 19.5 C35.8 13.4 30.5 8.4 24 8.4 Z" fill="none" stroke="#E95420" stroke-width="1.6"/>
<path d="M24 9 C18 9 13.5 13.7 13.5 19.5 C13.5 25.3 18 30 24 30 C30 30 34.5 25.3 34.5 19.5 C34.5 13.7 30 9 24 9 Z" fill="url(#f-map-pin-hole)" stroke="#1F0F04" stroke-width="1.6" stroke-linejoin="round"/>
<path d="M24 11 C20.4 11 17.3 13.2 16.2 16.2 C18.6 14.4 21.6 13.4 24 13.4 Z" fill="rgba(255,247,228,.28)"/>
<circle cx="20.4" cy="16" r="2" fill="rgba(255,255,255,.5)"/>
<path d="M24 5.2 C19 5.2 14.4 7.6 11.2 11.4 C8.8 14 7.5 17 7.5 20.2 C7.5 20.6 7.5 21 7.6 21.4 C7.9 17.6 9.7 14.2 12.6 11.6 C15.7 8.6 19.6 7 24 7 C28.8 7 33 8.9 36 12 L37 11 C33.7 7.4 29.1 5.2 24 5.2 Z" fill="rgba(255,255,255,.35)"/>
</svg>
