<svg viewBox="0 0 48 48" width="100%" height="100%">
  <defs>
  <linearGradient id="ai-map" x1="0" y1="0" x2="0" y2="1">
  <stop offset="0%" stop-color="#F4E0AC"/>
  <stop offset="100%" stop-color="#8A6018"/>
  </linearGradient>
  </defs>
  <path d="M4 9 L18 7 L32 9 L44 7 L44 39 L32 41 L18 39 L4 41 Z" fill="url(#ai-map)" stroke="#3F2A0A" stroke-width=".9" stroke-linejoin="round"/>
  <path d="M18 7 V39" stroke="#7A5818" stroke-width=".5" stroke-dasharray="2 1.5"/>
  <path d="M32 9 V41" stroke="#7A5818" stroke-width=".5" stroke-dasharray="2 1.5"/>
  <path d="M7  18 Q 14 22 17.5 19" stroke="#5A8A4B" stroke-width=".7" fill="none"/>
  <path d="M19 24 Q 26 30 31 24" stroke="#5A8A4B" stroke-width=".7" fill="none"/>
  <path d="M33 31 Q 38 33 42 30" stroke="#5A8A4B" stroke-width=".7" fill="none"/>
  <path d="M14 32 Q 20 30 25 35" stroke="#3A6F95" stroke-width=".7" fill="none"/>
  <path d="M30 15 C 30 11 27 9 25 9 C 23 9 20 11 20 15 C 20 18 25 23 25 23 C 25 23 30 18 30 15 Z" fill="#DD4814" stroke="#5A1A04" stroke-width=".6" stroke-linejoin="round"/>
  <circle cx="25" cy="15" r="2" fill="#FBF1D8" stroke="#5A1A04" stroke-width=".4"/>
  <path d="M5 10 L17.5 8" stroke="rgba(255,255,255,.5)" stroke-width=".4"/>
  </svg>
