<svg viewBox="0 0 48 48" width="100%" height="100%">
  <defs>
  <linearGradient id="f-medal-ribbon" x1="0" y1="0" x2="0" y2="1">
  <stop offset="0%" stop-color="#5E2750"/>
  <stop offset="100%" stop-color="#1F0518"/>
  </linearGradient>
  <radialGradient id="f-medal-disc" cx=".38" cy=".35" r=".75">
  <stop offset="0%" stop-color="#FBF1D8"/>
  <stop offset="55%" stop-color="#C9892D"/>
  <stop offset="100%" stop-color="#5A3F08"/>
  </radialGradient>
  </defs>
  <ellipse cx="24" cy="44" rx="12" ry=".8" fill="rgba(0,0,0,.4)"/>
  <path d="M18 6 L15 20 H22 L20 9 Z" fill="url(#f-medal-ribbon)" stroke="#1A0F04" stroke-width=".7" stroke-linejoin="round"/>
  <path d="M30 6 L33 20 H26 L28 9 Z" fill="url(#f-medal-ribbon)" stroke="#1A0F04" stroke-width=".7" stroke-linejoin="round"/>
  <path d="M18 6 L20 9" stroke="#77216F" stroke-width=".5"/>
  <path d="M30 6 L28 9" stroke="#77216F" stroke-width=".5"/>
  <circle cx="24" cy="30" r="13" fill="url(#f-medal-disc)" stroke="#3F2A0A" stroke-width=".9"/>
  <circle cx="24" cy="30" r="10" fill="none" stroke="#5A3F08" stroke-width=".6"/>
  <circle cx="24" cy="30" r="10.6" fill="none" stroke="rgba(255,255,255,.4)" stroke-width=".5"/>
  <path d="M24 23 L26 28 L31.5 28.4 L27.2 31.8 L28.6 37 L24 33.8 L19.4 37 L20.8 31.8 L16.5 28.4 L22 28 Z" fill="#FBF1D8" stroke="#3F2A0A" stroke-width=".5" stroke-linejoin="round"/>
  <path d="M16 19 C 19 23 29 23 32 19" fill="none" stroke="rgba(255,255,255,.5)" stroke-width=".6"/>
  <circle cx="24" cy="11" r="1.2" fill="#E95420" stroke="#5A1A04" stroke-width=".4"/>
  </svg>
