<svg viewBox="0 0 48 48" width="100%" height="100%">
  <defs>
    <linearGradient id="f-microscope-base" x1="0" y1="0" x2="0" y2="1"><stop offset="0%" stop-color="#FBF1D8"/><stop offset="55%" stop-color="#D4B575"/><stop offset="100%" stop-color="#5A3F08"/></linearGradient>
    <linearGradient id="f-microscope-arm" x1="0" y1="0" x2="1" y2="1"><stop offset="0%" stop-color="#F8E0A0"/><stop offset="55%" stop-color="#C9892D"/><stop offset="100%" stop-color="#5A3F08"/></linearGradient>
    <linearGradient id="f-microscope-tube" x1="0" y1="0" x2="1" y2="0"><stop offset="0%" stop-color="#F8D670"/><stop offset="50%" stop-color="#C9892D"/><stop offset="100%" stop-color="#6A4A12"/></linearGradient>
    <linearGradient id="f-microscope-eye" x1="0" y1="0" x2="0" y2="1"><stop offset="0%" stop-color="#5E2750"/><stop offset="100%" stop-color="#1A0512"/></linearGradient>
    <linearGradient id="f-microscope-stage" x1="0" y1="0" x2="0" y2="1"><stop offset="0%" stop-color="#F8E0A0"/><stop offset="100%" stop-color="#6A4A12"/></linearGradient>
    <radialGradient id="f-microscope-lens" cx=".38" cy=".35" r=".7"><stop offset="0%" stop-color="#77216F"/><stop offset="60%" stop-color="#2C001E"/><stop offset="100%" stop-color="#0A0008"/></radialGradient>
  </defs>
  <ellipse cx="24" cy="44" rx="13" ry=".8" fill="rgba(0,0,0,.4)"/>
  <path d="M11 43 Q11 38 17 37 L31 37 Q37 38 37 43 Q37 44.5 35 44.5 L13 44.5 Q11 44.5 11 43 Z" fill="url(#f-microscope-base)" stroke="#3F2A0A" stroke-width=".9" stroke-linejoin="round"/>
  <path d="M14 39.2 Q24 38 34 39.2" fill="none" stroke="rgba(255,255,255,.55)" stroke-width=".6"/>
  <path d="M21 38 L21 25 Q21 16 30 13 L32 16 Q25 18 25 26 L25 38 Z" fill="url(#f-microscope-arm)" stroke="#3F2A0A" stroke-width=".9" stroke-linejoin="round"/>
  <path d="M22 37 L22 25 Q22 18 29 15" fill="none" stroke="rgba(255,247,228,.5)" stroke-width=".5"/>
  <rect x="16" y="30" width="16" height="4.4" rx="1" fill="url(#f-microscope-stage)" stroke="#3F2A0A" stroke-width=".8" stroke-linejoin="round"/>
  <path d="M16.6 30.6 H31.4" stroke="rgba(255,255,255,.55)" stroke-width=".5"/>
  <rect x="19.5" y="29.2" width="9" height="1.6" rx=".4" fill="#FCFBF4" stroke="#5A3F08" stroke-width=".4"/>
  <circle cx="24" cy="30" r=".6" fill="#E95420" stroke="#5A1A04" stroke-width=".25"/>
  <rect x="22" y="24.5" width="4" height="4" rx="1" fill="url(#f-microscope-tube)" stroke="#3F2A0A" stroke-width=".7"/>
  <circle cx="24" cy="28.6" r="1.1" fill="url(#f-microscope-lens)" stroke="#0A0306" stroke-width=".4"/>
  <rect x="27" y="9.5" width="6" height="15.5" rx="2.4" fill="url(#f-microscope-tube)" stroke="#3F2A0A" stroke-width=".9" stroke-linejoin="round"/>
  <path d="M28.4 11 L28.4 23.5" stroke="rgba(255,247,228,.5)" stroke-width=".5"/>
  <rect x="26.5" y="5.5" width="7" height="5.5" rx="2" fill="url(#f-microscope-eye)" stroke="#1A0F04" stroke-width=".8" stroke-linejoin="round"/>
  <ellipse cx="30" cy="6.6" rx="2.4" ry=".7" fill="rgba(255,247,228,.35)"/>
  <circle cx="28.6" cy="7.6" r=".7" fill="rgba(255,247,228,.7)"/>
  <circle cx="20" cy="22" r="3.2" fill="url(#f-microscope-arm)" stroke="#3F2A0A" stroke-width=".8"/>
  <circle cx="20" cy="22" r="1.3" fill="#2C001E" stroke="#1A0F04" stroke-width=".4"/>
  <path d="M18.5 20.4 A3.2 3.2 0 0 1 21.6 19.9" fill="none" stroke="rgba(255,247,228,.55)" stroke-width=".5"/>
</svg>
