<svg viewBox="0 0 48 48" width="100%" height="100%">
  <defs>
  <linearGradient id="f-studio-microphone-yoke" x1="0" y1="0" x2="0" y2="1">
  <stop offset="0%" stop-color="#F8E0A0"/>
  <stop offset="50%" stop-color="#C9892D"/>
  <stop offset="100%" stop-color="#3F2A0A"/>
  </linearGradient>
  <linearGradient id="f-studio-microphone-ribbon" x1="0" y1="0" x2="0" y2="1">
  <stop offset="0%" stop-color="#5E2750"/>
  <stop offset="100%" stop-color="#1F0518"/>
  </linearGradient>
  </defs>
  <ellipse cx="24" cy="44" rx="10" ry=".8" fill="rgba(0,0,0,.4)"/>
  <path d="M24 38 V42 M18 42 H30" stroke="url(#f-studio-microphone-yoke)" stroke-width="2.6" stroke-linecap="round"/>
  <path d="M11 12 V26 C 11 33 17 38 24 38 C 31 38 37 33 37 26 V12" fill="none" stroke="url(#f-studio-microphone-yoke)" stroke-width="2.4" stroke-linecap="round"/>
  <rect x="16" y="6" width="16" height="28" rx="7" fill="url(#f-studio-microphone-yoke)" stroke="#3F2A0A" stroke-width=".9" stroke-linejoin="round"/>
  <path d="M18 8 H30" stroke="rgba(255,255,255,.65)" stroke-width=".6"/>
  <rect x="19" y="10" width="10" height="20" rx="3" fill="url(#f-studio-microphone-ribbon)" stroke="#0A0008" stroke-width=".6"/>
  <g stroke="rgba(255,247,228,.3)" stroke-width=".5">
  <line x1="20" y1="14" x2="28" y2="14"/>
  <line x1="20" y1="17" x2="28" y2="17"/>
  <line x1="20" y1="20" x2="28" y2="20"/>
  <line x1="20" y1="23" x2="28" y2="23"/>
  <line x1="20" y1="26" x2="28" y2="26"/>
  </g>
  <line x1="24" y1="11" x2="24" y2="29" stroke="rgba(255,247,228,.4)" stroke-width=".5"/>
  <circle cx="11" cy="11" r="2.2" fill="url(#f-studio-microphone-yoke)" stroke="#3F2A0A" stroke-width=".6"/>
  <circle cx="37" cy="11" r="2.2" fill="url(#f-studio-microphone-yoke)" stroke="#3F2A0A" stroke-width=".6"/>
  <circle cx="24" cy="36" r="1.2" fill="#E95420" stroke="#5A1A04" stroke-width=".3"/>
  </svg>
