<svg viewBox="0 0 48 48" width="100%" height="100%">
  <defs>
  <linearGradient id="ai-mic-grille" x1="0" y1="0" x2="0" y2="1">
  <stop offset="0%" stop-color="#F8E0A0"/>
  <stop offset="55%" stop-color="#C9892D"/>
  <stop offset="100%" stop-color="#5A3F08"/>
  </linearGradient>
  <linearGradient id="ai-mic-base" x1="0" y1="0" x2="0" y2="1">
  <stop offset="0%" stop-color="#5E2750"/>
  <stop offset="100%" stop-color="#1F0518"/>
  </linearGradient>
  </defs>
  <ellipse cx="24" cy="44" rx="11" ry=".7" fill="rgba(0,0,0,.4)"/>
  <rect x="16" y="4" width="16" height="22" rx="8" fill="url(#ai-mic-grille)" stroke="#3F2A0A" stroke-width=".9"/>
  <g stroke="rgba(63,42,10,.5)" stroke-width=".5">
  <line x1="17" y1="11" x2="31" y2="11"/>
  <line x1="17" y1="14" x2="31" y2="14"/>
  <line x1="17" y1="17" x2="31" y2="17"/>
  </g>
  <rect x="18" y="5.5" width="3" height="18" rx="1.5" fill="rgba(255,247,228,.4)"/>
  <rect x="16" y="20" width="16" height="2.6" fill="#3F2A0A"/>
  <rect x="21" y="26" width="6" height="9" fill="#3D0B2C" stroke="#0A0008" stroke-width=".6"/>
  <rect x="22" y="26.5" width="1.6" height="8" fill="rgba(255,247,228,.25)"/>
  <rect x="22.5" y="34" width="3" height="6" fill="#5A3F08"/>
  <ellipse cx="24" cy="41" rx="11" ry="2.4" fill="url(#ai-mic-base)" stroke="#0A0008" stroke-width=".7"/>
  <ellipse cx="24" cy="40.3" rx="11" ry="2.4" fill="#3D0B2C" stroke="#0A0008" stroke-width=".6"/>
  <ellipse cx="21" cy="39.7" rx="4" ry=".9" fill="rgba(255,247,228,.18)"/>
  </svg>
