<svg viewBox="0 0 48 48" width="100%" height="100%">
<defs>
<linearGradient id="f-movie-camera-body" x1="0" y1="0" x2="0" y2="1">
<stop offset="0" stop-color="#FBF1D8"/>
<stop offset=".32" stop-color="#F8D670"/>
<stop offset=".7" stop-color="#C9892D"/>
<stop offset="1" stop-color="#5A3F08"/>
</linearGradient>
<linearGradient id="f-movie-camera-reel" x1="0" y1="0" x2="0" y2="1">
<stop offset="0" stop-color="#F8E0A0"/>
<stop offset=".5" stop-color="#C9892D"/>
<stop offset="1" stop-color="#3F2A0A"/>
</linearGradient>
<radialGradient id="f-movie-camera-glass" cx=".38" cy=".35" r=".72">
<stop offset="0" stop-color="#77216F"/>
<stop offset=".55" stop-color="#2C001E"/>
<stop offset="1" stop-color="#0A0008"/>
</radialGradient>
<linearGradient id="f-movie-camera-metal" x1="0" y1="0" x2="1" y2="1">
<stop offset="0" stop-color="#F8E0A0"/>
<stop offset=".5" stop-color="#C9892D"/>
<stop offset="1" stop-color="#3F2A0A"/>
</linearGradient>
</defs>
<ellipse cx="24" cy="44.4" rx="15" ry="1.1" fill="rgba(0,0,0,.4)"/>
<g stroke="#3F2A0A" stroke-width="1" stroke-linejoin="round">
<circle cx="14" cy="11" r="8.5" fill="url(#f-movie-camera-reel)"/>
<circle cx="33" cy="11" r="8.5" fill="url(#f-movie-camera-reel)"/>
</g>
<circle cx="14" cy="11" r="6" fill="url(#f-movie-camera-glass)" stroke="#1A0F04" stroke-width=".8"/>
<circle cx="33" cy="11" r="6" fill="url(#f-movie-camera-glass)" stroke="#1A0F04" stroke-width=".8"/>
<g fill="#5A3F08" stroke="#1A0F04" stroke-width=".7">
<circle cx="14" cy="11" r="2.1"/>
<circle cx="33" cy="11" r="2.1"/>
</g>
<circle cx="12" cy="9" r="1.4" fill="rgba(255,247,228,.4)"/>
<circle cx="31" cy="9" r="1.4" fill="rgba(255,247,228,.4)"/>
<rect x="7.5" y="19" width="29" height="20" rx="4.5" fill="url(#f-movie-camera-body)" stroke="#3F2A0A" stroke-width="1"/>
<rect x="8.8" y="20.2" width="26.4" height="3" rx="1.5" fill="rgba(255,255,255,.6)"/>
<rect x="12" y="25" width="13" height="9.5" rx="1.8" fill="url(#f-movie-camera-glass)" stroke="#1A0F04" stroke-width=".9"/>
<rect x="13.4" y="26.2" width="5" height="3.4" rx="1" fill="rgba(255,247,228,.28)"/>
<rect x="26.5" y="21.5" width="9" height="3.6" rx="1.5" fill="#E95420" stroke="#5A1A04" stroke-width=".9"/>
<rect x="27.4" y="22.1" width="4" height="1" rx=".5" fill="#F8D670" opacity=".65"/>
<path d="M36.5 25 L44.5 22 L44.5 36 L36.5 33 Z" fill="url(#f-movie-camera-metal)" stroke="#1A0F04" stroke-width="1" stroke-linejoin="round"/>
<ellipse cx="44.5" cy="29" rx="1.4" ry="7" fill="#2C001E" stroke="#1A0F04" stroke-width=".7"/>
<path d="M37 26 L43 23.6" fill="none" stroke="rgba(255,247,228,.45)" stroke-width="1" stroke-linecap="round"/>
<g stroke="#3F2A0A" stroke-width="2" stroke-linejoin="round" stroke-linecap="round" fill="none">
<path d="M4.5 27.5 L4.5 34 L9 37"/>
</g>
<circle cx="4.5" cy="27" r="1.8" fill="url(#f-movie-camera-metal)" stroke="#3F2A0A" stroke-width=".9"/>
<circle cx="9.4" cy="37.4" r="2.8" fill="#F8D670" stroke="#3F2A0A" stroke-width="1"/>
<circle cx="8.4" cy="36.4" r="1" fill="rgba(255,255,255,.6)"/>
</svg>
