<svg viewBox="0 0 48 48" width="100%" height="100%">
  <defs>
  <linearGradient id="ai-mus-shell" x1="0" y1="0" x2="0" y2="1">
  <stop offset="0%" stop-color="#FBF1D8"/>
  <stop offset="55%" stop-color="#D4B575"/>
  <stop offset="100%" stop-color="#6A4A12"/>
  </linearGradient>
  <linearGradient id="ai-mus-label" x1="0" y1="0" x2="0" y2="1">
  <stop offset="0%" stop-color="#FFFFFF"/>
  <stop offset="100%" stop-color="#D9D0B8"/>
  </linearGradient>
  </defs>
  <rect x="4" y="10" width="40" height="28" rx="2" fill="url(#ai-mus-shell)" stroke="#3F2A0A" stroke-width=".9"/>
  <path d="M5 11 H43" stroke="rgba(255,255,255,.7)" stroke-width=".6"/>
  <rect x="7" y="13" width="34" height="9" rx=".5" fill="url(#ai-mus-label)" stroke="#6A6560" stroke-width=".5"/>
  <line x1="9" y1="16" x2="32" y2="16" stroke="#DD4814" stroke-width=".8"/>
  <line x1="9" y1="18.5" x2="28" y2="18.5" stroke="#9A8870" stroke-width=".6"/>
  <line x1="9" y1="20.5" x2="24" y2="20.5" stroke="#9A8870" stroke-width=".6"/>
  <rect x="6" y="27" width="36" height="5" fill="#1A0F04"/>
  <path d="M6 27.5 H42" stroke="rgba(255,247,228,.08)" stroke-width=".4"/>
  <circle cx="15" cy="29.5" r="4" fill="url(#ai-mus-shell)" stroke="#3F2A0A" stroke-width=".6"/>
  <circle cx="33" cy="29.5" r="4" fill="url(#ai-mus-shell)" stroke="#3F2A0A" stroke-width=".6"/>
  <g fill="#3F2A0A">
  <rect x="14.5" y="26.6" width="1" height="1.6" transform="rotate(0 15 29.5)"/>
  <rect x="14.5" y="26.6" width="1" height="1.6" transform="rotate(60 15 29.5)"/>
  <rect x="14.5" y="26.6" width="1" height="1.6" transform="rotate(120 15 29.5)"/>
  <rect x="14.5" y="26.6" width="1" height="1.6" transform="rotate(180 15 29.5)"/>
  <rect x="14.5" y="26.6" width="1" height="1.6" transform="rotate(240 15 29.5)"/>
  <rect x="14.5" y="26.6" width="1" height="1.6" transform="rotate(300 15 29.5)"/>
  <rect x="32.5" y="26.6" width="1" height="1.6" transform="rotate(0 33 29.5)"/>
  <rect x="32.5" y="26.6" width="1" height="1.6" transform="rotate(60 33 29.5)"/>
  <rect x="32.5" y="26.6" width="1" height="1.6" transform="rotate(120 33 29.5)"/>
  <rect x="32.5" y="26.6" width="1" height="1.6" transform="rotate(180 33 29.5)"/>
  <rect x="32.5" y="26.6" width="1" height="1.6" transform="rotate(240 33 29.5)"/>
  <rect x="32.5" y="26.6" width="1" height="1.6" transform="rotate(300 33 29.5)"/>
  </g>
  <circle cx="15" cy="29.5" r=".8" fill="#1A0F04"/>
  <circle cx="33" cy="29.5" r=".8" fill="#1A0F04"/>
  <g fill="#3F2A0A">
  <circle cx="11" cy="35.5" r=".7"/>
  <circle cx="24" cy="35.5" r=".7"/>
  <circle cx="37" cy="35.5" r=".7"/>
  </g>
  </svg>
