<svg viewBox="0 0 48 48" width="100%" height="100%">
<defs>
<linearGradient id="f-newspaper-back" x1="0" y1="0" x2="0" y2="1">
<stop offset="0%" stop-color="#E9D7A8"/>
<stop offset="55%" stop-color="#D4B575"/>
<stop offset="100%" stop-color="#7A5410"/>
</linearGradient>
<linearGradient id="f-newspaper-front" x1="0" y1="0" x2="0" y2="1">
<stop offset="0%" stop-color="#FCFBF4"/>
<stop offset="55%" stop-color="#FBEED4"/>
<stop offset="100%" stop-color="#D9C189"/>
</linearGradient>
<linearGradient id="f-newspaper-curl" x1="0" y1="0" x2="1" y2="0">
<stop offset="0%" stop-color="#E9D7A8"/>
<stop offset="100%" stop-color="#B89A52"/>
</linearGradient>
<linearGradient id="f-newspaper-mast" x1="0" y1="0" x2="0" y2="1">
<stop offset="0%" stop-color="#5E2750"/>
<stop offset="100%" stop-color="#2C001E"/>
</linearGradient>
<linearGradient id="f-newspaper-band" x1="0" y1="0" x2="0" y2="1">
<stop offset="0%" stop-color="#F98060"/>
<stop offset="100%" stop-color="#DD4814"/>
</linearGradient>
</defs>
<ellipse cx="24" cy="44.4" rx="14" ry=".9" fill="rgba(0,0,0,.4)"/>
<path d="M9.5 9 L37 6.6 Q39 6.4 39 8.4 L40.2 39.6 Q40.3 41.6 38.3 41.8 L12 44 Z" fill="url(#f-newspaper-back)" stroke="#5A3F08" stroke-width=".9" stroke-linejoin="round"/>
<path d="M7.8 8 L34.6 6 Q36.6 5.85 36.7 7.85 L37.8 38.2 Q37.9 40.2 35.9 40.35 L10.6 42.4 Q8.6 42.55 8.5 40.55 Z" fill="url(#f-newspaper-front)" stroke="#5A3F08" stroke-width=".95" stroke-linejoin="round"/>
<path d="M8.5 8.4 L34.4 6.5" stroke="rgba(255,255,255,.7)" stroke-width=".6" stroke-linecap="round"/>
<rect x="10.8" y="9.6" width="24" height="5.4" rx="1.1" fill="url(#f-newspaper-mast)" stroke="#1A0512" stroke-width=".7"/>
<path d="M11.6 10.4 H33.6" stroke="rgba(255,255,255,.28)" stroke-width=".5"/>
<rect x="14.4" y="11" width="17" height="1.5" rx=".75" fill="#F8D670"/>
<rect x="14.4" y="13" width="11" height="1.2" rx=".6" fill="#D4B575"/>
<rect x="10.8" y="16.6" width="14.6" height="2.6" rx="1.3" fill="url(#f-newspaper-band)" stroke="#5A1A04" stroke-width=".6"/>
<g stroke="#5E2750" stroke-width=".95" stroke-linecap="round" opacity=".82">
<path d="M11.4 21.6 H22.4"/>
<path d="M11.4 24 H22.4"/>
<path d="M11.4 26.4 H22.4"/>
<path d="M11.4 28.8 H22.4"/>
<path d="M11.4 31.2 H22.4"/>
<path d="M11.4 33.6 H22.4"/>
<path d="M11.4 36 H19"/>
</g>
<path d="M24.4 20.6 L25 38.4" stroke="#B89A52" stroke-width=".55"/>
<g stroke="#5E2750" stroke-width=".95" stroke-linecap="round" opacity=".82">
<path d="M26.6 21.4 H35.4"/>
<path d="M26.6 23.8 H35.5"/>
<path d="M26.6 26.2 H35.6"/>
<path d="M26.6 28.6 H35.6"/>
<path d="M26.6 31 H35.7"/>
<path d="M26.6 33.4 H35.7"/>
<path d="M26.6 35.8 H32.4"/>
</g>
<path d="M8.6 9 Q24 11 36.8 8" fill="none" stroke="#C9A65A" stroke-width=".5" opacity=".5"/>
<path d="M22.6 9.4 L23.3 41.6" stroke="#C9A65A" stroke-width=".5" opacity=".45"/>
<path d="M8.5 40.4 Q4.6 39 6.6 35.4 Q7.4 38 10.6 37.9 L10.6 42.4 Q8.6 42.55 8.5 40.4 Z" fill="url(#f-newspaper-curl)" stroke="#5A3F08" stroke-width=".8" stroke-linejoin="round"/>
<path d="M7 36.4 Q7.8 38.6 10.2 38.5" fill="none" stroke="rgba(255,255,255,.5)" stroke-width=".45"/>
<path d="M6.9 38.6 Q8 40 9.6 40" fill="none" stroke="#5A3F08" stroke-width=".4" opacity=".6"/>
</svg>
