<svg viewBox="0 0 48 48" width="100%" height="100%">
  <defs>
    <linearGradient id="f-notepad-cover" x1="0" y1="0" x2="0" y2="1">
      <stop offset="0%" stop-color="#FBF1D8"/>
      <stop offset="55%" stop-color="#D4B575"/>
      <stop offset="100%" stop-color="#6A4A12"/>
    </linearGradient>
    <linearGradient id="f-notepad-paper" x1="0" y1="0" x2="0" y2="1">
      <stop offset="0%" stop-color="#FCFBF4"/>
      <stop offset="100%" stop-color="#FBEED4"/>
    </linearGradient>
    <linearGradient id="f-notepad-coil" x1="0" y1="0" x2="0" y2="1">
      <stop offset="0%" stop-color="#FBE57E"/>
      <stop offset="55%" stop-color="#F8D670"/>
      <stop offset="100%" stop-color="#C9892D"/>
    </linearGradient>
    <linearGradient id="f-notepad-pencil" x1="0" y1="0" x2="0" y2="1">
      <stop offset="0%" stop-color="#F8E0A0"/>
      <stop offset="50%" stop-color="#D4B575"/>
      <stop offset="100%" stop-color="#5A3F08"/>
    </linearGradient>
  </defs>
  <ellipse cx="24" cy="44.6" rx="13" ry=".8" fill="rgba(0,0,0,.4)"/>
  <rect x="9.4" y="9.4" width="29" height="33" rx="3" fill="#6A4A12" stroke="#3F2A0A" stroke-width=".7"/>
  <rect x="9" y="11" width="29" height="31" rx="2.2" fill="url(#f-notepad-paper)" stroke="#3F2A0A" stroke-width=".85"/>
  <path d="M10.5 12 H36.5" stroke="rgba(255,255,255,.7)" stroke-width=".5"/>
  <path d="M23.7 16 V41" stroke="#E95420" stroke-width=".7"/>
  <path d="M11.5 22 H36" stroke="#5E2750" stroke-width=".5" opacity=".75"/>
  <path d="M11.5 26 H36" stroke="#5E2750" stroke-width=".5" opacity=".75"/>
  <path d="M11.5 30 H36" stroke="#5E2750" stroke-width=".5" opacity=".75"/>
  <path d="M11.5 34 H36" stroke="#5E2750" stroke-width=".5" opacity=".75"/>
  <path d="M11.5 38 H36" stroke="#5E2750" stroke-width=".5" opacity=".75"/>
  <path d="M11.6 18.4 q1.6 -1.6 2.6 0 t2.6 0 t2.6 0 t2.6 0" fill="none" stroke="#2C001E" stroke-width=".8" stroke-linecap="round"/>
  <g>
    <ellipse cx="13" cy="11" rx="1" ry="1.3" fill="#1A0512"/>
    <ellipse cx="18" cy="11" rx="1" ry="1.3" fill="#1A0512"/>
    <ellipse cx="23" cy="11" rx="1" ry="1.3" fill="#1A0512"/>
    <ellipse cx="28" cy="11" rx="1" ry="1.3" fill="#1A0512"/>
    <ellipse cx="33" cy="11" rx="1" ry="1.3" fill="#1A0512"/>
  </g>
  <g fill="none" stroke="url(#f-notepad-coil)" stroke-width="1.7" stroke-linecap="round">
    <path d="M11.5 13 Q12 7.5 14.6 8.2"/>
    <path d="M16.5 13 Q17 7.5 19.6 8.2"/>
    <path d="M21.5 13 Q22 7.5 24.6 8.2"/>
    <path d="M26.5 13 Q27 7.5 29.6 8.2"/>
    <path d="M31.5 13 Q32 7.5 34.6 8.2"/>
  </g>
  <g fill="none" stroke="#3F2A0A" stroke-width=".35" stroke-linecap="round" opacity=".55">
    <path d="M11.5 13 Q12 7.5 14.6 8.2"/>
    <path d="M16.5 13 Q17 7.5 19.6 8.2"/>
    <path d="M21.5 13 Q22 7.5 24.6 8.2"/>
    <path d="M26.5 13 Q27 7.5 29.6 8.2"/>
    <path d="M31.5 13 Q32 7.5 34.6 8.2"/>
  </g>
  <g transform="rotate(34 27 30)">
    <rect x="16" y="28.5" width="22" height="3.6" rx="1.2" fill="url(#f-notepad-pencil)" stroke="#3F2A0A" stroke-width=".7"/>
    <path d="M17 29.2 H37" stroke="rgba(255,247,228,.55)" stroke-width=".4"/>
    <rect x="38" y="28.5" width="2.6" height="3.6" fill="#C9892D" stroke="#3F2A0A" stroke-width=".5"/>
    <rect x="40.6" y="28.7" width="2.4" height="3.2" rx=".9" fill="#E95420" stroke="#5A1A04" stroke-width=".6"/>
    <path d="M16 28.5 L11.6 30.3 L16 32.1 Z" fill="#FBEED4" stroke="#3F2A0A" stroke-width=".6" stroke-linejoin="round"/>
    <path d="M13 29.7 L11.6 30.3 L13 30.9 Z" fill="#1F0F04" stroke="#0A0306" stroke-width=".3" stroke-linejoin="round"/>
  </g>
</svg>
