<svg viewBox="0 0 48 48" width="100%" height="100%"><defs>
<linearGradient id="f-pager-body" x1="0" y1="0" x2="0" y2="1"><stop offset="0%" stop-color="#FBF1D8"/><stop offset="16%" stop-color="#F8E0A0"/><stop offset="52%" stop-color="#D4B575"/><stop offset="82%" stop-color="#C9892D"/><stop offset="100%" stop-color="#5A3F08"/></linearGradient>
<linearGradient id="f-pager-bezel" x1="0" y1="0" x2="0" y2="1"><stop offset="0%" stop-color="#6A4A12"/><stop offset="100%" stop-color="#3F2A0A"/></linearGradient>
<radialGradient id="f-pager-grille" cx=".4" cy=".32" r=".8"><stop offset="0%" stop-color="#6A4A12"/><stop offset="45%" stop-color="#3F2A0A"/><stop offset="100%" stop-color="#1A0F04"/></radialGradient>
<radialGradient id="f-pager-btn" cx=".36" cy=".3" r=".85"><stop offset="0%" stop-color="#FBF1D8"/><stop offset="48%" stop-color="#D4B575"/><stop offset="100%" stop-color="#5A3F08"/></radialGradient>
<radialGradient id="f-pager-call" cx=".36" cy=".3" r=".8"><stop offset="0%" stop-color="#FFC79A"/><stop offset="30%" stop-color="#E95420"/><stop offset="70%" stop-color="#DD4814"/><stop offset="100%" stop-color="#5A1A04"/></radialGradient>
<radialGradient id="f-pager-glow" cx=".5" cy=".5" r=".5"><stop offset="0%" stop-color="rgba(233,84,32,.85)"/><stop offset="55%" stop-color="rgba(233,84,32,.32)"/><stop offset="100%" stop-color="rgba(233,84,32,0)"/></radialGradient>
<linearGradient id="f-pager-plate" x1="0" y1="0" x2="0" y2="1"><stop offset="0%" stop-color="#FCFBF4"/><stop offset="100%" stop-color="#E8D9A8"/></linearGradient>
</defs>
<ellipse cx="24" cy="45" rx="12" ry=".8" fill="rgba(0,0,0,.4)"/>
<rect x="11.5" y="4" width="25" height="41" rx="3.4" fill="url(#f-pager-body)" stroke="#3F2A0A" stroke-width="1.1" stroke-linejoin="round"/>
<rect x="12.9" y="5.4" width="22.2" height="38.2" rx="2.4" fill="none" stroke="rgba(255,247,228,.3)" stroke-width=".5"/>
<path d="M14.9 5.4 L33.1 5.4 C34.6 5.4 35.4 6.3 35.4 7.8 L35.4 9.4 L12.6 9.4 L12.6 7.8 C12.6 6.3 13.4 5.4 14.9 5.4 Z" fill="rgba(255,255,255,.6)"/>
<rect x="14.4" y="7.6" width="19.2" height="11" rx="2.2" fill="url(#f-pager-bezel)" stroke="#1A0F04" stroke-width=".9"/>
<rect x="15.8" y="9" width="16.4" height="8.2" rx="1.6" fill="url(#f-pager-grille)" stroke="#1A0F04" stroke-width=".7"/>
<g fill="#1A0F04">
<circle cx="18.2" cy="11" r=".7"/><circle cx="21" cy="11" r=".7"/><circle cx="23.8" cy="11" r=".7"/><circle cx="26.6" cy="11" r=".7"/><circle cx="29.4" cy="11" r=".7"/>
<circle cx="18.2" cy="13.2" r=".7"/><circle cx="21" cy="13.2" r=".7"/><circle cx="23.8" cy="13.2" r=".7"/><circle cx="26.6" cy="13.2" r=".7"/><circle cx="29.4" cy="13.2" r=".7"/>
<circle cx="18.2" cy="15.4" r=".7"/><circle cx="21" cy="15.4" r=".7"/><circle cx="23.8" cy="15.4" r=".7"/><circle cx="26.6" cy="15.4" r=".7"/><circle cx="29.4" cy="15.4" r=".7"/>
</g>
<circle cx="18.6" cy="10.4" r="1" fill="rgba(255,247,228,.3)"/>
<g>
<circle cx="18.8" cy="23.4" r="3" fill="url(#f-pager-btn)" stroke="#3F2A0A" stroke-width=".9"/>
<circle cx="17.7" cy="22.3" r="1" fill="rgba(255,255,255,.6)"/>
<rect x="23.2" y="21.4" width="10.4" height="4" rx="1.4" fill="url(#f-pager-plate)" stroke="#5A3F08" stroke-width=".6"/>
<rect x="24.4" y="23" width="7.6" height=".8" rx=".4" fill="#5A3F08"/>
</g>
<g>
<circle cx="18.8" cy="30.6" r="3" fill="url(#f-pager-btn)" stroke="#3F2A0A" stroke-width=".9"/>
<circle cx="17.7" cy="29.5" r="1" fill="rgba(255,255,255,.6)"/>
<rect x="23.2" y="28.6" width="10.4" height="4" rx="1.4" fill="url(#f-pager-plate)" stroke="#5A3F08" stroke-width=".6"/>
<rect x="24.4" y="30.2" width="7.6" height=".8" rx=".4" fill="#5A3F08"/>
</g>
<g>
<circle cx="18.8" cy="37.8" r="3" fill="url(#f-pager-btn)" stroke="#3F2A0A" stroke-width=".9"/>
<circle cx="17.7" cy="36.7" r="1" fill="rgba(255,255,255,.6)"/>
<rect x="23.2" y="35.8" width="10.4" height="4" rx="1.4" fill="#F8D670" stroke="#5A3F08" stroke-width=".6"/>
<rect x="24.4" y="37.4" width="7.6" height=".8" rx=".4" fill="#5A3F08"/>
</g>
<circle cx="18.8" cy="37.8" r="6.4" fill="url(#f-pager-glow)"/>
<circle cx="18.8" cy="37.8" r="3" fill="url(#f-pager-call)" stroke="#5A1A04" stroke-width=".9"/>
<circle cx="17.6" cy="36.6" r="1.1" fill="rgba(255,247,228,.65)"/>
</svg>
