<svg viewBox="0 0 48 48" width="100%" height="100%">
  <defs>
  <linearGradient id="ai-pal" x1="0" y1="0" x2="0" y2="1">
  <stop offset="0%" stop-color="#F4E0AC"/>
  <stop offset="100%" stop-color="#7A5818"/>
  </linearGradient>
  </defs>
  <path d="M7 18 C 7 9 16 5 25 5 C 37 5 44 13 44 22 C 44 30 36 38 29 38 C 27 38 27 34 27 32 C 27 28 23 28 19 28 C 13 28 7 26 7 18 Z" fill="url(#ai-pal)" stroke="#3F2A0A" stroke-width=".9" stroke-linejoin="round"/>
  <path d="M9 13 C 12 9 18 7 25 7" stroke="rgba(255,255,255,.5)" stroke-width=".6" fill="none"/>
  <ellipse cx="22" cy="31" rx="4.5" ry="2.5" fill="#3D0B2C" stroke="#1A0512" stroke-width=".5"/>
  <circle cx="17" cy="14" r="3.2" fill="#DD4814" stroke="#5A1A04" stroke-width=".4"/>
  <circle cx="27" cy="12" r="3.2" fill="#F8D670" stroke="#5A3F08" stroke-width=".4"/>
  <circle cx="36" cy="17" r="3.2" fill="#A8C268" stroke="#3F5A18" stroke-width=".4"/>
  <circle cx="37" cy="27" r="3.2" fill="#77216F" stroke="#2C001E" stroke-width=".4"/>
  <circle cx="16" cy="13" r=".8" fill="rgba(255,255,255,.6)"/>
  <circle cx="26" cy="11" r=".8" fill="rgba(255,255,255,.7)"/>
  <circle cx="35" cy="16" r=".8" fill="rgba(255,255,255,.6)"/>
  <circle cx="36" cy="26" r=".8" fill="rgba(255,255,255,.5)"/>
  </svg>
