<svg viewBox="0 0 48 48" width="100%" height="100%">
  <defs>
    <radialGradient id="f-paper-airplane-horizon" cx=".38" cy=".35" r=".9"><stop offset="0%" stop-color="#77216F"/><stop offset="55%" stop-color="#2C001E"/><stop offset="100%" stop-color="#0A0008"/></radialGradient>
    <linearGradient id="f-paper-airplane-plane" x1="0" y1="0" x2="0" y2="1"><stop offset="0%" stop-color="#E95420"/><stop offset="100%" stop-color="#7A1F08"/></linearGradient>
    <linearGradient id="f-paper-airplane-wing" x1="0" y1="0" x2="1" y2="1"><stop offset="0%" stop-color="#DD4814"/><stop offset="100%" stop-color="#5A1A04"/></linearGradient>
    <linearGradient id="f-paper-airplane-route" x1="0" y1="0" x2="1" y2="0"><stop offset="0%" stop-color="#F8E0A0"/><stop offset="100%" stop-color="#C9892D"/></linearGradient>
  </defs>
  <ellipse cx="24" cy="44" rx="12" ry=".8" fill="rgba(0,0,0,.4)"/>
  <path d="M5 44 A21 21 0 0 1 43 44 Z" fill="url(#f-paper-airplane-horizon)" stroke="#1A0512" stroke-width=".8" stroke-linejoin="round"/>
  <path d="M6.6 39.5 A20 20 0 0 1 41.4 39.5" fill="none" stroke="rgba(255,247,228,.3)" stroke-width=".7"/>
  <path d="M10 41.5 A13.5 13.5 0 0 1 38 41.5" fill="none" stroke="rgba(119,33,111,.55)" stroke-width="1"/>
  <ellipse cx="16" cy="40.4" rx="2.4" ry="1" fill="rgba(255,255,255,.14)"/>
  <circle cx="11.5" cy="33" r="1.1" fill="#F8D670"/>
  <circle cx="38.5" cy="9.5" r=".9" fill="#FBE57E"/>
  <circle cx="33" cy="6.5" r=".55" fill="#FCFBF4"/>
  <path d="M8 32 Q19 30 27 18 Q33 9 38 7" fill="none" stroke="#5A3F08" stroke-width="1.8" stroke-linecap="round" stroke-dasharray=".2 3.2"/>
  <path d="M8 32 Q19 30 27 18 Q33 9 38 7" fill="none" stroke="url(#f-paper-airplane-route)" stroke-width="1.1" stroke-linecap="round" stroke-dasharray=".2 3.2"/>
  <circle cx="8" cy="32" r="1.7" fill="url(#f-paper-airplane-route)" stroke="#3F2A0A" stroke-width=".5"/>
  <circle cx="7.4" cy="31.4" r=".5" fill="rgba(255,247,228,.7)"/>
  <g transform="rotate(-38 27 18)">
    <path d="M27 7 L37 26 L27 22 L17 26 Z" fill="url(#f-paper-airplane-plane)" stroke="#5A1A04" stroke-width=".9" stroke-linejoin="round"/>
    <path d="M27 7 L27 22 L37 26 Z" fill="url(#f-paper-airplane-wing)" stroke="#5A1A04" stroke-width=".6" stroke-linejoin="round"/>
    <path d="M27 7 L27 22 L17 26 Z" fill="#E95420" stroke="#5A1A04" stroke-width=".6" stroke-linejoin="round"/>
    <path d="M27 8.5 L18.8 24.4" fill="none" stroke="rgba(255,255,255,.55)" stroke-width=".7"/>
    <path d="M27 7 L27 22" stroke="#3F2A0A" stroke-width=".5"/>
    <path d="M27 22 L23.4 27 L27 24.8 L30.6 27 Z" fill="#C9442E" stroke="#5A1A04" stroke-width=".5" stroke-linejoin="round"/>
    <circle cx="27" cy="11" r="1.2" fill="#F8D670" stroke="#5A1A04" stroke-width=".3"/>
  </g>
</svg>
