<svg viewBox="0 0 48 48" width="100%" height="100%">
<defs>
<linearGradient id="f-pen-nib-body" x1="0" y1="0" x2="0" y2="1">
<stop offset="0%" stop-color="#FBF1D8"/>
<stop offset="38%" stop-color="#D4B575"/>
<stop offset="70%" stop-color="#C9892D"/>
<stop offset="100%" stop-color="#5A3F08"/>
</linearGradient>
<linearGradient id="f-pen-nib-sheen" x1="0" y1="0" x2="1" y2="0">
<stop offset="0%" stop-color="rgba(255,247,228,.5)"/>
<stop offset="100%" stop-color="rgba(255,247,228,0)"/>
</linearGradient>
<linearGradient id="f-pen-nib-tip" x1="0" y1="0" x2="0" y2="1">
<stop offset="0%" stop-color="#F8E0A0"/>
<stop offset="55%" stop-color="#C9892D"/>
<stop offset="100%" stop-color="#3F2A0A"/>
</linearGradient>
<radialGradient id="f-pen-nib-hole" cx=".4" cy=".35" r=".75">
<stop offset="0%" stop-color="#6A4A12"/>
<stop offset="60%" stop-color="#3F2A0A"/>
<stop offset="100%" stop-color="#1F0F04"/>
</radialGradient>
<radialGradient id="f-pen-nib-bead" cx=".38" cy=".3" r=".82">
<stop offset="0%" stop-color="#FBC9A0"/>
<stop offset="42%" stop-color="#E95420"/>
<stop offset="100%" stop-color="#5A1A04"/>
</radialGradient>
</defs>
<ellipse cx="24" cy="44.4" rx="10" ry=".8" fill="rgba(0,0,0,.4)"/>
<path d="M14 8
         C 16.5 5 20 4 24 4
         C 28 4 31.5 5 34 8
         C 33 12 31.5 16 29.5 20.5
         C 27.6 24.8 25.8 29 24 33.5
         C 22.2 29 20.4 24.8 18.5 20.5
         C 16.5 16 15 12 14 8 Z"
      fill="url(#f-pen-nib-body)" stroke="#3F2A0A" stroke-width=".9" stroke-linejoin="round"/>
<path d="M16.6 7.4 C 18.6 5.6 21 5 24 5 C 27 5 29.4 5.6 31.4 7.4"
      fill="none" stroke="rgba(255,255,255,.7)" stroke-width=".7" stroke-linecap="round"/>
<path d="M17.4 8.6 C 16.8 12 17.6 15.6 19 19.2 C 20.4 22.8 21.8 26 23 29"
      fill="none" stroke="url(#f-pen-nib-sheen)" stroke-width="1.1" stroke-linecap="round"/>
<circle cx="24" cy="12.6" r="2.5" fill="url(#f-pen-nib-hole)" stroke="#3F2A0A" stroke-width=".7"/>
<path d="M22.5 11.4 A 2.5 2.5 0 0 1 25.2 10.5"
      fill="none" stroke="rgba(255,247,228,.45)" stroke-width=".5" stroke-linecap="round"/>
<path d="M24 15.5 L24 33.2" stroke="#3F2A0A" stroke-width="1.2" stroke-linecap="round"/>
<path d="M24 15.8 L24 30.5" stroke="#1F0F04" stroke-width=".5" stroke-linecap="round"/>
<path d="M24 33.5 L24 39.8"
      fill="none" stroke="url(#f-pen-nib-tip)" stroke-width="1.6" stroke-linecap="round"/>
<path d="M23.4 33.6 L23.4 38"
      fill="none" stroke="rgba(255,247,228,.6)" stroke-width=".4" stroke-linecap="round"/>
<path d="M24 39
         C 22.6 40.7 21.6 41.8 21.6 43.1
         C 21.6 44.5 22.6 45.4 24 45.4
         C 25.4 45.4 26.4 44.5 26.4 43.1
         C 26.4 41.8 25.4 40.7 24 39 Z"
      fill="url(#f-pen-nib-bead)" stroke="#5A1A04" stroke-width=".7" stroke-linejoin="round"/>
<ellipse cx="23" cy="42" rx=".7" ry="1.05" fill="rgba(255,247,228,.6)"/>
<path d="M11 10.5 q4.2 -3.2 9 -2" fill="none" stroke="#F8D670" stroke-width="1.3" stroke-linecap="round"/>
</svg>
