<svg viewBox="0 0 48 48" width="100%" height="100%">
  <defs>
  <linearGradient id="ai-ph-body" x1="0" y1="0" x2="1" y2="0">
  <stop offset="0%" stop-color="#4A3A28"/>
  <stop offset="22%" stop-color="#2A1F12"/>
  <stop offset="100%" stop-color="#120A04"/>
  </linearGradient>
  <linearGradient id="ai-ph-screen" x1="0" y1="0" x2="0" y2="1">
  <stop offset="0%" stop-color="#5E2750"/>
  <stop offset="100%" stop-color="#1A0512"/>
  </linearGradient>
  </defs>
  <ellipse cx="24" cy="44.5" rx="11" ry=".7" fill="rgba(0,0,0,.4)"/>
  <rect x="13" y="3" width="22" height="42" rx="4.5" fill="url(#ai-ph-body)" stroke="#0A0604" stroke-width=".9"/>
  <rect x="14" y="4" width="3" height="40" rx="1.5" fill="rgba(255,247,228,.12)"/>
  <rect x="20" y="7.4" width="8" height="1.6" rx=".8" fill="#C9892D"/>
  <rect x="15.5" y="11" width="17" height="26" rx="1.6" fill="url(#ai-ph-screen)" stroke="#0A0306" stroke-width=".5"/>
  <path d="M15.5 12.6 Q15.5 11 17.1 11 H30.9 Q32.5 11 32.5 12.6 V14 H15.5 Z" fill="#7A2308"/>
  <rect x="17" y="12" width="6" height="1" rx=".5" fill="rgba(255,247,228,.55)"/>
  <g>
  <rect x="18" y="17" width="5" height="5" rx="1.2" fill="#DD4814"/>
  <rect x="25" y="17" width="5" height="5" rx="1.2" fill="#F8D670"/>
  <rect x="18" y="24" width="5" height="5" rx="1.2" fill="#C9892D"/>
  <rect x="25" y="24" width="5" height="5" rx="1.2" fill="#A8C268"/>
  </g>
  <path d="M16.6 12 L20.5 12 L16.6 31 Z" fill="rgba(255,247,228,.06)"/>
  <circle cx="24" cy="41" r="2" fill="none" stroke="#C9892D" stroke-width=".9"/>
  </svg>
