<svg viewBox="0 0 48 48" width="100%" height="100%">
  <defs>
  <linearGradient id="f-phone-handset-recv" x1="0" y1="0" x2="0" y2="1">
  <stop offset="0%" stop-color="#FBE0A0"/>
  <stop offset="38%" stop-color="#E95420"/>
  <stop offset="100%" stop-color="#7A1F08"/>
  </linearGradient>
  </defs>
  <ellipse cx="24" cy="45" rx="13" ry=".8" fill="rgba(0,0,0,.35)"/>
  <path d="M34 5 Q41 5 41 12" fill="none" stroke="#E95420" stroke-width="1.8" stroke-linecap="round"/>
  <path d="M33 9.5 Q37 9.5 37 13.5" fill="none" stroke="#F8D670" stroke-width="1.6" stroke-linecap="round"/>
  <g transform="translate(3.5 6) scale(1.7)">
  <path d="M20.01 15.38c-1.23 0-2.42-.2-3.53-.56-.35-.12-.74-.03-1.01.24l-1.57 1.97c-2.83-1.35-5.48-3.9-6.89-6.83l1.95-1.66c.27-.28.35-.67.24-1.02-.37-1.11-.56-2.3-.56-3.53 0-.54-.45-.99-.99-.99H4.19C3.65 3 3 3.24 3 3.99 3 13.28 10.73 21 20.01 21c.71 0 .99-.63.99-1.18v-3.45c0-.54-.45-.99-.99-.99z" fill="url(#f-phone-handset-recv)" stroke="#5A1A04" stroke-width=".75" stroke-linejoin="round"/>
  <path d="M5 4.2 Q4 4 4 5.4 L4 7.6 Q4.6 5 7 4.4 Z" fill="rgba(255,247,228,.5)"/>
  </g>
</svg>
