<svg viewBox="0 0 48 48" width="100%" height="100%">
  <defs>
  <linearGradient id="ai-pn-fascia" x1="0" y1="0" x2="0" y2="1">
  <stop offset="0%" stop-color="#5A3F08"/>
  <stop offset="100%" stop-color="#1F0F04"/>
  </linearGradient>
  <linearGradient id="ai-pn-key" x1="0" y1="0" x2="0" y2="1">
  <stop offset="0%" stop-color="#FCFBF4"/>
  <stop offset="100%" stop-color="#C4BA9C"/>
  </linearGradient>
  </defs>
  <ellipse cx="24" cy="43.5" rx="20" ry=".8" fill="rgba(0,0,0,.4)"/>
  <rect x="4" y="6" width="40" height="11" rx="1" fill="url(#ai-pn-fascia)" stroke="#0A0008" stroke-width=".9"/>
  <rect x="4" y="6" width="40" height="1" fill="rgba(255,247,228,.4)"/>
  <rect x="18" y="9" width="12" height="3.4" rx=".3" fill="#C9892D" stroke="#3F2A0A" stroke-width=".4"/>
  <rect x="18" y="9" width="12" height=".55" fill="rgba(255,255,255,.55)"/>
  <text x="24" y="11.6" text-anchor="middle" font-family="Ubuntu, sans-serif" font-weight="700" font-size="2.6" fill="#3F2A0A" letter-spacing=".18em">PIANO</text>
  <rect x="4" y="17" width="40" height="2" fill="#C9892D" stroke="#3F2A0A" stroke-width=".4"/>
  <rect x="4" y="17" width="40" height=".5" fill="rgba(255,255,255,.55)"/>
  <g>
  <rect x="4" y="19" width="5.714285714285714" height="23" rx=".3" fill="url(#ai-pn-key)" stroke="#3F2A0A" stroke-width=".4"/>
  <rect x="9.714285714285715" y="19" width="5.714285714285714" height="23" rx=".3" fill="url(#ai-pn-key)" stroke="#3F2A0A" stroke-width=".4"/>
  <rect x="15.428571428571429" y="19" width="5.714285714285714" height="23" rx=".3" fill="url(#ai-pn-key)" stroke="#3F2A0A" stroke-width=".4"/>
  <rect x="21.142857142857142" y="19" width="5.714285714285714" height="23" rx=".3" fill="url(#ai-pn-key)" stroke="#3F2A0A" stroke-width=".4"/>
  <rect x="26.857142857142858" y="19" width="5.714285714285714" height="23" rx=".3" fill="url(#ai-pn-key)" stroke="#3F2A0A" stroke-width=".4"/>
  <rect x="32.57142857142857" y="19" width="5.714285714285714" height="23" rx=".3" fill="url(#ai-pn-key)" stroke="#3F2A0A" stroke-width=".4"/>
  <rect x="38.285714285714285" y="19" width="5.714285714285714" height="23" rx=".3" fill="url(#ai-pn-key)" stroke="#3F2A0A" stroke-width=".4"/>
  </g>
  <g fill="#1A0F04" stroke="#0A0604" stroke-width=".4">
  <rect x="8.014285714285716" y="19" width="3.4" height="14"/>
  <rect x="13.72857142857143" y="19" width="3.4" height="14"/>
  <rect x="25.15714285714286" y="19" width="3.4" height="14"/>
  <rect x="30.87142857142857" y="19" width="3.4" height="14"/>
  <rect x="36.58571428571428" y="19" width="3.4" height="14"/>
  </g>
  <g fill="rgba(255,247,228,.18)">
  <rect x="8.214285714285715" y="19.3" width="3" height=".7"/>
  <rect x="13.928571428571429" y="19.3" width="3" height=".7"/>
  <rect x="25.357142857142858" y="19.3" width="3" height=".7"/>
  <rect x="31.07142857142857" y="19.3" width="3" height=".7"/>
  <rect x="36.785714285714285" y="19.3" width="3" height=".7"/>
  </g>
  <rect x="3" y="42" width="42" height="2" fill="#3F2A0A" stroke="#1A0F04" stroke-width=".4"/>
  </svg>
