<svg viewBox="0 0 48 48" width="100%" height="100%">
<defs>
<linearGradient id="f-piano-keys-case" x1="0" y1="0" x2="0" y2="1">
<stop offset="0" stop-color="#FBF1D8"/>
<stop offset="0.5" stop-color="#C9892D"/>
<stop offset="1" stop-color="#5A3F08"/>
</linearGradient>
<linearGradient id="f-piano-keys-white" x1="0" y1="0" x2="0" y2="1">
<stop offset="0" stop-color="#FCFBF4"/>
<stop offset="0.7" stop-color="#F3EFE0"/>
<stop offset="1" stop-color="#CFC9B4"/>
</linearGradient>
<linearGradient id="f-piano-keys-black" x1="0" y1="0" x2="0" y2="1">
<stop offset="0" stop-color="#3D0B2C"/>
<stop offset="0.55" stop-color="#1A0512"/>
<stop offset="1" stop-color="#0A0008"/>
</linearGradient>
<linearGradient id="f-piano-keys-felt" x1="0" y1="0" x2="0" y2="1">
<stop offset="0" stop-color="#F8763E"/>
<stop offset="0.5" stop-color="#E95420"/>
<stop offset="1" stop-color="#7A1F08"/>
</linearGradient>
</defs>
<ellipse cx="24" cy="44.6" rx="15" ry="1" fill="rgba(0,0,0,.4)"/>
<rect x="5" y="6" width="38" height="36" rx="3.5" fill="url(#f-piano-keys-case)" stroke="#3F2A0A" stroke-width="1" stroke-linejoin="round"/>
<rect x="6.3" y="7.2" width="35.4" height="1.8" rx="0.9" fill="rgba(255,255,255,.65)"/>
<rect x="6.3" y="7.4" width="1.4" height="33" rx="0.7" fill="rgba(255,255,255,.4)"/>
<rect x="7.5" y="10.5" width="33" height="2.6" rx="1" fill="url(#f-piano-keys-felt)" stroke="#7A1F08" stroke-width="0.6" stroke-linejoin="round"/>
<rect x="8" y="10.9" width="32" height="0.7" rx="0.35" fill="rgba(255,247,228,.4)"/>
<g stroke="#5A3F08" stroke-width="0.7" stroke-linejoin="round">
<rect x="7.6" y="13.6" width="4.7" height="26.4" rx="1.2" fill="url(#f-piano-keys-white)"/>
<rect x="12.7" y="13.6" width="4.7" height="26.4" rx="1.2" fill="url(#f-piano-keys-white)"/>
<rect x="17.8" y="13.6" width="4.7" height="26.4" rx="1.2" fill="url(#f-piano-keys-white)"/>
<rect x="22.9" y="13.6" width="4.7" height="26.4" rx="1.2" fill="url(#f-piano-keys-white)"/>
<rect x="28" y="13.6" width="4.7" height="26.4" rx="1.2" fill="url(#f-piano-keys-white)"/>
<rect x="33.1" y="13.6" width="4.7" height="26.4" rx="1.2" fill="url(#f-piano-keys-white)"/>
</g>
<g fill="rgba(255,255,255,.7)">
<rect x="8.2" y="14.4" width="3.3" height="1.1" rx="0.55"/>
<rect x="13.3" y="14.4" width="3.3" height="1.1" rx="0.55"/>
<rect x="18.4" y="14.4" width="3.3" height="1.1" rx="0.55"/>
<rect x="23.5" y="14.4" width="3.3" height="1.1" rx="0.55"/>
<rect x="28.6" y="14.4" width="3.3" height="1.1" rx="0.55"/>
<rect x="33.7" y="14.4" width="3.3" height="1.1" rx="0.55"/>
</g>
<g stroke="#0A0008" stroke-width="0.6" stroke-linejoin="round">
<rect x="10.4" y="13.6" width="3.8" height="16.4" rx="1.2" fill="url(#f-piano-keys-black)"/>
<rect x="15.5" y="13.6" width="3.8" height="16.4" rx="1.2" fill="url(#f-piano-keys-black)"/>
<rect x="25.7" y="13.6" width="3.8" height="16.4" rx="1.2" fill="url(#f-piano-keys-black)"/>
<rect x="30.8" y="13.6" width="3.8" height="16.4" rx="1.2" fill="url(#f-piano-keys-black)"/>
</g>
<g fill="rgba(168,120,200,.5)">
<rect x="11" y="14.4" width="2.6" height="1.1" rx="0.55"/>
<rect x="16.1" y="14.4" width="2.6" height="1.1" rx="0.55"/>
<rect x="26.3" y="14.4" width="2.6" height="1.1" rx="0.55"/>
<rect x="31.4" y="14.4" width="2.6" height="1.1" rx="0.55"/>
</g>
<ellipse cx="24" cy="38.4" rx="6.5" ry="1.1" fill="rgba(0,0,0,.28)"/>
<path d="M21.4 36 V26.3 L28.8 28 V34" fill="none" stroke="#F8D670" stroke-width="1.8" stroke-linejoin="round" stroke-linecap="round"/>
<path d="M21.4 27 L28.8 28.7" stroke="#9A7012" stroke-width="0.5" stroke-linecap="round"/>
<ellipse cx="19.6" cy="36" rx="2.7" ry="2.1" fill="#F8D670" stroke="#9A7012" stroke-width="0.7" transform="rotate(-20 19.6 36)"/>
<ellipse cx="27" cy="37.6" rx="2.7" ry="2.1" fill="#F8D670" stroke="#9A7012" stroke-width="0.7" transform="rotate(-20 27 37.6)"/>
<ellipse cx="18.7" cy="35.2" rx="0.9" ry="0.7" fill="rgba(255,255,255,.75)" transform="rotate(-20 18.7 35.2)"/>
</svg>
