<svg viewBox="0 0 48 48" width="100%" height="100%">
  <defs>
  <linearGradient id="f-pocket-watch-case" x1="0" y1="0" x2="0" y2="1">
  <stop offset="0%" stop-color="#F8E0A0"/>
  <stop offset="50%" stop-color="#C9892D"/>
  <stop offset="100%" stop-color="#3F2A0A"/>
  </linearGradient>
  <radialGradient id="f-pocket-watch-face" cx=".5" cy=".4" r=".7">
  <stop offset="0%" stop-color="#FFFFFF"/>
  <stop offset="100%" stop-color="#D9D0B8"/>
  </radialGradient>
  </defs>
  <ellipse cx="24" cy="44" rx="12" ry=".8" fill="rgba(0,0,0,.35)"/>
  <circle cx="32" cy="9" r="3.4" fill="none" stroke="url(#f-pocket-watch-case)" stroke-width="2"/>
  <path d="M24 11 C 18 12 16 14 15 17" fill="none" stroke="#C9892D" stroke-width="1" stroke-dasharray="1 1.2"/>
  <rect x="22" y="6.5" width="4" height="4" rx="1" fill="url(#f-pocket-watch-case)" stroke="#3F2A0A" stroke-width=".6"/>
  <circle cx="24" cy="26" r="17" fill="url(#f-pocket-watch-case)" stroke="#3F2A0A" stroke-width=".9"/>
  <circle cx="24" cy="26" r="15.5" fill="none" stroke="rgba(255,247,228,.4)" stroke-width=".7"/>
  <circle cx="24" cy="26" r="13.5" fill="url(#f-pocket-watch-face)" stroke="#5A3F08" stroke-width=".5"/>
  <rect x="23.3" y="13.5" width="1.4" height="2.2" fill="#3F2A0A"/>
  <rect x="34" y="25.3" width="2.2" height="1.4" fill="#3F2A0A"/>
  <rect x="23.3" y="36.3" width="1.4" height="2.2" fill="#3F2A0A"/>
  <rect x="11.8" y="25.3" width="2.2" height="1.4" fill="#3F2A0A"/>
  <path d="M24 26 L16.5 22.5" stroke="#3F2A0A" stroke-width="2.1" stroke-linecap="round"/>
  <path d="M24 26 L29.5 18.5" stroke="#3F2A0A" stroke-width="1.5" stroke-linecap="round"/>
  <path d="M24 26 L24 15.5" stroke="#DD4814" stroke-width=".9" stroke-linecap="round"/>
  <circle cx="24" cy="26" r="1.5" fill="#3F2A0A"/>
  <circle cx="24" cy="26" r=".6" fill="#DD4814"/>
  <path d="M13 17 A17 17 0 0 1 35 16" fill="none" stroke="rgba(255,255,255,.45)" stroke-width="1.3"/>
  </svg>
