<svg viewBox="0 0 48 48" width="100%" height="100%">
  <defs>
  <linearGradient id="f-pocket-stopwatch-base" x1="0" y1="0" x2="0" y2="1">
  <stop offset="0%" stop-color="#F8E0A0"/>
  <stop offset="50%" stop-color="#C9892D"/>
  <stop offset="100%" stop-color="#3F2A0A"/>
  </linearGradient>
  <radialGradient id="f-pocket-stopwatch-face" cx=".5" cy=".4" r=".7">
  <stop offset="0%" stop-color="#FFFFFF"/>
  <stop offset="100%" stop-color="#D9D0B8"/>
  </radialGradient>
  </defs>
  <ellipse cx="24" cy="44" rx="14" ry=".8" fill="rgba(0,0,0,.4)"/>
  <rect x="22.6" y="4" width="2.8" height="5" rx="1" fill="url(#f-pocket-stopwatch-base)" stroke="#3F2A0A" stroke-width=".5"/>
  <path d="M19 8 C 21 6 27 6 29 8 L27.5 11 H20.5 Z" fill="url(#f-pocket-stopwatch-base)" stroke="#3F2A0A" stroke-width=".6" stroke-linejoin="round"/>
  <circle cx="24" cy="27" r="17" fill="url(#f-pocket-stopwatch-base)" stroke="#3F2A0A" stroke-width=".9"/>
  <circle cx="24" cy="27" r="15.6" fill="none" stroke="rgba(255,247,228,.4)" stroke-width=".6"/>
  <circle cx="24" cy="27" r="13.3" fill="url(#f-pocket-stopwatch-face)" stroke="#5A3F08" stroke-width=".5"/>
  <g stroke="#3F2A0A" stroke-linecap="round">
  <line x1="24" y1="14.5" x2="24" y2="17" stroke-width="1.1" transform="rotate(0 24 27)"/>
  <line x1="24" y1="14.5" x2="24" y2="16" stroke-width=".55" transform="rotate(45 24 27)"/>
  <line x1="24" y1="14.5" x2="24" y2="17" stroke-width="1.1" transform="rotate(90 24 27)"/>
  <line x1="24" y1="14.5" x2="24" y2="16" stroke-width=".55" transform="rotate(135 24 27)"/>
  <line x1="24" y1="14.5" x2="24" y2="17" stroke-width="1.1" transform="rotate(180 24 27)"/>
  <line x1="24" y1="14.5" x2="24" y2="16" stroke-width=".55" transform="rotate(225 24 27)"/>
  <line x1="24" y1="14.5" x2="24" y2="17" stroke-width="1.1" transform="rotate(270 24 27)"/>
  <line x1="24" y1="14.5" x2="24" y2="16" stroke-width=".55" transform="rotate(315 24 27)"/>
  </g>
  <path d="M24 27 L24 18" stroke="#3F2A0A" stroke-width="1.4" stroke-linecap="round" transform="rotate(40 24 27)"/>
  <path d="M24 27 L30 27" stroke="#DD4814" stroke-width=".9" stroke-linecap="round" transform="rotate(40 24 27)"/>
  <circle cx="24" cy="27" r="1.4" fill="#3F2A0A"/>
  <circle cx="24" cy="27" r=".5" fill="#DD4814"/>
  <path d="M13 18 A16 16 0 0 1 35 17" fill="none" stroke="rgba(255,255,255,.5)" stroke-width="1.3"/>
  <ellipse cx="24" cy="44" rx="6" ry="1.6" fill="url(#f-pocket-stopwatch-base)" stroke="#3F2A0A" stroke-width=".6"/>
</svg>
