<svg viewBox="0 0 48 48" width="100%" height="100%">
<defs>
<linearGradient id="f-polaroid-frame" x1="0" y1="0" x2="0" y2="1">
<stop offset="0" stop-color="#FCFBF4"/>
<stop offset="0.55" stop-color="#F3ECD6"/>
<stop offset="1" stop-color="#E2D4A8"/>
</linearGradient>
<radialGradient id="f-polaroid-sky" cx="0.38" cy="0.32" r="0.95">
<stop offset="0" stop-color="#77216F"/>
<stop offset="0.5" stop-color="#3D0B2C"/>
<stop offset="1" stop-color="#1A0512"/>
</radialGradient>
<linearGradient id="f-polaroid-hill" x1="0" y1="0" x2="0" y2="1">
<stop offset="0" stop-color="#5E2750"/>
<stop offset="1" stop-color="#2C001E"/>
</linearGradient>
<linearGradient id="f-polaroid-sun" x1="0" y1="0" x2="0" y2="1">
<stop offset="0" stop-color="#FBE57E"/>
<stop offset="1" stop-color="#E95420"/>
</linearGradient>
</defs>
<ellipse cx="24" cy="44.4" rx="13" ry="1.2" fill="rgba(0,0,0,.4)"/>
<g transform="rotate(-4 24 24)">
<rect x="8" y="4" width="32" height="40" rx="2.5" fill="#3F2A0A"/>
<rect x="8.7" y="4.7" width="30.6" height="38.6" rx="2.1" fill="url(#f-polaroid-frame)"/>
<rect x="9.4" y="5.4" width="29.2" height="2" rx="1" fill="rgba(255,255,255,.7)"/>
<rect x="11" y="8.5" width="26" height="22" rx="1" fill="#1F0F04"/>
<clipPath id="f-polaroid-clip">
<rect x="11.7" y="9.2" width="24.6" height="20.6" rx="0.6"/>
</clipPath>
<g clip-path="url(#f-polaroid-clip)">
<rect x="11.7" y="9.2" width="24.6" height="20.6" fill="url(#f-polaroid-sky)"/>
<circle cx="18.5" cy="16" r="4.6" fill="url(#f-polaroid-sun)"/>
<path d="M11.7 26 L18 19 L23.5 24 L29.5 16.5 L36.3 25 L36.3 29.8 L11.7 29.8 Z" fill="url(#f-polaroid-hill)"/>
<path d="M11.7 26 L18 19 L23.5 24 L29.5 16.5 L36.3 25" fill="none" stroke="#77216F" stroke-width="0.9" stroke-linejoin="round"/>
<ellipse cx="16" cy="13" rx="3.2" ry="1.4" fill="rgba(255,247,228,.32)"/>
</g>
<rect x="11" y="8.5" width="26" height="22" rx="1" fill="none" stroke="#1A0F04" stroke-width="1"/>
<rect x="8.7" y="4.7" width="30.6" height="38.6" rx="2.1" fill="none" stroke="#5A3F08" stroke-width="0.8" opacity="0.45"/>
</g>
</svg>
