<svg viewBox="0 0 48 48" width="100%" height="100%">
  <defs>
  <linearGradient id="ai-rd-body" x1="0" y1="0" x2="0" y2="1">
  <stop offset="0%" stop-color="#FBF1D8"/>
  <stop offset="55%" stop-color="#C9892D"/>
  <stop offset="100%" stop-color="#5A3F08"/>
  </linearGradient>
  <linearGradient id="ai-rd-dial" x1="0" y1="0" x2="0" y2="1">
  <stop offset="0%" stop-color="#FBF1D8"/>
  <stop offset="100%" stop-color="#A87815"/>
  </linearGradient>
  </defs>
  <line x1="36" y1="11" x2="44" y2="3" stroke="#3F2A0A" stroke-width="1.4" stroke-linecap="round"/>
  <circle cx="44" cy="3" r="1" fill="#3F2A0A"/>
  <rect x="3" y="11" width="42" height="30" rx="2.5" fill="url(#ai-rd-body)" stroke="#3F2A0A" stroke-width=".9"/>
  <path d="M4 12 H44" stroke="rgba(255,255,255,.6)" stroke-width=".6"/>
  <rect x="5.5" y="14" width="20" height="22" rx="1.2" fill="#3D2A0A" stroke="#1A0F04" stroke-width=".5"/>
  <g fill="#1A0F04">
  <circle cx="7.5" cy="16" r=".9"/>
  <circle cx="11.5" cy="16" r=".9"/>
  <circle cx="15.5" cy="16" r=".9"/>
  <circle cx="19.5" cy="16" r=".9"/>
  <circle cx="23.5" cy="16" r=".9"/>
  <circle cx="7.5" cy="20" r=".9"/>
  <circle cx="11.5" cy="20" r=".9"/>
  <circle cx="15.5" cy="20" r=".9"/>
  <circle cx="19.5" cy="20" r=".9"/>
  <circle cx="23.5" cy="20" r=".9"/>
  <circle cx="7.5" cy="24" r=".9"/>
  <circle cx="11.5" cy="24" r=".9"/>
  <circle cx="15.5" cy="24" r=".9"/>
  <circle cx="19.5" cy="24" r=".9"/>
  <circle cx="23.5" cy="24" r=".9"/>
  <circle cx="7.5" cy="28" r=".9"/>
  <circle cx="11.5" cy="28" r=".9"/>
  <circle cx="15.5" cy="28" r=".9"/>
  <circle cx="19.5" cy="28" r=".9"/>
  <circle cx="23.5" cy="28" r=".9"/>
  <circle cx="7.5" cy="32" r=".9"/>
  <circle cx="11.5" cy="32" r=".9"/>
  <circle cx="15.5" cy="32" r=".9"/>
  <circle cx="19.5" cy="32" r=".9"/>
  <circle cx="23.5" cy="32" r=".9"/>
  </g>
  <g fill="rgba(255,247,228,.18)">
  <circle cx="7.5" cy="15.7" r=".35"/>
  <circle cx="11.5" cy="15.7" r=".35"/>
  <circle cx="15.5" cy="15.7" r=".35"/>
  <circle cx="19.5" cy="15.7" r=".35"/>
  <circle cx="23.5" cy="15.7" r=".35"/>
  <circle cx="7.5" cy="19.7" r=".35"/>
  <circle cx="11.5" cy="19.7" r=".35"/>
  <circle cx="15.5" cy="19.7" r=".35"/>
  <circle cx="19.5" cy="19.7" r=".35"/>
  <circle cx="23.5" cy="19.7" r=".35"/>
  <circle cx="7.5" cy="23.7" r=".35"/>
  <circle cx="11.5" cy="23.7" r=".35"/>
  <circle cx="15.5" cy="23.7" r=".35"/>
  <circle cx="19.5" cy="23.7" r=".35"/>
  <circle cx="23.5" cy="23.7" r=".35"/>
  <circle cx="7.5" cy="27.7" r=".35"/>
  <circle cx="11.5" cy="27.7" r=".35"/>
  <circle cx="15.5" cy="27.7" r=".35"/>
  <circle cx="19.5" cy="27.7" r=".35"/>
  <circle cx="23.5" cy="27.7" r=".35"/>
  <circle cx="7.5" cy="31.7" r=".35"/>
  <circle cx="11.5" cy="31.7" r=".35"/>
  <circle cx="15.5" cy="31.7" r=".35"/>
  <circle cx="19.5" cy="31.7" r=".35"/>
  <circle cx="23.5" cy="31.7" r=".35"/>
  </g>
  <rect x="27" y="14" width="16" height="10" rx=".6" fill="url(#ai-rd-dial)" stroke="#5A3F08" stroke-width=".5"/>
  <g stroke="#3F2A0A" stroke-width=".4">
  <line x1="28.5" y1="14.5" x2="28.5" y2="17.5"/>
  <line x1="30.2" y1="14.5" x2="30.2" y2="17.5"/>
  <line x1="31.9" y1="14.5" x2="31.9" y2="17.5"/>
  <line x1="33.6" y1="14.5" x2="33.6" y2="17.5"/>
  <line x1="35.3" y1="14.5" x2="35.3" y2="17.5"/>
  <line x1="37" y1="14.5" x2="37" y2="17.5"/>
  <line x1="38.7" y1="14.5" x2="38.7" y2="17.5"/>
  <line x1="40.4" y1="14.5" x2="40.4" y2="17.5"/>
  <line x1="42.1" y1="14.5" x2="42.1" y2="17.5"/>
  </g>
  <line x1="35" y1="14" x2="35" y2="18.5" stroke="#DD4814" stroke-width="1.2"/>
  <text x="35" y="22.5" text-anchor="middle" font-family="Ubuntu Mono, monospace" font-weight="700" font-size="3.5" fill="#3F2A0A">88.5</text>
  <circle cx="35" cy="32" r="4.2" fill="#3F2A0A" stroke="#1A0F04" stroke-width=".5"/>
  <circle cx="35" cy="32" r="3" fill="none" stroke="rgba(255,247,228,.35)" stroke-width=".4"/>
  <line x1="35" y1="29" x2="35" y2="32" stroke="#F8D670" stroke-width=".8"/>
  <rect x="27" y="36" width="15" height="2.4" rx="1.2" fill="#3D2A0A" stroke="#1A0F04" stroke-width=".3"/>
  <rect x="32" y="35.4" width="2.4" height="3.6" rx=".5" fill="#C9892D" stroke="#3F2A0A" stroke-width=".3"/>
  </svg>
