<svg viewBox="0 0 48 48" width="100%" height="100%">
<defs>
<linearGradient id="f-raincoat-hook" x1="0" y1="0" x2="1" y2="0">
<stop offset="0%" stop-color="#FBF1D8"/>
<stop offset="42%" stop-color="#D4B575"/>
<stop offset="72%" stop-color="#C9892D"/>
<stop offset="100%" stop-color="#5A3F08"/>
</linearGradient>
<linearGradient id="f-raincoat-bar" x1="0" y1="0" x2="0" y2="1">
<stop offset="0%" stop-color="#FBF1D8"/>
<stop offset="48%" stop-color="#D4B575"/>
<stop offset="100%" stop-color="#5A3F08"/>
</linearGradient>
<linearGradient id="f-raincoat-coat" x1=".18" y1="0" x2=".82" y2="1">
<stop offset="0%" stop-color="#FFF1A8"/>
<stop offset="45%" stop-color="#F8D670"/>
<stop offset="82%" stop-color="#E6B23A"/>
<stop offset="100%" stop-color="#B07E18"/>
</linearGradient>
<linearGradient id="f-raincoat-hood" x1=".25" y1="0" x2=".75" y2="1">
<stop offset="0%" stop-color="#FFF8D0"/>
<stop offset="52%" stop-color="#F8D670"/>
<stop offset="100%" stop-color="#D49A22"/>
</linearGradient>
<radialGradient id="f-raincoat-neck" cx=".5" cy=".25" r=".9">
<stop offset="0%" stop-color="#C98E1E"/>
<stop offset="60%" stop-color="#9A6E12"/>
<stop offset="100%" stop-color="#5A3F08"/>
</radialGradient>
<linearGradient id="f-raincoat-fold" x1="0" y1="0" x2="0" y2="1">
<stop offset="0%" stop-color="#FFF8D0"/>
<stop offset="100%" stop-color="#E6B23A"/>
</linearGradient>
<radialGradient id="f-raincoat-btn" cx=".4" cy=".34" r=".8">
<stop offset="0%" stop-color="#F8A060"/>
<stop offset="55%" stop-color="#E95420"/>
<stop offset="100%" stop-color="#5A1A04"/>
</radialGradient>
</defs>
<ellipse cx="24" cy="44.6" rx="12" ry=".8" fill="rgba(0,0,0,.4)"/>
<path d="M24 5 C24 3.4 25.4 2.4 26.7 2.9 C28 3.4 28.2 5 27 5.8 C26.2 6.3 25.8 7 25.8 7.8 L25.8 9.4"
      fill="none" stroke="#3F2A0A" stroke-width="2.6" stroke-linecap="round" stroke-linejoin="round"/>
<path d="M24 5 C24 3.4 25.4 2.4 26.7 2.9 C28 3.4 28.2 5 27 5.8 C26.2 6.3 25.8 7 25.8 7.8 L25.8 9.4"
      fill="none" stroke="url(#f-raincoat-hook)" stroke-width="1.5" stroke-linecap="round" stroke-linejoin="round"/>
<path d="M15.2 15 L25.8 9 L36.4 15"
      fill="none" stroke="#3F2A0A" stroke-width="3" stroke-linecap="round" stroke-linejoin="round"/>
<path d="M15.2 15 L25.8 9 L36.4 15"
      fill="none" stroke="url(#f-raincoat-bar)" stroke-width="1.8" stroke-linecap="round" stroke-linejoin="round"/>
<path d="M16.8 13.6 L25.4 8.7" fill="none" stroke="rgba(255,255,255,.55)" stroke-width=".55" stroke-linecap="round"/>
<path d="M15.2 15
         C12.8 17.4 11 20.8 10.4 24.4
         C10.1 26.2 11.4 27 13 26
         L13.8 25.4
         L11.8 42
         C11.6 43.3 12.4 44 13.7 44
         L37.9 44
         C39.2 44 40 43.3 39.8 42
         L37.8 25.4
         L38.6 26
         C40.2 27 41.5 26.2 41.2 24.4
         C40.6 20.8 38.8 17.4 36.4 15
         C33.6 16.4 31 13.8 28.2 13.8
         L23.4 13.8
         C20.6 13.8 18 16.4 15.2 15 Z"
      fill="url(#f-raincoat-coat)" stroke="#7A5A14" stroke-width="1.1" stroke-linejoin="round"/>
<path d="M20.2 13.4
         C19.6 9.6 21.6 7 25.8 7
         C30 7 32 9.6 31.4 13.4
         C29.4 11.4 27.8 12.4 25.8 12.4
         C23.8 12.4 22.2 11.4 20.2 13.4 Z"
      fill="url(#f-raincoat-hood)" stroke="#7A5A14" stroke-width="1" stroke-linejoin="round"/>
<path d="M22 9.4 C23.4 7.8 28.2 7.8 29.6 9.4"
      fill="none" stroke="rgba(255,255,255,.7)" stroke-width=".9" stroke-linecap="round"/>
<path d="M22 12.8 C23.6 11.4 28 11.4 29.6 12.8 C28 13.8 23.6 13.8 22 12.8 Z"
      fill="url(#f-raincoat-neck)" stroke="none" opacity=".55"/>
<path d="M16.6 15.6 C14.6 17.8 13.2 20.4 12.6 23.8"
      fill="none" stroke="rgba(255,255,255,.5)" stroke-width=".9" stroke-linecap="round"/>
<path d="M35 15.6 C37 17.8 38.4 20.4 39 23.8"
      fill="none" stroke="rgba(154,110,18,.55)" stroke-width=".9" stroke-linecap="round"/>
<path d="M14.4 26.4 L12.8 41.6" fill="none" stroke="rgba(255,248,200,.4)" stroke-width=".6" stroke-linecap="round"/>
<path d="M37.2 26.4 L38.8 41.6" fill="none" stroke="rgba(122,90,20,.45)" stroke-width=".7" stroke-linecap="round"/>
<path d="M25.8 13.6 L25.8 43.4" fill="none" stroke="#9A6E12" stroke-width="1.4" stroke-linecap="round"/>
<path d="M25 13.8 L25 43.2" fill="none" stroke="url(#f-raincoat-fold)" stroke-width=".8" stroke-linecap="round"/>
<path d="M16 34.4 L22.4 34.4 L21.8 38.2 L16.4 38.2 Z"
      fill="url(#f-raincoat-fold)" stroke="#9A6E12" stroke-width=".7" stroke-linejoin="round"/>
<path d="M16.4 34.8 L22 34.8" fill="none" stroke="rgba(255,255,255,.6)" stroke-width=".5" stroke-linecap="round"/>
<path d="M12.4 41.6 L37.2 41.6" fill="none" stroke="rgba(122,90,20,.5)" stroke-width=".8" stroke-linecap="round"/>
<circle cx="25.8" cy="19.4" r="1.5" fill="url(#f-raincoat-btn)" stroke="#5A1A04" stroke-width=".6"/>
<circle cx="25.3" cy="18.9" r=".5" fill="rgba(255,247,228,.9)"/>
<circle cx="25.8" cy="26.4" r="1.5" fill="url(#f-raincoat-btn)" stroke="#5A1A04" stroke-width=".6"/>
<circle cx="25.3" cy="25.9" r=".5" fill="rgba(255,247,228,.9)"/>
<circle cx="25.8" cy="33.4" r="1.5" fill="url(#f-raincoat-btn)" stroke="#5A1A04" stroke-width=".6"/>
<circle cx="25.3" cy="32.9" r=".5" fill="rgba(255,247,228,.9)"/>
</svg>
