<svg viewBox="0 0 48 48" width="100%" height="100%">
<defs>
<radialGradient id="f-recycle-symbol-coin" cx=".38" cy=".32" r=".82">
<stop offset="0" stop-color="#FBF1D8"/>
<stop offset=".4" stop-color="#D4B575"/>
<stop offset=".78" stop-color="#C9892D"/>
<stop offset="1" stop-color="#5A3F08"/>
</radialGradient>
<radialGradient id="f-recycle-symbol-glass" cx=".38" cy=".35" r=".75">
<stop offset="0" stop-color="#77216F"/>
<stop offset=".5" stop-color="#3D0B2C"/>
<stop offset=".82" stop-color="#2C001E"/>
<stop offset="1" stop-color="#0A0008"/>
</radialGradient>
<linearGradient id="f-recycle-symbol-arrow" x1="0" y1="0" x2="0" y2="1">
<stop offset="0" stop-color="#FBF1D8"/>
<stop offset=".5" stop-color="#F8D670"/>
<stop offset="1" stop-color="#C9892D"/>
</linearGradient>
<linearGradient id="f-recycle-symbol-arrowo" x1="0" y1="0" x2="0" y2="1">
<stop offset="0" stop-color="#F8A45A"/>
<stop offset=".5" stop-color="#E95420"/>
<stop offset="1" stop-color="#A8350F"/>
</linearGradient>
</defs>
<ellipse cx="24" cy="45" rx="14" ry="1" fill="rgba(0,0,0,.4)"/>
<circle cx="24" cy="24" r="21" fill="url(#f-recycle-symbol-coin)" stroke="#3F2A0A" stroke-width="1"/>
<circle cx="24" cy="24" r="18.6" fill="none" stroke="rgba(255,255,255,.5)" stroke-width=".7"/>
<path d="M24 4.4 C14 4.4 5.6 12 4.6 22 C7.2 13.4 15 7.2 24 7.2 C29 7.2 33.6 9 37.2 12 L38.6 10.4 C34.6 6.7 29.6 4.4 24 4.4 Z" fill="rgba(255,255,255,.45)"/>
<circle cx="24" cy="24" r="15.4" fill="url(#f-recycle-symbol-glass)" stroke="#1F0F04" stroke-width="1"/>
<path d="M24 10.2 C17.4 10.2 11.9 14.3 10.1 20 C13 16 18 13.2 24 13.2 Z" fill="rgba(255,247,228,.22)"/>
<circle cx="18.4" cy="17" r="2.2" fill="rgba(255,255,255,.45)"/>
<g stroke="#3F2A0A" stroke-width=".8" stroke-linejoin="round" stroke-linecap="round">
<path d="M33.0 29.0 L20.8 29.0 L20.8 25.2 L14.4 31.0 L20.8 36.8 L20.8 32.9 L33.0 32.9 Z" fill="url(#f-recycle-symbol-arrow)"/>
<path d="M15.2 29.3 L21.3 18.7 L24.6 20.6 L22.7 12.2 L14.5 14.8 L17.9 16.8 L11.8 27.3 Z" fill="url(#f-recycle-symbol-arrow)"/>
<path d="M23.8 13.7 L29.9 24.3 L26.6 26.2 L34.9 28.8 L36.7 20.4 L33.3 22.3 L27.2 11.8 Z" fill="url(#f-recycle-symbol-arrowo)"/>
</g>
<g fill="rgba(255,255,255,.55)">
<path d="M32.0 29.5 L21.8 29.5 L21.8 30.4 L32.0 30.4 Z"/>
<path d="M15.2 28.2 L20.3 19.3 L19.6 18.9 L14.5 27.7 Z"/>
<path d="M24.8 14.3 L29.9 23.2 L30.6 22.7 L25.5 13.9 Z"/>
</g>
</svg>
