<svg viewBox="0 0 48 48" width="100%" height="100%">
  <defs>
  <linearGradient id="f-resume-clipboard-board" x1="0" y1="0" x2="0" y2="1">
  <stop offset="0%" stop-color="#FBF1D8"/>
  <stop offset="55%" stop-color="#C9892D"/>
  <stop offset="100%" stop-color="#5A3F08"/>
  </linearGradient>
  <linearGradient id="f-resume-clipboard-paper" x1="0" y1="0" x2="0" y2="1">
  <stop offset="0%" stop-color="#FFFFFF"/>
  <stop offset="100%" stop-color="#D4CCB8"/>
  </linearGradient>
  <linearGradient id="f-resume-clipboard-clip" x1="0" y1="0" x2="0" y2="1">
  <stop offset="0%" stop-color="#F8E0A0"/>
  <stop offset="100%" stop-color="#7A4810"/>
  </linearGradient>
  <linearGradient id="f-resume-clipboard-banner" x1="0" y1="0" x2="0" y2="1">
  <stop offset="0%" stop-color="#E95420"/>
  <stop offset="100%" stop-color="#7A1F08"/>
  </linearGradient>
  </defs>
  <ellipse cx="24" cy="45" rx="13" ry=".8" fill="rgba(0,0,0,.35)"/>
  <path d="M8 9 H40 V45 H8 Z" fill="url(#f-resume-clipboard-board)" stroke="#3F2A0A" stroke-width=".9" stroke-linejoin="round"/>
  <path d="M9 10 H39" stroke="rgba(255,255,255,.6)" stroke-width=".5"/>
  <path d="M11 12 H37 V43 H11 Z" fill="url(#f-resume-clipboard-paper)" stroke="#5A3F08" stroke-width=".7" stroke-linejoin="round"/>
  <path d="M12 13 V42" stroke="rgba(255,255,255,.6)" stroke-width=".4"/>
  <rect x="14" y="16" width="8" height="9" rx=".4" fill="#FBF1D8" stroke="#5A3F08" stroke-width=".5"/>
  <rect x="15" y="17" width="6" height="7" fill="#D89460" stroke="#5A2F0D" stroke-width=".3"/>
  <circle cx="18" cy="19.5" r="1.5" fill="#FBEED4" stroke="#5A2F0D" stroke-width=".3"/>
  <path d="M15.5 24 C 15.5 22 16.6 21.4 18 21.4 C 19.4 21.4 20.5 22 20.5 24 Z" fill="#FBEED4" stroke="#5A2F0D" stroke-width=".3"/>
  <rect x="24" y="16" width="11" height="3" rx=".3" fill="url(#f-resume-clipboard-banner)" stroke="#5A1A04" stroke-width=".4"/>
  <rect x="24" y="16" width="11" height=".6" fill="rgba(255,255,255,.4)"/>
  <line x1="24" y1="21.5" x2="35" y2="21.5" stroke="#9A8870" stroke-width=".6"/>
  <line x1="24" y1="23.5" x2="32" y2="23.5" stroke="#9A8870" stroke-width=".5"/>
  <rect x="14" y="28" width="9" height="1.5" rx=".2" fill="#DD4814"/>
  <g stroke="#5A3F08" stroke-width=".6" stroke-linecap="round">
  <line x1="14" y1="32" x2="34" y2="32"/>
  <line x1="14" y1="34.5" x2="32" y2="34.5"/>
  <line x1="14" y1="37" x2="33" y2="37"/>
  <line x1="14" y1="39.5" x2="28" y2="39.5"/>
  </g>
  <path d="M19 7 Q 24 4 29 7 V12 H19 Z" fill="url(#f-resume-clipboard-clip)" stroke="#3F2A0A" stroke-width=".8" stroke-linejoin="round"/>
  <rect x="21" y="9" width="6" height="3" rx=".5" fill="#3D0B2C" stroke="#1F0518" stroke-width=".4"/>
  <path d="M20 7.5 Q 24 5.2 28 7.5" fill="none" stroke="rgba(255,247,228,.55)" stroke-width=".5"/>
</svg>
