<svg viewBox="0 0 48 48" width="100%" height="100%">
  <defs>
    <linearGradient id="f-resume-sheet-sheet" x1="0" y1="0" x2="0" y2="1">
      <stop offset="0%" stop-color="#FCFBF4"/>
      <stop offset="100%" stop-color="#FBEED4"/>
    </linearGradient>
    <linearGradient id="f-resume-sheet-back" x1="0" y1="0" x2="0" y2="1">
      <stop offset="0%" stop-color="#D4B575"/>
      <stop offset="100%" stop-color="#6A4A12"/>
    </linearGradient>
    <linearGradient id="f-resume-sheet-header" x1="0" y1="0" x2="0" y2="1">
      <stop offset="0%" stop-color="#E95420"/>
      <stop offset="100%" stop-color="#7A1F08"/>
    </linearGradient>
    <radialGradient id="f-resume-sheet-photo" cx=".38" cy=".35" r=".75">
      <stop offset="0%" stop-color="#77216F"/>
      <stop offset="55%" stop-color="#2C001E"/>
      <stop offset="100%" stop-color="#0A0008"/>
    </radialGradient>
    <radialGradient id="f-resume-sheet-head" cx=".4" cy=".35" r=".75">
      <stop offset="0%" stop-color="#FBF1D8"/>
      <stop offset="55%" stop-color="#D4B575"/>
      <stop offset="100%" stop-color="#5A3F08"/>
    </radialGradient>
  </defs>
  <ellipse cx="24" cy="45" rx="13" ry=".8" fill="rgba(0,0,0,.4)"/>
  <path d="M9.4 4.4 H37.4 A2.6 2.6 0 0 1 40 7 V43.4 H10 A2.6 2.6 0 0 1 9.4 41 Z" fill="url(#f-resume-sheet-back)" stroke="#3F2A0A" stroke-width=".7" stroke-linejoin="round"/>
  <rect x="8" y="3" width="30" height="42" rx="3" fill="url(#f-resume-sheet-sheet)" stroke="#3F2A0A" stroke-width=".9" stroke-linejoin="round"/>
  <path d="M10 4.5 H36" stroke="rgba(255,255,255,.7)" stroke-width=".6"/>
  <path d="M10 4.5 V43" stroke="rgba(255,255,255,.5)" stroke-width=".5"/>
  <rect x="11" y="6.5" width="12" height="15" rx="1.4" fill="url(#f-resume-sheet-photo)" stroke="#1A0F04" stroke-width=".8"/>
  <circle cx="17" cy="12" r="3.1" fill="url(#f-resume-sheet-head)" stroke="#3F2A0A" stroke-width=".4"/>
  <path d="M11.8 21 C12.4 15.6 21.6 15.6 22.2 21 Z" fill="url(#f-resume-sheet-head)" stroke="#3F2A0A" stroke-width=".4" stroke-linejoin="round"/>
  <circle cx="13.8" cy="9" r="1.1" fill="rgba(255,255,255,.5)"/>
  <rect x="25" y="6.5" width="11" height="5.4" rx=".8" fill="url(#f-resume-sheet-header)" stroke="#5A1A04" stroke-width=".6"/>
  <rect x="25" y="6.5" width="11" height=".8" rx=".4" fill="rgba(255,255,255,.45)"/>
  <path d="M25.8 15.8 H35.4" stroke="#3F2A0A" stroke-width="1.6" stroke-linecap="round"/>
  <path d="M25.8 19.6 H33" stroke="#5A3F08" stroke-width="1.3" stroke-linecap="round"/>
  <path d="M11 26 H35" stroke="#E95420" stroke-width="2.6" stroke-linecap="round"/>
  <path d="M11 30.6 H35" stroke="#3F2A0A" stroke-width="1.4" stroke-linecap="round"/>
  <path d="M11 34.6 H35" stroke="#3F2A0A" stroke-width="1.4" stroke-linecap="round"/>
  <path d="M11 38.6 H35" stroke="#3F2A0A" stroke-width="1.4" stroke-linecap="round"/>
  <path d="M11 42.4 H27" stroke="#3F2A0A" stroke-width="1.4" stroke-linecap="round"/>
  <circle cx="33.4" cy="42.2" r="2.4" fill="#F8D670" stroke="#5A1A04" stroke-width=".6"/>
  <path d="M32.1 42.2 L33 43.1 L34.8 41.1" fill="none" stroke="#5A1A04" stroke-width=".7" stroke-linecap="round" stroke-linejoin="round"/>
</svg>
