<svg viewBox="0 0 48 48" width="100%" height="100%">
<defs>
<radialGradient id="f-ringed-planet-sphere" cx=".38" cy=".35" r=".7">
<stop offset="0" stop-color="#77216F"/>
<stop offset=".55" stop-color="#2C001E"/>
<stop offset="1" stop-color="#0A0008"/>
</radialGradient>
<linearGradient id="f-ringed-planet-ring" x1="0" y1="0" x2="1" y2="1">
<stop offset="0" stop-color="#FBF1D8"/>
<stop offset=".5" stop-color="#D4B575"/>
<stop offset="1" stop-color="#6A4A12"/>
</linearGradient>
<linearGradient id="f-ringed-planet-ringfront" x1="0" y1="0" x2="1" y2="1">
<stop offset="0" stop-color="#F8E0A0"/>
<stop offset=".5" stop-color="#C9892D"/>
<stop offset="1" stop-color="#5A3F08"/>
</linearGradient>
<clipPath id="f-ringed-planet-sphereclip">
<circle cx="22" cy="22" r="13"/>
</clipPath>
<clipPath id="f-ringed-planet-backhalf">
<path d="M0 22 L48 22 L48 0 L0 0 Z"/>
</clipPath>
</defs>
<ellipse cx="24" cy="44" rx="13" ry=".8" fill="rgba(0,0,0,.4)"/>
<g transform="rotate(-22 22 22)">
<g clip-path="url(#f-ringed-planet-backhalf)">
<ellipse cx="22" cy="22" rx="22" ry="6.2" fill="none" stroke="url(#f-ringed-planet-ring)" stroke-width="3.4"/>
</g>
</g>
<circle cx="22" cy="22" r="13" fill="url(#f-ringed-planet-sphere)" stroke="#1A0512" stroke-width="1"/>
<g clip-path="url(#f-ringed-planet-sphereclip)">
<ellipse cx="14" cy="14" rx="6" ry="4.2" fill="rgba(255,247,228,.4)"/>
<ellipse cx="22" cy="28" rx="11" ry="3" fill="rgba(94,39,80,.45)"/>
</g>
<path d="M13.5 14 A13 13 0 0 1 31 11.5" fill="none" stroke="rgba(255,255,255,.6)" stroke-width="1" stroke-linecap="round"/>
<g transform="rotate(-22 22 22)">
<g clip-path="url(#f-ringed-planet-backhalf)" transform="rotate(180 22 22)">
<ellipse cx="22" cy="22" rx="22" ry="6.2" fill="none" stroke="url(#f-ringed-planet-ringfront)" stroke-width="3.9"/>
<ellipse cx="22" cy="22" rx="22" ry="6.2" fill="none" stroke="#E95420" stroke-width="1.4"/>
<ellipse cx="22" cy="22" rx="22" ry="6.2" fill="none" stroke="rgba(255,247,228,.45)" stroke-width=".5"/>
</g>
</g>
<g fill="#F8D670" stroke="#5A3F08" stroke-width=".3">
<path d="M40 8 l.9 2.3 2.3.2 -1.8 1.5 .6 2.3 -2-1.3 -2 1.3 .6-2.3 -1.8-1.5 2.3-.2 Z"/>
<path d="M6 30 l.7 1.8 1.9.1 -1.5 1.2 .5 1.9 -1.6-1 -1.6 1 .5-1.9 -1.5-1.2 1.9-.1 Z"/>
</g>
<circle cx="38" cy="34" r="1" fill="#FBE57E"/>
<circle cx="9" cy="7" r=".9" fill="#FBE57E"/>
</svg>
