<svg viewBox="0 0 48 48" width="100%" height="100%">
  <defs>
  <linearGradient id="ai-rk-body" x1="0" y1="0" x2="0" y2="1">
  <stop offset="0%" stop-color="#FBF1D8"/>
  <stop offset="35%" stop-color="#E95420"/>
  <stop offset="100%" stop-color="#7A1F08"/>
  </linearGradient>
  <linearGradient id="ai-rk-flame" x1="0" y1="0" x2="0" y2="1">
  <stop offset="0%" stop-color="#F8D670"/>
  <stop offset="55%" stop-color="#DD4814"/>
  <stop offset="100%" stop-color="#3F2A0A"/>
  </linearGradient>
  <linearGradient id="ai-rk-fin" x1="0" y1="0" x2="0" y2="1">
  <stop offset="0%" stop-color="#C9892D"/>
  <stop offset="100%" stop-color="#3F2A0A"/>
  </linearGradient>
  </defs>
  <path d="M19 33 Q 18 39 21 41 Q 20 44 24 46 Q 28 44 27 41 Q 30 39 29 33 Z" fill="url(#ai-rk-flame)" stroke="#5A1A04" stroke-width=".5" stroke-linejoin="round"/>
  <path d="M22 34 Q 22 40 24 42 Q 26 40 26 34" fill="#F8D670" opacity=".75"/>
  <path d="M16 26 L9 36 L17 34 Z" fill="url(#ai-rk-fin)" stroke="#3F2A0A" stroke-width=".7" stroke-linejoin="round"/>
  <path d="M32 26 L39 36 L31 34 Z" fill="url(#ai-rk-fin)" stroke="#3F2A0A" stroke-width=".7" stroke-linejoin="round"/>
  <path d="M10 35 L16 27" stroke="rgba(255,247,228,.35)" stroke-width=".4"/>
  <path d="M38 35 L32 27" stroke="rgba(255,247,228,.35)" stroke-width=".4"/>
  <path d="M24 3 C 30 8 32 16 32 22 V 34 H 16 V 22 C 16 16 18 8 24 3 Z" fill="url(#ai-rk-body)" stroke="#3F1A04" stroke-width=".9" stroke-linejoin="round"/>
  <path d="M22 7 Q 24 4 26 7" fill="none" stroke="rgba(255,255,255,.7)" stroke-width=".8"/>
  <path d="M17 13 V32" stroke="rgba(255,255,255,.35)" stroke-width=".4"/>
  <circle cx="24" cy="19" r="4" fill="#C9892D" stroke="#3F2A0A" stroke-width=".7"/>
  <circle cx="24" cy="19" r="3" fill="#3D0B2C" stroke="#1F0518" stroke-width=".4"/>
  <circle cx="22.7" cy="17.8" r="1" fill="rgba(255,247,228,.55)"/>
  <line x1="16" y1="27" x2="32" y2="27" stroke="#3F1A04" stroke-width=".5"/>
  <line x1="16" y1="28" x2="32" y2="28" stroke="rgba(255,247,228,.3)" stroke-width=".3"/>
  <path d="M17 33 H31 V35 H17 Z" fill="#3F2A0A" stroke="#1A0F04" stroke-width=".4"/>
  </svg>
