<svg viewBox="0 0 48 48" width="100%" height="100%">
  <defs>
    <linearGradient id="f-rosette-tail" x1="0" y1="0" x2="0" y2="1">
      <stop offset="0%" stop-color="#F8DA78"/>
      <stop offset="45%" stop-color="#E95420"/>
      <stop offset="100%" stop-color="#5A1A04"/>
    </linearGradient>
    <radialGradient id="f-rosette-rose" cx=".4" cy=".35" r=".8">
      <stop offset="0%" stop-color="#F8E0A0"/>
      <stop offset="55%" stop-color="#C9892D"/>
      <stop offset="100%" stop-color="#3F2A0A"/>
    </radialGradient>
    <radialGradient id="f-rosette-hub" cx=".4" cy=".35" r=".75">
      <stop offset="0%" stop-color="#77216F"/>
      <stop offset="100%" stop-color="#1F0518"/>
    </radialGradient>
  </defs>
  <ellipse cx="24" cy="44.5" rx="13" ry=".8" fill="rgba(0,0,0,.35)"/>
  <path d="M19 26 L17 44 L21.5 40.5 L24 44 L24 26 Z" fill="url(#f-rosette-tail)" stroke="#5A1A04" stroke-width=".7" stroke-linejoin="round"/>
  <path d="M29 26 L31 44 L26.5 40.5 L24 44 L24 26 Z" fill="url(#f-rosette-tail)" stroke="#5A1A04" stroke-width=".7" stroke-linejoin="round"/>
  <g stroke="#3F2A0A" stroke-width=".5" stroke-linejoin="round">
    <path d="M24 4 L26.6 9 L24 14 L21.4 9 Z" fill="url(#f-rosette-rose)" transform="rotate(0 24 17)"/>
    <path d="M24 4 L26.6 9 L24 14 L21.4 9 Z" fill="url(#f-rosette-rose)" transform="rotate(45 24 17)"/>
    <path d="M24 4 L26.6 9 L24 14 L21.4 9 Z" fill="url(#f-rosette-rose)" transform="rotate(90 24 17)"/>
    <path d="M24 4 L26.6 9 L24 14 L21.4 9 Z" fill="url(#f-rosette-rose)" transform="rotate(135 24 17)"/>
    <path d="M24 4 L26.6 9 L24 14 L21.4 9 Z" fill="url(#f-rosette-rose)" transform="rotate(180 24 17)"/>
    <path d="M24 4 L26.6 9 L24 14 L21.4 9 Z" fill="url(#f-rosette-rose)" transform="rotate(225 24 17)"/>
    <path d="M24 4 L26.6 9 L24 14 L21.4 9 Z" fill="url(#f-rosette-rose)" transform="rotate(270 24 17)"/>
    <path d="M24 4 L26.6 9 L24 14 L21.4 9 Z" fill="url(#f-rosette-rose)" transform="rotate(315 24 17)"/>
  </g>
  <circle cx="24" cy="17" r="7.5" fill="url(#f-rosette-hub)" stroke="#0A0008" stroke-width=".8"/>
  <circle cx="24" cy="17" r="6.2" fill="none" stroke="rgba(255,247,228,.3)" stroke-width=".5"/>
  <path d="M24 11.8 L25.4 15 L28.9 15.2 L26.2 17.4 L27.1 20.8 L24 18.9 L20.9 20.8 L21.8 17.4 L19.1 15.2 L22.6 15 Z" fill="#F8D670" stroke="#3F2A0A" stroke-width=".45" stroke-linejoin="round"/>
</svg>
