<svg viewBox="0 0 48 48" width="100%" height="100%">
  <defs>
    <radialGradient id="f-roulette-wheel-rim" cx=".38" cy=".32" r=".82"><stop offset="0%" stop-color="#FBF1D8"/><stop offset="48%" stop-color="#C9892D"/><stop offset="100%" stop-color="#5A3F08"/></radialGradient>
    <radialGradient id="f-roulette-wheel-track" cx=".4" cy=".34" r=".78"><stop offset="0%" stop-color="#5E2750"/><stop offset="60%" stop-color="#2C001E"/><stop offset="100%" stop-color="#1A0512"/></radialGradient>
    <radialGradient id="f-roulette-wheel-hub" cx=".4" cy=".34" r=".8"><stop offset="0%" stop-color="#F8E0A0"/><stop offset="50%" stop-color="#C9892D"/><stop offset="100%" stop-color="#3F2A0A"/></radialGradient>
    <radialGradient id="f-roulette-wheel-ball" cx=".35" cy=".3" r=".75"><stop offset="0%" stop-color="#FFFFFF"/><stop offset="45%" stop-color="#FBE57E"/><stop offset="100%" stop-color="#C9892D"/></radialGradient>
    <clipPath id="f-roulette-wheel-disc"><circle cx="24" cy="23" r="15.5"/></clipPath>
  </defs>
  <ellipse cx="24" cy="44" rx="14" ry=".9" fill="rgba(0,0,0,.4)"/>
  <circle cx="24" cy="23" r="20" fill="url(#f-roulette-wheel-rim)" stroke="#3F2A0A" stroke-width=".9"/>
  <path d="M9 14 A20 20 0 0 1 39 14" fill="none" stroke="rgba(255,255,255,.6)" stroke-width=".8" stroke-linecap="round"/>
  <circle cx="24" cy="23" r="15.5" fill="url(#f-roulette-wheel-track)" stroke="#0A0306" stroke-width=".8"/>
  <g clip-path="url(#f-roulette-wheel-disc)">
    <path d="M24 23 L24 7.5 L31.7 9.6 Z" fill="#E95420"/>
    <path d="M24 23 L31.7 9.6 L37.4 15.3 Z" fill="#3D0B2C"/>
    <path d="M24 23 L37.4 15.3 L39.5 23 Z" fill="#E95420"/>
    <path d="M24 23 L39.5 23 L37.4 30.7 Z" fill="#3D0B2C"/>
    <path d="M24 23 L37.4 30.7 L31.7 36.4 Z" fill="#E95420"/>
    <path d="M24 23 L31.7 36.4 L24 38.5 Z" fill="#3D0B2C"/>
    <path d="M24 23 L24 38.5 L16.3 36.4 Z" fill="#E95420"/>
    <path d="M24 23 L16.3 36.4 L10.6 30.7 Z" fill="#3D0B2C"/>
    <path d="M24 23 L10.6 30.7 L8.5 23 Z" fill="#E95420"/>
    <path d="M24 23 L8.5 23 L10.6 15.3 Z" fill="#3D0B2C"/>
    <path d="M24 23 L10.6 15.3 L16.3 9.6 Z" fill="#E95420"/>
    <path d="M24 23 L16.3 9.6 L24 7.5 Z" fill="#3D0B2C"/>
  </g>
  <circle cx="24" cy="23" r="15.5" fill="none" stroke="#1A0512" stroke-width="1"/>
  <circle cx="24" cy="23" r="7.5" fill="url(#f-roulette-wheel-hub)" stroke="#3F2A0A" stroke-width=".8"/>
  <path d="M18 19 A7.5 7.5 0 0 1 30 19" fill="none" stroke="rgba(255,255,255,.6)" stroke-width=".7" stroke-linecap="round"/>
  <g stroke="#5A3F08" stroke-width="1.4" stroke-linecap="round">
    <line x1="24" y1="17" x2="24" y2="29"/>
    <line x1="18" y1="23" x2="30" y2="23"/>
  </g>
  <circle cx="24" cy="23" r="2.2" fill="url(#f-roulette-wheel-hub)" stroke="#3F2A0A" stroke-width=".6"/>
  <circle cx="32.5" cy="14.5" r="3" fill="url(#f-roulette-wheel-ball)" stroke="#5A3F08" stroke-width=".5"/>
  <circle cx="31.6" cy="13.6" r=".9" fill="rgba(255,255,255,.85)"/>
</svg>
