<svg viewBox="0 0 48 48" width="100%" height="100%">
  <defs>
  <linearGradient id="ai-scn-body" x1="0" y1="0" x2="0" y2="1">
  <stop offset="0%" stop-color="#FBF1D8"/>
  <stop offset="55%" stop-color="#C9892D"/>
  <stop offset="100%" stop-color="#5A3F08"/>
  </linearGradient>
  </defs>
  <rect x="4" y="6" width="40" height="36" rx="3" fill="url(#ai-scn-body)" stroke="#3F2A0A" stroke-width=".9"/>
  <path d="M5 7 H43" stroke="rgba(255,255,255,.6)" stroke-width=".5"/>
  <rect x="7" y="9" width="34" height="24" rx=".6" fill="#3D0B2C" stroke="#0A0306" stroke-width=".6"/>
  <path d="M7.5 9.5 H40.5" stroke="rgba(255,247,228,.18)" stroke-width=".4"/>
  <rect x="12" y="12" width="24" height="18" fill="#FFFFFF" stroke="#5A3F08" stroke-width=".5"/>
  <g stroke="#9A8870" stroke-width=".5">
  <line x1="15" y1="15" x2="33" y2="15"/>
  <line x1="15" y1="17.5" x2="31" y2="17.5"/>
  <line x1="15" y1="24" x2="33" y2="24"/>
  <line x1="15" y1="26.5" x2="29" y2="26.5"/>
  </g>
  <rect x="7" y="20" width="34" height="3.2" fill="#F8D670" stroke="#5A3F08" stroke-width=".4"/>
  <rect x="7" y="20" width="34" height=".8" fill="#FFFFFF"/>
  <path d="M3 21.6 L7 19.6 V23.6 Z" fill="#DD4814" stroke="#5A1A04" stroke-width=".4" stroke-linejoin="round"/>
  <path d="M45 21.6 L41 19.6 V23.6 Z" fill="#DD4814" stroke="#5A1A04" stroke-width=".4" stroke-linejoin="round"/>
  <circle cx="10" cy="38" r="1.3" fill="#A8E668" stroke="#3F5A18" stroke-width=".3"/>
  <circle cx="14" cy="38" r="1.3" fill="#DD4814" stroke="#5A1A04" stroke-width=".3"/>
  <rect x="21" y="36.8" width="17" height="2.6" rx=".4" fill="#1A0F04"/>
  </svg>
