<svg viewBox="0 0 48 48" width="100%" height="100%">
<defs>
<linearGradient id="f-sd-card-body" x1="0" y1="0" x2="0" y2="1">
<stop offset="0" stop-color="#FBF1D8"/>
<stop offset="0.16" stop-color="#F2D58C"/>
<stop offset="0.52" stop-color="#C9892D"/>
<stop offset="1" stop-color="#5A3F08"/>
</linearGradient>
<linearGradient id="f-sd-card-label" x1="0" y1="0" x2="0" y2="1">
<stop offset="0" stop-color="#3D0B2C"/>
<stop offset="0.5" stop-color="#2C001E"/>
<stop offset="1" stop-color="#1A0512"/>
</linearGradient>
<linearGradient id="f-sd-card-contact" x1="0" y1="0" x2="0" y2="1">
<stop offset="0" stop-color="#F8E0A0"/>
<stop offset="0.5" stop-color="#D4B575"/>
<stop offset="1" stop-color="#A06D1E"/>
</linearGradient>
<linearGradient id="f-sd-card-band" x1="0" y1="0" x2="0" y2="1">
<stop offset="0" stop-color="#F07A45"/>
<stop offset="0.45" stop-color="#E95420"/>
<stop offset="1" stop-color="#7A1F08"/>
</linearGradient>
</defs>
<ellipse cx="24" cy="44.6" rx="13" ry="1" fill="rgba(0,0,0,.4)"/>
<path d="M9 7 L29 7 L39 17 L39 41.5 Q39 44 36.5 44 L11.5 44 Q9 44 9 41.5 L9 9 Q9 7 9 7 Z" fill="url(#f-sd-card-body)" stroke="#3F2A0A" stroke-width="1.2" stroke-linejoin="round"/>
<path d="M10.7 8.7 L28.3 8.7 L37.3 17.7 L37.3 41.5 Q37.3 42.3 36.5 42.3 L11.5 42.3 Q10.7 42.3 10.7 41.5 Z" fill="none" stroke="rgba(255,255,255,.5)" stroke-width="0.8" stroke-linejoin="round"/>
<path d="M10 7.6 L28.6 7.6 M9.6 8 L9.6 40" stroke="rgba(255,255,255,.6)" stroke-width="0.8" stroke-linecap="round"/>
<g fill="url(#f-sd-card-contact)" stroke="#3F2A0A" stroke-width="0.5" stroke-linejoin="round">
<rect x="11.6" y="9.8" width="2.7" height="6.6" rx="0.7"/>
<rect x="15.1" y="9.8" width="2.7" height="6.6" rx="0.7"/>
<rect x="18.6" y="9.8" width="2.7" height="6.6" rx="0.7"/>
<rect x="22.1" y="9.8" width="2.7" height="6.6" rx="0.7"/>
<rect x="25.6" y="9.8" width="2.7" height="6.6" rx="0.7"/>
</g>
<g fill="rgba(255,255,255,.5)">
<rect x="11.9" y="10.2" width="2.1" height="1" rx="0.4"/>
<rect x="15.4" y="10.2" width="2.1" height="1" rx="0.4"/>
<rect x="18.9" y="10.2" width="2.1" height="1" rx="0.4"/>
<rect x="22.4" y="10.2" width="2.1" height="1" rx="0.4"/>
<rect x="25.9" y="10.2" width="2.1" height="1" rx="0.4"/>
</g>
<rect x="12.5" y="23" width="24" height="15.5" rx="2" fill="url(#f-sd-card-label)" stroke="#1A0512" stroke-width="0.9"/>
<rect x="13.3" y="23.8" width="22.4" height="2.6" rx="1.3" fill="rgba(119,33,111,.5)"/>
<rect x="12.5" y="28.4" width="24" height="3.6" fill="url(#f-sd-card-band)"/>
<rect x="12.5" y="28.4" width="24" height="1" fill="rgba(255,247,228,.42)"/>
<rect x="12.5" y="31.3" width="24" height="0.7" fill="rgba(0,0,0,.35)"/>
<rect x="15.5" y="34.4" width="11" height="1.5" rx="0.75" fill="rgba(212,181,117,.65)"/>
<circle cx="32.3" cy="35.2" r="2" fill="#F8D670" stroke="#3F2A0A" stroke-width="0.5"/>
<circle cx="31.7" cy="34.6" r="0.65" fill="rgba(255,255,255,.75)"/>
<rect x="9" y="19.5" width="1.8" height="3.8" fill="#3F2A0A"/>
</svg>
