<svg viewBox="0 0 48 48" width="100%" height="100%">
  <defs>
  <linearGradient id="f-server-tower-case" x1="0" y1="0" x2="0" y2="1">
  <stop offset="0%" stop-color="#FBF1D8"/>
  <stop offset="55%" stop-color="#C9892D"/>
  <stop offset="100%" stop-color="#5A3F08"/>
  </linearGradient>
  <linearGradient id="f-server-tower-vent" x1="0" y1="0" x2="0" y2="1">
  <stop offset="0%" stop-color="#3D2A0A"/>
  <stop offset="100%" stop-color="#1A0F04"/>
  </linearGradient>
  <linearGradient id="f-server-tower-screen" x1="0" y1="0" x2="0" y2="1">
  <stop offset="0%" stop-color="#3D0B2C"/>
  <stop offset="100%" stop-color="#1A0512"/>
  </linearGradient>
  </defs>
  <rect x="12" y="4" width="24" height="40" rx="3" fill="url(#f-server-tower-case)" stroke="#3F2A0A" stroke-width=".9"/>
  <path d="M14 5 H34" stroke="rgba(255,255,255,.6)" stroke-width=".6"/>
  <rect x="16" y="8" width="16" height="6" rx="1" fill="url(#f-server-tower-screen)" stroke="#0A0306" stroke-width=".5"/>
  <circle cx="19" cy="11" r=".9" fill="#F8D670" stroke="#5A3F08" stroke-width=".25"/>
  <circle cx="22.5" cy="11" r=".9" fill="#DD4814" stroke="#5A1A04" stroke-width=".25"/>
  <rect x="26" y="10" width="4.5" height="2" fill="#F8D670"/>
  <rect x="16" y="16" width="16" height="3.4" rx=".6" fill="url(#f-server-tower-vent)" stroke="#0A0604" stroke-width=".5"/>
  <rect x="16" y="20.4" width="16" height="3.4" rx=".6" fill="url(#f-server-tower-vent)" stroke="#0A0604" stroke-width=".5"/>
  <g stroke="rgba(255,247,228,.3)" stroke-width=".4">
  <line x1="18" y1="17.7" x2="30" y2="17.7"/>
  <line x1="18" y1="22.1" x2="30" y2="22.1"/>
  </g>
  <rect x="16" y="26" width="16" height="14" rx=".8" fill="url(#f-server-tower-vent)" stroke="#0A0604" stroke-width=".5"/>
  <g stroke="rgba(255,247,228,.28)" stroke-width=".5">
  <line x1="18.5" y1="29" x2="29.5" y2="29"/>
  <line x1="18.5" y1="31.5" x2="29.5" y2="31.5"/>
  <line x1="18.5" y1="34" x2="29.5" y2="34"/>
  <line x1="18.5" y1="36.5" x2="29.5" y2="36.5"/>
  </g>
  <rect x="15" y="43" width="5" height="2.5" fill="#3F2A0A"/>
  <rect x="28" y="43" width="5" height="2.5" fill="#3F2A0A"/>
</svg>
