<svg viewBox="0 0 48 48" width="100%" height="100%">
  <defs>
  <linearGradient id="ai-sr-cab" x1="0" y1="0" x2="0" y2="1">
  <stop offset="0%" stop-color="#FBF1D8"/>
  <stop offset="55%" stop-color="#C9892D"/>
  <stop offset="100%" stop-color="#5A3F08"/>
  </linearGradient>
  <linearGradient id="ai-sr-blade" x1="0" y1="0" x2="0" y2="1">
  <stop offset="0%" stop-color="#3D2A0A"/>
  <stop offset="100%" stop-color="#1A0F04"/>
  </linearGradient>
  </defs>
  <rect x="6" y="4" width="36" height="40" rx="2.5" fill="url(#ai-sr-cab)" stroke="#3F2A0A" stroke-width=".9"/>
  <path d="M7 5 H41" stroke="rgba(255,255,255,.6)" stroke-width=".6"/>
  <g>
  <rect x="9" y="8" width="30" height="9" rx=".6" fill="url(#ai-sr-blade)" stroke="#0A0604" stroke-width=".5"/>
  <path d="M9.5 8.5 H38.5" stroke="rgba(255,247,228,.18)" stroke-width=".4"/>
  <g stroke="rgba(255,247,228,.32)" stroke-width=".4">
  <line x1="14" y1="11.5" x2="28" y2="11.5"/>
  <line x1="14" y1="13.5" x2="28" y2="13.5"/>
  <line x1="14" y1="15.5" x2="28" y2="15.5"/>
  </g>
  <circle cx="11.5" cy="10.5" r=".8" fill="#A8E668" stroke="#3F5A18" stroke-width=".25"/>
  <circle cx="11.5" cy="13" r=".8" fill="#DD4814" stroke="#5A1A04" stroke-width=".25"/>
  <rect x="34" y="11" width="3" height="3" fill="#C9892D" stroke="#3F2A0A" stroke-width=".3"/>
  </g>
  <g>
  <rect x="9" y="19" width="30" height="9" rx=".6" fill="url(#ai-sr-blade)" stroke="#0A0604" stroke-width=".5"/>
  <path d="M9.5 19.5 H38.5" stroke="rgba(255,247,228,.18)" stroke-width=".4"/>
  <g stroke="rgba(255,247,228,.32)" stroke-width=".4">
  <line x1="14" y1="22.5" x2="28" y2="22.5"/>
  <line x1="14" y1="24.5" x2="28" y2="24.5"/>
  <line x1="14" y1="26.5" x2="28" y2="26.5"/>
  </g>
  <circle cx="11.5" cy="21.5" r=".8" fill="#A8E668" stroke="#3F5A18" stroke-width=".25"/>
  <circle cx="11.5" cy="24" r=".8" fill="#DD4814" stroke="#5A1A04" stroke-width=".25"/>
  <rect x="34" y="22" width="3" height="3" fill="#C9892D" stroke="#3F2A0A" stroke-width=".3"/>
  </g>
  <g>
  <rect x="9" y="30" width="30" height="9" rx=".6" fill="url(#ai-sr-blade)" stroke="#0A0604" stroke-width=".5"/>
  <path d="M9.5 30.5 H38.5" stroke="rgba(255,247,228,.18)" stroke-width=".4"/>
  <g stroke="rgba(255,247,228,.32)" stroke-width=".4">
  <line x1="14" y1="33.5" x2="28" y2="33.5"/>
  <line x1="14" y1="35.5" x2="28" y2="35.5"/>
  <line x1="14" y1="37.5" x2="28" y2="37.5"/>
  </g>
  <circle cx="11.5" cy="32.5" r=".8" fill="#A8E668" stroke="#3F5A18" stroke-width=".25"/>
  <circle cx="11.5" cy="35" r=".8" fill="#DD4814" stroke="#5A1A04" stroke-width=".25"/>
  <rect x="34" y="33" width="3" height="3" fill="#C9892D" stroke="#3F2A0A" stroke-width=".3"/>
  </g>
  <rect x="9" y="40" width="6" height="3" fill="#3F2A0A"/>
  <rect x="33" y="40" width="6" height="3" fill="#3F2A0A"/>
  </svg>
