<svg viewBox="0 0 48 48" width="100%" height="100%">
  <defs>
  <linearGradient id="ai-sh-body" x1="0" y1="0" x2="0" y2="1">
  <stop offset="0%" stop-color="#F26836"/>
  <stop offset="55%" stop-color="#C7391E"/>
  <stop offset="100%" stop-color="#5A1A04"/>
  </linearGradient>
  </defs>
  <ellipse cx="24" cy="44" rx="12" ry=".7" fill="rgba(0,0,0,.35)"/>
  <path d="M24 4 L40 9 V23 C 40 33 33 39 24 43 C 15 39 8 33 8 23 V9 Z" fill="url(#ai-sh-body)" stroke="#3F1A04" stroke-width=".9" stroke-linejoin="round"/>
  <path d="M24 6 V41 C 16 37 10 31.5 10 23 V10 Z" fill="rgba(0,0,0,.12)"/>
  <path d="M24 7 L37 11 V23 C 37 31 31 36.5 24 40 C 17 36.5 11 31 11 23 V11 Z" fill="none" stroke="#F8D670" stroke-width="1" opacity=".85"/>
  <path d="M17 23 L22 28 L31 17" fill="none" stroke="#FBF1D8" stroke-width="3" stroke-linecap="round" stroke-linejoin="round"/>
  <path d="M12 10 L24 6 L36 10" fill="none" stroke="rgba(255,255,255,.4)" stroke-width=".5"/>
  </svg>
