<svg viewBox="0 0 48 48" width="100%" height="100%">
<defs>
<linearGradient id="f-shirt-and-tie-shirt" x1="0" y1="0" x2="0" y2="1">
<stop offset="0" stop-color="#FFFFFF"/>
<stop offset="0.55" stop-color="#FCFBF4"/>
<stop offset="1" stop-color="#D9D4C2"/>
</linearGradient>
<linearGradient id="f-shirt-and-tie-collarL" x1="0" y1="0" x2="0" y2="1">
<stop offset="0" stop-color="#FFFFFF"/>
<stop offset="1" stop-color="#CFC9B6"/>
</linearGradient>
<linearGradient id="f-shirt-and-tie-tie" x1="0" y1="0" x2="0" y2="1">
<stop offset="0" stop-color="#F77A45"/>
<stop offset="0.5" stop-color="#E95420"/>
<stop offset="1" stop-color="#7A1F08"/>
</linearGradient>
<linearGradient id="f-shirt-and-tie-knot" x1="0" y1="0" x2="0" y2="1">
<stop offset="0" stop-color="#F8915E"/>
<stop offset="1" stop-color="#DD4814"/>
</linearGradient>
</defs>
<ellipse cx="24" cy="44.5" rx="13" ry="1" fill="rgba(0,0,0,.4)"/>
<path d="M9 7 L24 11 L39 7 Q44 10 44 16 L42 44 L6 44 L4 16 Q4 10 9 7 Z" fill="url(#f-shirt-and-tie-shirt)" stroke="#5A3F08" stroke-width="0.9" stroke-linejoin="round"/>
<path d="M24 11 L8.5 7.2 L20.5 23 L24 16 Z" fill="url(#f-shirt-and-tie-collarL)" stroke="#5A3F08" stroke-width="0.9" stroke-linejoin="round"/>
<path d="M24 11 L39.5 7.2 L27.5 23 L24 16 Z" fill="url(#f-shirt-and-tie-collarL)" stroke="#5A3F08" stroke-width="0.9" stroke-linejoin="round"/>
<path d="M24 12.5 L28.5 17 L24 21.5 L19.5 17 Z" fill="url(#f-shirt-and-tie-knot)" stroke="#5A1A04" stroke-width="1" stroke-linejoin="round"/>
<path d="M21 21 L27 21 L31 44 L17 44 Z" fill="url(#f-shirt-and-tie-tie)" stroke="#5A1A04" stroke-width="1.2" stroke-linejoin="round"/>
<path d="M21.6 22 L26.4 22 L24 27 Z" fill="rgba(255,247,228,.3)"/>
<path d="M9.6 8 L23.6 11.5" fill="none" stroke="rgba(255,255,255,.6)" stroke-width="0.7" stroke-linecap="round"/>
<path d="M38.4 8 L24.4 11.5" fill="none" stroke="rgba(255,255,255,.6)" stroke-width="0.7" stroke-linecap="round"/>
</svg>
