<svg viewBox="0 0 48 48" width="100%" height="100%">
  <defs>
    <linearGradient id="f-space-invader-body" x1="0" y1="0" x2="0" y2="1">
      <stop offset="0%" stop-color="#FBF1D8"/>
      <stop offset="50%" stop-color="#D4B575"/>
      <stop offset="100%" stop-color="#6A4A12"/>
    </linearGradient>
    <linearGradient id="f-space-invader-plate" x1="0" y1="0" x2="0" y2="1">
      <stop offset="0%" stop-color="#F8E0A0"/>
      <stop offset="55%" stop-color="#C9892D"/>
      <stop offset="100%" stop-color="#3F2A0A"/>
    </linearGradient>
    <radialGradient id="f-space-invader-eye" cx=".38" cy=".35" r=".7">
      <stop offset="0%" stop-color="#F8D670"/>
      <stop offset="45%" stop-color="#E95420"/>
      <stop offset="100%" stop-color="#7A1F08"/>
    </radialGradient>
  </defs>
  <ellipse cx="24" cy="45" rx="13" ry=".8" fill="rgba(0,0,0,.4)"/>
  <path d="M16 7 V11" stroke="#3F2A0A" stroke-width="2" stroke-linecap="round"/>
  <path d="M32 7 V11" stroke="#3F2A0A" stroke-width="2" stroke-linecap="round"/>
  <rect x="14.6" y="5.4" width="3.2" height="3.2" rx="1" fill="url(#f-space-invader-body)" stroke="#3F2A0A" stroke-width=".5"/>
  <rect x="30.6" y="5.4" width="3.2" height="3.2" rx="1" fill="url(#f-space-invader-body)" stroke="#3F2A0A" stroke-width=".5"/>
  <path d="M14 11
           H34 V14
           H38 V17
           H42 V25
           H38 V22
           H35 V29
           H38 V32
           H32 V29
           H29 V32
           H19 V29
           H16 V32
           H10 V29
           H13 V22
           H10 V25
           H6 V17
           H10 V14
           H14 Z"
        fill="url(#f-space-invader-body)" stroke="#3F2A0A" stroke-width=".9" stroke-linejoin="round"/>
  <path d="M15 12 H33" stroke="rgba(255,255,255,.65)" stroke-width=".6"/>
  <rect x="14" y="20" width="20" height="3.4" fill="#2C001E" opacity=".55"/>
  <rect x="18" y="24" width="4" height="4" fill="#2C001E" opacity=".5"/>
  <rect x="26" y="24" width="4" height="4" fill="#2C001E" opacity=".5"/>
  <rect x="16.5" y="14" width="6.2" height="5" rx="1" fill="#1A0512" stroke="#0A0008" stroke-width=".4"/>
  <rect x="25.3" y="14" width="6.2" height="5" rx="1" fill="#1A0512" stroke="#0A0008" stroke-width=".4"/>
  <rect x="17.6" y="15" width="4" height="3" rx="1" fill="url(#f-space-invader-eye)" stroke="#5A1A04" stroke-width=".4"/>
  <rect x="26.4" y="15" width="4" height="3" rx="1" fill="url(#f-space-invader-eye)" stroke="#5A1A04" stroke-width=".4"/>
  <circle cx="18.7" cy="15.9" r=".5" fill="rgba(255,247,228,.75)"/>
  <circle cx="27.5" cy="15.9" r=".5" fill="rgba(255,247,228,.75)"/>
  <rect x="10" y="32" width="4" height="5" rx="1" fill="url(#f-space-invader-plate)" stroke="#3F2A0A" stroke-width=".7"/>
  <rect x="34" y="32" width="4" height="5" rx="1" fill="url(#f-space-invader-plate)" stroke="#3F2A0A" stroke-width=".7"/>
  <rect x="19" y="32" width="4" height="6" rx="1" fill="url(#f-space-invader-plate)" stroke="#3F2A0A" stroke-width=".7"/>
  <rect x="25" y="32" width="4" height="6" rx="1" fill="url(#f-space-invader-plate)" stroke="#3F2A0A" stroke-width=".7"/>
  <rect x="6" y="36" width="4" height="4" rx="1" fill="url(#f-space-invader-plate)" stroke="#3F2A0A" stroke-width=".7"/>
  <rect x="38" y="36" width="4" height="4" rx="1" fill="url(#f-space-invader-plate)" stroke="#3F2A0A" stroke-width=".7"/>
</svg>
