<svg viewBox="0 0 48 48" width="100%" height="100%">
<defs>
<linearGradient id="f-spray-can-body" x1="0" y1="0" x2="1" y2="0">
<stop offset="0" stop-color="#FBF1D8"/>
<stop offset="0.28" stop-color="#F8D670"/>
<stop offset="0.62" stop-color="#C9892D"/>
<stop offset="1" stop-color="#5A3F08"/>
</linearGradient>
<linearGradient id="f-spray-can-cap" x1="0" y1="0" x2="1" y2="0">
<stop offset="0" stop-color="#77216F"/>
<stop offset="0.5" stop-color="#3D0B2C"/>
<stop offset="1" stop-color="#1A0512"/>
</linearGradient>
<linearGradient id="f-spray-can-nozzle" x1="0" y1="0" x2="0" y2="1">
<stop offset="0" stop-color="#F8E0A0"/>
<stop offset="0.5" stop-color="#C9892D"/>
<stop offset="1" stop-color="#3F2A0A"/>
</linearGradient>
<radialGradient id="f-spray-can-mist" cx="0.05" cy="0.5" r="1">
<stop offset="0" stop-color="#FBE57E"/>
<stop offset="0.4" stop-color="#E95420"/>
<stop offset="1" stop-color="#7A1F08"/>
</radialGradient>
</defs>
<ellipse cx="18" cy="45" rx="9" ry="0.8" fill="rgba(0,0,0,.4)"/>
<g stroke-linejoin="round">
<path d="M28 16 L45 7 Q47 15 47 19 Q47 23 45 31 L28 22 Q27 19 28 16 Z" fill="url(#f-spray-can-mist)" stroke="#5A1A04" stroke-width="1.1"/>
<circle cx="43" cy="10" r="1.4" fill="#F8D670"/>
<circle cx="45.5" cy="28" r="1.4" fill="#E95420"/>
<circle cx="41" cy="19" r="0.9" fill="#FBE57E"/>
<rect x="11" y="15" width="15" height="29" rx="3.5" fill="url(#f-spray-can-body)" stroke="#3F2A0A" stroke-width="1.1"/>
<rect x="12.3" y="16.4" width="2.6" height="26" rx="1.3" fill="rgba(255,255,255,.6)"/>
<rect x="11" y="27" width="15" height="6" rx="0.4" fill="#E95420" stroke="#5A1A04" stroke-width="1"/>
<rect x="11.8" y="27.7" width="13.4" height="1.2" rx="0.6" fill="rgba(255,247,228,.4)"/>
<rect x="12" y="11" width="13" height="5" rx="2" fill="url(#f-spray-can-cap)" stroke="#1A0F04" stroke-width="1.1"/>
<rect x="13" y="11.7" width="11" height="1.2" rx="0.6" fill="rgba(119,33,111,.55)"/>
<rect x="15" y="5" width="7" height="7" rx="1.6" fill="url(#f-spray-can-cap)" stroke="#1A0F04" stroke-width="1.1"/>
<rect x="21.5" y="6.5" width="7" height="4.5" rx="1.5" fill="url(#f-spray-can-nozzle)" stroke="#3F2A0A" stroke-width="1.1"/>
<rect x="16" y="6" width="4.5" height="2.6" rx="1.1" fill="#E95420" stroke="#5A1A04" stroke-width="0.6"/>
</g>
</svg>
