<svg viewBox="0 0 48 48" width="100%" height="100%">
  <defs>
    <linearGradient id="f-standing-book-cover" x1="0" y1="0" x2="1" y2="0"><stop offset="0%" stop-color="#5E2750"/><stop offset="22%" stop-color="#77216F"/><stop offset="55%" stop-color="#3D0B2C"/><stop offset="100%" stop-color="#1A0512"/></linearGradient>
    <linearGradient id="f-standing-book-spine" x1="0" y1="0" x2="1" y2="0"><stop offset="0%" stop-color="#3D0B2C"/><stop offset="50%" stop-color="#5E2750"/><stop offset="100%" stop-color="#1A0512"/></linearGradient>
    <linearGradient id="f-standing-book-pages" x1="0" y1="0" x2="1" y2="0"><stop offset="0%" stop-color="#FCFBF4"/><stop offset="100%" stop-color="#C9B98E"/></linearGradient>
    <linearGradient id="f-standing-book-clasp" x1="0" y1="0" x2="0" y2="1"><stop offset="0%" stop-color="#F8E0A0"/><stop offset="50%" stop-color="#C9892D"/><stop offset="100%" stop-color="#5A3F08"/></linearGradient>
    <radialGradient id="f-standing-book-star" cx=".42" cy=".34" r=".75"><stop offset="0%" stop-color="#FBE57E"/><stop offset="55%" stop-color="#F8D670"/><stop offset="100%" stop-color="#C9892D"/></radialGradient>
  </defs>
  <ellipse cx="24" cy="44" rx="12" ry=".8" fill="rgba(0,0,0,.4)"/>
  <rect x="11.5" y="4" width="6" height="40" rx="1.6" fill="url(#f-standing-book-spine)" stroke="#1A0F04" stroke-width=".9" stroke-linejoin="round"/>
  <rect x="16.5" y="5" width="22" height="2.4" rx=".8" fill="url(#f-standing-book-pages)" stroke="#3F2A0A" stroke-width=".5"/>
  <rect x="16.5" y="40" width="22" height="2.4" rx=".8" fill="url(#f-standing-book-pages)" stroke="#3F2A0A" stroke-width=".5"/>
  <rect x="36" y="6.5" width="3.2" height="35" rx="1.2" fill="url(#f-standing-book-pages)" stroke="#3F2A0A" stroke-width=".5"/>
  <path d="M37 8 V40" stroke="#C9B98E" stroke-width=".4"/>
  <path d="M38 8 V40" stroke="#C9B98E" stroke-width=".4"/>
  <rect x="14.5" y="4.5" width="22" height="39" rx="2.2" fill="url(#f-standing-book-cover)" stroke="#1A0F04" stroke-width="1" stroke-linejoin="round"/>
  <path d="M16 6.4 H35" stroke="rgba(255,255,255,.5)" stroke-width=".6"/>
  <path d="M15.6 5.6 V42.4" stroke="rgba(255,255,255,.25)" stroke-width=".5"/>
  <rect x="16.5" y="6.5" width="18" height="35" rx="1.6" fill="none" stroke="#5A3F08" stroke-width=".7"/>
  <path d="M25.5 12.5 L27.7 18.6 L34.2 18.9 L29 22.9 L30.8 29.2 L25.5 25.4 L20.2 29.2 L22 22.9 L16.8 18.9 L23.3 18.6 Z" fill="url(#f-standing-book-star)" stroke="#5A3F08" stroke-width=".8" stroke-linejoin="round"/>
  <path d="M25.5 13.8 L27.1 18.4 L23.6 22 Z" fill="rgba(255,247,228,.55)"/>
  <rect x="9.5" y="20" width="9" height="8" rx="1.6" fill="url(#f-standing-book-clasp)" stroke="#3F2A0A" stroke-width=".9" stroke-linejoin="round"/>
  <path d="M10.6 21 H17.4" stroke="rgba(255,255,255,.6)" stroke-width=".5"/>
  <rect x="12.5" y="22.6" width="3.6" height="2.8" rx=".6" fill="#5A3F08" stroke="#1F0F04" stroke-width=".5"/>
</svg>
