<svg viewBox="0 0 48 48" width="100%" height="100%">
  <defs>
    <radialGradient id="f-star-shield-body" cx=".4" cy=".28" r=".9">
      <stop offset="0%" stop-color="#FBF1D8"/>
      <stop offset="50%" stop-color="#C9892D"/>
      <stop offset="100%" stop-color="#5A3F08"/>
    </radialGradient>
    <linearGradient id="f-star-shield-rim" x1="0" y1="0" x2="0" y2="1">
      <stop offset="0%" stop-color="#F8E0A0"/>
      <stop offset="55%" stop-color="#D4B575"/>
      <stop offset="100%" stop-color="#6A4A12"/>
    </linearGradient>
    <linearGradient id="f-star-shield-orange" x1="0" y1="0" x2="0" y2="1">
      <stop offset="0%" stop-color="#F87A3C"/>
      <stop offset="45%" stop-color="#E95420"/>
      <stop offset="100%" stop-color="#5A1A04"/>
    </linearGradient>
    <linearGradient id="f-star-shield-aubergine" x1="0" y1="0" x2="0" y2="1">
      <stop offset="0%" stop-color="#5E2750"/>
      <stop offset="55%" stop-color="#3D0B2C"/>
      <stop offset="100%" stop-color="#1A0512"/>
    </linearGradient>
    <radialGradient id="f-star-shield-star" cx=".4" cy=".3" r=".95">
      <stop offset="0%" stop-color="#FFFBEF"/>
      <stop offset="55%" stop-color="#F8D670"/>
      <stop offset="100%" stop-color="#C9892D"/>
    </radialGradient>
  </defs>
  <ellipse cx="24" cy="45" rx="11.5" ry=".8" fill="rgba(0,0,0,.4)"/>
  <path d="M24 3.6
           C 18 6.6 12 7.6 7 7.4
           C 7 21 8.4 31 13 37.4
           C 16.6 42.4 20.4 44 24 45
           C 27.6 44 31.4 42.4 35 37.4
           C 39.6 31 41 21 41 7.4
           C 36 7.6 30 6.6 24 3.6 Z"
        fill="url(#f-star-shield-body)" stroke="#3F2A0A" stroke-width="1.1" stroke-linejoin="round"/>
  <path d="M9 8.6 C 14 8.7 19.4 7.8 24 5.4 C 28.6 7.8 34 8.7 39 8.6"
        fill="none" stroke="rgba(255,255,255,.65)" stroke-width=".9" stroke-linecap="round"/>
  <clipPath id="f-star-shield-clip">
    <path d="M24 7.6
             C 18.8 10 13.6 10.9 9.4 10.8
             C 9.6 21.6 11 30 14.8 35.4
             C 17.8 39.6 21 41.2 24 42.1
             C 27 41.2 30.2 39.6 33.2 35.4
             C 37 30 38.4 21.6 38.6 10.8
             C 34.4 10.9 29.2 10 24 7.6 Z"/>
  </clipPath>
  <g clip-path="url(#f-star-shield-clip)">
    <rect x="6" y="5" width="18" height="40" fill="url(#f-star-shield-orange)"/>
    <rect x="24" y="5" width="18" height="40" fill="url(#f-star-shield-aubergine)"/>
    <path d="M9 12 C 14 12.2 19 11.4 24 9.4 L 24 14 C 19.4 15.6 14.6 16.3 10.4 16.2 Z"
          fill="rgba(255,247,228,.22)"/>
    <path d="M24 9.4 C 29 11.4 34 12.2 39 12 L 38.4 16.2 C 34 16.3 29.4 15.6 24 14 Z"
          fill="rgba(119,33,111,.4)"/>
  </g>
  <path d="M24 7.6
           C 18.8 10 13.6 10.9 9.4 10.8
           C 9.6 21.6 11 30 14.8 35.4
           C 17.8 39.6 21 41.2 24 42.1
           C 27 41.2 30.2 39.6 33.2 35.4
           C 37 30 38.4 21.6 38.6 10.8
           C 34.4 10.9 29.2 10 24 7.6 Z"
        fill="none" stroke="url(#f-star-shield-rim)" stroke-width="1.5" stroke-linejoin="round"/>
  <line x1="24" y1="8.6" x2="24" y2="41.6" stroke="#1A0512" stroke-width=".9"/>
  <line x1="24" y1="8.6" x2="24" y2="41.6" stroke="rgba(255,247,228,.25)" stroke-width=".4"/>
  <path d="M24 12.2 L26.8 20 L35 20.3 L28.4 25.3 L30.7 33.2 L24 28.4 L17.3 33.2 L19.6 25.3 L13 20.3 L21.2 20 Z"
        fill="url(#f-star-shield-star)" stroke="#3F2A0A" stroke-width=".8" stroke-linejoin="round"/>
  <path d="M24 14.2 L26.1 20.6 L24 20.5 Z" fill="rgba(255,255,255,.6)"/>
  <circle cx="24" cy="9.6" r="1.9" fill="#E95420" stroke="#5A1A04" stroke-width=".5"/>
  <circle cx="23.3" cy="8.9" r=".6" fill="#F8D670"/>
</svg>
