<svg viewBox="0 0 48 48" width="100%" height="100%"><defs>
<linearGradient id="f-trumpet-body" x1="0" y1="0" x2="0" y2="1"><stop offset="0%" stop-color="#FBF1D8"/><stop offset="14%" stop-color="#F8D670"/><stop offset="52%" stop-color="#C9892D"/><stop offset="100%" stop-color="#5A3F08"/></linearGradient>
<linearGradient id="f-trumpet-handle" x1="0" y1="0" x2="0" y2="1"><stop offset="0%" stop-color="#FBF1D8"/><stop offset="55%" stop-color="#C9892D"/><stop offset="100%" stop-color="#5A3F08"/></linearGradient>
<linearGradient id="f-trumpet-panel" x1="0" y1="0" x2="0" y2="1"><stop offset="0%" stop-color="#5E2750"/><stop offset="100%" stop-color="#1F0518"/></linearGradient>
<radialGradient id="f-trumpet-cone" cx=".4" cy=".34" r=".72"><stop offset="0%" stop-color="#77216F"/><stop offset="46%" stop-color="#3D0B2C"/><stop offset="100%" stop-color="#0A0008"/></radialGradient>
</defs>
<ellipse cx="24" cy="44" rx="16" ry=".9" fill="rgba(0,0,0,.4)"/>
<rect x="14" y="9" width="3" height="4" rx=".6" fill="url(#f-trumpet-handle)" stroke="#3F2A0A" stroke-width=".6"/>
<rect x="31" y="9" width="3" height="4" rx=".6" fill="url(#f-trumpet-handle)" stroke="#3F2A0A" stroke-width=".6"/>
<rect x="10" y="5.5" width="28" height="3.4" rx="1.7" fill="none" stroke="url(#f-trumpet-handle)" stroke-width="2.6"/>
<rect x="5.5" y="12" width="37" height="29" rx="3.2" fill="url(#f-trumpet-body)" stroke="#3F2A0A" stroke-width="1"/>
<rect x="6.7" y="13.2" width="34.6" height="1.5" rx="1" fill="rgba(255,255,255,.62)"/>
<rect x="16.5" y="13.8" width="15" height="7" rx="1.5" fill="url(#f-trumpet-panel)" stroke="#3F2A0A" stroke-width=".7"/>
<rect x="17.8" y="15.8" width="12.4" height="1.1" rx=".55" fill="rgba(255,247,228,.55)"/>
<rect x="17.8" y="17.8" width="7.8" height="1.1" rx=".55" fill="rgba(255,247,228,.35)"/>
<circle cx="29" cy="18.4" r="1.2" fill="#E95420" stroke="#5A1A04" stroke-width=".4"/>
<circle cx="13.8" cy="29.5" r="7.4" fill="url(#f-trumpet-cone)" stroke="#3F2A0A" stroke-width="1"/>
<circle cx="13.8" cy="29.5" r="7.4" fill="none" stroke="rgba(255,255,255,.4)" stroke-width=".5"/>
<circle cx="13.8" cy="29.5" r="2.5" fill="#3D0B2C" stroke="#1F0F04" stroke-width=".7"/>
<circle cx="12.5" cy="28.2" r=".8" fill="rgba(255,247,228,.5)"/>
<circle cx="34.2" cy="29.5" r="7.4" fill="url(#f-trumpet-cone)" stroke="#3F2A0A" stroke-width="1"/>
<circle cx="34.2" cy="29.5" r="7.4" fill="none" stroke="rgba(255,255,255,.4)" stroke-width=".5"/>
<circle cx="34.2" cy="29.5" r="2.5" fill="#3D0B2C" stroke="#1F0F04" stroke-width=".7"/>
<circle cx="32.9" cy="28.2" r=".8" fill="rgba(255,247,228,.5)"/>
<rect x="22" y="25" width="4" height="11.4" rx="1.3" fill="url(#f-trumpet-panel)" stroke="#3F2A0A" stroke-width=".7"/>
<rect x="22.9" y="26.2" width="2.2" height="1.5" rx=".7" fill="#F8D670"/>
<rect x="22.9" y="28.8" width="2.2" height="1.5" rx=".7" fill="rgba(255,247,228,.4)"/>
<rect x="22.9" y="31.4" width="2.2" height="1.5" rx=".7" fill="rgba(255,247,228,.4)"/>
<circle cx="9.6" cy="38" r="1" fill="#3F2A0A"/>
<circle cx="38.4" cy="38" r="1" fill="#3F2A0A"/>
</svg>
