<svg viewBox="0 0 48 48" width="100%" height="100%">
  <defs>
  <linearGradient id="ai-sw-case" x1="0" y1="0" x2="0" y2="1">
  <stop offset="0%" stop-color="#F8E0A0"/>
  <stop offset="50%" stop-color="#C9892D"/>
  <stop offset="100%" stop-color="#3F2A0A"/>
  </linearGradient>
  <radialGradient id="ai-sw-face" cx=".5" cy=".4" r=".7">
  <stop offset="0%" stop-color="#FFFFFF"/>
  <stop offset="100%" stop-color="#D9D0B8"/>
  </radialGradient>
  </defs>
  <ellipse cx="24" cy="44" rx="14" ry=".7" fill="rgba(0,0,0,.4)"/>
  <path d="M24 3 C 20.5 3 20.5 8 24 8 C 27.5 8 27.5 3 24 3 Z" fill="url(#ai-sw-case)" stroke="#3F2A0A" stroke-width=".7"/>
  <rect x="22.4" y="7" width="3.2" height="3.6" fill="url(#ai-sw-case)" stroke="#3F2A0A" stroke-width=".5"/>
  <rect x="22.4" y="7" width="3.2" height=".8" fill="rgba(255,255,255,.6)"/>
  <rect x="13.5" y="11" width="2.2" height="3.4" fill="url(#ai-sw-case)" stroke="#3F2A0A" stroke-width=".4"/>
  <rect x="32.3" y="11" width="2.2" height="3.4" fill="url(#ai-sw-case)" stroke="#3F2A0A" stroke-width=".4"/>
  <circle cx="24" cy="26" r="17" fill="url(#ai-sw-case)" stroke="#3F2A0A" stroke-width=".9"/>
  <circle cx="24" cy="26" r="15.6" fill="none" stroke="rgba(255,247,228,.4)" stroke-width=".6"/>
  <circle cx="24" cy="26" r="13.5" fill="url(#ai-sw-face)" stroke="#5A3F08" stroke-width=".5"/>
  <g stroke="#3F2A0A" stroke-linecap="round">
  <line x1="24" y1="13" x2="24" y2="15.4" stroke-width="1.1" transform="rotate(0 24 26)"/>
  <line x1="24" y1="13" x2="24" y2="14.4" stroke-width="0.55" transform="rotate(30 24 26)"/>
  <line x1="24" y1="13" x2="24" y2="14.4" stroke-width="0.55" transform="rotate(60 24 26)"/>
  <line x1="24" y1="13" x2="24" y2="15.4" stroke-width="1.1" transform="rotate(90 24 26)"/>
  <line x1="24" y1="13" x2="24" y2="14.4" stroke-width="0.55" transform="rotate(120 24 26)"/>
  <line x1="24" y1="13" x2="24" y2="14.4" stroke-width="0.55" transform="rotate(150 24 26)"/>
  <line x1="24" y1="13" x2="24" y2="15.4" stroke-width="1.1" transform="rotate(180 24 26)"/>
  <line x1="24" y1="13" x2="24" y2="14.4" stroke-width="0.55" transform="rotate(210 24 26)"/>
  <line x1="24" y1="13" x2="24" y2="14.4" stroke-width="0.55" transform="rotate(240 24 26)"/>
  <line x1="24" y1="13" x2="24" y2="15.4" stroke-width="1.1" transform="rotate(270 24 26)"/>
  <line x1="24" y1="13" x2="24" y2="14.4" stroke-width="0.55" transform="rotate(300 24 26)"/>
  <line x1="24" y1="13" x2="24" y2="14.4" stroke-width="0.55" transform="rotate(330 24 26)"/>
  </g>
  <circle cx="24" cy="32" r="3.4" fill="#E0D8C0" stroke="#5A3F08" stroke-width=".4"/>
  <path d="M24 32 L24 29.6" stroke="#3F2A0A" stroke-width=".55" stroke-linecap="round"/>
  <path d="M24 26 L24 16" stroke="#3F2A0A" stroke-width="1.4" stroke-linecap="round"/>
  <path d="M24 26 L31 19" stroke="#DD4814" stroke-width=".9" stroke-linecap="round"/>
  <circle cx="24" cy="26" r="1.4" fill="#3F2A0A"/>
  <circle cx="24" cy="26" r=".5" fill="#DD4814"/>
  <path d="M12 17 A16 16 0 0 1 36 16" fill="none" stroke="rgba(255,255,255,.5)" stroke-width="1.3"/>
  </svg>
