<svg viewBox="0 0 48 48" width="100%" height="100%">
  <defs>
  <linearGradient id="ai-sm-board" x1="0" y1="0" x2="0" y2="1">
  <stop offset="0%" stop-color="#FBF1D8"/>
  <stop offset="55%" stop-color="#D4B575"/>
  <stop offset="100%" stop-color="#6A4A12"/>
  </linearGradient>
  <linearGradient id="ai-sm-paper" x1="0" y1="0" x2="0" y2="1">
  <stop offset="0%" stop-color="#FFFFFF"/>
  <stop offset="100%" stop-color="#E4DCC4"/>
  </linearGradient>
  <linearGradient id="ai-sm-bar" x1="0" y1="1" x2="0" y2="0">
  <stop offset="0%" stop-color="#7A2308"/>
  <stop offset="55%" stop-color="#DD4814"/>
  <stop offset="100%" stop-color="#F8D670"/>
  </linearGradient>
  <linearGradient id="ai-sm-clip" x1="0" y1="0" x2="0" y2="1">
  <stop offset="0%" stop-color="#F8D670"/>
  <stop offset="100%" stop-color="#8A6018"/>
  </linearGradient>
  </defs>
  <rect x="4" y="6" width="40" height="39" rx="2" fill="url(#ai-sm-board)" stroke="#3F2A0A" stroke-width=".9"/>
  <path d="M5 7 H43" stroke="rgba(255,255,255,.65)" stroke-width=".6"/>
  <rect x="7" y="11" width="34" height="30" rx=".6" fill="url(#ai-sm-paper)" stroke="#5A3F08" stroke-width=".5"/>
  <g stroke="rgba(63,42,10,.18)" stroke-width=".4">
  <line x1="8" y1="18" x2="40" y2="18"/>
  <line x1="8" y1="24" x2="40" y2="24"/>
  <line x1="8" y1="30" x2="40" y2="30"/>
  <line x1="8" y1="36" x2="40" y2="36"/>
  </g>
  <line x1="8" y1="38" x2="40" y2="38" stroke="#5A3F08" stroke-width=".7"/>
  <g stroke="#5A1A04" stroke-width=".4">
  <rect x="10" y="29" width="4.5" height="9" rx=".4" fill="url(#ai-sm-bar)"/>
  <rect x="16" y="23" width="4.5" height="15" rx=".4" fill="url(#ai-sm-bar)"/>
  <rect x="22" y="15" width="4.5" height="23" rx=".4" fill="url(#ai-sm-bar)"/>
  <rect x="28" y="25" width="4.5" height="13" rx=".4" fill="url(#ai-sm-bar)"/>
  <rect x="34" y="20" width="4.5" height="18" rx=".4" fill="url(#ai-sm-bar)"/>
  </g>
  <rect x="18" y="3" width="12" height="6" rx="1.2" fill="url(#ai-sm-clip)" stroke="#3F2A0A" stroke-width=".6"/>
  <rect x="18.5" y="3.5" width="11" height=".8" fill="rgba(255,255,255,.6)"/>
  <circle cx="24" cy="6" r=".8" fill="#3F2A0A"/>
  </svg>
