<svg viewBox="0 0 48 48" width="100%" height="100%">
<defs>
<radialGradient id="f-target-reticle-ring" cx=".38" cy=".35" r=".75">
<stop offset="0" stop-color="#FBF1D8"/>
<stop offset=".45" stop-color="#D4B575"/>
<stop offset=".8" stop-color="#C9892D"/>
<stop offset="1" stop-color="#5A3F08"/>
</radialGradient>
<radialGradient id="f-target-reticle-band1" cx=".38" cy=".35" r=".8">
<stop offset="0" stop-color="#FCFBF4"/>
<stop offset="1" stop-color="#FBEED4"/>
</radialGradient>
<radialGradient id="f-target-reticle-aub" cx=".38" cy=".35" r=".75">
<stop offset="0" stop-color="#77216F"/>
<stop offset=".55" stop-color="#3D0B2C"/>
<stop offset="1" stop-color="#1A0512"/>
</radialGradient>
<radialGradient id="f-target-reticle-orange" cx=".4" cy=".35" r=".8">
<stop offset="0" stop-color="#F8A070"/>
<stop offset=".4" stop-color="#E95420"/>
<stop offset="1" stop-color="#7A1F08"/>
</radialGradient>
<radialGradient id="f-target-reticle-bull" cx=".4" cy=".35" r=".85">
<stop offset="0" stop-color="#FBE57E"/>
<stop offset=".6" stop-color="#F8D670"/>
<stop offset="1" stop-color="#C9892D"/>
</radialGradient>
</defs>
<ellipse cx="24" cy="44" rx="13" ry=".9" fill="rgba(0,0,0,.4)"/>
<circle cx="24" cy="23" r="20.5" fill="url(#f-target-reticle-ring)" stroke="#3F2A0A" stroke-width="1"/>
<circle cx="24" cy="23" r="20.5" fill="none" stroke="rgba(255,255,255,.6)" stroke-width="1" stroke-dasharray="22 50" stroke-dashoffset="-6"/>
<circle cx="24" cy="23" r="16.5" fill="url(#f-target-reticle-band1)" stroke="#5A3F08" stroke-width=".8"/>
<circle cx="24" cy="23" r="13" fill="url(#f-target-reticle-aub)" stroke="#1A0F04" stroke-width=".8"/>
<circle cx="24" cy="23" r="9" fill="url(#f-target-reticle-band1)" stroke="#5A3F08" stroke-width=".8"/>
<circle cx="24" cy="23" r="5.5" fill="url(#f-target-reticle-aub)" stroke="#1A0F04" stroke-width=".8"/>
<circle cx="24" cy="23" r="2.6" fill="url(#f-target-reticle-bull)" stroke="#5A3F08" stroke-width=".8"/>
<g stroke="#5A1A04" stroke-width="3.2" stroke-linecap="round">
<line x1="24" y1="1.5" x2="24" y2="44.5"/>
<line x1="2.5" y1="23" x2="45.5" y2="23"/>
</g>
<g stroke="url(#f-target-reticle-orange)" stroke-width="2" stroke-linecap="round">
<line x1="24" y1="1.5" x2="24" y2="44.5"/>
<line x1="2.5" y1="23" x2="45.5" y2="23"/>
</g>
<circle cx="24" cy="23" r="2.6" fill="url(#f-target-reticle-bull)" stroke="#5A3F08" stroke-width=".8"/>
<circle cx="22.6" cy="21.6" r="1" fill="rgba(255,255,255,.7)"/>
</svg>
