<svg viewBox="0 0 48 48" width="100%" height="100%">
  <defs>
    <linearGradient id="f-telescope-tube" x1="0" y1="0" x2="0" y2="1"><stop offset="0%" stop-color="#FBF1D8"/><stop offset="45%" stop-color="#D4B575"/><stop offset="100%" stop-color="#5A3F08"/></linearGradient>
    <linearGradient id="f-telescope-band" x1="0" y1="0" x2="0" y2="1"><stop offset="0%" stop-color="#F8E0A0"/><stop offset="55%" stop-color="#C9892D"/><stop offset="100%" stop-color="#3F2A0A"/></linearGradient>
    <linearGradient id="f-telescope-leg" x1="0" y1="0" x2="0" y2="1"><stop offset="0%" stop-color="#F8D670"/><stop offset="55%" stop-color="#C9892D"/><stop offset="100%" stop-color="#5A3F08"/></linearGradient>
    <radialGradient id="f-telescope-lens" cx=".38" cy=".35" r=".7"><stop offset="0%" stop-color="#77216F"/><stop offset="55%" stop-color="#2C001E"/><stop offset="100%" stop-color="#0A0008"/></radialGradient>
    <radialGradient id="f-telescope-eye" cx=".4" cy=".35" r=".75"><stop offset="0%" stop-color="#5E2750"/><stop offset="60%" stop-color="#2C001E"/><stop offset="100%" stop-color="#1A0512"/></radialGradient>
  </defs>
  <ellipse cx="24" cy="44" rx="13" ry=".9" fill="rgba(0,0,0,.4)"/>
  <path d="M24 30 L15 44" fill="none" stroke="#3F2A0A" stroke-width="2.6" stroke-linecap="round"/>
  <path d="M24 30 L15 44" fill="none" stroke="url(#f-telescope-leg)" stroke-width="1.6" stroke-linecap="round"/>
  <path d="M24 30 L33 44" fill="none" stroke="#3F2A0A" stroke-width="2.6" stroke-linecap="round"/>
  <path d="M24 30 L33 44" fill="none" stroke="url(#f-telescope-leg)" stroke-width="1.6" stroke-linecap="round"/>
  <path d="M24 30 L24 43" fill="none" stroke="#3F2A0A" stroke-width="2.6" stroke-linecap="round"/>
  <path d="M24 30 L24 43" fill="none" stroke="url(#f-telescope-leg)" stroke-width="1.6" stroke-linecap="round"/>
  <circle cx="24" cy="30" r="3.2" fill="url(#f-telescope-band)" stroke="#3F2A0A" stroke-width=".8"/>
  <circle cx="23" cy="29" r="1" fill="rgba(255,247,228,.5)"/>
  <g transform="rotate(-26 24 27)">
    <path d="M8.5 22.5 L40 19.5 Q43 21 43 24 Q43 27 40 28.5 L8.5 25.5 Q6.5 24 8.5 22.5 Z" fill="url(#f-telescope-tube)" stroke="#3F2A0A" stroke-width=".9" stroke-linejoin="round"/>
    <path d="M9 22.9 L39.6 20" stroke="rgba(255,255,255,.65)" stroke-width=".6"/>
    <path d="M9 25.1 L33 24" stroke="rgba(255,247,228,.22)" stroke-width=".5"/>
    <rect x="26" y="19.5" width="4" height="9" rx="1" fill="url(#f-telescope-band)" stroke="#3F2A0A" stroke-width=".7"/>
    <path d="M27 20 V28" stroke="rgba(255,247,228,.4)" stroke-width=".4"/>
    <rect x="14" y="19.5" width="3" height="9" rx="1" fill="#E95420" stroke="#5A1A04" stroke-width=".7"/>
    <path d="M14.6 20 V28" stroke="rgba(255,255,255,.35)" stroke-width=".4"/>
    <ellipse cx="9.4" cy="24" rx="2.4" ry="4.6" fill="url(#f-telescope-lens)" stroke="#1A0F04" stroke-width=".8"/>
    <ellipse cx="8.5" cy="22.2" rx=".8" ry="1.3" fill="rgba(255,247,228,.6)"/>
    <ellipse cx="42.6" cy="24" rx="1.6" ry="3" fill="url(#f-telescope-eye)" stroke="#1A0F04" stroke-width=".7"/>
    <ellipse cx="42.2" cy="22.8" rx=".5" ry=".8" fill="rgba(255,247,228,.55)"/>
  </g>
  <path d="M7.5 14.5 L8.3 17 L10.8 17.4 L8.7 18.9 L9.3 21.4 L7.5 19.9 L5.7 21.4 L6.3 18.9 L4.2 17.4 L6.7 17 Z" transform="translate(2 0) scale(.62) translate(2 6)" fill="#F8D670" stroke="#5A1A04" stroke-width=".4" stroke-linejoin="round"/>
</svg>
