<svg viewBox="0 0 48 48" width="100%" height="100%">
  <defs>
    <linearGradient id="f-textbooks-book1" x1="0" y1="0" x2="0" y2="1"><stop offset="0%" stop-color="#5E2750"/><stop offset="100%" stop-color="#1A0512"/></linearGradient>
    <linearGradient id="f-textbooks-book2" x1="0" y1="0" x2="0" y2="1"><stop offset="0%" stop-color="#FBF1D8"/><stop offset="55%" stop-color="#D4B575"/><stop offset="100%" stop-color="#6A4A12"/></linearGradient>
    <linearGradient id="f-textbooks-book3" x1="0" y1="0" x2="0" y2="1"><stop offset="0%" stop-color="#DD6E1C"/><stop offset="100%" stop-color="#8A2A0A"/></linearGradient>
    <linearGradient id="f-textbooks-pages" x1="0" y1="0" x2="0" y2="1"><stop offset="0%" stop-color="#FFFFFF"/><stop offset="100%" stop-color="#D9D0B8"/></linearGradient>
    <linearGradient id="f-textbooks-strap" x1="0" y1="0" x2="0" y2="1"><stop offset="0%" stop-color="#F8E0A0"/><stop offset="50%" stop-color="#C9892D"/><stop offset="100%" stop-color="#5A3F08"/></linearGradient>
    <radialGradient id="f-textbooks-apple" cx=".38" cy=".32" r=".8"><stop offset="0%" stop-color="#E95420"/><stop offset="60%" stop-color="#DD4814"/><stop offset="100%" stop-color="#7A1F08"/></radialGradient>
  </defs>
  <ellipse cx="24" cy="44" rx="14" ry=".9" fill="rgba(0,0,0,.4)"/>
  <rect x="7" y="34" width="34" height="8" rx="2" fill="url(#f-textbooks-book1)" stroke="#1A0F04" stroke-width=".8"/>
  <rect x="9.5" y="35.4" width="29.5" height="5.6" rx="1" fill="url(#f-textbooks-pages)" stroke="#3F2A0A" stroke-width=".4"/>
  <path d="M9.5 37.6 H39" stroke="#C9B98E" stroke-width=".4"/>
  <path d="M9.5 39 H39" stroke="#C9B98E" stroke-width=".4"/>
  <rect x="7" y="34" width="34" height="8" rx="2" fill="none" stroke="rgba(255,255,255,.25)" stroke-width=".5"/>
  <rect x="9" y="26" width="30" height="8" rx="2" fill="url(#f-textbooks-book2)" stroke="#3F2A0A" stroke-width=".85"/>
  <path d="M11 28 H37" stroke="rgba(255,255,255,.6)" stroke-width=".5"/>
  <rect x="11.5" y="27.4" width="25" height="5.6" rx="1" fill="url(#f-textbooks-pages)" stroke="#3F2A0A" stroke-width=".4"/>
  <path d="M11.5 29.6 H36.5" stroke="#C9B98E" stroke-width=".4"/>
  <path d="M11.5 31 H36.5" stroke="#C9B98E" stroke-width=".4"/>
  <rect x="11" y="18" width="26" height="8" rx="2" fill="url(#f-textbooks-book3)" stroke="#5A1A04" stroke-width=".85"/>
  <path d="M13 20 H35" stroke="rgba(255,247,228,.45)" stroke-width=".5"/>
  <rect x="13.5" y="19.4" width="21" height="5.6" rx="1" fill="url(#f-textbooks-pages)" stroke="#3F2A0A" stroke-width=".4"/>
  <path d="M13.5 21.6 H34.5" stroke="#C9B98E" stroke-width=".4"/>
  <path d="M13.5 23 H34.5" stroke="#C9B98E" stroke-width=".4"/>
  <rect x="20.5" y="17" width="7" height="26" rx="1" fill="url(#f-textbooks-strap)" stroke="#3F2A0A" stroke-width=".7"/>
  <path d="M21.6 17 V43" stroke="rgba(255,255,255,.5)" stroke-width=".4"/>
  <rect x="22" y="28.5" width="4" height="3.2" rx=".6" fill="#5A3F08" stroke="#1F0F04" stroke-width=".4"/>
  <path d="M24 7 C25.5 5.4 27.6 5.6 27.6 5.6 C27.4 7.4 25.8 8.1 24.4 8" fill="#3D0B2C" stroke="#1A0F04" stroke-width=".5" stroke-linejoin="round"/>
  <path d="M23.6 8.2 C23.2 6 23.8 4.6 24.6 4.6 C25.2 4.6 25.4 6 24.8 8.2" fill="#5A3F08" stroke="#3F2A0A" stroke-width=".5" stroke-linejoin="round"/>
  <path d="M24 9 C20.5 8.4 17.5 10.6 17.5 13.6 C17.5 16.8 20 18.6 22 18.6 C23 18.6 23.4 18 24 18 C24.6 18 25 18.6 26 18.6 C28 18.6 30.5 16.8 30.5 13.6 C30.5 10.6 27.5 8.4 24 9 Z" fill="url(#f-textbooks-apple)" stroke="#5A1A04" stroke-width=".85" stroke-linejoin="round"/>
  <ellipse cx="21" cy="12" rx="1.8" ry="2.6" fill="rgba(255,247,228,.4)"/>
</svg>
