<svg viewBox="0 0 48 48" width="100%" height="100%">
  <defs>
  <linearGradient id="ai-tb-body" x1="0" y1="0" x2="0" y2="1">
  <stop offset="0%" stop-color="#F26836"/>
  <stop offset="55%" stop-color="#C7391E"/>
  <stop offset="100%" stop-color="#5A1A04"/>
  </linearGradient>
  <linearGradient id="ai-tb-clasp" x1="0" y1="0" x2="0" y2="1">
  <stop offset="0%" stop-color="#F8D670"/>
  <stop offset="100%" stop-color="#7A4810"/>
  </linearGradient>
  </defs>
  <ellipse cx="24" cy="43.5" rx="18" ry=".8" fill="rgba(0,0,0,.4)"/>
  <path d="M17 9 C 17 5 31 5 31 9" fill="none" stroke="#3F2A0A" stroke-width="2.4" stroke-linecap="round"/>
  <path d="M18 8 C 18 6 30 6 30 8" fill="none" stroke="rgba(255,247,228,.45)" stroke-width=".4"/>
  <path d="M5 11 H43 V20 H5 Z" fill="url(#ai-tb-body)" stroke="#3F1A04" stroke-width=".9"/>
  <rect x="5" y="11" width="38" height="1.2" fill="rgba(255,255,255,.55)"/>
  <rect x="36" y="11" width="2" height="7" fill="#9A8870" stroke="#3F2A0A" stroke-width=".3"/>
  <rect x="35.2" y="5" width="3.6" height="6.5" rx=".6" fill="#F8D670" stroke="#5A3F08" stroke-width=".4"/>
  <rect x="35.4" y="5.4" width="3.2" height=".8" fill="rgba(255,255,255,.55)"/>
  <path d="M8.5 5 L11.5 5 L12.5 8 L11.5 11 L8.5 11 L7.5 8 Z M9.5 7 H10.5 V9 H9.5 Z" fill="#C9892D" stroke="#3F2A0A" stroke-width=".4" stroke-linejoin="round" fill-rule="evenodd"/>
  <rect x="9.5" y="11" width="1.5" height="1.5" fill="#C9892D" stroke="#3F2A0A" stroke-width=".4"/>
  <path d="M5 20 H43 V40 Q43 42 41 42 H7 Q5 42 5 40 Z" fill="url(#ai-tb-body)" stroke="#3F1A04" stroke-width=".9" stroke-linejoin="round"/>
  <path d="M6 21 H42" stroke="rgba(255,255,255,.5)" stroke-width=".5"/>
  <line x1="5" y1="20" x2="43" y2="20" stroke="#1F0F04" stroke-width=".8"/>
  <rect x="20" y="18" width="8" height="5" rx=".6" fill="url(#ai-tb-clasp)" stroke="#3F2A0A" stroke-width=".5"/>
  <rect x="20" y="18" width="8" height="1" fill="rgba(255,255,255,.6)"/>
  <rect x="23" y="20" width="2" height="1.6" fill="#3F2A0A"/>
  <g fill="#3F2A0A">
  <circle cx="8" cy="24" r=".7"/>
  <circle cx="40" cy="24" r=".7"/>
  <circle cx="8" cy="38" r=".7"/>
  <circle cx="40" cy="38" r=".7"/>
  </g>
  <rect x="11" y="31" width="26" height="3.6" fill="#FBF1D8" stroke="#5A1A04" stroke-width=".4"/>
  <text x="24" y="33.7" text-anchor="middle" font-family="Ubuntu, sans-serif" font-weight="700" font-size="3" fill="#5A1A04" letter-spacing=".2em">TOOLS</text>
  </svg>
