<svg viewBox="0 0 48 48" width="100%" height="100%">
<defs>
<linearGradient id="f-torch-handle" x1="0" y1="0" x2="1" y2="0">
<stop offset="0%" stop-color="#6A4A12"/>
<stop offset="20%" stop-color="#FBF1D8"/>
<stop offset="50%" stop-color="#D4B575"/>
<stop offset="80%" stop-color="#C9892D"/>
<stop offset="100%" stop-color="#5A3F08"/>
</linearGradient>
<radialGradient id="f-torch-cup" cx=".38" cy=".25" r=".95">
<stop offset="0%" stop-color="#FBF1D8"/>
<stop offset="48%" stop-color="#D4B575"/>
<stop offset="100%" stop-color="#5A3F08"/>
</radialGradient>
<radialGradient id="f-torch-fuel" cx=".5" cy=".4" r=".7">
<stop offset="0%" stop-color="#3D0B2C"/>
<stop offset="60%" stop-color="#2C001E"/>
<stop offset="100%" stop-color="#0A0008"/>
</radialGradient>
<radialGradient id="f-torch-flame" cx=".5" cy=".7" r=".6">
<stop offset="0%" stop-color="#FFFDF2"/>
<stop offset="32%" stop-color="#F8D670"/>
<stop offset="68%" stop-color="#E95420"/>
<stop offset="100%" stop-color="#DD4814"/>
</radialGradient>
<radialGradient id="f-torch-glow" cx=".5" cy=".5" r=".5">
<stop offset="0%" stop-color="#F8D670" stop-opacity=".82"/>
<stop offset="46%" stop-color="#E95420" stop-opacity=".32"/>
<stop offset="100%" stop-color="#E95420" stop-opacity="0"/>
</radialGradient>
</defs>
<ellipse cx="24" cy="44" rx="8.5" ry=".8" fill="rgba(0,0,0,.4)"/>
<ellipse cx="24" cy="15" rx="16.5" ry="17" fill="url(#f-torch-glow)"/>
<path d="M24 3 C19.8 9.6 18.4 12 18.4 16 C18.4 20 21 23 24 23 C27 23 29.6 20 29.6 16 C29.6 12.8 28.2 11 27 9 C26.6 11.4 25.6 12.6 24.2 13 C24.8 9.6 24.7 6.4 24 3 Z" fill="url(#f-torch-flame)" stroke="#5A1A04" stroke-width=".7" stroke-linejoin="round"/>
<path d="M23.5 6 C21.2 10.2 20.6 12 20.6 15 C20.6 17.6 22 19.6 23.8 19.8 C22.4 17 22.8 13 23.5 6 Z" fill="#F8D670" opacity=".85"/>
<path d="M24 11 C22.6 13.8 22.4 15.4 22.8 17.2 C23.8 16.2 24.2 14.6 24 11 Z" fill="#FFFDF2" opacity=".9"/>
<path d="M24 4.5 C24.4 7.4 24.4 9.6 24 11.5" fill="none" stroke="rgba(255,255,255,.6)" stroke-width=".7" stroke-linecap="round"/>
<path d="M16.5 22 L31.5 22 L29 30 L19 30 Z" fill="url(#f-torch-cup)" stroke="#3F2A0A" stroke-width="1" stroke-linejoin="round"/>
<ellipse cx="24" cy="22.2" rx="7.2" ry="2.2" fill="url(#f-torch-fuel)" stroke="#3F2A0A" stroke-width=".9"/>
<ellipse cx="22.6" cy="21.6" rx="2.4" ry=".8" fill="rgba(119,33,111,.6)"/>
<path d="M17.2 23.6 L30.8 23.6" fill="none" stroke="rgba(255,255,255,.55)" stroke-width=".7"/>
<path d="M19.4 27 L28.6 27" fill="none" stroke="rgba(255,255,255,.4)" stroke-width=".5"/>
<path d="M20.6 30 L18.4 22.6" fill="none" stroke="rgba(90,63,8,.5)" stroke-width=".7"/>
<rect x="18.6" y="29.4" width="10.8" height="3.6" rx="1.5" fill="url(#f-torch-cup)" stroke="#3F2A0A" stroke-width=".9"/>
<rect x="19.6" y="30.1" width="8.8" height="1" rx=".5" fill="rgba(255,255,255,.55)"/>
<rect x="20.8" y="32.6" width="6.4" height="12.2" rx="2.6" fill="url(#f-torch-handle)" stroke="#3F2A0A" stroke-width="1" stroke-linejoin="round"/>
<rect x="21.8" y="33.6" width="1.5" height="9.8" rx=".75" fill="rgba(255,255,255,.6)"/>
<rect x="21" y="36" width="6" height="1.5" rx=".75" fill="#5A3F08" opacity=".55"/>
<rect x="21" y="39.6" width="6" height="1.5" rx=".75" fill="#5A3F08" opacity=".55"/>
<path d="M21.4 43.4 L26.6 43.4" fill="none" stroke="#3F2A0A" stroke-width=".8" stroke-linecap="round"/>
<circle cx="24" cy="16.8" r="1.6" fill="url(#f-torch-flame)"/>
<circle cx="23.5" cy="16.2" r=".6" fill="#FFFDF2"/>
<circle cx="31" cy="9.5" r="1" fill="#FBE57E" stroke="#5A3F08" stroke-width=".3"/>
<circle cx="17.4" cy="12" r=".8" fill="#FBE57E" stroke="#5A3F08" stroke-width=".3"/>
</svg>
