<svg viewBox="0 0 48 48" width="100%" height="100%">
  <defs>
    <linearGradient id="ic-bin-body" x1="0" y1="0" x2="0" y2="1">
      <stop offset="0%"   stop-color="#FBF1D8"/>
      <stop offset="55%"  stop-color="#E2C988"/>
      <stop offset="100%" stop-color="#8E6A1F"/>
    </linearGradient>
    <linearGradient id="ic-bin-side" x1="0" y1="0" x2="1" y2="0">
      <stop offset="0%"   stop-color="rgba(70,45,10,.5)"/>
      <stop offset="14%"  stop-color="rgba(70,45,10,0)"/>
      <stop offset="86%"  stop-color="rgba(70,45,10,0)"/>
      <stop offset="100%" stop-color="rgba(70,45,10,.5)"/>
    </linearGradient>
    <radialGradient id="ic-bin-mouth" cx=".5" cy=".5" r=".55">
      <stop offset="0%"   stop-color="#1A1206"/>
      <stop offset="100%" stop-color="#3A2A0E"/>
    </radialGradient>
    <linearGradient id="ic-bin-rim" x1="0" y1="0" x2="0" y2="1">
      <stop offset="0%"   stop-color="#FFF7E0"/>
      <stop offset="100%" stop-color="#C9A858"/>
    </linearGradient>
    <clipPath id="ic-bin-clip">
      <path d="M9 14 L12 42 Q12.2 44.4 24 44.4 Q35.8 44.4 36 42 L39 14 Z"/>
    </clipPath>
  </defs>
  <path d="M7.5 11 L11.5 42 Q11.8 44.8 24 44.8 Q36.2 44.8 36.5 42 L40.5 11 Z" fill="url(#ic-bin-body)" stroke="#3F2E0F" stroke-width=".9" stroke-linejoin="round"/>
  <path d="M7.5 11 L11.5 42 Q11.8 44.8 24 44.8 Q36.2 44.8 36.5 42 L40.5 11 Z" fill="url(#ic-bin-side)"/>
  <ellipse cx="24" cy="11.5" rx="16" ry="3.6" fill="url(#ic-bin-mouth)" stroke="#3F2E0F" stroke-width=".9"/>
  <path d="M7.7 11.5 Q7.7 14 12.2 15.2 L36 15.2 Q40.3 14 40.3 11.5" fill="url(#ic-bin-rim)" stroke="#3F2E0F" stroke-width=".7" stroke-linejoin="round"/>
  <path d="M11 13.4 Q24 16 37 13.4" fill="none" stroke="rgba(255,255,255,.6)" stroke-width=".6"/>
  <g stroke="rgba(50,30,5,.55)" stroke-width=".7" fill="none" clip-path="url(#ic-bin-clip)">
    <path d="M13 17 L34.4 42"/>
    <path d="M16.5 17 L37 41"/>
    <path d="M20 17 L39 39.5"/>
    <path d="M9.6 17 L31 42"/>
    <path d="M35 17 L13.6 42"/>
    <path d="M31.5 17 L11 41"/>
    <path d="M28 17 L9 39.5"/>
    <path d="M38.4 17 L17 42"/>
  </g>
  <g stroke="rgba(255,250,220,.35)" stroke-width=".5" fill="none" clip-path="url(#ic-bin-clip)">
    <path d="M13.5 17.5 L34.9 42"/>
    <path d="M34.5 17.5 L13.1 42"/>
    <path d="M20.5 17.5 L39 39"/>
    <path d="M27.5 17.5 L9.4 39"/>
  </g>
  <path d="M11.7 42 Q24 45.6 36.3 42" fill="none" stroke="rgba(60,40,10,.55)" stroke-width=".7"/>
  <path d="M10 13.5 L13 39" fill="none" stroke="rgba(255,255,255,.55)" stroke-width=".8" stroke-linecap="round"/>
</svg>
