<svg viewBox="0 0 48 48" width="100%" height="100%">
<defs>
<radialGradient id="f-mesh-in" cx=".5" cy=".18" r=".95">
<stop offset="0" stop-color="#3D0B2C"/>
<stop offset="60%" stop-color="#2C001E"/>
<stop offset="100%" stop-color="#0A0008"/>
</radialGradient>
<linearGradient id="f-mesh-rim" x1="0" y1="0" x2="1" y2="0">
<stop offset="0" stop-color="#8C5F12"/>
<stop offset="0.25" stop-color="#FBF1D8"/>
<stop offset="0.6" stop-color="#D4B575"/>
<stop offset="1" stop-color="#5A3F08"/>
</linearGradient>
</defs>
<ellipse cx="24" cy="44.5" rx="13" ry="1.1" fill="rgba(0,0,0,.4)"/>
<g transform="translate(-8.4 -13.4625) scale(1.35)">
<path d="M11.6 17 L15 39.5 Q24 42 33 39.5 L36.4 17 Z" fill="url(#f-mesh-in)" stroke="#3F2A0A" stroke-width="1" stroke-linejoin="round"/>
<ellipse cx="24" cy="16.8" rx="12.6" ry="3.4" fill="url(#f-mesh-in)"/>
<g stroke="#C9892D" stroke-width="1" stroke-linecap="round" opacity=".95">
<path d="M11.7 16.1 L15 39.4"/>
<path d="M14.7 14.5 L17.2 39.6"/>
<path d="M17.8 13.8 L19.5 39.8"/>
<path d="M20.9 13.5 L21.7 39.9"/>
<path d="M24 13.4 L24 40"/>
<path d="M27.1 13.5 L26.3 39.9"/>
<path d="M30.2 13.8 L28.5 39.8"/>
<path d="M33.3 14.5 L30.8 39.6"/>
<path d="M36.3 16.1 L33 39.4"/>
</g>
<g stroke="#F8E0A0" stroke-width=".4" stroke-linecap="round" opacity=".55">
<path d="M14.5 14.6 L17 39.6"/>
<path d="M20.7 13.5 L21.5 39.9"/>
</g>
<g fill="none" stroke="#C9892D" stroke-width="1.2">
<ellipse cx="24" cy="23.5" rx="11.8" ry="2.9"/>
<ellipse cx="24" cy="30" rx="10.6" ry="2.6"/>
<ellipse cx="24" cy="36" rx="9.4" ry="2.2"/>
</g>
<g fill="none" stroke="rgba(255,247,228,.4)" stroke-width=".4">
<ellipse cx="24" cy="23.1" rx="11.6" ry="2.7"/>
<ellipse cx="24" cy="35.6" rx="9.2" ry="2"/>
</g>
<ellipse cx="24" cy="16.8" rx="12.6" ry="3.4" fill="none" stroke="url(#f-mesh-rim)" stroke-width="2.4"/>
<ellipse cx="24" cy="16.8" rx="12.6" ry="3.4" fill="none" stroke="rgba(255,255,255,.4)" stroke-width=".5"/>
<ellipse cx="24" cy="40" rx="9" ry="2.1" fill="none" stroke="url(#f-mesh-rim)" stroke-width="2"/>
<path d="M14 15.5 Q18 13.6 22 13.4" fill="none" stroke="rgba(255,255,255,.5)" stroke-width=".7" stroke-linecap="round"/>
</g>
</svg>
