<svg viewBox="0 0 48 48" width="100%" height="100%">
  <defs>
  <linearGradient id="ai-tv-body" x1="0" y1="0" x2="0" y2="1">
  <stop offset="0%" stop-color="#FBF1D8"/>
  <stop offset="55%" stop-color="#C9892D"/>
  <stop offset="100%" stop-color="#5A3F08"/>
  </linearGradient>
  <linearGradient id="ai-tv-screen" x1="0" y1="0" x2="0" y2="1">
  <stop offset="0%" stop-color="#3D0B2C"/>
  <stop offset="100%" stop-color="#1A0512"/>
  </linearGradient>
  </defs>
  <line x1="18" y1="9" x2="13" y2="2" stroke="#3F2A0A" stroke-width="1.2" stroke-linecap="round"/>
  <line x1="30" y1="9" x2="35" y2="2" stroke="#3F2A0A" stroke-width="1.2" stroke-linecap="round"/>
  <circle cx="13" cy="2" r=".8" fill="#3F2A0A"/>
  <circle cx="35" cy="2" r=".8" fill="#3F2A0A"/>
  <rect x="4" y="8" width="40" height="34" rx="3" fill="url(#ai-tv-body)" stroke="#3F2A0A" stroke-width=".9"/>
  <path d="M5 9 H43" stroke="rgba(255,255,255,.6)" stroke-width=".6"/>
  <path d="M7 13 Q24 11 39 13 V35 Q24 37 7 35 Z" fill="url(#ai-tv-screen)" stroke="#0A0306" stroke-width=".7" stroke-linejoin="round"/>
  <path d="M7.5 13.5 Q24 11.6 38.5 13.5" stroke="rgba(255,247,228,.18)" stroke-width=".5" fill="none"/>
  <g stroke="#0A0306" stroke-width=".25">
  <rect x="9" y="15.5" width="4" height="17" fill="#F8D670"/>
  <rect x="13" y="15.5" width="4" height="17" fill="#DD4814"/>
  <rect x="17" y="15.5" width="4" height="17" fill="#A8C268"/>
  <rect x="21" y="15.5" width="4" height="17" fill="#77216F"/>
  <rect x="25" y="15.5" width="4" height="17" fill="#5A7028"/>
  <rect x="29" y="15.5" width="4" height="17" fill="#E95420"/>
  <rect x="33" y="15.5" width="4" height="17" fill="#FBF1D8"/>
  </g>
  <path d="M9 16 H37" stroke="rgba(255,255,255,.4)" stroke-width=".4"/>
  <rect x="4" y="42" width="40" height="3" fill="#3F2A0A"/>
  <circle cx="40" cy="20" r="2.2" fill="#3F2A0A" stroke="#1A0F04" stroke-width=".4"/>
  <line x1="40" y1="18" x2="40" y2="20" stroke="#F8D670" stroke-width=".7"/>
  <circle cx="40" cy="28" r="2.2" fill="#3F2A0A" stroke="#1A0F04" stroke-width=".4"/>
  <line x1="40" y1="26" x2="40" y2="28" stroke="#F8D670" stroke-width=".7"/>
  </svg>
