<svg viewBox="0 0 48 48" width="100%" height="100%">
<defs>
<radialGradient id="f-typewriter-key-rim" cx=".38" cy=".34" r=".78">
<stop offset="0" stop-color="#FBF1D8"/>
<stop offset=".4" stop-color="#F8D670"/>
<stop offset=".75" stop-color="#C9892D"/>
<stop offset="1" stop-color="#5A3F08"/>
</radialGradient>
<radialGradient id="f-typewriter-key-face" cx=".42" cy=".4" r=".72">
<stop offset="0" stop-color="#77216F"/>
<stop offset=".5" stop-color="#2C001E"/>
<stop offset="1" stop-color="#0A0008"/>
</radialGradient>
<linearGradient id="f-typewriter-key-letter" x1="0" y1="0" x2="0" y2="1">
<stop offset="0" stop-color="#FBF1D8"/>
<stop offset=".4" stop-color="#F8D670"/>
<stop offset="1" stop-color="#C9892D"/>
</linearGradient>
<linearGradient id="f-typewriter-key-collar" x1="0" y1="0" x2="0" y2="1">
<stop offset="0" stop-color="#D4B575"/>
<stop offset="1" stop-color="#5A3F08"/>
</linearGradient>
</defs>
<ellipse cx="24" cy="44.5" rx="13" ry=".9" fill="rgba(0,0,0,.4)"/>
<path d="M16 40 h16 l-2 4 h-12 z" fill="url(#f-typewriter-key-collar)" stroke="#3F2A0A" stroke-width=".8" stroke-linejoin="round"/>
<rect x="18" y="41" width="12" height="1.8" rx=".6" fill="#E95420" stroke="#5A1A04" stroke-width=".3"/>
<circle cx="24" cy="22" r="20" fill="#1F0F04"/>
<circle cx="24" cy="22" r="19.2" fill="url(#f-typewriter-key-rim)"/>
<circle cx="24" cy="22" r="17.6" fill="none" stroke="rgba(255,255,255,.6)" stroke-width="1"/>
<circle cx="24" cy="22" r="15" fill="#1A0512"/>
<circle cx="24" cy="22" r="14" fill="url(#f-typewriter-key-face)"/>
<path d="M24 12.5 l7.5 19.5 h-4.4 l-1.4 -3.9 h-3.4 l-1.4 3.9 h-4.4 z m0 7.2 l-1.4 4.6 h2.8 z" fill="url(#f-typewriter-key-letter)" stroke="#3F2A0A" stroke-width=".7" stroke-linejoin="round"/>
<path d="M14 11 A14 14 0 0 1 34 9" fill="none" stroke="rgba(255,247,228,.4)" stroke-width="1.2"/>
<circle cx="17.5" cy="15" r="2" fill="rgba(255,247,228,.45)"/>
</svg>
