<svg viewBox="0 0 48 48" width="100%" height="100%">
<defs>
<linearGradient id="f-typed-page-paper" x1="0" y1="0" x2="0" y2="1">
<stop offset="0%" stop-color="#FCFBF4"/>
<stop offset="60%" stop-color="#F3ECD6"/>
<stop offset="100%" stop-color="#D6C79F"/>
</linearGradient>
<linearGradient id="f-typed-page-fold" x1="0" y1="0" x2="1" y2="1">
<stop offset="0%" stop-color="#FBF1D8"/>
<stop offset="55%" stop-color="#C9892D"/>
<stop offset="100%" stop-color="#6A4A12"/>
</linearGradient>
<linearGradient id="f-typed-page-edge" x1="0" y1="0" x2="0" y2="1">
<stop offset="0%" stop-color="#D4B575"/>
<stop offset="100%" stop-color="#5A3F08"/>
</linearGradient>
</defs>
<ellipse cx="24" cy="44" rx="12" ry=".8" fill="rgba(0,0,0,.4)"/>
<path d="M9 5 L30 5 L39 14 L39 43 L9 43 Z" fill="url(#f-typed-page-edge)" stroke="#3F2A0A" stroke-width=".9" stroke-linejoin="round" transform="translate(1.3 1.3)" opacity=".5"/>
<path d="M9 5 L30 5 L39 14 L39 43 L9 43 Z" fill="url(#f-typed-page-paper)" stroke="#3F2A0A" stroke-width="1" stroke-linejoin="round"/>
<path d="M10 6 L29.6 6" stroke="rgba(255,255,255,.75)" stroke-width=".8"/>
<path d="M10 6 L10 42" stroke="rgba(255,255,255,.5)" stroke-width=".6"/>
<rect x="13" y="10" width="13" height="3" rx="1.3" fill="#F8D670" stroke="#5A3F08" stroke-width=".5"/>
<path d="M13.6 10.7 H24.5" stroke="rgba(255,255,255,.5)" stroke-width=".4"/>
<g stroke="#2C001E" stroke-linecap="round">
<line x1="13" y1="18.5" x2="35" y2="18.5" stroke-width="2.2"/>
<line x1="13" y1="24.5" x2="33" y2="24.5" stroke-width="2.2"/>
<line x1="13" y1="30.5" x2="35" y2="30.5" stroke-width="2.2"/>
<line x1="13" y1="36.5" x2="30" y2="36.5" stroke-width="2.2"/>
</g>
<g stroke="#5E2750" stroke-linecap="round" opacity=".45">
<line x1="13" y1="17.6" x2="35" y2="17.6" stroke-width=".8"/>
<line x1="13" y1="23.6" x2="33" y2="23.6" stroke-width=".8"/>
<line x1="13" y1="29.6" x2="35" y2="29.6" stroke-width=".8"/>
</g>
<line x1="13" y1="36.5" x2="21" y2="36.5" stroke="#E95420" stroke-width="2.2" stroke-linecap="round"/>
<path d="M30 5 L30 14 L39 14 Z" fill="url(#f-typed-page-fold)" stroke="#3F2A0A" stroke-width="1" stroke-linejoin="round"/>
<path d="M30.6 5.8 L38.2 13.4" stroke="rgba(255,255,255,.55)" stroke-width=".7"/>
</svg>
