<svg viewBox="0 0 48 48" width="100%" height="100%">
<defs>
<linearGradient id="f-upright-piano-cab" x1="0" y1="0" x2="0" y2="1">
<stop offset="0" stop-color="#FBF1D8"/>
<stop offset="0.18" stop-color="#F8E0A0"/>
<stop offset="0.52" stop-color="#D4B575"/>
<stop offset="0.82" stop-color="#C9892D"/>
<stop offset="1" stop-color="#5A3F08"/>
</linearGradient>
<linearGradient id="f-upright-piano-lid" x1="0" y1="0" x2="0" y2="1">
<stop offset="0" stop-color="#FBF1D8"/>
<stop offset="0.5" stop-color="#D4B575"/>
<stop offset="1" stop-color="#8A5F18"/>
</linearGradient>
<linearGradient id="f-upright-piano-lidedge" x1="0" y1="0" x2="0" y2="1">
<stop offset="0" stop-color="#C9892D"/>
<stop offset="1" stop-color="#3F2A0A"/>
</linearGradient>
<linearGradient id="f-upright-piano-trim" x1="0" y1="0" x2="1" y2="0">
<stop offset="0" stop-color="#6A4A12"/>
<stop offset="0.5" stop-color="#C9892D"/>
<stop offset="1" stop-color="#3F2A0A"/>
</linearGradient>
<radialGradient id="f-upright-piano-panel" cx="0.38" cy="0.34" r="0.82">
<stop offset="0" stop-color="#77216F"/>
<stop offset="0.56" stop-color="#2C001E"/>
<stop offset="1" stop-color="#0A0008"/>
</radialGradient>
<linearGradient id="f-upright-piano-white" x1="0" y1="0" x2="0" y2="1">
<stop offset="0" stop-color="#FFFFFF"/>
<stop offset="0.6" stop-color="#FCFBF4"/>
<stop offset="1" stop-color="#D2C9AE"/>
</linearGradient>
<linearGradient id="f-upright-piano-black" x1="0" y1="0" x2="0" y2="1">
<stop offset="0" stop-color="#3D0B2C"/>
<stop offset="0.55" stop-color="#1A0512"/>
<stop offset="1" stop-color="#0A0306"/>
</linearGradient>
<linearGradient id="f-upright-piano-pedal" x1="0" y1="0" x2="0" y2="1">
<stop offset="0" stop-color="#F8E0A0"/>
<stop offset="0.5" stop-color="#C9892D"/>
<stop offset="1" stop-color="#3F2A0A"/>
</linearGradient>
</defs>
<ellipse cx="24" cy="45.4" rx="16" ry="1" fill="rgba(0,0,0,.4)"/>
<path d="M5.6 8.6 L41 3.6 L42.4 5.6 L7 10.6 Z" fill="url(#f-upright-piano-lid)" stroke="#3F2A0A" stroke-width="1" stroke-linejoin="round"/>
<path d="M7 8.7 L40.4 4" stroke="rgba(255,255,255,.7)" stroke-width="0.6"/>
<path d="M6.2 10.2 L42 6.2 L42 11.6 L6.2 14.2 Z" fill="url(#f-upright-piano-lidedge)" stroke="#3F2A0A" stroke-width="1" stroke-linejoin="round"/>
<path d="M7.6 10.6 L40.6 6.9" stroke="rgba(255,247,228,.45)" stroke-width="0.6"/>
<rect x="6" y="13.4" width="36" height="24.4" rx="2.6" fill="url(#f-upright-piano-cab)" stroke="#3F2A0A" stroke-width="1.1" stroke-linejoin="round"/>
<rect x="7.4" y="14.5" width="33.2" height="2" rx="1" fill="rgba(255,255,255,.6)"/>
<rect x="6.8" y="14.7" width="1.6" height="20" rx="0.8" fill="rgba(255,255,255,.4)"/>
<rect x="9.4" y="17" width="12.6" height="9.6" rx="1.5" fill="url(#f-upright-piano-panel)" stroke="#1A0512" stroke-width="1" stroke-linejoin="round"/>
<rect x="26" y="17" width="12.6" height="9.6" rx="1.5" fill="url(#f-upright-piano-panel)" stroke="#1A0512" stroke-width="1" stroke-linejoin="round"/>
<rect x="10.3" y="17.7" width="10.8" height="1" rx="0.5" fill="rgba(255,247,228,.3)"/>
<rect x="26.9" y="17.7" width="10.8" height="1" rx="0.5" fill="rgba(255,247,228,.3)"/>
<circle cx="12.4" cy="19.5" r="1.4" fill="rgba(255,247,228,.4)"/>
<circle cx="29" cy="19.5" r="1.4" fill="rgba(255,247,228,.4)"/>
<path d="M15.6 19.3 L15.6 24.4" fill="none" stroke="#F8D670" stroke-width="1.4" stroke-linecap="round"/>
<path d="M15.6 19.3 L18.4 20.2 L18.4 21.7 L15.6 20.8" fill="#F8D670" stroke="#9A7012" stroke-width="0.3" stroke-linejoin="round"/>
<ellipse cx="14.4" cy="24.5" rx="2.2" ry="1.7" fill="#F8D670" stroke="#9A7012" stroke-width="0.4"/>
<path d="M32.1 19.3 L32.1 24.4" fill="none" stroke="#E95420" stroke-width="1.4" stroke-linecap="round"/>
<path d="M32.1 19.3 L34.9 20.2 L34.9 21.7 L32.1 20.8" fill="#E95420" stroke="#5A1A04" stroke-width="0.3" stroke-linejoin="round"/>
<ellipse cx="30.9" cy="24.5" rx="2.2" ry="1.7" fill="#E95420" stroke="#5A1A04" stroke-width="0.4"/>
<rect x="6.4" y="28" width="35.2" height="3.4" rx="1.3" fill="url(#f-upright-piano-trim)" stroke="#3F2A0A" stroke-width="0.9" stroke-linejoin="round"/>
<rect x="7.4" y="28.5" width="33.2" height="1" rx="0.5" fill="rgba(255,255,255,.55)"/>
<g stroke="#6A4A12" stroke-width="0.55" stroke-linejoin="round">
<rect x="7.6" y="31.7" width="4.6" height="9.2" rx="0.8" fill="url(#f-upright-piano-white)"/>
<rect x="12.2" y="31.7" width="4.6" height="9.2" rx="0.8" fill="url(#f-upright-piano-white)"/>
<rect x="16.8" y="31.7" width="4.6" height="9.2" rx="0.8" fill="url(#f-upright-piano-white)"/>
<rect x="21.4" y="31.7" width="4.6" height="9.2" rx="0.8" fill="url(#f-upright-piano-white)"/>
<rect x="26" y="31.7" width="4.6" height="9.2" rx="0.8" fill="url(#f-upright-piano-white)"/>
<rect x="30.6" y="31.7" width="4.6" height="9.2" rx="0.8" fill="url(#f-upright-piano-white)"/>
<rect x="35.2" y="31.7" width="4.6" height="9.2" rx="0.8" fill="url(#f-upright-piano-white)"/>
</g>
<g fill="rgba(255,255,255,.7)">
<rect x="8.3" y="32.4" width="3.2" height="1" rx="0.5"/>
<rect x="12.9" y="32.4" width="3.2" height="1" rx="0.5"/>
<rect x="17.5" y="32.4" width="3.2" height="1" rx="0.5"/>
<rect x="22.1" y="32.4" width="3.2" height="1" rx="0.5"/>
<rect x="26.7" y="32.4" width="3.2" height="1" rx="0.5"/>
<rect x="31.3" y="32.4" width="3.2" height="1" rx="0.5"/>
<rect x="35.9" y="32.4" width="3.2" height="1" rx="0.5"/>
</g>
<g fill="url(#f-upright-piano-black)" stroke="#0A0306" stroke-width="0.45" stroke-linejoin="round">
<rect x="10.4" y="31.7" width="2.9" height="5.9" rx="0.6"/>
<rect x="15" y="31.7" width="2.9" height="5.9" rx="0.6"/>
<rect x="24.2" y="31.7" width="2.9" height="5.9" rx="0.6"/>
<rect x="28.8" y="31.7" width="2.9" height="5.9" rx="0.6"/>
<rect x="33.4" y="31.7" width="2.9" height="5.9" rx="0.6"/>
</g>
<rect x="6.4" y="41.2" width="35.2" height="3.2" rx="1.1" fill="url(#f-upright-piano-trim)" stroke="#3F2A0A" stroke-width="0.9" stroke-linejoin="round"/>
<rect x="7.4" y="41.6" width="33.2" height="0.9" rx="0.45" fill="rgba(255,255,255,.5)"/>
<rect x="22.4" y="44.2" width="3.2" height="1.4" rx="0.6" fill="url(#f-upright-piano-pedal)" stroke="#3F2A0A" stroke-width="0.6"/>
</svg>
