<svg viewBox="0 0 48 48" width="100%" height="100%">
  <defs>
  <linearGradient id="f-view-camera-wood" x1="0" y1="0" x2="0" y2="1">
  <stop offset="0%" stop-color="#FBF1D8"/>
  <stop offset="55%" stop-color="#C9892D"/>
  <stop offset="100%" stop-color="#5A3F08"/>
  </linearGradient>
  <linearGradient id="f-view-camera-board" x1="0" y1="0" x2="0" y2="1">
  <stop offset="0%" stop-color="#F8E0A0"/>
  <stop offset="55%" stop-color="#D4B575"/>
  <stop offset="100%" stop-color="#6A4A12"/>
  </linearGradient>
  <linearGradient id="f-view-camera-bellows" x1="0" y1="0" x2="1" y2="0">
  <stop offset="0%" stop-color="#1A0512"/>
  <stop offset="50%" stop-color="#3D0B2C"/>
  <stop offset="100%" stop-color="#1A0512"/>
  </linearGradient>
  <linearGradient id="f-view-camera-leg" x1="0" y1="0" x2="0" y2="1">
  <stop offset="0%" stop-color="#FBF1D8"/>
  <stop offset="55%" stop-color="#C9892D"/>
  <stop offset="100%" stop-color="#5A3F08"/>
  </linearGradient>
  <radialGradient id="f-view-camera-lens" cx=".38" cy=".35" r=".7">
  <stop offset="0%" stop-color="#77216F"/>
  <stop offset="55%" stop-color="#2C001E"/>
  <stop offset="100%" stop-color="#0A0008"/>
  </radialGradient>
  </defs>
  <ellipse cx="24" cy="44.4" rx="13" ry=".8" fill="rgba(0,0,0,.4)"/>
  <path d="M24 28 L12 43" stroke="#3F2A0A" stroke-width="2.6" stroke-linecap="round"/>
  <path d="M24 28 L12 43" stroke="url(#f-view-camera-leg)" stroke-width="1.6" stroke-linecap="round"/>
  <path d="M24 28 L36 43" stroke="#3F2A0A" stroke-width="2.6" stroke-linecap="round"/>
  <path d="M24 28 L36 43" stroke="url(#f-view-camera-leg)" stroke-width="1.6" stroke-linecap="round"/>
  <path d="M24 28 L24 42" stroke="#3F2A0A" stroke-width="2.6" stroke-linecap="round"/>
  <path d="M24 28 L24 42" stroke="url(#f-view-camera-leg)" stroke-width="1.6" stroke-linecap="round"/>
  <circle cx="18" cy="35.5" r="1.1" fill="#5A3F08" stroke="#1A0F04" stroke-width=".3"/>
  <circle cx="30" cy="35.5" r="1.1" fill="#5A3F08" stroke="#1A0F04" stroke-width=".3"/>
  <rect x="18" y="25" width="12" height="4" rx="1.2" fill="url(#f-view-camera-wood)" stroke="#3F2A0A" stroke-width=".8"/>
  <path d="M19 26 H29" stroke="rgba(255,255,255,.6)" stroke-width=".5"/>
  <rect x="29" y="8" width="6" height="18" rx="1.6" fill="url(#f-view-camera-wood)" stroke="#3F2A0A" stroke-width=".9"/>
  <path d="M30 9 H34" stroke="rgba(255,255,255,.65)" stroke-width=".5"/>
  <rect x="30.6" y="11" width="3.8" height="8" rx=".6" fill="#2C001E" stroke="#0A0306" stroke-width=".5"/>
  <path d="M16 11 L29 9 L29 25 L16 23 Z" fill="url(#f-view-camera-bellows)" stroke="#1A0F04" stroke-width=".8" stroke-linejoin="round"/>
  <path d="M19 10.5 L19 23.5" stroke="#5E2750" stroke-width=".5"/>
  <path d="M21.5 10.2 L21.5 23.8" stroke="#1A0512" stroke-width=".5"/>
  <path d="M24 9.9 L24 24.1" stroke="#5E2750" stroke-width=".5"/>
  <path d="M26.5 9.6 L26.5 24.4" stroke="#1A0512" stroke-width=".5"/>
  <rect x="9" y="9" width="8" height="16" rx="2" fill="url(#f-view-camera-board)" stroke="#3F2A0A" stroke-width=".9"/>
  <path d="M10 10.4 H16" stroke="rgba(255,255,255,.65)" stroke-width=".5"/>
  <circle cx="13" cy="17" r="5.4" fill="#C9892D" stroke="#3F2A0A" stroke-width=".9"/>
  <circle cx="13" cy="17" r="4.4" fill="none" stroke="rgba(255,247,228,.45)" stroke-width=".5"/>
  <circle cx="13" cy="17" r="3.6" fill="#1A0F04" stroke="#0A0604" stroke-width=".5"/>
  <circle cx="13" cy="17" r="2.7" fill="url(#f-view-camera-lens)" stroke="#0A0008" stroke-width=".4"/>
  <ellipse cx="11.9" cy="15.9" rx="1.1" ry=".7" fill="rgba(255,247,228,.5)" transform="rotate(-30 11.9 15.9)"/>
  <circle cx="11.6" cy="15.7" r=".5" fill="rgba(255,247,228,.75)"/>
  <circle cx="13" cy="9.4" r="1.7" fill="#DD4814" stroke="#5A1A04" stroke-width=".5"/>
  <circle cx="12.6" cy="9" r=".55" fill="rgba(255,247,228,.55)"/>
  <rect x="29" y="20.5" width="2.6" height="2.6" rx=".6" fill="#F8D670" stroke="#5A3F08" stroke-width=".4"/>
</svg>
