<svg viewBox="0 0 48 48" width="100%" height="100%">
  <defs>
    <linearGradient id="f-wall-calendar-frame" x1="0" y1="0" x2="0" y2="1">
      <stop offset="0%" stop-color="#FBF1D8"/>
      <stop offset="55%" stop-color="#D4B575"/>
      <stop offset="100%" stop-color="#6A4A12"/>
    </linearGradient>
    <linearGradient id="f-wall-calendar-header" x1="0" y1="0" x2="0" y2="1">
      <stop offset="0%" stop-color="#5E2750"/>
      <stop offset="100%" stop-color="#2C001E"/>
    </linearGradient>
    <linearGradient id="f-wall-calendar-paper" x1="0" y1="0" x2="0" y2="1">
      <stop offset="0%" stop-color="#FCFBF4"/>
      <stop offset="100%" stop-color="#FBEED4"/>
    </linearGradient>
    <radialGradient id="f-wall-calendar-ring" cx=".38" cy=".35" r=".8">
      <stop offset="0%" stop-color="#FBF1D8"/>
      <stop offset="55%" stop-color="#C9892D"/>
      <stop offset="100%" stop-color="#5A3F08"/>
    </radialGradient>
  </defs>
  <ellipse cx="24" cy="45.4" rx="13" ry=".8" fill="rgba(0,0,0,.4)"/>
  <rect x="5" y="6" width="38" height="38" rx="4" fill="url(#f-wall-calendar-frame)" stroke="#3F2A0A" stroke-width=".9"/>
  <path d="M7 8 H41" stroke="rgba(255,255,255,.65)" stroke-width=".6"/>
  <rect x="8" y="9" width="32" height="9" rx="2" fill="url(#f-wall-calendar-header)" stroke="#1A0512" stroke-width=".7"/>
  <path d="M9.5 10.6 H38.5" stroke="rgba(255,247,228,.25)" stroke-width=".5"/>
  <circle cx="16" cy="9" r="2.1" fill="none" stroke="url(#f-wall-calendar-ring)" stroke-width="1.4"/>
  <circle cx="32" cy="9" r="2.1" fill="none" stroke="url(#f-wall-calendar-ring)" stroke-width="1.4"/>
  <rect x="8" y="19" width="32" height="22" rx="1.4" fill="url(#f-wall-calendar-paper)" stroke="#5A3F08" stroke-width=".7"/>
  <rect x="28.2" y="26.6" width="5.6" height="5" rx="1" fill="#E95420" stroke="#5A1A04" stroke-width=".5"/>
  <g stroke="#C9A86A" stroke-width=".4">
    <path d="M13.3 19.6 V40.4"/>
    <path d="M18.6 19.6 V40.4"/>
    <path d="M23.9 19.6 V40.4"/>
    <path d="M29.2 19.6 V40.4"/>
    <path d="M34.5 19.6 V40.4"/>
  </g>
  <g stroke="#C9A86A" stroke-width=".4">
    <path d="M8.6 26.2 H39.4"/>
    <path d="M8.6 31.4 H39.4"/>
    <path d="M8.6 36.6 H39.4"/>
  </g>
  <path d="M8.6 23.6 H39.4" stroke="#9A7B3A" stroke-width=".5"/>
  <g fill="#77216F">
    <circle cx="10.6" cy="21.6" r=".7"/>
    <circle cx="15.9" cy="21.6" r=".7"/>
    <circle cx="21.2" cy="21.6" r=".7"/>
    <circle cx="26.5" cy="21.6" r=".7"/>
    <circle cx="31.8" cy="21.6" r=".7"/>
    <circle cx="37.1" cy="21.6" r=".7"/>
  </g>
  <circle cx="31" cy="29.1" r="1.4" fill="#F8D670" stroke="#5A1A04" stroke-width=".3"/>
  <path d="M9 42 H39" stroke="rgba(0,0,0,.25)" stroke-width=".5"/>
</svg>
