<svg viewBox="0 0 48 48" width="100%" height="100%">
  <defs>
  <linearGradient id="ai-wl2-leather" x1="0" y1="0" x2="0" y2="1">
  <stop offset="0%" stop-color="#8C5F12"/>
  <stop offset="100%" stop-color="#2A1A04"/>
  </linearGradient>
  </defs>
  <ellipse cx="24" cy="43" rx="20" ry="1.4" fill="rgba(0,0,0,.35)"/>
  <path d="M3 13 H45 V40 Q45 42 43 42 H5 Q3 42 3 40 Z" fill="url(#ai-wl2-leather)" stroke="#1A0F04" stroke-width=".9" stroke-linejoin="round"/>
  <line x1="24" y1="13" x2="24" y2="42" stroke="#1A0F04" stroke-width=".8"/>
  <path d="M4 14 H44" stroke="rgba(255,247,228,.35)" stroke-width=".5"/>
  <path d="M5 16 H43" stroke="#F8D670" stroke-width=".4" stroke-dasharray="1.4 .8"/>
  <path d="M5 39 H43" stroke="#F8D670" stroke-width=".4" stroke-dasharray="1.4 .8"/>
  <g stroke="#1A0F04" stroke-width=".4">
  <line x1="5" y1="27" x2="23" y2="27"/>
  <line x1="5" y1="30" x2="23" y2="30"/>
  </g>
  <rect x="5" y="20" width="17" height="6" rx=".4" fill="#DD4814" stroke="#5A1A04" stroke-width=".4"/>
  <rect x="5" y="20" width="17" height="1" fill="rgba(255,247,228,.5)"/>
  <rect x="7" y="22" width="4" height="2.4" fill="#F8D670" stroke="#3F2A0A" stroke-width=".3"/>
  <line x1="13" y1="23.4" x2="20" y2="23.4" stroke="#FBF1D8" stroke-width=".4"/>
  <rect x="5" y="28" width="17" height="6" rx=".4" fill="#FCFBF4" stroke="#5A3F08" stroke-width=".4"/>
  <circle cx="8" cy="31" r="1.4" fill="#D89460"/>
  <line x1="10.5" y1="30" x2="20" y2="30" stroke="#5A3F08" stroke-width=".5"/>
  <line x1="10.5" y1="32" x2="18" y2="32" stroke="#9A8870" stroke-width=".4"/>
  <rect x="25" y="18" width="18" height="20" rx=".4" fill="#3D2A0A" stroke="#1A0F04" stroke-width=".5"/>
  <rect x="26" y="17" width="16" height="9" fill="#A8C268" stroke="#3F5A18" stroke-width=".4"/>
  <rect x="26" y="17" width="16" height="1.2" fill="rgba(255,255,255,.4)"/>
  <circle cx="29" cy="22" r="1.4" fill="#3F5A18"/>
  <text x="38.5" y="23.5" text-anchor="middle" font-family="Ubuntu, sans-serif" font-weight="700" font-size="4" fill="#3F5A18">$50</text>
  <circle cx="38" cy="35" r="3" fill="#F8D670" stroke="#5A3F08" stroke-width=".4"/>
  <text x="38" y="37" text-anchor="middle" font-family="Ubuntu, sans-serif" font-weight="700" font-size="3.4" fill="#5A3F08">$</text>
  </svg>
