<svg viewBox="0 0 48 48" width="100%" height="100%">
  <defs>
  <radialGradient id="ai-wx-sun" cx=".4" cy=".4" r=".7">
  <stop offset="0%" stop-color="#FFF7CC"/>
  <stop offset="65%" stop-color="#F8D670"/>
  <stop offset="100%" stop-color="#DD4814"/>
  </radialGradient>
  <linearGradient id="ai-wx-cloud" x1="0" y1="0" x2="0" y2="1">
  <stop offset="0%" stop-color="#FCFBF4"/>
  <stop offset="100%" stop-color="#A89D80"/>
  </linearGradient>
  </defs>
  <circle cx="17" cy="17" r="7.5" fill="url(#ai-wx-sun)" stroke="#7A1F08" stroke-width=".5"/>
  <g stroke="#F8D670" stroke-width="1.6" stroke-linecap="round">
  <line x1="17" y1="3" x2="17" y2="7" transform="rotate(0 17 17)"/>
  <line x1="17" y1="3" x2="17" y2="7" transform="rotate(45 17 17)"/>
  <line x1="17" y1="3" x2="17" y2="7" transform="rotate(90 17 17)"/>
  <line x1="17" y1="3" x2="17" y2="7" transform="rotate(135 17 17)"/>
  <line x1="17" y1="3" x2="17" y2="7" transform="rotate(180 17 17)"/>
  <line x1="17" y1="3" x2="17" y2="7" transform="rotate(225 17 17)"/>
  <line x1="17" y1="3" x2="17" y2="7" transform="rotate(270 17 17)"/>
  <line x1="17" y1="3" x2="17" y2="7" transform="rotate(315 17 17)"/>
  </g>
  <circle cx="14" cy="14" r="2.2" fill="rgba(255,255,255,.55)"/>
  <path d="M13 32 C 13 27 17 26 20 27 C 21 23 27 23 29 26 C 33 25 39 28 38 33 C 41 33 42 36 40 38 C 40 41 37 41 35 41 H17 C 14 41 11 40 11 37 C 10 35 11 33 13 32 Z" fill="url(#ai-wx-cloud)" stroke="#5A4F38" stroke-width=".8" stroke-linejoin="round"/>
  <path d="M16 28 Q 24 26 33 28" stroke="rgba(255,255,255,.7)" stroke-width=".5" fill="none"/>
  <path d="M12 40 H39" stroke="rgba(0,0,0,.18)" stroke-width=".5"/>
  </svg>
